/* XPM */
static char *_[] = {
/* columns rows colors chars-per-pixel */
"90 90 182 2 ",
"   c #0E0F4B",
".  c #100F4D",
"X  c #121152",
"o  c #1F1F5E",
"O  c #201F5F",
"+  c #1F205E",
"@  c #22225C",
"#  c #232257",
"$  c #1D1E61",
"%  c #1F1F7A",
"&  c #1F2062",
"*  c #1F207A",
"=  c #252464",
"-  c #24246B",
";  c #282769",
":  c #2A2A6C",
">  c #282767",
",  c #262672",
"<  c #272974",
"1  c #2C2D74",
"2  c #27267C",
"3  c #29277B",
"4  c #27287C",
"5  c #2C2C7B",
"6  c #282774",
"7  c #312F77",
"8  c #302E7E",
"9  c #2F3275",
"0  c #2F3279",
"q  c #323376",
"w  c #323278",
"e  c #38377B",
"r  c #37387B",
"t  c #39397C",
"y  c #2B2B82",
"u  c #2E2D88",
"i  c #302D86",
"p  c #2F3181",
"a  c #343481",
"s  c #383780",
"d  c #3B3A80",
"f  c #3D3E9D",
"g  c #3C3D92",
"h  c #3C3EA2",
"j  c #3D409B",
"k  c #5E5E86",
"l  c #5D5D8D",
"z  c #404197",
"x  c #43439C",
"c  c #4C4C9F",
"v  c #68678E",
"b  c #676790",
"n  c #696690",
"m  c #696992",
"M  c #6C6B9B",
"N  c #77779D",
"B  c #4344A4",
"V  c #4847AC",
"C  c #4A4AAD",
"Z  c #5050A7",
"A  c #5D5EA1",
"S  c #4D4CB2",
"D  c #4F4FB9",
"F  c #504EB7",
"G  c #4F50B5",
"H  c #5352B5",
"J  c #5654BC",
"K  c #5855BC",
"L  c #5B5BBC",
"P  c #6463A7",
"I  c #7676A2",
"U  c #7B7BA4",
"Y  c #6A6AB6",
"T  c #6262BF",
"R  c #6B6BBB",
"E  c #7776B3",
"W  c #7676BB",
"Q  c #7877B9",
"!  c #7778B9",
"~  c #7979BB",
"^  c #5654C0",
"/  c #5B5AC4",
"(  c #5A59C9",
")  c #5957C5",
"_  c #5E5DDA",
"`  c #605EC2",
"'  c #615EDE",
"]  c #6363C5",
"[  c #6B6BC2",
"{  c #6364CA",
"}  c #6D6FCF",
"|  c #7A7AC2",
" . c #7777C9",
".. c #7977CB",
"X. c #7878C9",
"o. c #7778CC",
"O. c #6C6DD3",
"+. c #6463DC",
"@. c #6866DB",
"#. c #6A69DB",
"$. c #6664D5",
"%. c #716FDE",
"&. c #7272D6",
"*. c #5F5DE0",
"=. c #615FE2",
"-. c #6362E3",
";. c #6866E3",
":. c #6668E3",
">. c #6C6BE2",
",. c #6664E8",
"<. c #6965E9",
"1. c #6968E8",
"2. c #716DE0",
"3. c #7E7DF7",
"4. c #817FF4",
"5. c #817FFB",
"6. c #7E80C1",
"7. c #9392AC",
"8. c #8F8DB1",
"9. c #8584B3",
"0. c #918FB2",
"q. c #8F90B1",
"w. c #9291B3",
"e. c #9999B9",
"r. c #9997B2",
"t. c #8786CA",
"y. c #8989CA",
"u. c #9191CA",
"i. c #8585D6",
"p. c #8684DA",
"a. c #9898D6",
"s. c #9696D9",
"d. c #9897D9",
"f. c #9998D9",
"g. c #A4A4C5",
"h. c #A8A8C8",
"j. c #A8A7C8",
"k. c #B0B0CF",
"l. c #A3A2D8",
"z. c #B3B4D1",
"x. c #B9B9D3",
"c. c #8180F7",
"v. c #8887F4",
"b. c #8B89F5",
"n. c #8282FD",
"m. c #8987F8",
"M. c #8C8BFD",
"N. c #9593FC",
"B. c #9B9AFE",
"V. c #A19FFB",
"C. c #A3A2F5",
"Z. c #A3A3FD",
"A. c #A8A5FD",
"S. c #ADADFF",
"D. c #B1AEFF",
"F. c #AFB0FF",
"G. c #B7B6F7",
"H. c #B1B0FF",
"J. c #B8B7FA",
"K. c #BDBDFD",
"L. c #B7B8F8",
"P. c #C1BEFF",
"I. c #BFC0FE",
"U. c #C2C3D3",
"Y. c #C7C8E1",
"T. c #CCCCE5",
"R. c #C4C4FE",
"E. c #C8C7FF",
"W. c #CBCBFF",
"Q. c #D3D3FF",
"!. c #DDDCFF",
"~. c #D9DAF2",
"^. c #E3E4F6",
"/. c #E5E6F9",
"(. c #EAE7FB",
"). c #E7E8FA",
"_. c #EDECFD",
"`. c #F0EDFF",
"'. c #EFF2FB",
"]. c #F6F6FF",
"[. c #F6F8FF",
"{. c #FDFDFF",
/* pixels */
"w w w w w w w w w w 7 w w w w w w w w w q w 7 w w w w q w q q w q w q q w w w w w w w w w w w w w w w w w w w q 7 w 8 w w 9 9 w w w w q q q 9 9 q w w w w w w w w w 7 w w q w w w w ",
"w w w w w w q w 7 q w w w q q w 7 q w w 7 w q w w w w w w w w w w w w w w w w w w w w w w w w w w w w 8 w 7 w w w w w w 9 w w w w w 8 q q q w 9 w w w w w w w q q w w w w w w w w w ",
"w w w w w 7 w w w w w w w w 7 w w w w w w w q w w q w w w w w w w w w w w w w 0 w w w w w w w w w w w w e 8 w w w 8 w w w 9 9 w w w w w w 8 w w w w w w q 7 w q 7 w w q w w q 7 w q ",
"w w w w q w w q w w w q q w w w w w q w w w w w w w w 7 w 8 w w w w w w w w 8 w w w w w w w w w w w w w w w w w w e w w w 0 w w w w w w w e w 0 w w w w w w w w w w w w w w w w w w ",
"w w w w q 7 w w 7 q w w w w q 7 w q 7 w w w q w w w w w w w w w w 7 q 7 w w w w w w w q w w w w w w 7 w w w 7 7 w w w w w w w w q q w w w w w 0 w w w w 7 w w w q w w q q w w 7 w w ",
"q w w w w w 7 w w w w q w w w w w w w w w w 7 w w q q w w w s e e e e e w e e e e e w e w e e w e e e w e e e e e e w e e 0 w w w q q q w q q q w w w 9 w w 7 w 7 w w w w w w w w 7 ",
"w w w q w w q w w w w w w w w w q w w 7 w w w w 7 w w w w 5 = = = = = = = = = = > = = = = = = = = = = = = = = = = = = = 1 r w w w w w 0 w q q q w w w w w w w w w w w w w q q w w q ",
"w 7 w w w w w w w w w 7 w q w w w w w w w q q w w w w w ; l ~.Y.T.T.T.T.T.T.T.T.T.T.T.T.T.T.T.T.T.T.T.T.T.T.T.T.T.T.Y.~.l - r w w w w w 0 r w w q w w q w w q w w w w 7 w w w w w w ",
"w w w w w 7 q w w q q w w w w w w w w w w w w w w w w e @ v {.'.].[.[.[.[.[.].[.].[.].].[.[.[.[.[.[.[.[.[.[.{.[.].].].{.v = r q w w w w 8 w w w w w w 7 w w w w w w w w w w w 7 w w ",
"q w w 7 w w w w w w w w 7 w w q 9 w w w w w w w w w w w > v {.)._._.`._._._._.`._._.`._._.'._._._._._.'._._.(._.`._.).{.b = w q w w w w w w q 9 q q w w w w 9 w w q 7 w q w w q w w ",
"w w w q w w w w w 7 w w w w w w w w w w w w w 7 w w w w > v {.).`._.`.`.`.`._._.`._.`._.`.`.`.`._.`.`.`.`.`._._.`._.(.{.v > r q w w w w w w w q q w w w w w w w w w w w w w 7 q q w ",
"w w w w w q w w w q w w w 7 q w w w w w q w w q w w q e > v {.^._.`.`.`.`._.`.]._._._.].`.`.`._.`.`.`.`.`.`._.].`.`.(.{.b > w q w w w w w w w q q w w q w w w w q w w q w w w w w w ",
"7 q w w w w w 7 w w w w w q w w w w w w w w w t e e e s : m {.^._.(.(.(.(.(.(.(._.(.(._.(.(.(._._.(._.).(.(._.(.)._.^.{.b : t e r r r w w w w w w w 7 w w w w w w 7 w w w w w w w 7 ",
"w w w w q w w q w 7 w q w w 7 w w w w w w w : $ & & $ - . k {.{.{.{.{.{.{.{.{.{.{.{.{.{.{.{.{.{.{.{.{.{.{.{.{.{.{.{.].{.v . - $ & + $ 1 a w w w q w w w w w w w w w 7 q w w w q w w ",
"w w q w w w 7 q q w w w w w w q q q w w w : M k.g.g.g.g.g.r.N 9.U U U U U U U U U U U U U U U U U U U U I U U U U U U I e.h.g.g.g.g.k.M ; e w 0 w w w w w w w w w q w w q w 7 w w w ",
"w w 7 w w w w w w w w w q w q q 9 q w w w = r.{.].{.{.{.{.U.  : - - = = = - & - - = = & = - - & - & - = - - & - = - -   U.{.{.{.{.[.{.r.o s 0 0 w w w w w 9 w w w w w w w w w w w q ",
"q w w w w w w q w w w w w w w q 9 9 w w e = 8.]./._._.(.].x.# t s s r w w e s a r w r w e e w w r w e e w w e w e e t @ x.]./._._./.{.8.@ e w 0 w a 8 w w w w w w 7 w w w w w w w 7 ",
"w w q w w 7 w w w w w w 7 q w w 9 w w w e & 0.{.(.`.`._.{.x.# e 8 w w q w w 8 w q w w w w w w 7 0 w w 0 w q w w w w r # x.{._.`.`.(.{.w.= e w w w w w w q w w q w w w q w w q w w w ",
"w w w w w w w w w w w w w w w w w w w w e O 0.{.(._.'._.].x.O e w w w q w w w w w w w w w w w q w w w w w w w 7 w w e # x.{.(.`._.(.{.8.O e w w w w w w w w w w q w w w q 7 7 w w q ",
"q 7 w w w 7 w q w w 7 9 w w w w w w w w e @ w.{./.]._._.{.x.O e w w w q w w 0 w w w w w w w w w w w w w w w w q w w e # x.{._._.].(.{.w.O e w w w w w w w q w w w w w w w w w w w w ",
"w w q w w w w w w w w w w w w e e w e e t @ w.{.^.(._./.].x.@ e w w w w w w w w w w w w w w w w w w w w w w w w w q r @ z.]./.(._.^.{.q.= t r e w w q r w w w w w w 7 w w w w q w 7 ",
"w w 7 w w q w w w w w w w w w - - - - = > . 7.{.[.{.{.{.{.U.+ e w 8 q w w w w w w w w w w w w q w w w w w w w q w q r + U.{.{.{.{.[.{.7.. : - > > = = : w w w w w q w w w 7 w w w q ",
"w w w w w w 9 w w w w w w w 1 P | ! Q Q ~ E 9.w.7.w.w.w.w.I : e w w q q w w w w w w w w q 7 q w w 7 w w w w w w w w w : I e.8.q.q.q.7.9.E ~ ~ ~ ~ ! 6.A < q w w q w w w w q q w w w ",
"w q q w w w w 7 w w w w w e - l.Q.W.W.Q.W.!.E X = @ @ @ + > q w w w q q w w w q q w w w w w w w 9 w w w w 7 w w w w 9 q = & @ + @ @ X E !.W.W.W.W.E.!.u.= r w w 7 w w q w w w w w w ",
"w w w w 7 w w w w w 7 w w w ; a.E.J.K.K.G.W.~ : e e t e w e q q w w : r w w w w q q w w w w w w w w w w w 7 w w w w w w t e w e e s 1 Q E.G.K.J.K.L.E.t.= w w w w w q w w q w 7 w w ",
"7 w w q w w q w w q w w 8 e = s.E.K.I.K.K.W.~ - e 8 e 8 w w w w q w q q w w w w q w w w w w 7 w w q w w w q w w w w w w w w 0 w s s - | E.K.I.K.P.K.W.y.= w w w w w w w w w w w q w ",
"w w w w w w w w w w w w w e ; d.E.K.K.I.J.W.W - t w 8 8 0 w w 9 w w w w w w w q q q w w w 9 w w w q w 7 w w w q w q w w w w w 0 w s , W W.K.K.P.P.K.E.y.; e w w w w w 7 w w w w w w ",
"w 7 q w q w w w q w w q w e - f.E.K.I.I.J.Q.Q = w w q w w w w w w 9 w w w w w q w w w w w w w w w 7 w q w w w w w w 9 w q w w w w w $ ~ Q.J.K.R.R.K.E.t.- e 8 w w q w w w w q w w w ",
"w w w w q w 7 w 7 w w q w w - d.E.K.K.K.K.W.Q = w w q 9 9 q w w w w 9 w w w w w q q 7 w q w w w w w w q w w w w q q w q q q q q w w ; ~ W.K.P.K.K.K.E.y.& s 0 w w w w q q w q 7 7 w ",
"q w w w 7 w q w w w w w w w - d.E.K.R.K.K.W.~ ; e w q w q w w w w w w w w w w w w w w w w w w 7 w w w w q w w q w q q q q q q w 8 e ; Q W.K.K.R.K.K.E.y., s w w w w w q q q w w q w ",
"w w 7 q w w q w w q w 7 w w ; f.E.I.I.K.K.W.Q ; e w w 8 q w w q w w w w w w w w w q w w w w q w w q w w w w w w w q q q w w w w w e = Q W.K.P.K.I.K.W.y.- e w w 7 w w q q w w w w w ",
"w w w w w w w w w w w w w e - f.E.I.K.R.K.W.~ = e w w w w w w w w w w w w w w w w w w 7 q w w w w w w 7 w w w w w w q w w w w w 7 e - Q W.K.K.I.I.K.W.y.- w w w w w w q q w w w w q ",
"w w w q w w w w w w 0 w w r = s.E.K.K.I.K.W.! - e w w 8 w w w w w q q 7 w w w w w q w 7 w w w w q w w q w w q w w w w w w w 0 w w r = ! W.K.K.I.I.K.W.y.- r q q q w w q w w w w w w ",
"w w 7 w w q w w w w w w w r = s.E.K.R.I.K.W.~ - w w w w w w w 7 7 w w w w w w q w w w w q w w w w w w 7 w w 7 w w w w w w w 8 w q r ; ! W.K.K.I.I.K.W.y.= w q q q w w w w w w w w w ",
"w q w w 7 w w w 7 w w w w r = s.E.I.I.I.K.W.~ - e 0 w w w w w q w w w w q w w w w w w w w w q w w q w w w q w 7 q w 7 w w w w w w w - Q W.K.I.I.I.K.W.y.= r q q q w 0 w w w w w 7 w ",
"w w w q w w 7 q w w w w 0 r - s.E.K.K.I.K.W.~ - e w w 1 w w w w w w q w w w w 7 w 7 q w w w 7 w w w w w w w w w w w w w w w w w w w - W W.K.K.K.I.L.W.y.- r q w w w w w w w w 0 w q ",
"w 7 w w w q w w w w w w w e , s.E.J.K.J.L.E.~ - w w w w w w w w w w w w w q 7 w w w w w w q w w 7 w w w w w w q w w w w w w w w w w , | E.J.J.K.K.J.E.t.; w w w w w w w w w w w w w ",
"w q w w w w w w w w w w w e - i.S.C.A.C.C.H.Y , s w w 0 w w q w 7 q w w w w w w w 7 w q w w w w w w w w w q w w w w q w w w w w 0 e , Y H.C.A.Z.Z.C.F. ., r w w w w w w w q w w w w ",
"7 w w w w w w w q w w w w w 6 i.S.C.A.A.C.F.Y < w q w w w w w w w w w w w w w w q w w w w 7 7 w w w w 7 w 7 w w 1 w w q q q w w w e 6 R H.C.A.A.A.V.F. ., r 5 w w q 9 w q q w w w w ",
"w w w q 7 w q w w w 7 w w e 6 i.S.Z.A.Z.Z.H.Y 1 w w w 1 9 w w w w w 7 q w w q w w w w q w w q w q w w q w w w q w w w q q q q w 8 e , R D.C.Z.Z.Z.Z.F. .- r w w w q w w w q w w w w ",
"w w w q w w q 7 w w w w w w 6 p.S.Z.Z.Z.Z.S.Y , w w q w w w w w q w w q w w q w w w q w w q w w w q w w w 7 w w w w w q q q q w w s , [ D.V.Z.A.Z.Z.S.X.< r q w w q w w w w w w w w ",
"w q w w w w w w w w 9 w w w , p.S.V.Z.Z.Z.F.R , w w q w w w w w w w w 7 w w w 7 w w w w w w w w w w w w w w w q w w w q q q q q w e , R H.V.Z.A.Z.Z.S.X.- w q w w q w w w w w w w w ",
"w q 7 w w w w w w w w w w t , i.S.Z.Z.Z.Z.F.R , r 0 w w w w w w w q w w w q w w w w w w 7 w w w w w w 7 q w w w q w w w w q q q w r , R D.V.Z.Z.Z.Z.H.X.- r q w w w w w w w w w w w ",
"w w w w 7 q w w w w w w w w , i.S.V.Z.Z.Z.F.Y , e w w w q w w w w w w w w w 7 w w w 7 q w q w w 7 q q w w w w w w w w q w w w q w w - R H.Z.Z.Z.Z.Z.D.X.: w w q w w w 0 8 e w w w w ",
"w q 7 w w w q w 9 w w w 0 r , p.S.V.Z.Z.Z.F.R , e w w 9 9 w w 7 w w w w w w w q w q w q 7 w q w w w w w w w q w w w w w q w w w w w , R H.V.Z.A.Z.Z.S. ., e 0 q w a w w q w w w w 9 ",
"w w w w w w w w w w w w 5 r 2 p.S.Z.Z.A.Z.F.[ , e w w 9 q w w w w 7 w 7 w q w w w w w w w w w 7 w w w q w w 7 w w q q w q w w w w w < R D.V.Z.Z.Z.Z.D. .- r w w q 5 q q q w w q w w ",
"w w w w w w w q w w w w w w , p.S.V.Z.Z.Z.D.R , w w q 9 q w w w w w w w w q 7 w w w w w w w w w q w w w 9 w w w w q w w w w w w w e , R D.Z.Z.Z.Z.V.D...< r q q q w w 9 w q w q w w ",
"w q q w w w w 7 w w w w w e , p.S.V.Z.Z.Z.D.R - r q q 9 9 q w w q w w q w w w w 7 w q w w q w w w w w 7 w w w q w w w w w w 8 w w e , R D.V.Z.Z.Z.V.D...- r q q q w q q q q q q 7 w ",
"w w w w w w w w w w w w 1 w 1 i.S.V.Z.Z.Z.F.R < r w w 9 9 w w w w 7 w w w w w w w w 7 q w 7 w w w q 7 w q w w w w w w w w w w w w w : R H.Z.Z.Z.A.Z.F.X.- r q q w w w w q w w w q w ",
"7 w w q 7 w q w q w w w w w ; i.S.V.Z.Z.Z.F.R - r w w w w q w w w w w q w w q w w w w w w q w w w w w w w w 7 w w w w w w w w w q r > Y F.Z.C.Z.Z.Z.F.X.- r q q 0 a w w 9 9 w w 7 w ",
"w w w w q w w w 7 w w q w w , i.S.V.Z.Z.Z.F.Y - w w r 5 w w w w q w w w q 7 7 w w q w w w w w q w w w w w w q w q w w w w w w w q r - R S.B.Z.Z.Z.V.F.o.- q w w w w w w w 0 9 w w w ",
"w 7 q w w w w w w w w w w e < p.S.A.A.A.Z.F.[ < r w w w w w 7 w w w w w w w w w w w w q w w w w w w q w w w 7 w w w 7 w w w 5 w w w < [ H.A.A.A.Z.Z.F.o., w w w w w w w w 9 w w w w ",
"w w w w q w q 7 w 0 w w w e 2 &.N.v.b.m.b.N.L 6 e 0 w a 8 w w q w 7 w w w w w q 7 w w q w q w 7 q 7 w w q w w w w w q q q w w w w a 2 L N.M.M.M.M.v.M.[ < e w w w w w w q q q w w w ",
"q w w w w 7 w w w w w w w w y O.m.5.5.n.6.b.L 4 a w w w w w w w q w w w w 7 w w w w w w w w w w w w w w w w q w w q q q q w w w w a y K M.6.n.n.n.6.M.] < a w w w w w w q q q w w q ",
"w w 7 q w w q w w w w w w 0 y $.M.5.n.n.n.M.L 5 w w 0 w w w w w q w w q w q q w w w w w w w w w w w q 7 w w w w w q w q w w w w 0 0 y ( M.n.n.n.n.n.M.{ 4 r 0 w w w w w q q q w 7 w ",
"w w w w w w w w w w w w w r 4 O.M.n.n.n.n.M.L < w e w 9 w w w w 7 w w w w w w w w w 7 q w 7 q w w w w w q 7 w w w w w w w w w w w a y ( M.6.6.M.n.n.M.{ < r 5 w w w w w w q q w w w ",
"w w w w w w w w w w w w w w 4 O.M.6.6.6.6.N.L 5 w w w w w w w w w w w w w w w w w w w w w q q w w w q w w w w w w w w w 9 w w q 9 0 4 L M.6.6.6.n.n.M.{ , w w w q w q w e q q w w w ",
"w q w w q w 7 w w w w w w w 4 } M.n.M.6.6.M.L 4 w 9 w w w w w w w w 7 w w w w w q w 7 w w w w w w w 7 w w q w w w w w w w w w q 0 r 4 L N.6.6.M.n.n.M.{ 4 e w w q q q q 8 8 w w q w ",
"w q 7 w w w w q w w w w w e 4 O.M.6.n.n.6.M.( 4 w w w 0 9 w q w w w w w q q q q w w w 7 w w 7 w w q w w w 7 w w w q q w w w w 9 0 r 4 L M.6.6.6.n.n.n.{ < r a w 7 q q q 8 e w w w w ",
"w 7 w q w w w w w w q 7 w w 4 O.M.n.n.n.n.N./ 4 e w w 0 w w q w w w w w w q w q w w w q w q w w w w w q w w 7 q w q q w w w q q 9 0 4 L M.6.M.6.n.6.M.{ < r w w q q q q w w 7 q w w ",
"w w w q w q 7 w w q w w w w 4 O.M.n.n.n.5.M.L 5 q q q q 0 w w w w w w w w w w w w q w w w 7 w w w q 7 w w q w w w w w w w w w w q r 4 L M.n.n.n.n.6.M.+.< r w w q q q w w w 8 w 7 w ",
"w w w w w w w w w w w w w r 4 O.M.n.n.n.5.M.L 3 e q q q 9 w q w w w w w w w w 9 w w w w w q w w w w w w w w w w w w 8 8 w w w w q q 4 L M.n.n.n.n.n.M.$.< w w w w q q w w w w w q w ",
"w q w 7 q w w w w w 8 w 0 r 4 O.M.n.n.n.n.M.L 3 w q q q w w q q w w w w w w w w w 7 w w w w q w 7 w w w w w w w w w w e w w w w 9 q 4 ( N.6.n.n.n.6.M.{ < w w w w q w w w q w w w w ",
"w w w w w w w 7 w q w w 0 r 4 } M.n.n.n.n.M.L 5 w w q q w w w w w w 8 w w w w w q q w q w w w w w w q w 7 q w w q w w w w w 8 w 0 r 4 { M.6.n.n.n.6.M.{ 1 q 7 w w w w w q q w w w w ",
"w w w w 1 w w w w w q w w w y O.M.n.n.n.n.M./ 4 e 0 9 0 w 0 w w q q q w w w w w w q w w w w w 7 w w w w w w w w w w w q w w w 8 e w 4 L M.n.n.n.n.n.M.] < r q w w w w w q q q w w q ",
"7 q w w w w w w w w 7 w w w y O.n.5.5.n.6.b.L y a r 0 r r w 0 w q q q w w w w w w w w w 9 w w w w w w w q w 7 q w 9 9 q w w w e a a 2 L b.3.5.5.n.c.m.] - r q w w q w w q q q w w w ",
"w w w w w q q w q w w 7 w e 2 &.B.M.M.b.b.B.L * u y 4 p 5 8 a w q w w 0 a w w w w w w w w w w w w w w 7 q w w w w w 0 0 0 5 5 u y u % / B.M.M.M.M.b.N.[ < w w w w w w w w q w w w w ",
"w w w q w w w w w w w w q w 5 Z L L L L L ` H V V V C C C x y a 1 w w r w w 0 w q 9 w w w w w w w w q w w w w w w w 0 0 x C C S V S V H / L L L / L L Z 9 w w q w w w w w q w w w q ",
"w 7 w w w 7 w w w w w w w w w 1 6 3 5 2 y % V %.@.#.@.@.%.L 5 7 q q w w w w q 9 q w w w w w 7 w w 7 w w w 7 w q w w w y L O.#.@.@.@.%.V * 5 < 4 y y 2 5 w w w w w w w w w w w w w w ",
"w w q w w q w w w w w w w w w q e s 8 e a y C @.' ' =.=.$.K y a q r q w w q q q q w a w w w w w w q w w w w w w w w 0 y J +._ ' -.' @.C 5 w q w w r 5 w e w w 7 w q w w w w 0 w q w ",
"w w q w w w w w w w w w w w 7 q 7 w e 7 a y V #.' ' =.=.@.K i a w w w w w w q q q q w w w w w w w w w q w 7 w w 0 w 0 u ^ @.' :.-._ @.C y 0 r 9 w q w 7 7 7 7 e w q q w w w w w w w ",
"q w w w 7 w w q w w w w w q w w 8 w 7 q 0 y V @.+.=.=.=.;.K y 8 w q w w w w q q 9 q w w w w w w w w w w w w q w 0 r a y ^ @.+.' -.=.@.V y r w w q q q 7 e w 7 w w q q w w w w w w 1 ",
"w w w q w w q w w w q w w w 7 w w w q q 0 y C #.' =.=.-.@.K y w q q w r 0 w w q w w w w w w w w q w w w w w w w w w e u ^ @.+.-.-.-.+.C 5 w w q q q q w w w q w w w w w w 7 w w w w ",
"w w w 7 w w 7 w w w w w w q w w w q q 0 a 5 C #.=.=.=.=.$.K y e q w r 0 w r w q q w s w w w w w w w w w w w w w w w 0 u J +.' =.=._ #.C 5 w w q w w q w w w w w w q w 7 w q w w w w ",
"w q w w w q w 7 w w 7 w w w 7 q q q q w p y S %.;.<.<.<.>.K y 3 1 : 1 1 1 1 1 9 1 9 5 7 w 1 9 1 1 7 1 1 1 9 1 9 1 9 0 2 L >.-.1.1.-.>.G 5 w w w w w w w w 7 w w w q w w w w w q w w ",
"w w w w w w w w w q w w w w w q w w w w 0 0 z H F F F F F S B B B B B B B B B B B B B B B B B B B B B B B B B B B B B h C H G G D G H j 5 w w w w q w w w q w w w 7 w q w w w w w w ",
"7 w w w w w w q w q q 7 w w w w w w w q q q 9 < 5 5 1 9 2 h 2.:.;.1.1.<.1.:.:.:.-.-.:.:.-.1.:.-.;.;.-.:.1.:.-.:.-.1.-.%.f 2 5 4 1 1 1 9 w w 5 e w w w q 7 w w w w w w q w q w w w q ",
"w w w w w q w w 7 w w w w w w w w w w q q w q w 0 0 r w 5 h +.' =.=._ -.-.=.=.' -.-.-.-.*.-.-.-.-.-.=.*.-.-.=.=.-.-.*.$.f y a 0 r 0 w w w w a w 7 q w w w w 7 q w w w w w w 7 w w w ",
"q w w 7 w 7 w w w w w w w w q q w w w w w w w w w w w w 5 h #.-.-.=.*.-.-.-.-.-.-.-.-.-.-.-.-.-.-.-.-.-.-.-.-.-.-.-.' O.x 5 w a 0 0 w q w w w w w w w w w q w w w w w w q w 7 w w w ",
"w w w q w w q w w w q w q w w q w w w w w w w q q w w w 5 h @._ =.-.-.*.,.*.=.-.=.=.-.=.-.-.-.-.-.*.-.-.*.-.-.=.-.=.=.#.f 5 0 w w w w q w w w w w w w w w w w w w w 7 q w w w w w q ",
"q w w q w w 7 q w w w w w w w w w w w 0 w w w w w q w w 8 f $.' =.' =.=.=.,.-.-.-.=.-.-.-.-.-.-.-.-.-.-.-.-.-.-.,.=.=.#.f 5 w 8 w q q q w w 7 q w w q w w w q w w w w 7 w w w w w q ",
"7 w w w w w w w w w w 8 w w w w w q w w 8 a w w w 7 7 e 8 f O.+.,.,.,.,.=.,.-.-.,.-.-.-.-.-.-.-.-.,.-.-.-.-.-.-.-.,.=.%.x 5 a w e q 7 w w w w q q w w w w w 7 w w q w w q w w 7 w w ",
"w w w w w q w w w w w w w w w w q q w w w a w w q q q w 8 g ] / ) ( ( ( ( ( ( ) ( ( ( ( / ( ( ( ( ( ( ( ( ( ( ( ( ( ( / g 5 w w 7 7 q q w w w q w w w 7 w w w w w w w w w w 7 q w w ",
"w w 7 w w w w q w q w w w w w w w q q q w w w w q q q q w 8 5 5 8 8 5 1 8 1 8 8 7 8 5 5 5 5 8 5 5 0 5 5 5 0 5 w 5 5 5 5 w w w w e q q q w w w w w 7 w w w q q w q w w q w w w w w q ",
"w w w w 7 w w w w q 7 w w 9 8 w w q 9 q q q w w q q q w w w e w w e 8 w q q w w w w w w w e q w e w w w w w w w w q w w w w w w 7 w w q q w w w w q w w w w 7 w 7 w w q w w w w w w ",
"w q 9 w w q w w w w w w w w w w w q 9 q q q w w 9 9 9 9 w w w w 8 e w w q w w w w w w w w w w w 0 w w w w w w w w w w w w w w w w w w w w w w w w w w w q w w w w w w 7 w w w q w 7 ",
"w w w 7 w w w w w w w w w w w w w q q q q q q w q q w 9 w w w w w w w q q q w w w w w w w w w w w w w w w w w w w w q w q 7 w w w 9 w w w w w w w w q 7 w w 7 q w q w w q 7 w w w w ",
"w w w w w w q w 7 w q w w w w w w w q w q q w q q w w w w w w w w w w q q q w w w w w w w w w w w w w w w w w w w q w w w w w w w w w w 7 w w q w w w w w w w w w w w w w w w w w q ",
"w q 7 w q w w w w 7 w w q w 7 w w w w w w w w 9 w w w w w w w w w w w w w w w w 7 q w w w w w w w w w w w w w w w w w w w w w w w w w w w w 7 w w w q w w w w w w w w w w w w w w w ",
"w w w w w w w q w q w w w w q w w w q w w w w w w w w w w w w w w w q w 7 q w w w w w q w w q w w w w w w w w w w 7 q w q w w 7 w w w w w w q w w w 7 w w w w q q w 7 w q w w 7 q w "
};
