/* XPM */
static char *_[] = {
/* columns rows colors chars-per-pixel */
"90 90 142 2 ",
"   c #1C1C5E",
".  c #232458",
"X  c #1D1C62",
"o  c #1F2063",
"O  c #242464",
"+  c #25256B",
"@  c #28276C",
"#  c #27286B",
"$  c #2A2A6D",
"%  c #36356F",
"&  c #262672",
"*  c #2B2772",
"=  c #2C2C73",
"-  c #2C2E7C",
";  c #302F7E",
":  c #2E3175",
">  c #2F3179",
",  c #323376",
"<  c #3A3B73",
"1  c #323278",
"2  c #38377D",
"3  c #39387D",
"4  c #48497B",
"5  c #2B2C81",
"6  c #2C2E88",
"7  c #2E3183",
"8  c #323384",
"9  c #3B3882",
"0  c #323488",
"q  c #39388C",
"w  c #353593",
"e  c #373994",
"r  c #3B3B95",
"t  c #3C3C9B",
"y  c #3C3DA5",
"u  c #3F4097",
"i  c #3F4098",
"p  c #464683",
"a  c #4D4E84",
"s  c #45468D",
"d  c #4B4B8D",
"f  c #545485",
"g  c #535388",
"h  c #464593",
"j  c #4A4A91",
"k  c #40409B",
"l  c #525195",
"z  c #5B579C",
"x  c #575998",
"c  c #5B5B9A",
"v  c #4948A2",
"b  c #4142AC",
"n  c #4C4BAD",
"m  c #504EAE",
"M  c #5C58A0",
"N  c #4C4BB3",
"B  c #4F51B3",
"V  c #5152B3",
"C  c #5453BD",
"Z  c #6B6BBC",
"A  c #7675B6",
"S  c #7676BA",
"D  c #7877B9",
"F  c #7778BA",
"G  c #7A79BA",
"H  c #5554C2",
"J  c #5A59C2",
"K  c #5B59CB",
"L  c #5656D5",
"P  c #5857D6",
"I  c #5758D7",
"U  c #5B5BD6",
"Y  c #5957DA",
"T  c #5B5ADA",
"R  c #615FD3",
"E  c #615DDB",
"W  c #5E60CD",
"Q  c #7E7FC2",
"!  c #6260D2",
"~  c #6865D1",
"^  c #6160D8",
"/  c #716FDF",
"(  c #5957E0",
")  c #5D5AE1",
"_  c #615EE2",
"`  c #6E6EEC",
"'  c #6E70EE",
"]  c #7272EA",
"[  c #817FFC",
"{  c #8888C1",
"}  c #8382CF",
"|  c #8584D5",
" . c #8887D6",
".. c #9494D5",
"X. c #9897D9",
"o. c #9A99DA",
"O. c #A5A5C4",
"+. c #ADAECD",
"@. c #8482F2",
"#. c #8886F7",
"$. c #8C89F1",
"%. c #8383FE",
"&. c #8A89FD",
"*. c #9492FF",
"=. c #A19EF4",
"-. c #A19FFA",
";. c #A5A4E5",
":. c #A8A8E7",
">. c #A6A5E8",
",. c #A8A7E8",
"<. c #ACADEA",
"1. c #B7B8ED",
"2. c #A3A2F6",
"3. c #A4A3FD",
"4. c #A8A6FF",
"5. c #AEACFF",
"6. c #B0AEFF",
"7. c #AFB0FF",
"8. c #B7B6F6",
"9. c #BCBCF3",
"0. c #B5B4FC",
"q. c #BAB7FB",
"w. c #BEBDFD",
"e. c #C0BFFF",
"r. c #BFC0FD",
"t. c #CBCCE4",
"y. c #D5D9EE",
"u. c #C2C2FF",
"i. c #CBCBFF",
"p. c #D5D5F5",
"a. c #D8D7F6",
"s. c #D7D8F5",
"d. c #D0D0FF",
"f. c #D9D7F8",
"g. c #DBDCFE",
"h. c #E4E5FC",
"j. c #EDECFD",
"k. c #F0EDFF",
"l. c #EFF0FF",
"z. c #F2F2FF",
"x. c #F7F8FF",
"c. c #FBFDFF",
/* pixels */
"1 1 1 1 1 1 1 : , , 1 1 1 1 1 1 1 1 1 1 1 1 1 1 , , 1 1 1 1 1 1 1 1 1 1 1 1 1 1 1 1 1 1 1 1 , > 1 > , , 1 1 1 1 , , , 1 1 1 1 1 1 1 1 1 1 1 1 % 1 1 1 1 1 1 1 1 1 1 1 1 1 1 1 1 1 1 ",
"1 1 1 1 1 1 1 1 1 1 1 1 1 1 1 1 1 1 1 1 1 1 1 , 1 1 , 1 1 1 1 1 1 1 1 1 1 1 1 1 1 1 1 1 1 1 , > > > , , 1 1 8 1 , , 1 1 1 1 1 1 1 1 1 1 1 1 1 1 1 1 1 1 1 1 1 1 1 1 1 1 1 1 1 1 1 1 ",
"1 1 1 1 1 1 : 1 1 1 1 1 1 , 1 1 1 1 1 1 1 1 , 1 1 1 1 1 1 1 1 1 1 1 1 1 1 1 1 1 1 : 1 1 1 1 , 1 > > , , 1 1 1 1 1 > , 1 1 1 1 1 1 1 1 1 1 1 1 1 1 1 1 1 1 1 1 1 1 1 1 1 1 1 1 1 1 1 ",
"1 1 1 1 1 1 1 1 1 1 1 1 1 1 1 1 1 1 1 1 , 1 1 1 1 1 1 * 1 1 1 1 1 1 1 1 1 1 , 1 1 1 1 1 1 1 1 , 2 , , , 1 1 1 1 1 1 1 1 1 1 1 1 1 1 1 1 1 1 1 1 1 1 1 1 1 1 1 1 1 1 1 1 1 1 1 1 1 1 ",
"1 1 1 1 1 1 1 1 1 , 1 1 1 1 , 1 1 1 1 1 , , 1 1 1 1 1 1 1 1 , 1 1 1 1 1 1 1 1 , 1 1 1 1 , , , , > , , , , , > > > 1 1 1 1 1 1 1 1 1 1 * 1 1 1 1 1 1 1 1 1 1 1 1 , 1 1 1 1 1 1 1 1 1 ",
"1 1 1 1 1 1 1 1 1 1 1 1 , 1 1 1 1 1 1 1 , , , 1 1 1 1 1 1 1 1 1 1 1 1 , 1 1 1 1 1 1 1 1 , 3 3 3 2 2 3 , , , , , : : 1 1 1 1 1 1 1 , 1 1 1 1 1 , 1 1 1 1 , 1 1 1 1 1 1 1 1 1 1 , 1 1 ",
"1 1 1 1 1 1 , 1 1 1 1 1 1 1 , 1 1 1 , , ; , 1 1 1 1 1 1 1 1 1 1 1 1 , , 1 1 1 1 1 1 1 1 1 O . O O # O O 1 1 1 , , , 1 1 1 1 1 1 1 1 1 1 1 1 1 1 1 1 1 1 1 1 1 * 1 1 1 1 1 1 1 1 1 1 ",
"1 1 1 1 1 1 1 1 1 1 1 1 1 ; , 1 1 1 1 , ; , 1 1 1 1 1 1 1 1 1 1 1 , , 1 , 1 1 1 1 1 1 : % t.t.t.t.t.t.y.a = , 1 1 1 1 1 1 1 1 1 1 1 1 1 1 , 1 1 1 1 1 1 1 , 1 , 1 1 1 , 1 1 1 1 1 1 ",
"1 1 , 1 1 1 1 1 1 1 , , , 1 1 1 ; 1 1 1 1 1 1 1 , , 1 1 , 1 1 1 1 1 1 1 1 1 1 1 1 , , , % z.x.x.x.x.z.c.f @ 2 1 2 1 1 1 1 1 1 1 , 1 * 1 1 1 1 1 1 1 1 1 1 1 1 1 1 1 , 1 1 1 , 1 * 1 ",
"1 1 1 1 1 1 1 1 , 1 , 1 ; 1 1 1 , , 1 1 1 1 1 ; ; , 1 1 1 1 1 1 1 1 1 1 1 1 1 1 1 , 1 = % h.l.j.j.j.j.x.g = , , 1 1 1 1 1 1 1 1 1 1 2 1 1 1 1 1 1 1 1 1 1 1 1 1 1 1 1 1 1 1 1 1 1 1 ",
"1 1 1 1 , 1 , 1 1 1 1 1 , , 1 1 1 , 1 1 1 1 , , , , 1 1 1 , 1 1 1 1 , 1 1 1 1 1 1 1 1 1 % j.z.k.j.k.j.x.g = , , 2 1 1 1 1 1 1 1 1 1 1 1 1 1 1 1 1 1 1 1 1 1 1 1 , 1 1 1 1 1 , 1 1 1 ",
"1 1 1 1 1 1 1 1 1 1 1 1 , , 1 1 1 1 , 1 1 1 , , 1 1 ; , , , 1 1 1 1 1 1 1 1 1 1 1 1 1 ; % j.l.k.k.j.j.x.g = 1 , 1 1 1 1 1 1 1 1 1 1 1 , 1 1 1 , 1 1 1 1 1 1 1 1 * 1 1 1 1 1 1 1 1 1 ",
", 1 1 1 1 1 1 1 1 , , 1 ; 1 1 1 1 1 1 , 1 1 1 1 1 1 1 1 1 1 1 ; 1 1 1 1 1 1 3 3 3 2 3 2 < j.l.k.k.k.j.x.f & , : 1 ; , , 1 1 1 1 1 1 1 1 1 1 1 1 1 1 1 1 1 1 1 1 2 1 , 1 1 1 1 1 1 1 ",
"1 1 , 1 1 1 1 1 1 1 1 1 1 1 , , 1 1 1 1 , 1 1 1 1 1 1 1 1 1 , , 1 , 1 1 1 , X X X X o   . j.l.k.k.k.j.x.f = , > 1 1 ; , 1 1 1 : 1 1 1 1 1 1 1 1 1 , 1 1 1 1 1 1 1 1 1 1 1 1 1 1 1 1 ",
"1 1 , , 1 1 1 1 1 , 1 1 1 1 , , 1 1 1 1 1 1 1 1 1 1 1 1 1 1 1 1 1 1 ; ; * p +.O.O.O.O.O.O.j.k.k.z.j.j.c.g & 1 > 2 ; 1 , 1 1 1 1 , 1 1 1 , 1 1 1 2 * 1 1 1 % 1 1 1 1 1 1 1 1 , 1 1 1 ",
", 1 1 , 1 ; 1 , 1 1 1 1 1 1 , ; , 1 1 1 1 1 1 1 1 1 1 1 1 1 1 1 1 1 1 ; * f c.c.c.c.c.c.c.k.j.k.z.j.h.c.g - 1 > 1 1 1 1 1 1 1 1 1 1 1 1 1 1 1 1 1 , 1 1 1 1 1 1 1 1 1 1 1 1 1 1 1 1 ",
"1 1 1 1 1 1 1 1 1 1 1 1 1 1 1 1 1 1 1 1 1 1 % 1 1 1 1 1 1 , , , , 1 1 1 $ f c.h.j.j.j.j.j.k.k.k.j.j.j.c.f * 2 1 1 , 1 1 1 1 1 1 1 1 1 1 1 1 1 1 1 1 1 1 1 1 1 1 1 1 1 1 1 1 1 1 1 , ",
"1 1 1 1 * 1 1 1 1 1 1 1 1 1 1 1 1 1 1 1 1 1 1 1 1 1 1 1 1 , 1 % , , 1 2 $ 4 c.h.j.j.j.k.j.k.k.k.k.l.j.c.f * 1 1 1 1 1 1 , 1 1 1 1 1 1 1 1 1 1 1 1 1 1 1 1 1 1 1 1 1 1 1 1 1 1 1 1 1 ",
"1 1 1 1 1 1 1 1 1 1 1 1 1 1 1 1 1 1 1 1 1 1 1 1 1 1 1 1 , , , , , , , , $ f c.j.k.k.j.k.k.k.k.k.j.j.h.c.f * , , , 1 1 1 1 1 1 1 1 1 1 1 1 1 1 1 1 1 1 1 1 1 1 1 1 1 1 1 1 1 1 1 1 , ",
"1 1 , 1 1 1 1 1 ; * , 1 1 1 1 1 1 1 1 1 1 , 1 1 1 1 1 1 , , ; , , , 2 , % 4 x.j.k.j.k.k.k.k.k.k.z.j.j.c.f * , , , , 1 1 1 1 , 1 1 1 1 1 % 1 1 1 1 1 1 1 1 1 1 1 1 1 1 1 1 1 1 1 1 1 ",
"1 1 1 1 1 1 1 1 1 1 1 1 1 1 1 , , 1 1 1 1 1 1 1 1 1 1 1 , 1 % % 2 1 2 2 @ f x.j.k.k.k.k.j.j.j.j.j.j.j.x.f @ 1 , 1 , 1 1 1 1 1 , 1 1 1 1 1 1 1 1 1 1 1 1 , 1 1 1 1 1 1 1 1 1 1 1 , 1 ",
"1 1 1 1 1 1 1 1 , 1 1 1 1 1 1 1 1 1 1 1 1 1 1 , 1 1 1 1 1 : O . O # + +   4 c.j.k.k.z.k.z.z.z.z.z.z.j.c.f @ 1 ; 1 , 1 , 1 1 1 1 1 1 1 1 1 1 1 , 1 1 1 1 1 1 1 1 1 1 , 1 1 1 1 1 * 1 ",
"1 1 1 1 1 1 1 1 1 1 1 1 1 1 1 1 1 1 1 1 1 1 1 1 1 1 1 1 : p [ A F F F Q A { f.t.p.p.a.a.p.s.a.f.p.p.y.h.g = 2 1 1 1 , , 1 1 1 1 1 1 1 1 1 1 1 1 1 1 1 1 1 1 1 1 1 1 1 1 1 1 1 1 1 1 ",
"1 1 1 1 1 1 1 1 1 1 1 1 , 1 1 1 1 1 1 , 1 1 1 1 1 1 1 2 @ z g.i.i.i.i.i.p.i.e.e.e.e.9.9.9.9.9.9.9.9.1.u.d = 1 1 : 2 ; 1 , 1 1 1 * 1 1 1 1 , 1 1 1 1 1 1 1 1 1 * 1 1 1 1 1 1 1 1 1 1 ",
"1 1 1 1 1 1 1 1 1 1 1 1 1 , 1 1 1 1 * 1 1 1 1 1 1 , 1 1 @ c i.8.q.w.w.w.q.w.w.e.u.e.e.e.e.e.e.w.r.r.w.i.d = 1 1 1 1 1 1 1 1 1 1 1 1 1 1 , 1 1 1 1 1 1 1 1 1 1 1 1 , 1 1 1 1 1 , 1 1 ",
"1 1 1 1 1 1 1 * 1 1 1 1 1 , 1 1 1 1 1 1 , 1 1 1 1 1 1 1 @ z i.9.u.r.w.e.w.u.w.w.w.w.e.e.w.e.e.e.w.r.q.i.d = 8 1 : : 1 1 1 1 1 , 1 1 1 1 1 1 1 1 1 , 1 1 1 1 1 1 1 1 1 1 1 1 1 1 1 1 ",
"1 1 1 1 , 1 1 1 1 1 1 1 , , 1 1 1 1 1 1 1 1 1 1 1 1 1 2 $ z i.e.w.u.w.w.r.r.u.w.w.w.w.w.e.e.w.w.w.e.w.i.d = 8 1 , , , 1 1 1 1 1 1 1 2 * 1 1 1 1 1 1 1 1 1 1 1 1 1 1 1 , 1 1 1 1 1 1 ",
"1 1 1 1 1 1 1 1 1 1 1 1 1 1 1 1 1 1 1 1 1 1 1 1 1 2 1 1 $ M i.8.w.r.w.u.w.r.w.w.w.w.w.w.w.w.e.e.e.w.w.i.d @ 8 1 , , , , 1 1 1 1 1 1 1 , 1 1 1 , 1 1 1 1 1 1 1 1 1 1 1 1 * 1 1 1 1 1 ",
"1 1 1 1 1 1 1 1 1 1 1 1 1 1 1 1 1 1 1 1 1 2 , + $ $ # $   l i.w.u.w.u.w.w.u.i.i.u.i.i.i.i.w.r.r.u.w.w.i.d = 1 1 , , 1 1 1 1 1 1 1 1 1 1 1 1 1 1 1 * 2 1 1 1 1 1 1 1 1 1 1 1 1 1 1 1 ",
", 1 1 1 1 , 1 , 1 1 1 1 1 1 1 1 1 1 ; 1 3 * p M z z c c l A i.q.r.u.w.r.u.8...X.X.X.X.X.o.w.r.r.w.r.q.i.j = 1 1 , , 1 1 1 1 1 1 1 1 1 1 1 1 1 1 1 , 1 1 1 1 1 1 1 1 1 1 1 1 1 1 1 1 ",
", 1 , 1 1 1 1 1 1 1 1 1 1 1 1 % 1 1 1 1 2 O G g.i.i.i.i.d.i.w.e.w.w.u.w.u.;.  @ + O + + # w.r.r.r.w.w.i.j = 1 1 , , 1 1 1 1 1 1 , 1 1 1 , 1 , 1 1 1 1 1 1 1 1 1 % 1 1 1 1 1 1 1 1 1 ",
", , 1 1 1 1 1 1 1 1 1 1 1 1 1 1 1 1 1 ; 2 + G i.8.q.e.q.w.w.w.e.u.w.u.u.u.>.= 3 2 3 1 2 3 w.u.w.w.w.w.i.d = 1 1 1 1 1 1 1 1 1 1 1 1 1 1 1 1 1 1 1 1 1 1 1 1 1 1 1 1 1 1 1 1 1 1 1 1 ",
"1 1 1 1 1 1 1 1 1 1 1 > 1 1 1 1 1 1 1 1 1 # G i.q.e.w.e.e.e.e.e.w.u.r.w.u.:.# 2 1 1 , ; 1 e.u.w.e.u.q.i.j : 1 1 1 1 1 1 1 1 1 1 1 1 1 1 1 1 , 1 1 1 1 , 1 1 1 1 1 1 1 1 1 1 1 1 1 1 ",
", 1 1 ; 1 1 1 1 1 1 1 1 1 1 1 1 1 1 1 1 2 O G d.w.9.e.e.e.e.e.e.u.w.w.r.u.:.O 2 1 1 1 , , w.e.w.w.u.w.i.d $ 1 1 1 1 1 1 1 1 1 , 1 1 1 1 1 1 1 1 1 , 1 1 1 1 1 1 1 1 1 1 1 1 1 1 1 1 ",
", , , , 1 1 , ; 1 1 1 1 1 1 1 1 1 1 1 1 2 O G i.q.r.e.w.e.e.e.e.r.w.u.w.u.:.# 2 1 1 1 1 , w.w.r.r.w.w.i.d $ 3 , 1 , 1 1 1 1 1 1 1 1 1 1 1 1 1 1 1 ; 1 , 1 1 1 1 1 1 1 1 1 1 1 1 1 1 ",
"; , , , 1 1 , , 1 1 1 1 1 1 1 8 1 1 1 , 1 O G i.q.u.e.e.9.e.e.e.w.w.w.w.u.;.@ 1 , 1 1 , % w.u.w.r.r.q.i.d $ , , , 1 1 1 1 1 1 1 1 1 1 1 1 1 1 1 1 , 1 1 1 1 1 1 1 % 1 1 1 1 1 1 1 1 ",
", 1 1 , 1 1 1 1 1 1 1 1 1 1 1 1 1 1 1 , 2 O A d.w.w.e.u.e.e.i.u.u.u.i.r.d.<.@ , 2 ; 1 = , w.e.e.r.w.r.i.d $ 1 1 1 1 1 1 , 1 1 > 1 % 1 1 1 1 1 1 1 1 1 , 1 1 1 1 1 1 1 1 1 1 1 1 1 1 ",
"1 1 1 1 1 1 1 1 1 1 1 1 1 1 1 1 1 1 , , 2 O F u.0.w.q.w.1.1.;.;.:.;.:.:.<...# 2 1 1 , 1 2 0.w.w.w.0.8.u.d = 1 1 1 , 1 1 1 1 1 , 1 1 1 1 1 1 1 1 1 1 1 1 1 1 1 1 1 1 1 1 1 1 1 1 1 1 ",
"1 1 , ; 1 1 1 1 1 1 1 1 1 1 1 1 , , , , 1 * Z 0.-.-.-.-.5.[ X = # # $ $ # @ 2 > ; 1 1 1 ; 2.=.-.-.3.2.5.s = 1 1 1 1 1 1 1 1 1 1 1 1 1 1 1 1 1 1 1 1 1 1 1 1 1 1 , * , 1 1 1 1 1 1 1 ",
"1 1 , , 1 1 1 1 1 1 1 1 1 1 1 1 , , , 1 2 $ ~ 6.-.3.4.-.5. .& 2 3 , , 3 , 1 1 > 1 1 1 ; 2 2.4.4.3.3.3.5.j - 1 1 1 1 1 1 1 1 1 1 1 1 1 1 1 1 1 1 1 1 1 1 1 1 * 1 1 2 1 1 1 1 1 1 % 1 ",
"1 1 1 1 1 1 1 1 1 1 1 1 1 1 1 1 , , , , 2 & Z 7.-.-.4.3.5.| & 2 1 , , , , , 1 1 1 1 1 1 2 -.4.3.3.3.-.5.h = 1 1 1 1 1 1 1 1 1 , , 1 1 1 1 1 * 1 1 1 1 1 1 1 1 , 1 1 1 1 1 1 1 1 1 1 ",
"1 1 1 1 1 1 1 1 1 1 , 1 1 1 1 1 1 , , , 2 & Z 7.3.3.3.3.5.| = 8 1 1 1 : 1 1 1 1 1 1 1 , 8 2.3.3.3.3.3.5.h = 1 1 1 1 1 1 1 1 1 1 1 1 1 1 1 1 1 1 1 , 1 1 1 1 1 1 1 1 1 1 1 1 1 1 1 1 ",
"1 1 1 1 1 1 , 1 1 1 1 1 1 1 1 1 1 , , , > & Z 7.2.4.3.3.5.| & 8 1 1 1 1 , 1 1 : 1 1 1 , 8 2.4.3.3.3.3.5.h $ 2 : 1 , 1 1 1 1 1 1 1 1 1 1 , 1 1 1 1 1 1 1 1 1 , 1 1 1 1 1 1 1 1 1 1 1 ",
"1 1 1 1 1 1 1 1 1 1 , 1 1 , 1 1 , , 1 1 9 & Z 7.-.4.4.-.5.| & 1 8 1 1 1 1 1 , 1 1 1 ; , 1 3.3.3.3.3.3.5.j = 1 1 > 1 1 1 , 1 1 1 1 1 1 , 1 1 1 1 1 1 1 1 1 , 1 1 1 , 1 1 1 1 1 1 1 1 ",
", 1 , 1 1 1 1 1 1 1 1 1 1 1 1 1 , 1 1 1 > & Z 7.=.=.=.-.6.} + 2 1 1 1 1 1 1 1 1 1 1 ; , 8 2.3.3.3.3.3.5.h = 2 1 : : 1 1 1 1 1 1 1 1 1 1 1 1 1 1 1 1 1 1 1 1 1 1 1 1 1 1 , 1 1 1 1 1 ",
", 1 1 1 1 , 1 1 , 1 1 1 1 1 1 1 1 1 1 1 2 > 1 1 3 ; 9 8 2 ; ; , 1 1 1 1 1 1 1 1 1 1 , , 2 2.3.3.3.3.3.5.h = 1 1 , 1 1 1 1 1 1 1 1 1 1 1 1 1 1 1 1 , 1 1 1 1 1 , 1 1 1 1 1 1 1 * 1 1 ",
", , 1 1 1 1 1 1 1 1 1 1 1 1 1 1 1 1 1 1 1 , > 1 , 1 , , ; , 1 2 1 > 1 1 1 1 1 1 1 , 1 : 1 2.3.3.4.3.3.5.h - 1 1 1 , 1 1 1 1 1 1 , 1 1 1 1 1 1 1 ; * 1 1 1 1 1 1 1 1 1 1 1 1 1 1 1 1 ",
"1 ; 1 1 1 , 1 1 1 1 1 1 1 , 1 1 8 1 1 , , , , , , , : , , ; 1 ; 1 2 1 1 1 1 1 1 1 1 1 , 1 3.3.3.3.3.-.5.h : 1 1 1 , 1 1 1 1 1 1 1 1 1 1 1 1 1 1 2 , 1 1 1 1 1 1 1 , 1 1 1 1 1 , 1 1 ",
"1 1 1 , 1 1 1 1 1 1 1 , 1 , 1 1 1 1 1 1 , , 1 3 , 1 , , , , 1 1 , = 1 1 1 1 1 1 1 1 1 : 1 3.3.3.3.3.3.5.h : 1 1 1 1 1 1 1 1 1 1 1 1 , 1 1 1 1 1 1 1 1 , 1 1 1 1 1 1 1 , 1 1 : 1 1 1 ",
"1 1 , , 1 1 1 1 1 1 1 , 1 1 1 , 1 1 1 1 1 1 1 1 , ; 1 , 1 1 1 1 1 , 1 1 , 1 1 1 1 1 1 1 1 3.3.3.3.3.-.5.s $ , 1 1 1 1 1 1 1 1 1 1 1 1 1 1 1 1 1 1 1 1 1 1 1 1 1 1 1 1 , 1 1 1 1 1 1 ",
"1 1 ; 1 1 1 1 1 1 1 1 1 1 , 1 1 1 1 1 1 1 ; 1 1 1 ; ; 1 ; 1 1 2 1 , 1 1 1 1 1 1 1 1 , , 1 3.3.3.3.3.-.5.h $ , 1 1 1 1 1 1 1 1 1 1 1 , 1 1 , , , 1 1 1 1 1 1 1 1 1 1 1 : 1 1 1 1 1 1 ",
"1 1 1 1 1 1 1 1 , 1 1 1 1 1 1 , , 1 1 1 1 1 1 ; 1 2 ; 1 1 1 1 , 1 1 1 1 1 1 , 1 1 1 , , 8 3.4.4.3.3.3.5.j % , 1 1 1 1 1 1 1 1 1 1 1 1 1 1 , , 1 , 1 1 1 1 1 1 1 1 1 1 1 1 1 1 1 1 1 ",
"1 1 , , 1 1 1 1 * 1 1 1 1 1 1 , , 1 1 1 1 , 1 1 1 , , , , , , , 1 1 1 , 1 1 1 1 1 1 1 1 1 $.&.&.&.&.#.*.u : 1 8 1 1 1 1 1 1 1 1 1 1 1 1 1 1 1 1 1 1 1 1 1 1 1 1 1 , 1 1 1 1 , 1 1 1 ",
"1 1 , ; 1 1 1 1 1 1 1 , , 1 1 1 1 1 1 1 , , 1 , , , , 1 , , , ; 1 1 1 1 1 1 1 1 1 1 1 1 8 @.[ %.%.%.%.&.t > 1 1 1 1 1 1 1 1 1 1 1 1 1 1 1 1 1 1 1 1 1 1 1 * 1 1 1 1 , 1 1 1 1 1 1 1 ",
", , , , 1 1 1 1 1 1 1 , 1 1 , 1 1 1 1 1 1 , , , , , , % , , 1 , 1 1 1 1 1 , 1 1 1 1 1 : 8 @.%.%.%.%.%.&.u = : , 1 1 1 1 1 1 1 1 1 1 1 1 1 1 1 1 1 1 1 1 1 1 1 1 1 1 1 1 1 1 , 1 1 1 ",
", , ; , 1 1 1 1 1 1 1 1 , , 1 1 1 1 1 1 1 1 1 1 1 , , , , , 1 1 , 1 1 1 1 1 1 1 1 , 1 : 8 @.%.%.%.%.%.#.u : > , , , , > 1 1 1 1 1 1 1 1 1 1 1 1 1 1 , 1 1 1 1 1 1 1 ; , 1 1 1 1 1 1 ",
"1 , , 1 1 1 1 1 1 1 1 1 1 1 , , 1 1 1 1 1 1 ; 1 ; 1 ; 1 1 1 1 1 1 1 1 1 1 1 1 1 , , , > 0 #.&.%.%.%.%.&.u = 1 > , 1 1 1 1 1 1 1 1 1 1 1 1 1 1 1 1 1 1 1 1 , , , 1 1 1 1 1 1 1 1 1 1 ",
"1 , , 1 1 1 1 , 1 1 1 1 1 1 1 , 1 1 1 1 , ; 1 1 1 2 , ; 1 , 1 1 1 1 1 1 1 1 , , , , , > 7 #.%.%.%.&.' &.u = 2 1 1 1 1 1 1 1 1 1 1 1 1 1 1 1 1 1 1 1 1 1 1 ; , , 1 1 1 1 1 , 1 1 1 1 ",
"1 , 1 1 1 1 1 1 1 1 1 1 1 , 1 1 , ; 1 1 , , 1 1 1 1 1 1 1 1 1 1 1 1 1 1 , , ; , > > , > 0 @.%.%.%.%.%.&.u : 1 1 1 1 , 1 1 1 1 1 1 1 1 1 1 1 1 1 1 1 1 1 1 1 1 1 1 1 , 1 1 , 1 1 1 : ",
"1 1 1 1 1 , 1 1 1 1 1 1 1 1 1 1 , , 1 1 , 1 1 1 1 1 1 1 1 1 1 1 1 1 1 1 , ; , , > 2 , > 7 @.%.%.%.%.%.&.u = 1 1 1 1 1 1 1 1 1 1 1 1 1 * 1 1 1 1 1 1 1 1 1 1 1 1 1 1 1 1 1 1 1 1 1 1 ",
"1 1 1 1 , 1 1 1 1 1 1 1 1 1 1 1 , , , 1 1 1 1 1 1 1 1 1 1 1 1 1 1 1 1 1 1 1 1 1 , , > , 0 @.%.%.%.%.%.&.i : 1 1 1 1 1 1 1 1 1 1 1 1 1 1 1 , 1 1 1 1 1 , , , , 1 , , ; , 1 1 1 1 1 1 ",
"1 1 , 1 1 1 1 1 1 1 1 1 1 1 1 1 , 1 ; 1 1 1 1 1 1 1 1 1 1 1 1 1 1 1 1 1 1 1 ; , > 2 , > 0 @.%.%.%.%.%.&.u = 1 1 1 1 , 1 1 1 1 1 1 , 1 1 1 1 1 1 1 1 1 1 1 1 , ; , 1 1 , 1 1 , 1 1 1 ",
"1 1 1 1 1 1 1 1 1 1 1 1 1 1 1 1 1 , 1 1 1 , 1 , 1 1 1 , 1 1 1 1 1 1 1 1 1 1 , , , , > : 7 @.%.%.%.%.%.&.u : 1 1 1 1 1 1 1 1 1 1 1 1 1 , 1 1 1 1 1 1 1 1 1 1 1 1 ; 1 , , 1 1 1 1 1 1 ",
"1 1 1 1 1 1 1 1 1 1 1 1 1 1 1 1 1 1 1 1 1 1 1 1 1 1 1 1 1 1 1 1 1 1 1 1 1 1 , 1 , , , : 7 @.%.%.%.%.%.&.u = 1 1 , , 1 1 1 1 1 1 , , 1 1 1 , 1 1 , 1 1 1 1 1 1 1 1 1 , 1 1 1 1 1 1 1 ",
"1 , 1 * 1 1 1 1 1 1 1 1 1 1 1 1 1 1 1 1 1 1 1 1 1 1 1 1 1 1 1 1 1 1 1 1 1 1 1 1 1 , , , 8 @.%.%.%.%.%.&.u : > : , , 1 1 1 , 1 1 1 1 1 , , ; 1 1 1 1 1 1 1 1 1 1 1 1 1 1 ; , , 1 1 1 ",
"1 1 1 1 1 1 1 1 1 1 1 1 , 1 , 1 ; 1 1 1 , 1 1 1 , 1 1 1 1 1 1 1 1 1 1 1 1 1 1 , 1 1 , 1 8 @.%.[ %.%.%.&.i : 2 : , , 1 1 1 1 1 1 1 1 1 1 , , 1 1 1 1 1 1 1 1 1 1 1 1 1 1 , 1 , 2 1 1 ",
"1 1 1 , 1 1 1 1 1 1 1 1 1 1 1 1 1 1 1 1 1 1 1 1 1 1 1 1 1 1 1 1 1 1 1 1 1 1 1 1 1 1 ; = 0 @.&.%.%.%.&.&.i = 1 1 , , 1 1 1 1 1 , 1 1 1 1 , , 1 1 1 1 1 1 , 1 1 1 1 ; 1 , 1 1 1 1 1 1 ",
"1 1 1 1 1 1 1 1 1 1 1 1 1 , 1 , , 1 1 1 1 1 1 1 1 1 * 1 1 1 1 1 1 1 1 1 1 1 1 1 1 1 1 1 7 ] ] ` ' ' ' ] t : 1 1 , , 1 1 1 1 1 1 , 1 1 1 , , 1 1 1 1 1 1 1 1 : 1 1 , , , 1 1 1 , 1 1 ",
", 1 1 1 1 1 1 1 1 1 1 1 1 , 1 1 1 1 1 1 1 , , 1 1 1 1 1 1 1 1 1 1 1 1 1 1 1 1 1 1 1 1 1 7 K I U I I L U w > , 1 1 1 1 1 1 1 1 1 1 1 1 1 ; 1 1 1 1 1 1 1 1 1 1 1 1 1 , , ; , , , 1 1 ",
"1 1 1 1 1 1 1 1 1 1 1 1 1 1 1 1 1 1 1 1 , , 1 1 1 , , 1 1 1 1 1 1 1 1 1 1 1 1 1 1 1 1 : 0 K T T T T U U w 1 1 1 1 1 1 1 1 1 1 1 1 1 1 , , 1 1 1 1 1 1 1 1 1 1 1 1 1 1 1 , , ; 1 1 1 ",
"1 1 1 1 1 1 1 1 1 1 1 1 1 1 1 1 1 1 1 1 , 1 1 1 , 1 1 1 1 1 1 1 1 1 1 1 1 1 1 1 1 1 1 1 0 K T T T T T U e > 1 1 = 1 1 1 1 1 1 1 1 1 1 1 1 1 1 1 1 1 1 1 1 1 1 1 , , ; 1 ; , 1 1 1 1 ",
"1 , 1 1 1 1 1 1 1 1 , 1 1 1 1 , 1 , 1 1 , 1 1 1 1 1 1 1 1 1 1 1 1 1 1 1 1 1 1 1 1 1 1 : 7 K T T T T T ^ e > 1 1 1 1 1 1 1 1 1 1 1 , 1 1 1 1 1 1 1 1 1 1 1 1 1 1 , , 1 1 , , 1 , 1 1 ",
"1 1 1 1 1 1 1 1 1 1 1 1 1 1 1 1 1 > > > > > > > 1 ; 1 1 1 ; 1 1 1 1 1 1 1 1 1 1 1 1 1 1 8 U T U T ) T T e > > > > 1 1 1 1 1 1 2 1 1 1 1 1 1 1 1 2 1 1 1 1 1 1 1 , ; ; 1 1 1 1 1 1 1 ",
"1 1 1 , 1 1 1 1 1 1 1 1 1 1 ; ; > > > - > 7 > - ; ; ; ; ; ; ; ; - - > - 5 > - - - 7 > = 6 U T T T I T ^ w - 7 - 7 > - 7 - - - - - ; ; - - > - 5 - - 7 1 1 1 1 8 1 1 1 ; 1 1 1 1 1 1 ",
"1 1 1 1 1 1 1 1 1 1 1 1 1 1 ; r t r i t t t i y t t t t t t r t t t t t t t t t t t t t y U ( T T T T U b e t i t t t t t t t t t t r t t t t t t t t q 1 1 1 1 , 1 , , 1 3 1 1 , 1 ",
"1 1 1 1 1 1 1 1 1 1 1 1 , ; 5 m ~ ! ! ! ! ^ ! ^ R R R R R R R R ! ! ! ! ! ! ! R ! ! ! ! U ) ) U U T T T ^ W ! ! R ! ! ! R ! ! ! ! R R R ! ! ! ! R R ~ m - 1 1 , 1 1 , , , , , 1 1 1 ",
", 1 1 1 1 1 * 1 1 1 1 1 1 1 5 C ^ P Y T U U I T T P U U E Y Y P U I T U I U T T T T P T Y ( ) T T T ( T I I I I T P T T P T U P P P P P T P T I P T E N = 1 1 , 1 , , , , , , 1 1 1 ",
"1 1 1 1 1 1 1 1 1 1 1 1 1 1 5 C U T ( T T T T ( Y T T T Y Y P E T T T T Y T T T T T T T T Y Y T T T T T I _ T I T T T T T T T T T E T T T Y T T T T T n - 1 1 , 1 1 , , , , 1 1 1 1 ",
"1 1 1 1 , 1 1 1 1 1 1 1 1 ; ; m R T T T U T T T T T U T T T P T T T I U T T U I T T T U T U U T T U T T _ T T T T T T U T T I T T T T T T T T U U U T n = , 1 1 1 1 1 1 1 ; ; , 1 1 ",
"1 1 1 , 1 1 1 1 1 1 1 1 1 1 ; m R T T ) I T I T T U U T T T U T T T T T T T T T T T Y P T U T T T T T T I T T T T T T T U T T T T U T U T T T T T Y ` b = , 1 2 , 1 1 1 1 ; 1 , , , ",
"1 1 1 1 1 1 1 1 1 1 1 1 1 1 5 B U E Y T U U T T T T T T T T T I T T T T T T T T T T T T T T T T T T T I T ) T T T T T T T T T T T T T T T T T T ( _ _ N ; 1 , , , 1 1 , 1 1 1 1 1 1 ",
"1 1 1 1 1 1 1 1 1 1 1 1 1 1 5 C ^ T _ ) T T T ) _ E T T T E T E T T T T ) T T T E T E E E T T _ ) ) T T T T T ) ) _ T E T E T T T E T T E T E T _ Y E N ; 1 , , , 1 1 1 , 1 1 1 1 1 ",
", 1 1 1 1 1 1 1 1 1 1 1 1 1 - n J H H H H H H H H H C H H H H H H H H H H H H H H H H H H H H H H H H C H H H H H H H H H H H H H H H H H H H H H H J v * 2 1 1 , 1 1 , , , 1 1 1 1 ",
"1 1 1 1 1 1 1 1 1 1 1 1 1 1 > > - - 5 - - - 7 > > - - - > 5 > 7 - - 7 > > 5 > 5 5 - - 5 - 5 7 > > > - > > > > > - - - - - 5 - - 5 - 5 - - - - - - - = : , , 1 1 1 1 , , , % , 1 ; 1 ",
"1 1 1 1 1 1 1 1 1 1 1 1 1 1 : 1 2 : 1 , , , 1 , 1 1 2 1 > 1 1 1 1 , 2 1 1 1 1 1 1 1 1 1 1 1 2 : > , 1 1 1 1 1 , 1 , 1 1 1 1 1 1 2 1 1 1 , 1 2 1 , 1 1 , , , , 1 2 1 1 1 1 1 , 1 1 1 ",
"1 1 1 , 1 1 1 1 1 1 1 1 1 1 1 1 , 1 1 , , , , , , > > 1 > 1 1 1 1 1 > > 1 1 1 1 1 1 1 , 1 1 1 1 , , 1 1 1 1 , , 1 1 1 1 , , 1 1 1 1 1 1 ; 1 , , ; , , , 1 , , 1 1 1 1 1 ; 2 1 1 1 1 ",
"1 1 1 1 1 1 1 1 1 1 1 1 1 1 1 1 , 1 1 , , , 1 , 1 1 1 1 1 1 1 1 1 1 1 1 1 1 1 1 1 1 1 1 1 1 1 1 , 1 1 8 1 1 , 1 1 1 1 1 1 1 1 ; 1 1 1 1 1 1 1 , , , , 1 1 1 1 1 1 1 1 1 1 ; 1 1 1 1 ",
"1 1 1 1 1 1 1 1 1 1 1 1 1 1 1 1 , ; 1 1 1 1 1 1 1 1 1 1 1 1 1 1 1 1 1 1 1 1 1 1 1 1 1 1 1 1 1 1 1 1 1 1 1 1 1 1 1 1 1 1 1 1 1 , 1 1 1 1 1 1 1 1 1 ; 1 1 , 1 1 1 ; 1 1 1 1 1 1 1 1 1 ",
", 1 ; 1 1 1 1 , 1 1 , 1 1 1 1 1 1 1 1 1 , 1 1 1 1 1 1 1 1 1 1 , 1 1 1 1 1 1 1 : , 1 1 1 1 1 1 1 1 1 1 1 1 , 1 1 1 1 1 1 1 1 , , 1 1 1 1 1 1 1 1 , 1 1 1 1 1 1 1 , , 1 1 1 , 1 1 1 1 ",
", , , , 1 1 , , 1 , 1 1 1 1 1 1 > 1 1 1 1 1 1 1 , 1 1 1 1 1 1 1 1 1 1 1 1 1 1 1 1 1 1 1 1 , 1 1 1 1 1 1 1 1 1 1 1 ; 1 1 1 1 , 1 1 1 1 1 1 1 1 1 ; , 1 1 1 1 1 1 , 1 1 1 1 1 1 1 1 1 "
};
