/* XPM */
static char *_[] = {
/* columns rows colors chars-per-pixel */
"90 90 186 2 ",
"   c #0D0B4E",
".  c #141355",
"X  c #201F5D",
"o  c #1E215F",
"O  c #22215C",
"+  c #1D1D64",
"@  c #211F64",
"#  c #1E2064",
"$  c #252464",
"%  c #24246A",
"&  c #28276F",
"*  c #27296D",
"=  c #2B2B6D",
"-  c #282962",
";  c #30326F",
":  c #252571",
">  c #282774",
",  c #2B2C74",
"<  c #24257A",
"1  c #28277E",
"2  c #26287A",
"3  c #2C2D7C",
"4  c #262973",
"5  c #302F74",
"6  c #302F7C",
"7  c #2F3175",
"8  c #2F327A",
"9  c #323376",
"0  c #323278",
"q  c #38377C",
"w  c #36387C",
"e  c #38397C",
"r  c #484874",
"t  c #282780",
"y  c #262881",
"u  c #2B2C82",
"i  c #272782",
"p  c #2F3282",
"a  c #333483",
"s  c #383781",
"d  c #363882",
"f  c #3A3983",
"g  c #3B3B8C",
"h  c #33348C",
"j  c #3C3D94",
"k  c #3C3C9C",
"l  c #37379E",
"z  c #3E3BA1",
"x  c #3E4095",
"c  c #3F4198",
"v  c #484888",
"b  c #545484",
"n  c #585887",
"m  c #525288",
"M  c #454594",
"N  c #494896",
"B  c #4D4C9B",
"V  c #454499",
"C  c #535597",
"Z  c #69668F",
"A  c #65638A",
"S  c #6B6990",
"D  c #77769F",
"F  c #4546A6",
"G  c #4748A5",
"H  c #4B4BA6",
"J  c #4646AB",
"K  c #4A4AAB",
"L  c #504EAE",
"P  c #5351A2",
"I  c #4C4AB3",
"U  c #4B4BB9",
"Y  c #4E51B7",
"T  c #5453BD",
"R  c #5B5BBC",
"E  c #5253B6",
"W  c #7778A0",
"Q  c #7B7BA4",
"!  c #7F7FA9",
"~  c #6B6BBB",
"^  c #6A69B7",
"/  c #7778B7",
"(  c #7877BA",
")  c #7A79BB",
"_  c #7777BC",
"`  c #6666A9",
"'  c #5554C2",
"]  c #5958C2",
"[  c #5654C8",
"{  c #5956D6",
"}  c #5B5AD6",
"|  c #5A57DB",
" . c #5B5ADA",
".. c #605ECE",
"X. c #625FD4",
"o. c #605DDB",
"O. c #5F60D5",
"+. c #6867CD",
"@. c #6260D2",
"#. c #6D6CD2",
"$. c #6260D9",
"%. c #6865D4",
"&. c #7574DE",
"*. c #7876D8",
"=. c #5E5BE2",
"-. c #615EE1",
";. c #7575E2",
":. c #7F7EFA",
">. c #807EFB",
",. c #7E81A9",
"<. c #7F80F4",
"1. c #918FAB",
"2. c #9190AA",
"3. c #8281B5",
"4. c #8E8FB1",
"5. c #8080BA",
"6. c #918FB2",
"7. c #8F90B2",
"8. c #9191B2",
"9. c #9C9FBD",
"0. c #8989CA",
"q. c #8384C3",
"w. c #8684D6",
"e. c #8E8DDC",
"r. c #8785D8",
"t. c #9798D7",
"y. c #9697D9",
"u. c #9798D8",
"i. c #9A9BDA",
"p. c #9899D5",
"a. c #9798C5",
"s. c #A4A5C5",
"d. c #A6A8C6",
"f. c #AEAFC7",
"g. c #ACACCA",
"h. c #AFAFD0",
"j. c #8886E8",
"k. c #918FE3",
"l. c #9290E1",
"z. c #9492E8",
"x. c #8481F4",
"c. c #8D8BF4",
"v. c #8382FD",
"b. c #8A87FE",
"n. c #8C8BFC",
"m. c #918FFE",
"M. c #9594FE",
"N. c #A29EFB",
"B. c #A19EF5",
"V. c #9FA0E1",
"C. c #A5A4E6",
"Z. c #B9B9ED",
"A. c #A4A2F6",
"S. c #AFAFF1",
"D. c #A4A2FD",
"F. c #AAA7FD",
"G. c #ADABFF",
"H. c #B0AEFF",
"J. c #AFB0F2",
"K. c #BDBCF3",
"L. c #B4B2FE",
"P. c #B8B7FB",
"I. c #BDBDFD",
"U. c #C0BDFF",
"Y. c #CCCCE4",
"T. c #C6CAE2",
"R. c #D7D9E7",
"E. c #C3C2FD",
"W. c #C8C7FF",
"Q. c #CCCBFF",
"!. c #D3D4F4",
"~. c #D8D7F7",
"^. c #D3D4FF",
"/. c #D8D7FF",
"(. c #DADAFF",
"). c #D9DBF1",
"_. c #E6E4F7",
"`. c #E5E6FB",
"'. c #EAE7FA",
"]. c #E7E9FA",
"[. c #EDECFD",
"{. c #F0EDFE",
"}. c #F5F6FF",
"|. c #F8F7FB",
" X c #F6F8FF",
".X c #FEFEFF",
/* pixels */
"0 0 0 0 0 9 0 0 0 0 0 0 0 0 0 0 0 0 0 0 0 9 0 0 0 9 0 0 0 9 9 9 5 0 6 0 0 0 0 0 0 9 9 0 0 9 0 0 0 0 0 0 0 0 0 0 5 0 0 0 0 0 0 0 0 0 0 9 0 0 a 0 0 0 0 0 0 0 0 0 0 0 0 0 0 0 0 0 5 0 ",
"0 0 0 0 0 0 0 5 0 0 7 0 0 0 5 9 0 0 0 0 0 0 0 0 0 0 5 0 5 0 9 9 0 0 0 0 0 0 0 0 0 0 0 0 0 0 6 0 0 0 0 0 0 0 0 0 0 0 0 9 0 0 0 0 0 0 0 9 9 9 0 0 0 0 0 0 0 0 0 0 7 0 0 5 0 0 0 0 0 0 ",
"0 0 0 0 0 0 0 0 0 0 0 0 0 0 0 0 0 0 5 0 5 0 0 0 0 0 0 0 0 0 0 0 0 0 0 0 0 0 0 0 0 0 0 0 0 0 0 0 6 s 0 0 q 6 0 0 0 0 9 9 0 0 0 0 0 0 0 9 9 9 9 0 0 0 0 0 0 0 0 0 0 0 0 0 5 0 0 0 0 0 ",
"0 0 0 0 0 0 0 0 0 0 0 0 0 0 0 0 0 0 0 0 0 0 0 0 0 0 0 0 0 0 0 0 0 0 0 9 9 9 9 0 0 0 0 0 0 0 0 0 6 0 0 0 0 0 0 0 0 0 9 9 0 0 0 0 0 0 0 0 9 9 9 0 0 0 0 0 0 5 9 0 0 0 0 0 0 0 0 9 0 0 ",
"0 0 0 0 0 0 0 0 5 9 0 0 0 0 0 0 0 0 0 9 0 0 0 0 0 0 0 0 0 0 0 0 8 8 0 0 0 0 9 9 5 0 0 6 0 0 0 0 9 0 9 9 9 9 9 9 0 5 9 9 0 6 6 0 0 0 0 0 0 8 0 0 0 0 0 0 0 0 0 0 0 0 0 0 0 0 0 0 0 0 ",
"0 0 0 0 0 0 5 0 0 0 0 0 0 0 9 0 0 0 0 0 0 0 0 0 0 0 5 0 0 0 0 0 0 0 0 0 0 0 e 9 q q q q 0 q q q q 0 q q q q q q q q q q s q s q e 0 0 q 0 0 0 0 0 6 0 0 5 9 0 0 0 0 0 0 0 0 0 0 0 0 ",
"0 9 0 5 0 0 0 0 0 0 0 0 0 0 5 0 0 0 0 0 0 9 0 0 9 0 7 0 0 0 9 0 0 0 0 0 0 = O - $ $ $ - $ $ $ $ $ $ $ $ @ $ - @ @ @ $ = $ $ @ @ O - $ & 0 w 0 0 0 0 0 0 0 0 0 0 0 0 0 0 0 0 0 0 0 0 ",
"0 0 0 0 0 0 9 0 0 0 0 0 0 0 0 0 0 0 0 5 0 0 0 0 0 0 0 0 0 0 0 0 0 0 0 0 & m ).T.Y.Y.Y.Y.Y.Y.Y.Y.Y.Y.Y.Y.Y.Y.Y.Y.Y.Y.Y.Y.Y.Y.Y.Y.Y.T.).! $ q 9 9 0 0 0 0 0 0 0 0 0 9 0 5 0 9 0 0 0 0 ",
"0 0 0 0 5 0 0 9 0 0 0 0 0 0 0 0 0 0 5 0 0 0 5 0 0 0 0 9 9 0 0 0 0 0 0 0 * r .X}. X X X X X X X|. X X X X}.}.}.}.|.|.}.}.|. X|. X X}..X8.o e 9 9 0 0 0 0 0 0 0 0 0 0 0 0 0 0 0 0 0 7 ",
"0 0 9 0 0 0 0 0 0 0 0 5 0 0 0 0 0 0 0 0 0 0 0 0 0 0 0 0 0 9 9 0 0 w 0 0 & b .X].[.[.[.[.[.[.[.[.[.[.[.[.[.[.[.[.{.{.{.[.[.[.[.[.[.]..X1.O e 0 9 0 0 0 0 9 0 0 0 0 5 0 0 0 0 0 0 0 0 ",
"5 0 0 0 0 0 0 0 0 0 0 9 5 9 0 0 0 0 0 0 0 0 0 9 9 0 0 0 0 9 0 0 0 0 0 0 & n .X[.{.{.{.{.[.{.{.{.}.[.{.{.}.[.{.}.{.{.{.{.[.{.{.}.{.[..X6.X q 0 9 0 0 5 0 0 0 0 0 0 0 0 0 0 0 0 0 0 0 ",
"0 0 0 0 0 0 0 0 0 0 0 0 0 0 0 0 0 0 0 0 0 0 0 0 0 0 0 0 9 9 9 9 0 0 6 s & n  X].{.[.{.{.[.}.[.[.{.[.{.[.{.[.{.{.{.{.{.{.{.{.[.[.{.]..X8.X s 0 9 0 0 9 0 0 0 0 0 9 0 0 0 0 0 0 0 0 0 ",
"0 0 0 0 0 0 0 0 0 0 5 0 0 0 0 0 0 0 0 0 0 0 6 0 0 0 0 0 0 0 s d s s q s 5 n }.`.[.].].].'.'.].].].].[.].'.].].].[.].'.].].[.'.'.'._.|.8.$ f f e 0 q q q 0 0 0 0 0 0 0 0 0 0 0 0 0 0 ",
"0 0 0 0 0 5 0 0 0 0 0 0 0 0 0 0 0 5 0 0 0 0 0 0 0 9 0 5 0 , # # # + + $ . r .X|..X.X.X.X.X.X.X.X.X.X.X.X.X.X.X.X.X.X.X.X.X.X.X.X.X.X.X1.  * $ . O # + * 0 6 0 0 0 9 0 0 0 0 0 0 0 5 ",
"0 7 0 9 0 0 0 0 0 0 0 0 0 0 0 0 0 0 0 0 0 0 0 0 0 0 0 0 = m g.s.d.s.s.s.d.9.D Q Q Q Q Q Q Q Q Q Q Q Q Q Q Q Q Q Q Q Q Q Q Q Q Q Q Q D 6.g.s.s.s.s.s.g.Q * q 0 0 7 9 0 0 0 0 0 0 0 0 ",
"0 0 0 0 0 9 0 0 0 0 0 0 0 7 0 0 0 0 0 0 0 0 0 0 0 0 0 q $ S .X}..X.X.X.X.XR.. * $ $ # $ $ $ % $ % % $ % % % # % % $ % # % % $ % % &   2..X|..X.X.X|..Xf.@ 0 9 0 7 ; 9 0 0 0 0 0 0 0 ",
"0 0 0 0 0 0 9 5 0 0 0 0 0 0 0 0 0 0 0 0 0 0 0 0 0 0 0 q $ Z .X_.'.{.[.].}.Y.= f 0 q 0 q q 0 q 0 0 0 q q 0 0 0 q q q 0 q w 0 e 0 q s $ 8..X_.[.[.'.]..Xs.@ d 0 0 9 9 9 0 0 0 0 0 0 0 ",
"0 5 0 0 0 0 0 0 0 0 0 0 0 0 0 0 0 0 0 0 0 0 7 0 0 9 0 q $ Z .X'.{.{.{.{.}.Y.$ q 0 w 0 0 0 0 0 0 0 0 0 0 9 0 0 0 0 0 0 0 8 0 9 0 0 q O 8..X].{.{.{.'..Xs.@ d 0 0 9 9 9 0 0 0 0 0 9 0 ",
"0 0 0 0 0 0 0 0 0 0 0 0 0 5 0 0 0 0 9 0 0 0 0 0 0 0 0 0 $ Z .X'.{.{.{.{.}.Y.$ q 6 a 0 0 0 0 0 0 0 0 0 8 0 0 0 0 0 0 0 0 0 9 9 0 0 q O 8..X].}.[.}.]..Xs.+ s 0 0 0 9 9 0 5 0 0 7 0 0 ",
"0 0 0 0 0 0 0 0 5 9 0 0 0 9 0 0 0 0 5 0 0 0 0 0 0 9 0 9 - Z .X'.{.{.{.{.}.Y.O e 6 0 0 0 0 0 0 0 0 0 0 0 0 0 0 0 0 0 0 0 0 0 9 0 0 0 O 4..X].[.[.[.]..Xs.$ a 0 8 0 0 0 0 0 0 9 0 0 0 ",
"0 5 0 0 0 0 0 0 0 0 0 0 0 0 0 0 0 0 0 0 0 0 9 e q 9 q e - Z .X_.'.[.'.'.}.T.O 9 0 0 9 0 0 0 0 0 0 0 0 0 0 0 0 0 0 0 0 0 0 0 0 0 0 d @ 4..X`.[.[.[.]..Xs.# q 0 w 0 0 0 0 9 9 9 0 0 0 ",
"0 9 0 0 0 0 5 9 0 0 0 0 0 0 0 0 0 0 0 0 5 9 = $ % $ $ * . A .X|..X.X.X.X.XR.$ e 0 9 9 0 0 0 0 5 0 0 0 0 0 0 5 0 0 0 0 0 0 0 0 0 0 q $ 4..X[.{.{.}.[..Xs.# 0 0 0 0 0 0 0 0 0 0 0 9 5 ",
"0 0 0 0 0 0 0 0 0 0 9 0 0 0 0 0 0 0 0 0 0 4 C ,./ ( / ) ) 3.8.8.6.6.8.4.8.3.= 0 9 9 0 9 0 0 0 0 0 0 0 5 0 0 9 0 0 0 0 0 0 0 0 w 0 q % 3.`.!.~.!.!.!.`.a.$ w 0 0 0 9 0 0 0 0 0 0 0 0 ",
"0 0 0 0 0 0 0 0 0 0 5 0 0 0 5 9 0 0 0 0 q % q.(.W.Q.^.W.(.p.. - O O O O O $ 0 7 9 0 0 0 0 0 0 0 0 0 0 0 0 0 0 0 0 0 0 0 0 0 8 0 8 q % ( E.Z.T.Z.K.Z.W.0.$ 0 0 9 0 9 9 0 0 0 0 0 0 0 ",
"0 0 0 0 0 0 0 0 0 0 0 0 0 0 0 0 0 5 0 0 0 % ) Q.P.P.U.P.E.y.& e ; e q 9 q 0 0 0 0 0 0 0 0 0 0 0 0 0 9 0 0 0 0 0 0 6 0 0 0 0 0 0 0 d * ) ^.P.E.U.E.I.Q.0.% 0 9 9 9 9 9 0 0 0 0 0 0 0 ",
"0 0 0 0 0 0 0 0 0 9 5 0 0 7 0 0 0 0 0 0 q % ) Q.P.E.I.I.Q.y.% 0 9 9 0 q 0 0 a 0 0 0 0 0 0 0 0 0 0 0 5 0 0 0 0 0 0 0 0 0 0 5 0 0 0 w % _ Q.I.E.I.I.K.Q.0.$ q 0 0 0 9 0 9 0 0 0 0 0 0 ",
"0 0 0 0 0 0 0 0 0 0 0 0 0 0 0 0 0 0 0 0 q % ) Q.I.I.E.I.W.y.% d 0 0 0 0 0 8 w 8 q 6 0 9 0 0 0 0 0 0 0 0 0 0 0 7 0 0 0 0 0 0 0 0 9 0 * ) Q.I.U.I.I.I.Q.0.% e 0 0 0 9 0 0 0 0 0 0 0 0 ",
"0 0 5 9 5 0 0 9 0 0 0 0 0 0 0 0 0 0 0 0 0 % ) Q.K.I.I.P.W.y.% q q 9 0 0 w 0 7 0 5 0 0 5 0 0 0 5 0 0 0 9 0 0 9 0 0 0 0 0 0 0 0 0 9 0 % ) Q.P.I.U.E.I.Q.0.* 0 0 0 9 0 6 9 0 0 9 6 0 0 ",
"0 0 0 0 0 0 0 0 0 0 0 0 0 0 0 0 0 0 0 0 0 % ) (.W.Q.Q.W.^.i.* 0 0 9 9 0 3 0 0 9 0 9 0 0 7 0 0 0 0 0 0 0 0 0 0 0 0 0 0 9 7 9 9 9 0 9 $ ) Q.I.I.E.I.I.Q.0.% q 0 0 5 0 0 0 0 9 9 0 0 5 ",
"0 0 0 0 5 0 0 0 0 0 0 0 0 0 0 0 0 0 0 0 0 * ` C.y.y.y.y.V.) & 0 5 0 0 0 0 0 9 9 0 0 0 0 0 0 0 0 0 0 0 0 0 0 0 0 0 0 0 9 9 9 9 9 8 w % ) Q.I.I.I.E.P.Q.0.$ q 0 0 0 0 0 0 9 9 0 0 0 0 ",
"0 0 0 0 0 0 0 0 9 0 0 0 0 0 0 5 0 0 0 0 0 0 , % % % * % % * 0 0 0 9 9 9 0 0 0 0 0 0 0 0 0 0 0 0 0 0 9 5 0 0 0 0 0 0 0 9 9 9 9 9 0 q % ) Q.I.I.U.I.I.Q.0.% 0 0 0 0 0 9 0 0 9 9 0 9 0 ",
"0 0 0 7 0 0 0 0 0 0 5 0 0 9 0 0 9 5 0 0 0 0 9 0 0 w 0 q q q 0 8 0 0 , 0 9 0 0 0 0 0 0 0 5 0 0 0 0 0 0 0 0 0 0 0 0 0 0 0 0 9 9 9 0 q % ) Q.I.I.E.I.I.Q.0.$ 0 0 0 0 0 0 0 0 0 0 0 0 0 ",
"0 0 0 0 0 0 0 0 0 0 0 0 0 0 0 0 0 0 0 0 0 0 9 0 0 0 9 0 5 0 0 0 0 0 0 0 0 0 0 9 0 0 0 0 0 0 0 0 0 0 0 0 0 0 0 0 0 0 0 0 0 7 0 0 0 0 * ( Q.I.E.I.I.I.Q.0.$ w 8 0 9 0 0 0 0 0 0 8 0 0 ",
"0 0 0 5 0 0 0 0 0 0 0 0 0 0 0 0 9 0 0 9 0 0 0 , 0 0 0 0 0 0 0 0 9 0 9 0 0 0 0 0 0 0 7 0 0 0 0 0 0 9 5 0 0 9 5 0 0 0 0 0 0 0 0 0 0 e % ) Q.I.I.I.E.I.Q.0.% w 0 0 0 0 0 0 0 0 0 0 0 0 ",
"0 0 0 9 0 0 5 0 0 0 , 0 0 0 0 0 0 0 0 0 9 0 0 0 0 0 0 0 0 0 0 0 0 0 0 0 0 0 0 0 0 0 0 0 0 0 0 0 0 0 0 0 0 0 0 0 0 9 9 9 0 0 0 0 0 e $ ) Q.P.I.I.I.I.Q.0.$ 0 0 9 0 0 0 0 0 0 0 0 0 0 ",
"0 0 0 0 0 0 9 0 0 0 0 9 0 0 0 5 0 0 0 0 0 0 0 0 0 9 0 0 0 0 9 , 0 0 0 0 0 0 0 0 0 0 0 0 5 0 0 0 0 0 0 0 0 0 0 0 0 0 9 9 0 0 0 0 0 0 % ) Q.I.I.E.I.P.Q.0.* 0 0 0 0 0 0 0 0 0 0 0 0 0 ",
"0 0 0 9 0 0 0 0 0 9 0 0 0 0 0 0 0 0 0 0 0 0 9 0 0 0 0 0 0 0 9 0 0 0 0 5 5 0 0 0 0 0 9 0 0 0 0 0 0 0 0 0 0 0 0 0 0 0 9 9 , , 3 , , 6 + ) ^.E.W.W.W.E.^.0.% w 0 0 0 0 0 0 0 0 0 0 0 0 ",
"0 0 0 5 0 0 0 0 0 0 0 0 0 0 0 9 0 0 0 0 0 0 5 0 0 0 0 0 0 0 0 0 0 0 0 0 0 0 0 0 0 0 5 0 0 0 0 0 0 0 0 0 0 0 0 0 0 0 5 3 v M V V N N f _ S.C.C.C.C.C.J.) * e 0 9 0 0 0 0 0 0 0 0 5 0 ",
"0 0 0 0 0 0 0 0 0 0 0 9 0 0 0 0 0 0 0 0 0 0 0 0 0 0 0 0 0 0 0 0 0 0 0 0 0 0 0 0 0 0 0 0 0 6 0 0 9 0 0 0 0 0 0 5 0 0 f : e.P.G.H.G.F.I.~ + : : * * * * = 7 0 0 0 0 7 0 0 9 0 9 0 0 0 ",
"0 0 0 0 0 0 0 5 9 0 0 0 0 0 0 0 0 0 0 0 0 0 0 0 0 0 5 9 0 0 0 0 0 0 0 0 0 0 0 0 0 0 0 0 0 0 0 0 0 0 5 0 0 9 0 0 0 0 0 : w.F.N.N.A.N.G.~ > d w q e 0 0 e 0 9 0 0 0 0 0 5 0 0 0 0 0 0 ",
"0 0 0 0 0 0 0 0 9 0 5 0 0 0 5 0 5 0 0 0 0 0 0 0 0 5 0 0 0 0 0 0 0 0 0 0 0 0 0 0 0 0 0 0 0 0 0 0 0 0 0 0 0 0 0 0 0 0 q < r.F.D.D.F.N.H.~ 4 w w 8 5 0 0 5 0 7 5 0 0 0 0 0 0 0 0 0 0 0 ",
"0 0 0 0 0 0 0 0 0 0 0 0 0 0 0 9 0 0 0 0 9 5 0 0 0 9 0 0 0 0 5 0 0 0 9 0 0 0 9 5 0 0 0 0 0 0 0 0 0 0 0 0 0 0 0 0 0 0 d : w.G.D.D.F.M.H.~ 4 8 7 0 0 0 0 0 0 0 0 0 0 0 0 9 9 9 0 0 9 0 ",
"0 9 5 0 0 0 0 9 0 0 0 0 0 0 0 0 0 0 0 0 0 0 0 0 0 0 0 0 0 0 0 0 0 0 5 0 0 0 0 0 0 0 0 0 0 0 0 0 0 0 0 0 0 0 0 0 0 0 q : r.G.D.D.D.D.G.~ : d 7 7 0 0 0 0 0 0 0 0 0 0 0 9 9 9 0 5 0 0 ",
"0 0 0 0 0 0 0 5 0 0 0 0 0 0 0 0 0 0 0 0 0 0 0 0 0 0 0 0 0 0 0 9 0 0 0 0 0 0 0 0 5 0 0 9 0 0 0 0 0 0 0 0 0 3 0 0 0 5 q : w.G.D.D.F.D.L.~ : 8 8 7 0 0 0 0 0 0 0 0 5 0 0 9 0 0 0 0 9 0 ",
"0 0 0 0 0 0 0 0 5 0 0 0 0 0 0 0 0 0 5 9 0 9 5 0 0 0 0 0 0 0 0 0 0 0 0 0 0 0 0 0 0 0 0 9 5 9 0 8 7 0 7 0 0 a s 0 a 0 s > r.F.D.D.D.B.G.~ : q 0 0 0 0 0 0 0 0 0 0 0 0 0 0 5 0 0 0 0 0 ",
"0 0 0 0 0 0 0 0 0 9 0 0 0 5 9 0 0 0 0 0 0 0 0 0 5 0 0 0 0 0 5 0 0 0 0 0 0 0 0 5 0 0 0 9 9 0 0 0 0 0 e & e.F.D.B.D.D.B.H.P 3 a 0 q 0 0 0 8 0 0 0 0 0 0 0 0 0 0 0 0 0 0 0 0 0 9 0 0 0 ",
"0 0 0 5 0 0 0 0 0 0 0 0 0 0 0 0 0 0 0 0 0 0 0 0 9 0 0 0 0 0 0 0 0 0 0 0 0 0 0 9 0 0 0 9 9 9 0 0 0 9 9 = l.G.F.D.D.D.N.G.P > 0 3 9 9 ; 9 0 0 0 9 5 0 0 9 0 0 0 0 0 0 0 0 0 0 0 0 7 0 ",
"9 0 0 0 0 0 0 7 0 0 0 0 0 0 0 0 0 0 0 0 0 0 0 0 0 0 0 0 0 0 0 0 0 0 9 5 0 0 0 0 0 0 9 9 9 9 9 9 8 0 9 = l.G.D.D.D.D.N.L.P > q 0 9 9 9 9 9 9 9 9 0 0 0 0 5 9 0 0 0 0 0 9 0 0 0 0 0 0 ",
"0 0 0 5 5 0 0 0 0 0 0 0 0 0 0 0 0 0 0 0 0 0 0 0 0 0 0 0 0 9 0 7 0 0 0 0 0 0 0 0 0 0 0 9 0 0 0 0 8 8 d 4 k.F.N.F.D.D.N.H.P > 0 0 0 0 0 7 0 0 9 9 9 0 9 0 0 0 0 0 9 0 0 0 0 5 0 0 0 0 ",
"0 0 0 0 0 0 0 0 0 0 0 0 5 0 0 0 0 0 0 7 0 0 0 0 0 0 0 9 0 0 0 0 0 0 0 0 0 0 0 0 0 0 0 0 0 0 0 0 0 8 w 4 z.G.D.D.D.D.D.H.P , s 0 0 0 0 0 0 0 0 0 9 0 0 0 0 0 0 0 5 0 0 0 0 9 0 0 0 0 ",
"0 0 0 0 0 0 0 0 0 0 0 0 0 0 0 0 0 0 0 5 0 0 0 0 0 0 0 0 0 0 0 0 0 0 0 0 0 0 0 0 0 0 0 0 0 q 0 0 8 8 w 4 l.F.M.D.D.N.N.G.B , 0 0 0 0 a 0 0 0 0 0 0 0 0 0 0 0 9 0 0 0 0 0 0 0 0 0 0 9 ",
"0 0 0 0 9 0 0 0 0 9 7 0 0 0 0 0 0 0 0 9 0 0 0 5 0 5 0 0 0 0 0 5 0 0 5 9 0 0 0 0 0 0 0 0 0 2 , 6 2 3 3 : z.L.L.H.G.G.F.I.P , 0 0 0 0 0 0 0 0 a 0 0 0 0 9 0 0 5 0 0 0 0 0 0 0 0 0 0 5 ",
"0 9 0 0 0 0 0 0 0 0 0 5 0 5 0 0 0 0 0 0 0 0 0 0 0 0 5 0 0 0 0 0 0 5 0 0 0 0 0 5 0 0 0 5 0 *.&.;.;.;.&.*.L c M M v M M N f 0 0 9 0 0 0 0 w 0 0 0 9 0 0 0 0 0 0 0 0 0 0 0 0 0 0 0 0 0 ",
"0 0 0 0 9 0 0 0 0 0 0 0 9 0 0 0 0 0 0 0 0 0 9 0 0 0 0 0 0 0 0 0 0 9 0 0 0 9 0 9 0 0 0 0 p c.b.b.b.b.b.m.x * , ; ; ; = = 9 9 9 0 0 0 0 0 8 9 9 9 0 0 0 0 0 0 0 0 0 0 0 0 0 0 0 0 0 0 ",
"0 0 0 0 0 0 5 0 0 0 0 9 0 0 0 0 0 0 0 0 0 9 0 0 0 0 9 0 0 0 0 0 0 0 0 0 0 0 9 0 0 0 0 7 a >.v.v.<.v.<.b.x 7 8 0 9 9 9 9 9 9 9 0 0 0 0 0 0 9 9 9 9 0 9 0 0 7 0 0 0 0 0 0 9 5 0 0 0 0 ",
"0 5 0 0 0 0 0 0 0 0 0 0 0 0 0 0 0 0 0 5 0 0 9 0 0 0 0 0 0 0 0 9 0 0 0 0 0 0 0 0 0 0 0 9 a x.b.v.v.<.v.m.x 7 8 8 9 ; 9 9 0 0 0 9 7 0 0 0 9 0 0 0 0 0 0 5 0 0 0 0 0 0 7 0 0 0 0 0 0 0 ",
"0 0 5 9 0 0 0 0 0 0 0 0 0 0 0 0 9 0 0 9 0 9 0 0 0 0 0 0 0 0 0 0 0 0 0 0 0 0 0 0 0 0 0 0 a x.v.v.v.v.<.b.c , a 0 9 9 0 0 0 0 6 0 9 9 9 9 9 9 0 0 0 0 0 0 0 0 0 0 0 0 0 0 0 0 0 5 0 0 ",
"0 0 0 0 0 0 0 5 0 0 0 0 0 0 0 0 9 9 9 9 0 0 0 0 0 0 0 0 0 9 0 0 0 7 0 9 0 9 0 0 3 8 0 7 p x.v.v.v.v.v.n.c , 0 0 q 9 0 0 0 0 0 0 , 9 9 9 9 0 0 0 0 0 0 0 0 7 0 0 0 0 0 0 9 0 0 0 0 0 ",
"0 0 0 0 0 0 0 9 0 5 0 0 0 5 0 8 9 9 9 0 9 0 0 0 9 9 0 0 0 9 0 9 9 7 0 7 7 8 8 d w w w 8 h x.v.<.<.<.<.b.c 7 9 9 0 0 0 0 0 0 0 0 0 9 0 0 0 0 0 0 0 0 5 0 0 0 0 0 5 0 0 0 0 0 0 0 0 0 ",
"0 0 0 0 0 0 0 0 9 0 0 0 0 0 0 0 9 9 9 0 0 0 0 0 9 9 9 0 0 0 0 0 9 7 0 7 8 8 2 1 y u 2 2 y c.m.c.m.n.n.M.x , 9 9 0 0 0 0 0 0 0 0 0 0 0 0 0 0 0 0 0 0 9 0 0 0 0 0 0 0 0 0 0 0 0 0 0 0 ",
"0 0 0 0 7 0 0 0 0 0 0 0 0 0 0 0 0 0 0 0 0 0 0 9 9 ; 9 9 6 6 0 0 0 0 0 0 7 x #.#.#.#.#.#.#.G G G G H G H d 7 0 9 9 9 0 0 0 0 0 0 5 0 0 0 0 0 0 0 0 0 0 0 0 5 0 0 0 5 0 0 0 0 0 0 0 0 ",
"0 0 9 0 0 0 0 0 0 0 0 0 0 0 0 0 0 0 0 0 s 0 0 0 9 9 9 0 s 0 0 6 s 0 0 0 7 c M.c.b.m.n.n.j.u 3 8 2 2 8 2 7 9 0 0 9 5 0 0 0 0 0 0 0 0 0 0 0 5 0 0 0 0 0 5 0 0 0 0 0 0 0 9 0 9 5 0 0 0 ",
"0 0 5 0 0 0 0 0 5 0 0 0 0 0 0 0 0 0 0 0 0 a 0 0 9 0 0 0 0 0 0 9 6 6 0 0 3 j c.>.v.v.v.v.<.p 7 8 w 8 p 8 0 0 0 0 9 9 0 0 0 5 0 0 0 0 0 0 0 0 0 9 0 0 0 0 9 0 0 0 0 0 0 0 0 0 0 0 0 5 ",
"0 0 0 0 0 0 0 0 0 0 0 0 0 0 0 0 0 0 0 6 0 0 0 9 9 9 0 0 9 9 9 9 9 0 0 0 , V b.v.v.v.v.<.c.p 7 7 8 0 7 w 8 0 0 0 7 0 0 0 0 9 0 0 9 0 0 0 0 0 0 0 0 0 0 0 0 0 0 0 0 0 0 0 0 0 0 0 0 0 ",
"0 0 0 0 0 0 0 0 0 0 0 0 0 0 9 9 0 9 0 0 0 0 0 9 7 9 9 9 7 8 9 9 9 0 0 0 8 c n.v.v.v.v.v.>.w 7 7 9 0 9 9 9 0 q 6 8 0 0 0 0 0 0 0 0 0 0 0 0 0 0 0 0 0 0 0 0 9 0 0 0 9 5 0 0 0 0 0 9 5 ",
"0 0 0 0 0 0 0 0 0 0 0 0 9 0 0 0 0 6 0 0 0 0 0 0 8 9 0 8 w 8 w 0 8 8 0 w 3 c n.<.v.<.v.v.x.a 7 0 0 0 0 9 9 9 0 0 8 0 0 0 0 0 0 0 0 0 0 0 0 0 0 0 0 0 0 0 0 5 0 0 0 0 0 0 0 0 0 0 0 0 ",
"0 0 0 0 0 0 0 0 0 5 0 9 0 0 9 0 9 0 9 0 0 0 8 3 8 u 3 u u u u u 3 3 3 y < c M.c.m.n.n.n.c.p 0 0 0 6 0 0 9 5 0 a 0 0 0 0 0 0 0 0 0 0 0 5 0 5 0 0 0 0 0 0 0 0 0 0 0 0 0 0 0 0 0 0 0 0 ",
"0 0 9 5 0 0 7 0 0 0 0 0 0 0 9 9 9 9 9 9 8 8 j G F J J J J J J J J J J F J J ] R R R R ] R w 9 9 6 0 0 0 9 5 0 6 0 0 0 9 0 7 0 0 0 0 9 0 0 0 9 0 0 0 0 5 0 0 0 0 0 0 0 0 0 0 0 0 0 0 ",
"0 0 0 0 0 0 0 0 0 0 0 9 0 0 0 0 9 9 9 9 0 3 K %.X.o.$.$.$.O.} @.O.O...O.O.' < 2 3 < 1 3 1 8 9 9 0 6 6 0 9 9 9 9 9 0 0 0 0 0 0 0 0 0 0 0 0 0 0 0 0 0 0 0 0 0 0 0 0 0 0 0 0 0 9 5 0 0 ",
"0 0 0 5 0 5 0 0 0 9 6 9 0 0 0 0 0 9 9 9 q u J @.{ | =. . . . . .} } O.{ O.' 3 w 0 0 0 a 0 0 9 9 0 0 0 0 9 9 9 9 9 9 0 0 0 0 0 0 0 0 0 5 0 0 0 0 0 0 0 0 0 0 0 0 0 0 5 0 0 0 0 0 0 0 ",
"0 0 0 0 0 0 0 0 0 0 0 0 0 0 0 0 0 9 9 9 0 u J @. .|  . . . . . . .}  . .=.[ 8 7 9 9 w 8 0 ; 9 0 0 9 q 0 9 9 9 9 9 0 0 0 0 0 0 0 0 0 0 0 7 0 0 0 0 0 0 0 0 0 0 0 0 0 0 0 0 0 0 0 0 0 ",
"0 0 0 0 9 0 0 0 9 9 6 0 0 0 0 0 0 9 9 9 8 u J @.{  . .}  . . . . . .| =.=.[ 8 7 7 0 w 8 0 9 ; 0 0 0 0 0 0 9 5 q 0 0 0 0 0 0 0 0 0 0 0 0 0 9 0 0 0 0 8 0 0 0 0 0 7 0 0 0 0 0 0 0 0 0 ",
"0 0 0 0 7 0 0 0 5 0 0 0 0 0 9 9 9 8 8 8 p y J O. . . . . .=.|  . . . .|  .' 3 8 0 0 0 0 0 9 9 0 0 0 0 0 0 0 0 0 0 0 0 0 0 0 0 0 0 0 0 9 0 0 0 0 q 0 0 0 0 0 0 0 8 8 0 0 9 6 0 0 0 0 ",
"9 0 0 5 0 0 0 0 0 0 0 0 0 0 0 0 8 p p u p y J O.{  . . . . . .}  .| =. .O.' y 8 3 u p 3 8 3 3 3 3 3 3 6 3 8 3 3 0 3 6 u 3 8 3 3 3 3 3 3 3 8 3 3 3 3 p 0 0 0 0 0 w 0 0 0 0 0 0 5 5 9 ",
"0 0 0 0 0 9 0 0 0 0 0 0 0 0 u j k k c z k l U O.| |  . . . . .} }  . .| =.[ k k k k z k k k k k k k k k j k k k k k k k k k k k k k k k j k k k k k k g 0 0 0 0 8 8 0 9 9 9 0 0 0 0 ",
"0 0 0 0 0 0 0 0 0 0 0 0 0 0 u Y %.O.O.O.O.O. . .=. . . . . . .}  .=.| |  . .O...@.@.X.@.@.@...O.@.@.@.@.@.@.} O.@.@.@.@.@.@...} @...@.@.@.@.} O.X.X.@.L 3 0 0 9 0 0 9 9 9 9 0 0 0 0 ",
"0 0 0 0 0 0 0 0 0 0 0 0 0 0 i ' O.{ } } } } } { =. .| |  .|  . . .=. .=. .} } } }  .| o.}  .}  .} {  .}  .{ }  .} {  .}  .} }  .} | }  .} { }  .{ { o.I 3 0 0 9 0 9 9 9 0 0 0 0 0 0 ",
"9 0 0 0 0 0 0 0 5 9 0 0 0 0 u Y O. .{  . . . . . . . .|  . . . . . . . . .} }  . .| | |  . . . . . . . . . . . .|  . . . . . . . . . . . . . . . .o.$.I 7 0 0 0 0 0 9 9 0 0 0 0 0 0 ",
"0 0 5 0 0 0 0 0 0 0 0 0 0 0 u Y O. . . .|  . . . . .| O. . . . . . . .} }  .O. . .} |  .}  . . . .}  .}  . . . . . .} }  .}  .} } }  . . . . . .} }  .K , e 0 0 0 0 9 9 0 0 0 0 0 0 ",
"0 0 0 0 9 0 0 5 0 0 0 0 0 0 u Y O.}  . . . . . . . .=. . . . . . . . . .}  .}  . . . . . . .}  . . . . . .}  .}  . . . . . . . . . . .}  . .}  . . .-.I 4 9 0 0 0 0 0 0 8 0 0 0 0 0 ",
"0 0 0 0 0 0 0 0 0 0 0 0 8 w u Y } } }  .|  .|  . .|  .| |  . .| =. . .|  . . . . . . . . . . . . . . . . . . . . .|  . . . . . . . . . . .|  . .=.-.-.I 6 0 0 9 0 0 0 0 9 0 0 0 0 0 ",
"7 0 0 0 0 0 0 0 7 0 0 0 0 8 u T @.} $. .o. .o.o.X.o.o.o.o.o. .o.o.| =.|  .o.-. . . .O. .=. . . . .o. .|  .o. . .o. .o. . . . . . .o. . .o. . . .| | o.L 3 q 9 9 0 0 0 0 9 9 0 0 0 0 ",
"0 0 0 0 0 5 0 0 0 0 0 0 0 0 3 K R T ' ' ' ' ' ' T T T T T ' ' ' ] ' ' ' [ ' [ [ ' ' [ ' ' ' ' ' ] ' [ ' [ ' ' ' ' ' ' ' [ ' ' ' ' ] [ ' ' ' ' ' ' ' ] G 5 6 0 0 9 0 0 9 9 9 9 0 0 0 ",
"0 0 0 0 0 0 0 0 0 0 0 0 0 0 0 8 3 3 u 3 3 3 3 8 3 3 3 3 3 3 8 3 , 3 3 6 3 3 3 3 u 8 3 8 3 3 8 u 3 3 3 3 3 8 3 3 3 3 3 u 8 3 3 8 3 3 3 3 u 8 3 8 3 2 6 5 9 9 0 0 0 0 9 9 9 9 9 9 0 6 ",
"0 9 5 0 0 0 0 0 0 0 5 0 0 0 , 9 q 0 0 0 0 0 0 w 0 9 0 0 0 0 w 0 9 ; 9 q 9 9 0 0 8 8 w 8 0 w 0 0 0 0 0 w 0 0 8 0 w 0 0 w 0 0 0 0 0 0 0 w 0 0 0 0 0 0 q 0 9 9 9 0 0 0 0 8 0 9 9 9 9 0 ",
"0 0 0 0 0 5 0 0 0 0 0 0 0 0 0 9 0 0 9 7 9 0 0 0 0 0 0 0 a 0 a 0 9 9 9 9 9 9 0 9 9 0 0 0 8 8 5 0 0 0 0 0 0 0 0 0 0 0 0 8 5 0 0 0 0 0 0 8 0 0 0 0 0 0 0 0 0 0 9 9 0 0 a 0 0 0 6 0 0 0 ",
"0 0 0 0 0 0 0 0 0 0 0 0 0 0 0 0 0 0 0 7 9 9 9 0 0 0 0 0 0 0 6 0 9 9 9 9 9 9 0 0 9 0 0 0 0 0 0 0 0 0 8 0 0 0 0 0 0 0 0 0 0 0 0 0 0 0 0 0 5 0 9 0 0 0 0 0 0 0 0 0 0 0 0 0 0 0 0 0 0 0 ",
"0 0 0 0 0 0 0 0 0 0 0 0 0 0 0 0 0 0 0 0 0 0 0 0 0 0 0 0 0 0 0 0 0 9 9 9 9 9 0 0 0 9 0 0 0 0 0 0 0 0 0 0 0 0 0 0 5 0 0 0 0 0 0 0 0 0 0 0 0 0 0 0 0 0 0 0 5 0 0 0 0 0 0 0 0 0 0 0 0 0 ",
"0 0 5 0 0 0 0 0 0 0 0 0 0 9 0 0 7 0 0 0 0 0 0 0 0 0 0 0 0 0 0 0 0 0 9 0 5 0 0 0 0 0 0 0 0 0 0 0 0 0 0 0 0 0 0 0 0 0 0 9 5 0 0 0 0 0 0 0 0 0 0 7 0 5 0 0 0 0 0 9 0 9 9 9 0 9 0 9 9 0 ",
"0 0 9 0 0 0 0 0 0 0 0 0 0 0 5 0 0 0 0 0 0 0 0 0 0 0 8 0 0 0 0 0 0 0 0 0 0 0 0 0 0 0 0 0 5 0 0 7 0 0 0 0 0 0 0 0 0 0 0 0 0 0 0 0 0 0 0 0 0 0 0 0 0 0 0 0 0 0 0 0 0 0 0 6 0 0 0 9 6 0 "
};
