/* XPM */
static char *_[] = {
/* columns rows colors chars-per-pixel */
"90 90 181 2 ",
"   c #0E0F49",
".  c #0E1048",
"X  c #111052",
"o  c #1D1D5E",
"O  c #201F5B",
"+  c #22225D",
"@  c #1D1D61",
"#  c #1D1E72",
"$  c #201F63",
"%  c #1F2062",
"&  c #252464",
"*  c #23246A",
"=  c #28276C",
"-  c #25286C",
";  c #2A2A6D",
":  c #262772",
">  c #262972",
",  c #2C2D73",
"<  c #27297B",
"1  c #2C2D7C",
"2  c #302F76",
"3  c #2F3175",
"4  c #2F317A",
"5  c #323376",
"6  c #363877",
"7  c #383877",
"8  c #323278",
"9  c #38377C",
"0  c #37387B",
"q  c #39397D",
"w  c #262783",
"e  c #2C2C82",
"r  c #2F3083",
"t  c #343381",
"y  c #303088",
"u  c #3C3B8B",
"i  c #3B3A80",
"p  c #3C3C9C",
"a  c #3C3D91",
"s  c #3836A1",
"d  c #3C3BA0",
"f  c #413F96",
"g  c #45468F",
"h  c #5E5E85",
"j  c #52518F",
"k  c #5D5D8D",
"l  c #454593",
"z  c #484794",
"x  c #474997",
"c  c #484895",
"v  c #43449E",
"b  c #575799",
"n  c #5A599C",
"m  c #565596",
"M  c #5F6090",
"N  c #66668F",
"B  c #68668E",
"V  c #696A8D",
"C  c #676790",
"Z  c #696690",
"A  c #696992",
"S  c #6C6B9B",
"D  c #77779C",
"F  c #4646A7",
"G  c #4748A4",
"H  c #4848A7",
"J  c #4646AA",
"K  c #4847AC",
"L  c #4A4AAD",
"P  c #4C4BB1",
"I  c #4F4FB9",
"U  c #514FB4",
"Y  c #504FB8",
"T  c #4F50B6",
"R  c #5352B4",
"E  c #5454BE",
"W  c #5B5ABD",
"Q  c #7B7BA4",
"!  c #7677A2",
"~  c #6B6AB7",
"^  c #6C6BBC",
"/  c #7676B7",
"(  c #7777BD",
")  c #7877BB",
"_  c #7778B9",
"`  c #7C7CBB",
"'  c #6667A8",
"]  c #5554C2",
"[  c #5B5AC0",
"{  c #5C5BCF",
"}  c #5655D4",
"|  c #5957D6",
" . c #5B59D6",
".. c #5A57DC",
"X. c #5B5ADA",
"o. c #615FD4",
"O. c #605EDB",
"+. c #6363C7",
"@. c #6364CA",
"#. c #6967CE",
"$. c #6260D3",
"%. c #6866D5",
"&. c #6361D9",
"*. c #6A68D3",
"=. c #7674DF",
"-. c #7C7ADF",
";. c #5E5BE0",
":. c #6E6EEB",
">. c #7675E2",
",. c #7977EB",
"<. c #7D7BE8",
"1. c #7775F0",
"2. c #817FFB",
"3. c #8F8EB1",
"4. c #8485B6",
"5. c #918FB3",
"6. c #8F90B1",
"7. c #9190B1",
"8. c #9997B2",
"9. c #9898B3",
"0. c #9999B9",
"q. c #9699BA",
"w. c #9797D5",
"e. c #9696D8",
"r. c #9897DB",
"t. c #9A99DA",
"y. c #9C9DD6",
"u. c #8785C7",
"i. c #A4A4C5",
"p. c #A9A7C7",
"a. c #A8A7C8",
"s. c #B0B0CF",
"d. c #B9B9D4",
"f. c #B4B6D3",
"g. c #A9A9D3",
"h. c #8382FE",
"j. c #8986FE",
"k. c #8788FF",
"l. c #8C8BFF",
"z. c #918EFF",
"x. c #9F9FF4",
"c. c #9492FF",
"v. c #9F9EFA",
"b. c #A19EF3",
"n. c #A39FFC",
"m. c #A2A3E4",
"M. c #A3A3F6",
"N. c #AEAFF0",
"B. c #A4A3FD",
"V. c #A9A7FB",
"C. c #ADACFF",
"Z. c #B1AFFF",
"A. c #B3B2F3",
"S. c #B8B7F7",
"D. c #BBBAF3",
"F. c #B5B3FF",
"G. c #BDBDFD",
"H. c #C0BEFF",
"J. c #C0C1CF",
"K. c #C2C3D3",
"L. c #C7C8E1",
"P. c #CCCCE5",
"I. c #C3C2FE",
"U. c #C9C7FE",
"Y. c #CCCCFF",
"T. c #D5D3F4",
"R. c #D9DAF2",
"E. c #D3D2FF",
"W. c #D8D6F8",
"Q. c #D7D8FF",
"!. c #DDDCFF",
"~. c #E3E4F6",
"^. c #E5E5FB",
"/. c #E9E7FA",
"(. c #E7E8FA",
"). c #EDECFD",
"_. c #F0EEFE",
"`. c #EFF2FB",
"'. c #F5F6FF",
"]. c #F6F8FE",
"[. c #FEFDFF",
/* pixels */
"8 8 8 8 8 8 8 8 5 8 8 5 8 8 5 8 5 8 8 5 8 2 5 8 8 8 8 8 2 5 5 8 8 8 5 5 8 8 8 8 8 8 8 8 8 8 8 8 8 8 8 8 8 8 8 8 8 8 8 8 2 2 8 8 8 8 8 8 2 8 5 3 8 8 5 8 8 8 5 8 8 8 8 8 8 8 8 5 8 8 ",
"8 8 8 8 8 2 8 8 8 8 8 8 8 8 2 8 8 8 8 8 8 8 8 8 2 8 8 8 8 8 5 8 8 8 8 5 8 8 8 8 8 8 8 8 8 8 8 8 8 8 8 8 8 8 8 8 8 8 8 t 8 8 8 8 8 8 8 9 8 8 3 5 8 8 8 8 8 8 2 8 8 8 2 8 8 8 8 8 8 5 ",
"8 8 8 8 8 8 8 8 5 8 2 8 8 5 5 5 8 8 8 2 8 8 8 8 8 5 5 8 8 8 8 8 8 8 8 8 8 t 8 8 8 8 8 8 8 8 8 8 t 8 8 8 8 8 8 8 8 8 8 8 8 4 8 8 8 8 8 8 8 8 8 4 8 5 8 5 8 5 5 8 8 8 8 5 8 8 8 8 8 8 ",
"8 8 8 8 5 8 8 5 8 8 8 8 8 8 8 5 8 8 8 5 8 8 5 8 8 8 8 8 8 8 8 8 8 8 8 8 8 8 8 8 8 8 8 8 8 8 8 8 8 8 8 8 8 8 8 8 8 8 8 8 8 8 3 8 8 8 8 8 8 8 8 4 8 8 8 8 8 8 8 8 8 5 8 8 8 2 8 5 8 8 ",
"8 8 8 8 8 5 8 8 8 8 5 8 8 8 8 8 8 5 8 8 8 8 8 8 8 2 5 8 8 8 8 8 8 2 8 8 8 8 8 8 8 8 8 8 8 8 5 8 8 8 2 8 8 8 5 5 8 8 8 9 8 8 8 8 5 5 8 8 8 8 8 8 8 8 8 8 8 3 8 8 8 8 8 8 8 8 5 8 8 2 ",
"8 5 8 8 8 8 8 8 5 8 8 8 8 2 5 8 8 8 8 8 8 8 8 8 8 8 8 5 8 t i 8 9 9 9 9 9 9 9 8 9 7 8 9 9 9 7 9 9 8 9 9 9 7 9 9 7 8 8 9 8 8 8 8 5 5 5 5 8 8 8 8 8 8 8 8 8 8 5 8 8 5 8 8 8 8 8 8 8 8 ",
"8 5 2 8 8 8 2 8 8 8 8 8 8 8 8 8 8 8 2 5 5 8 3 8 8 5 8 5 8 2 * & & & & & & & $ & & & & & & & & & $ & & & & & & & & & & & , 8 8 8 8 5 8 8 8 5 5 5 8 8 8 8 8 8 8 8 2 8 8 5 8 8 8 5 5 8 ",
"8 8 8 8 8 5 8 8 8 8 2 8 8 5 8 8 8 8 8 8 8 8 8 8 8 8 8 5 = k R.L.P.P.P.P.P.P.P.P.P.P.P.P.P.P.P.P.P.P.P.P.P.P.P.P.P.P.L.R.k - 9 8 8 8 8 8 8 8 8 5 8 8 8 8 8 8 8 8 8 8 8 8 8 2 8 8 8 8 ",
"8 8 8 8 8 5 8 8 2 8 8 5 8 8 2 8 8 8 8 8 8 8 8 5 8 8 8 8 + V [.'.].'.'.'.].].].'.'.'.'.'.'.].'.].].].].].'.].'.'.[.'.`.[.A & 6 5 8 8 8 8 8 t 5 5 5 8 8 5 8 8 5 8 8 8 8 8 8 8 8 8 8 5 ",
"8 8 8 8 8 8 8 2 8 8 8 8 8 8 8 8 8 8 8 8 8 8 8 8 8 8 8 8 & B [.(._._._.).).).)._.).)._.).).).).).).).).).).).).)._./.(.[.N & 6 8 8 8 8 8 8 8 5 3 5 8 8 8 5 8 8 8 8 5 5 8 5 8 8 5 8 8 ",
"8 8 8 2 8 8 8 8 8 8 8 8 5 8 8 5 8 5 5 8 8 8 8 8 8 8 8 0 & A [.(.)._._._.)._.).)._.)._.).).).`.)._._.)._._._.'.)._.)./.[.A & 0 8 8 8 8 2 8 8 8 3 5 8 8 8 8 8 8 8 8 8 8 8 8 8 8 8 8 8 ",
"5 5 8 8 8 5 8 8 5 8 8 5 8 8 8 8 8 8 8 8 8 8 8 5 8 5 8 7 & A [.(._.)._._._._._.'.).).).'.'._.).`.)._.).).'.).).`._._.).[.A & 8 8 8 8 8 8 8 8 8 5 5 8 8 2 8 8 2 8 8 2 8 8 8 2 8 8 8 8 ",
"8 8 8 8 5 8 8 5 8 8 2 8 8 2 8 8 8 8 8 8 8 8 8 9 9 9 9 i ; A [.~./.)./././.)././.)./.)./././././.)./.)./././.)./././.~.].A ; q q 9 0 9 0 8 8 8 8 8 8 2 8 8 8 5 8 8 5 5 5 8 8 8 5 2 8 ",
"8 2 8 8 8 8 8 8 5 8 8 8 8 8 8 8 8 8 5 8 8 0 > @ $ $ @ & X h [.].[.[.[.[.[.[.[.[.[.[.[.[.[.[.[.[.[.[.[.[.[.[.[.[.[.[.[.[.h X & & $ + @ > t 8 8 8 8 8 8 8 8 8 8 8 8 8 5 2 8 8 8 8 8 8 ",
"8 8 8 8 8 8 8 8 8 8 8 8 8 8 5 5 5 3 4 8 0 & S s.i.p.i.i.p.0.D Q Q Q Q Q Q Q Q Q Q Q Q Q Q Q Q Q Q Q Q Q Q Q Q Q Q Q Q D 0.p.i.i.i.i.s.S - 9 8 8 5 8 8 5 5 5 8 8 8 8 8 5 8 8 8 8 8 8 ",
"8 8 8 8 2 8 8 5 8 8 5 8 8 8 5 5 5 5 4 4 9 % 8.[.].[.[.].[.K.. ; * * * & & * * % * & & % * * & * * & * * * % * * & & =   J.[.[.[.[.].[.9.O t 8 8 8 8 8 8 5 2 5 8 8 5 8 8 2 8 8 5 5 8 ",
"8 8 8 8 8 8 8 8 8 8 8 8 8 8 8 8 8 7 8 8 9 $ 5.[././.`./.].d.+ i 9 t 0 5 0 9 t t 9 0 7 8 8 0 8 0 8 0 8 9 0 8 0 8 0 9 q + d.]./.)./.(.].3.+ 9 8 1 8 8 8 8 8 8 8 8 8 2 8 8 2 8 8 5 2 8 ",
"8 8 8 8 5 8 5 5 8 8 8 8 8 5 8 8 2 2 5 2 9 O 5.[./._.`./.].d.O q 8 8 8 5 8 8 8 8 8 8 8 8 8 8 8 5 8 8 8 8 8 8 8 8 8 8 0 + d.].)._.'./.[.7.+ 9 t 8 8 8 8 8 8 8 8 5 8 8 8 5 8 8 8 8 8 8 ",
"8 8 8 8 8 8 5 5 8 8 2 8 2 8 8 2 8 8 8 2 7 + 5.[./._._.).].d.O 7 8 8 8 8 8 8 8 8 2 8 5 8 8 5 8 8 8 8 8 8 2 8 8 8 8 8 9 + d.]./._.`./.[.7.& 9 8 8 8 8 8 8 8 8 8 8 8 8 8 8 8 8 8 8 8 8 ",
"5 2 8 8 5 8 8 5 8 8 8 8 8 8 8 9 8 8 8 7 7 O 5.[./._.`.).[.d.O 7 8 8 8 8 8 8 8 8 8 8 8 8 8 8 8 8 8 8 8 8 8 5 8 8 2 8 0 + d.[.)._.).).[.7.o 7 9 8 8 8 8 8 8 2 5 8 8 5 8 8 5 8 8 5 5 8 ",
"8 8 8 8 8 8 5 8 8 8 8 8 8 8 8 8 8 8 8 5 7 O 5.].~.)./.(.'.f.& 7 8 8 8 8 8 8 8 8 8 8 8 8 5 8 8 2 8 8 8 8 8 8 8 5 8 8 7 + d.]./._.)./.[.7.+ 7 8 8 8 2 8 5 8 8 5 8 8 5 8 8 8 2 8 8 8 8 ",
"8 5 8 8 8 8 8 8 8 2 8 5 8 8 8 8 8 8 8 5 7 O 9.[.].[.[.[.[.K.@ 7 8 8 2 8 8 8 8 8 8 8 8 8 8 8 8 8 8 8 8 8 8 8 8 8 5 8 6 + d.[._._._._.[.7.O 8 8 8 8 8 8 8 8 8 8 8 8 8 8 8 8 8 8 8 8 8 ",
"8 2 8 5 5 8 8 2 8 8 8 8 8 8 8 8 3 4 3 5 6 = C q.7.7.6.6.q.! ; 0 8 8 8 8 8 8 8 8 8 8 8 8 8 8 8 8 8 8 8 8 5 2 8 8 8 5 6 + g.~.T.W.T.T.^.4.& q 8 8 8 8 8 8 5 8 8 8 8 5 2 8 5 8 8 5 8 8 ",
"8 8 8 8 8 8 8 8 8 8 2 8 8 8 5 5 4 5 3 8 8 6 * $ + o + + O * 6 , 0 8 5 8 8 8 8 8 8 8 8 8 8 8 8 8 8 3 8 8 8 8 8 8 8 5 0 & w.H.D.H.D.D.Y./ * i 2 8 8 8 8 8 2 8 8 8 8 8 8 8 8 8 8 8 8 5 ",
"8 8 8 8 5 8 8 2 8 8 5 8 8 8 8 2 5 4 3 8 8 4 0 i 9 9 i t 0 0 8 8 8 2 ; 6 8 8 8 8 5 5 8 8 8 8 8 8 8 8 8 8 8 8 2 8 8 8 9 * r.U.H.H.H.S.Y.) = t 8 8 2 2 8 8 8 8 8 5 8 8 8 8 8 8 8 8 8 8 ",
"8 5 5 8 8 8 8 8 8 8 8 8 8 8 8 7 5 8 8 8 4 8 8 4 4 4 t 8 8 8 8 5 8 2 5 5 8 8 8 8 5 8 8 8 8 8 8 8 8 8 5 8 8 5 8 8 8 8 9 * e.U.H.H.G.G.Y.` = 9 8 9 5 7 8 8 8 8 2 8 8 5 8 5 5 8 8 2 5 8 ",
"8 8 8 8 8 8 8 8 2 8 8 5 2 8 8 2 8 5 8 4 4 8 8 8 t 8 8 8 4 8 8 8 8 8 5 8 8 8 8 5 5 5 8 8 8 8 8 2 5 8 8 8 8 8 8 8 8 8 0 - r.U.H.H.G.G.Y.) = 8 8 8 5 8 8 8 8 8 8 5 8 2 8 8 8 8 8 8 8 8 ",
"8 5 8 8 5 8 8 8 8 8 8 8 8 8 8 9 8 8 5 5 5 8 8 5 8 8 8 4 8 8 8 8 8 8 8 8 8 8 8 5 8 8 8 8 8 8 8 6 8 8 8 0 8 8 0 8 5 8 9 - r.U.S.S.H.S.Y._ * 0 8 2 8 8 8 8 8 8 8 8 8 8 8 8 8 5 8 8 8 5 ",
"8 2 8 8 2 8 8 2 8 8 8 8 8 5 8 8 8 8 8 5 5 5 5 5 8 5 3 5 3 5 8 8 8 8 3 8 8 8 8 8 5 5 8 8 5 ; = = ; : ; ; = = ; = = = , o y.Q.U.U.Y.I.Q.` $ 7 5 8 2 8 8 5 8 8 8 8 8 8 8 2 5 8 8 2 8 8 ",
"8 8 8 8 8 8 8 8 5 8 2 8 8 8 8 2 8 8 8 8 5 4 8 8 8 8 8 5 5 5 8 8 8 8 8 8 8 t 8 8 8 8 8 8 5 b n n n n n n b n n n n n n m u.t.e.r.r.r.m.' = 9 8 8 8 8 8 8 8 8 8 8 8 8 8 8 8 8 8 8 8 8 ",
"8 8 8 5 8 8 8 5 8 8 5 8 8 5 8 8 8 8 8 8 8 8 5 8 8 8 8 8 5 8 8 8 8 5 8 8 8 8 8 8 8 8 8 8 7 Y.Y.Y.Y.Y.Y.Y.Y.Y.Y.Y.Y.Y.U.!.j @ = * $ = $ 2 8 8 9 2 2 8 8 8 8 8 8 8 5 8 8 8 8 8 8 8 8 5 ",
"8 5 8 8 8 5 8 8 8 8 8 8 8 8 8 8 8 8 8 3 8 8 8 8 8 8 8 8 5 8 8 8 8 5 8 8 8 8 8 8 5 5 8 2 9 S.H.G.S.G.S.H.G.G.G.G.S.G.S.U.n , 7 7 9 9 9 8 8 8 8 8 8 8 8 5 8 2 8 8 5 8 8 5 8 8 5 8 8 8 ",
"8 8 5 8 8 8 8 8 5 8 8 5 8 8 5 5 8 8 8 8 8 8 8 8 8 8 8 1 8 8 8 8 8 8 5 5 8 5 8 8 5 5 5 5 5 H.I.G.G.H.G.G.H.D.I.I.G.G.G.U.n = 6 8 8 8 8 2 8 5 5 8 8 2 8 8 5 8 8 2 8 8 2 8 8 8 8 8 5 8 ",
"2 8 8 8 8 8 5 8 8 8 8 8 5 5 5 8 8 8 5 8 8 5 8 8 8 8 8 8 8 8 8 8 8 8 5 5 5 5 8 8 8 8 5 2 0 G.G.I.G.H.I.H.H.H.G.G.H.H.G.Y.n ; 5 8 8 8 2 q 8 8 8 8 8 8 8 8 8 8 8 8 8 8 8 5 8 8 8 8 8 8 ",
"8 8 8 8 2 8 5 8 8 8 8 8 8 8 8 8 2 5 5 8 2 8 8 5 8 8 8 8 8 8 8 8 8 5 5 5 8 8 8 8 8 8 8 8 2 G.G.H.G.G.G.G.H.H.H.H.H.G.G.U.n ; 5 8 5 8 8 5 2 8 8 8 8 5 5 8 8 8 8 8 8 8 8 5 8 8 8 8 8 8 ",
"8 8 5 8 8 8 8 8 5 8 8 2 8 8 8 8 5 5 8 8 8 8 8 8 8 8 8 8 8 8 8 8 8 8 5 5 8 8 4 , 1 8 1 1 9 H.I.I.I.I.I.I.I.I.H.U.I.I.G.E.n = 8 5 8 8 8 8 8 8 8 5 8 8 8 8 5 8 8 2 8 8 8 8 8 8 8 8 2 8 ",
"5 8 8 5 8 8 8 8 8 8 5 8 8 8 8 8 5 8 8 2 8 8 2 8 8 8 8 8 5 5 8 8 8 8 8 6 8 8 u u a u u u u N.A.N.A.A.A.A.A.A.A.A.A.A.N.I.n = 8 8 8 8 8 8 8 5 8 8 8 8 8 8 8 2 8 8 8 8 5 5 8 2 8 8 8 8 ",
"8 8 8 8 8 5 2 8 8 8 8 8 8 8 8 8 8 8 8 8 8 5 8 8 8 8 8 8 8 5 5 8 8 8 8 8 , z F.V.V.V.V.C.V.8 ; 3 ; , 2 , ; ; ; 2 , ; , , 8 5 8 8 2 8 8 5 8 8 8 5 8 2 8 5 8 8 8 8 5 8 8 5 8 5 8 8 8 5 ",
"8 8 8 8 8 8 8 8 5 8 8 2 8 8 2 8 8 8 8 8 8 8 8 8 8 8 8 8 8 5 8 8 8 8 8 5 , z C.n.B.B.M.B.M.0 8 5 6 8 8 8 7 8 8 8 6 6 5 8 8 5 0 8 8 8 8 8 8 2 8 8 8 5 8 8 8 8 8 5 8 8 5 5 8 5 8 8 8 8 ",
"2 8 8 5 8 8 5 8 8 8 8 8 8 8 8 5 5 8 8 5 8 5 8 8 8 2 8 5 8 8 8 8 8 8 8 8 , l C.n.B.B.B.B.M.9 8 5 5 8 8 5 5 8 8 8 2 5 5 8 2 8 8 2 8 8 5 8 8 8 8 8 8 8 8 8 8 5 8 8 8 8 8 8 8 8 8 8 5 5 ",
"8 8 2 8 8 5 8 8 8 8 8 8 8 8 5 8 8 8 5 8 8 5 8 8 8 8 8 8 5 5 8 8 8 8 8 8 , z Z.B.B.B.B.B.B.4 4 8 8 8 8 8 8 8 8 8 5 5 , 8 9 8 3 8 8 8 8 5 8 8 8 8 8 8 8 8 8 8 5 8 5 8 8 2 8 2 8 8 2 8 ",
"8 8 8 8 8 8 8 8 5 8 8 5 2 8 8 8 8 8 8 8 8 8 8 8 8 8 8 8 5 5 8 8 8 t 8 8 ; l C.n.B.B.B.B.B.4 8 8 5 8 8 5 8 8 8 8 8 5 8 8 8 8 8 8 8 8 8 8 8 8 8 8 8 8 8 8 8 8 8 8 8 8 8 8 8 8 8 8 8 8 ",
"5 8 8 8 8 2 5 8 8 8 8 8 8 8 8 8 5 8 8 8 8 5 2 8 8 8 8 8 8 5 5 8 8 8 8 5 1 l C.b.B.V.B.B.M.t 8 5 5 8 8 8 8 8 8 4 5 3 0 8 8 5 8 8 2 8 8 8 5 5 8 8 8 8 8 8 8 8 5 8 8 8 8 8 8 8 8 8 8 8 ",
"8 8 5 8 8 8 8 8 8 2 8 8 8 8 8 8 8 8 2 8 8 8 8 8 8 8 8 8 5 5 5 5 8 8 8 8 , c C.B.B.B.B.V.B.9 2 5 3 5 8 4 8 8 3 4 3 8 3 4 5 3 3 8 8 8 2 8 5 5 8 8 5 5 5 8 8 8 4 8 5 5 5 5 8 8 8 8 8 8 ",
"8 8 5 8 8 8 8 8 5 8 8 5 8 8 8 2 8 8 2 8 8 8 8 8 8 8 2 8 8 8 8 8 5 8 8 t 1 l C.b.B.B.B.M.b.9 8 8 0 t 4 t t t 0 t r 4 t 8 8 4 0 8 8 t i 2 5 8 8 8 5 5 5 8 8 t 8 8 5 5 5 5 8 5 8 2 8 8 ",
"2 8 8 8 8 5 5 8 8 8 8 8 5 8 8 8 5 8 8 8 8 5 2 8 8 8 8 8 2 8 8 8 8 8 8 8 8 8 t t 9 t t y y M.M.V.M.M.B.M.M.M.M.M.M.B.M.B.M.M.M.B.n.n.Z.~ - 8 9 8 8 8 8 8 8 8 8 8 5 5 8 8 8 8 8 8 8 8 ",
"8 8 5 8 8 8 8 8 8 8 8 8 8 8 8 8 8 8 8 8 8 8 8 8 2 8 8 8 8 9 t 8 8 8 8 8 1 8 8 8 8 4 8 1 t B.V.B.B.B.B.B.B.B.B.B.B.B.B.B.B.B.B.B.B.n.F.^ - 8 1 8 8 8 8 8 8 8 5 5 5 5 8 8 8 8 t 8 8 5 ",
"8 8 8 8 8 2 8 8 8 2 8 5 8 8 8 5 8 8 5 8 8 5 8 8 8 8 8 8 8 8 8 8 8 8 8 8 8 8 8 8 8 8 8 3 9 b.B.B.B.B.B.B.B.B.B.B.B.B.B.B.B.B.B.B.B.n.Z.~ > 8 9 4 8 4 8 8 5 5 5 5 5 5 8 8 8 t 8 8 8 8 ",
"8 8 8 8 8 8 5 8 8 5 8 8 8 9 2 2 8 2 5 8 8 8 8 8 8 8 8 8 8 8 8 8 8 8 5 5 5 0 3 5 5 3 5 3 0 M.B.B.B.B.B.B.B.B.B.B.B.B.V.V.B.B.B.V.B.B.C.^ : 8 6 3 6 6 3 5 3 5 5 5 8 8 8 8 5 8 8 8 5 8 ",
"8 5 8 5 8 8 8 8 8 8 8 8 5 5 5 8 5 8 5 5 8 5 8 5 5 8 8 2 8 5 8 5 8 5 5 5 8 5 3 8 8 8 0 3 4 M.B.B.B.B.B.B.B.B.B.B.B.B.M.M.B.B.B.B.B.B.Z.^ > 8 3 3 3 3 5 5 6 5 5 5 8 8 8 8 5 5 8 2 2 8 ",
"8 8 8 8 2 8 5 8 8 8 8 8 8 8 8 8 8 8 8 8 8 2 8 8 8 8 8 8 5 5 5 5 5 5 5 5 8 5 8 8 8 8 8 4 t x.B.B.B.B.B.M.B.v.v.B.B.B.v.v.B.B.v.B.B.v.Z.^ > 8 0 5 5 4 8 5 5 5 8 8 8 8 8 8 5 8 5 8 8 8 ",
"8 8 2 8 8 8 8 8 8 2 8 8 8 5 8 8 8 5 8 8 8 8 8 8 8 5 8 8 5 5 5 8 5 5 5 5 8 8 8 8 8 8 8 4 r C.C.C.C.C.C.C.C.C.C.C.C.C.C.C.C.C.C.C.C.V.G.^ # e < < 4 1 < 4 8 8 8 8 8 t 8 8 8 8 8 8 8 8 ",
"8 8 8 8 8 8 5 8 5 8 8 5 8 8 8 8 5 8 2 8 8 8 5 8 8 5 8 8 5 8 8 8 5 8 8 8 8 8 8 8 8 8 8 8 8 l c l l g l l l l l l l x z z l l l l l x f W <.=.>.>.=.=.<.W , 8 8 t 8 8 4 8 5 5 5 8 8 8 ",
"8 8 8 8 8 8 5 2 8 8 8 8 2 8 8 5 8 8 8 8 5 8 8 8 8 8 8 8 8 8 8 8 8 8 8 8 8 8 8 8 8 8 8 8 8 , , ; 3 ; , 3 > 3 3 3 , , , ; > 3 , , 3 4 # W c.h.k.h.j.k.z.#.: 9 8 8 8 8 5 5 5 8 5 5 8 8 ",
"8 8 8 8 8 8 8 2 8 8 8 8 8 8 8 8 8 8 8 8 8 2 8 8 8 8 8 5 8 8 8 8 8 8 8 8 8 8 8 5 5 5 8 8 2 8 8 5 5 8 8 8 5 0 8 8 8 8 6 5 6 3 6 3 5 0 , R l.h.h.h.2.2.l.+.> 3 4 5 8 8 8 8 8 t 8 8 8 8 ",
"8 8 5 2 8 8 8 7 2 8 8 2 8 8 5 8 5 8 8 8 8 8 8 8 8 2 8 8 8 8 8 8 8 8 5 8 8 8 8 8 8 8 8 4 0 8 5 6 3 8 8 8 3 5 3 8 8 8 5 5 3 6 3 3 5 8 < W l.h.h.h.h.h.l.+.: 0 4 3 8 8 8 8 8 8 2 8 8 5 ",
"8 8 5 8 8 8 8 8 8 8 5 2 8 8 8 8 5 8 5 5 8 8 8 8 8 8 8 8 8 5 5 5 8 8 3 8 8 8 8 8 8 8 8 8 8 2 5 5 8 t 8 8 5 5 5 5 8 8 8 5 5 5 8 5 8 0 < W k.k.h.k.h.h.k.+.> 0 3 5 5 8 5 5 5 8 5 8 8 8 ",
"2 8 8 8 8 8 5 8 8 8 8 5 8 8 8 8 5 5 5 5 5 8 8 8 8 8 8 8 8 5 5 5 8 8 8 8 8 8 8 8 8 8 8 8 8 8 5 8 8 8 8 8 5 5 5 8 8 8 8 8 5 8 8 5 3 0 < W k.2.h.h.h.h.l.@.- 8 5 5 5 8 5 5 5 5 8 8 5 8 ",
"8 8 8 8 2 8 5 8 8 8 8 8 8 8 8 8 5 3 5 5 5 8 2 8 5 5 8 8 8 8 5 8 8 8 8 8 5 8 8 8 8 8 8 8 8 8 8 8 8 8 8 8 8 5 8 3 8 8 8 8 8 8 8 5 5 4 < W l.h.h.h.h.h.l.+.> 0 8 8 5 8 8 5 8 8 8 8 8 8 ",
"8 8 5 8 8 8 8 8 8 8 8 8 8 8 8 9 5 5 5 5 8 8 8 8 3 5 5 8 8 5 8 8 8 8 8 8 8 8 8 8 2 5 8 5 8 8 8 8 8 8 5 8 8 8 8 5 8 8 5 5 8 8 8 5 4 0 < W l.k.h.h.h.h.l.@.> 4 8 8 5 8 8 8 8 8 2 5 8 8 ",
"8 5 8 5 8 8 8 8 8 2 8 8 8 8 8 8 8 8 8 8 8 8 8 5 3 5 5 5 8 5 5 8 8 t 8 8 8 8 8 8 8 5 8 8 8 8 8 8 8 8 8 8 8 8 8 8 8 5 8 8 8 8 8 8 5 4 1 W k.h.h.2.h.2.k.+.> 0 8 8 5 8 8 8 8 8 8 8 8 8 ",
"8 8 2 9 8 2 5 8 8 8 8 5 8 2 8 8 8 8 8 8 8 8 8 8 5 5 5 6 8 8 5 5 8 8 8 8 8 8 8 8 8 8 8 8 8 8 8 8 8 8 8 8 8 8 8 8 8 8 8 8 8 8 8 5 5 4 < W l.h.h.2.k.2.k.+.> 8 8 8 5 8 8 8 8 8 8 8 8 2 ",
"8 8 2 8 8 8 8 8 8 8 8 8 8 8 8 8 8 8 8 8 8 t 8 8 5 5 5 8 8 8 5 5 8 1 8 8 8 3 8 8 8 8 5 8 8 5 8 8 8 8 4 8 8 8 8 8 8 8 8 8 8 8 8 5 5 8 < W l.h.h.k.h.h.l.+.> 0 8 5 5 8 8 8 8 8 8 8 8 5 ",
"8 5 8 8 8 8 5 8 8 5 8 8 2 8 8 5 8 8 t 8 8 8 8 5 5 5 8 8 8 8 8 5 8 8 8 8 8 8 8 5 5 8 2 8 8 8 8 8 2 8 8 8 8 8 8 8 8 8 8 8 8 8 8 5 5 0 < W l.h.2.2.k.k.k.+.> 5 8 5 8 8 8 8 8 8 8 8 8 8 ",
"8 5 8 8 5 8 8 2 8 8 8 5 8 2 5 5 5 8 8 8 8 8 8 5 5 5 5 8 8 8 4 8 5 5 8 8 8 8 8 8 5 5 8 8 8 8 8 8 8 5 8 8 8 8 8 5 8 8 8 8 8 8 8 8 3 8 < W l.h.h.h.h.h.k.+.> 8 8 5 5 4 0 3 8 8 8 8 8 8 ",
"8 8 8 8 8 8 8 8 8 8 8 8 8 8 5 5 8 8 8 8 8 8 8 8 3 5 5 4 0 4 8 8 5 5 5 8 8 8 8 8 5 5 8 8 8 8 8 8 8 8 8 2 8 8 8 8 8 8 8 8 8 8 8 8 3 0 < W l.2.h.h.h.2.k.+.> 0 8 5 5 8 8 4 8 8 8 8 8 8 ",
"8 8 8 5 8 8 8 8 8 8 2 8 8 8 8 2 8 5 2 8 8 8 8 1 r 1 < e 1 e 8 8 8 5 8 8 8 8 8 5 8 8 8 8 8 8 8 4 8 8 8 5 8 8 8 8 8 3 8 8 8 8 8 8 5 0 < W c.h.k.k.k.k.c.@.> 0 4 5 8 8 8 5 8 8 8 8 8 8 ",
"8 2 8 8 5 8 8 5 8 8 8 8 8 8 8 7 5 5 5 8 8 1 a G F J J J H f t t 3 8 8 8 t 4 8 8 5 8 8 8 8 8 8 8 8 5 8 8 8 8 2 5 8 8 8 8 8 8 8 8 5 4 < T ,.:.:.:.:.:.1.E > 8 8 8 5 8 8 5 8 8 4 8 8 8 ",
"8 8 5 8 8 8 2 8 8 8 8 8 8 8 8 8 5 5 5 5 8 1 H *.o.O.O.O.*.R 8 8 5 5 5 8 0 5 3 6 5 8 8 8 8 8 8 8 8 8 8 8 8 8 5 8 8 8 8 8 5 4 5 5 8 8 e J { } | } X.}  .K 4 5 8 8 5 8 8 5 5 8 8 8 8 5 ",
"5 8 8 8 8 8 8 8 8 2 2 8 8 8 8 2 5 5 5 5 8 e K o. ..... . .R e t 0 5 3 8 4 5 3 3 5 8 4 t 8 8 8 8 8 2 5 8 8 8 8 8 8 8 8 8 5 4 0 5 3 8 1 K o.X.X.X.X.X.X.T , 5 8 8 8 8 8 8 8 8 8 8 8 8 ",
"8 8 2 2 5 8 8 8 8 8 8 8 8 8 8 9 8 8 7 5 8 e J o.O..... .o.U e t 8 5 5 4 8 5 5 3 5 8 8 8 8 8 8 8 8 8 5 8 8 8 8 5 8 8 5 8 8 8 4 5 5 8 1 J o.X.X.X.X...X.P 1 8 8 8 5 8 8 5 8 8 8 8 8 8 ",
"8 8 9 5 8 8 8 8 8 8 8 8 8 8 8 8 8 8 2 5 9 e F o. ...O.} o.U e t 8 5 5 8 8 8 5 5 5 8 8 8 8 8 8 8 8 8 8 8 8 8 8 2 8 8 8 8 8 8 5 5 3 t e K o. .X.X.X.X.&.P 4 3 8 5 5 8 8 8 8 8 8 8 5 8 ",
"2 8 8 5 8 8 8 8 8 5 8 8 8 8 2 5 8 8 0 4 4 1 G $...O. . .o.U 1 t 4 6 3 3 4 4 8 8 8 8 5 8 8 0 8 8 8 5 5 5 5 5 8 8 8 8 8 8 3 5 5 3 8 t e K $.} | X.....O.P 1 8 8 8 8 8 8 8 5 5 8 8 8 8 ",
"8 8 8 8 2 8 8 5 8 8 8 8 8 8 5 5 8 8 4 4 4 e G $.| ....O.O.U w y r < 1 4 4 4 1 1 8 1 1 1 1 1 1 4 1 1 8 1 1 1 1 4 1 e e r 1 4 4 4 4 e w K *. .o.o.O.o.$.P 1 8 8 8 8 8 8 8 5 5 3 8 8 8 ",
"8 8 8 8 8 8 8 8 5 8 2 8 8 8 8 8 8 8 4 8 0 e J  .....O...O.] s s p p p p p p p p d p p p p p p p p p p p p p p p p p d d p p p p p p p J T T I I I T R x 1 8 9 8 3 8 8 t 8 8 8 8 3 8 ",
"2 8 8 5 8 5 8 8 8 8 8 8 8 8 8 8 t 8 4 6 4 e J &. . .....X.X.O.o.&.&.@.$.$.$.&.$.o.o.@.$.$.o.{ $.$.o.o.o.$.$.$.$.$.$.$.$.$.$.$.$.$. .%.J w y y e e e r 4 3 8 8 8 8 8 8 8 8 8 8 8 8 8 ",
"8 8 2 8 8 8 2 5 8 8 8 8 8 8 8 8 4 8 8 8 6 1 J $.X.X.X.X.X.;.;...X. . . ...X. . . . . . . .X.| X. . . .X.|  .X.| X. . . . .| X.X..... .K r 8 3 8 4 4 4 0 3 5 8 8 8 8 8 8 8 8 8 8 8 8 ",
"8 8 8 8 8 8 2 9 8 5 8 8 8 8 8 8 8 8 5 5 4 e J $.X.X.X.X.X.....X.X.X.X.X.X.X...X.X.X... .X.X.X.X.X.X.X.X.X.X.X.X.X.X. .X.X.X.X.X.X...$.K 4 3 0 5 5 3 5 8 3 0 8 8 8 8 8 8 8 8 8 8 8 8 ",
"5 8 8 8 8 8 8 5 8 2 8 8 8 8 8 8 5 5 5 5 4 4 J &.X.X.X.X.X.X.X.X.X.X.X.X...X.X.X.X.X.X.X.X.X.X.X.X.X.X.X.X.X.|  .X. .X.X.X. . .X.X.X.$.F 1 5 5 8 5 3 5 8 8 8 8 8 6 3 8 8 5 5 8 8 8 8 ",
"8 8 5 8 8 8 5 8 8 8 8 8 5 2 8 9 5 5 5 5 4 < J  .X.X.X.X.X.X.X.X. .X.X.X.X.X.X.X.X. .X.X. .X.X.X. .X. .X.X.X.X.X. .X.X.X.X.X.X.X...X.$.K 1 3 8 8 5 0 5 8 8 8 8 8 3 3 5 5 5 5 8 8 8 8 ",
"5 8 8 8 8 8 8 8 8 8 8 8 8 8 8 8 5 5 5 5 8 e J o.X.X.X.X.X.X. .X.X.X.X...X.X...X.X...X.X.X.X.X.X.X.X.X.X.X.X.X...X...;.X.;.X.X...X. .o.F < 8 8 8 t 8 8 8 8 8 5 5 5 5 5 5 8 8 8 8 1 8 ",
"8 8 8 8 5 8 8 8 8 8 8 8 8 8 8 5 5 5 5 5 t e K &...O.X.O.;.X.O.X.X.O.X.O.;.X.O.X.X.O.O.X.X.X.X.O.O.X.X.X.O.X.X.X.X.O.X.X.;.X.X.O.;.X.o.J e t 8 9 8 8 8 8 9 8 2 5 5 5 5 5 8 8 8 8 8 8 ",
"8 8 8 8 8 8 2 8 8 8 8 8 8 8 8 5 5 8 5 8 8 1 v [ E E E ] ] ] ] ] ] ] ] ] ] ] ] ] ] ] ] ] ] ] ] ] ] ] ] ] ] ] ] ] ] ] ] ] ] ] ] ] ] ] [ F 1 8 8 2 8 8 8 8 8 8 8 5 8 8 5 5 8 t 8 3 8 8 ",
"5 8 2 5 8 8 5 8 8 8 8 8 8 8 8 4 8 8 6 5 8 8 1 1 1 1 1 1 1 4 1 1 1 1 1 1 8 1 1 1 1 e e 1 e 1 1 1 1 e 1 1 1 r 1 4 e 4 , 1 1 1 1 8 1 e 1 8 8 2 8 8 8 8 8 8 8 8 5 8 8 8 8 5 8 8 8 8 8 8 ",
"8 8 8 8 8 8 5 8 8 8 8 8 8 5 8 4 8 8 8 5 5 5 8 9 0 5 5 8 8 8 8 8 8 8 0 8 5 5 8 8 8 8 9 8 8 8 8 8 8 8 8 0 8 8 8 8 8 8 8 5 5 7 5 5 8 8 9 8 , 5 6 8 8 8 8 8 8 8 5 5 8 9 8 8 8 8 8 5 8 8 ",
"2 8 8 8 8 8 8 8 5 8 8 3 8 8 3 3 8 8 8 5 2 5 8 8 3 5 5 8 8 8 8 8 8 8 5 5 5 5 5 5 8 8 8 8 8 8 8 8 8 8 8 8 8 2 8 8 8 8 8 0 8 2 5 5 5 8 8 8 8 8 4 3 8 8 8 2 8 8 5 8 8 8 8 8 8 8 5 8 8 8 ",
"5 8 8 5 8 8 5 8 8 5 8 8 5 8 8 8 8 8 8 8 5 5 8 8 8 8 3 8 8 8 8 8 8 8 5 5 5 5 8 5 8 8 8 8 8 8 8 8 8 4 8 8 8 8 8 8 8 8 8 8 8 5 5 5 8 8 8 8 8 8 8 8 8 8 8 8 8 8 8 2 8 8 8 8 5 5 8 8 8 8 ",
"8 8 8 8 8 8 2 8 8 8 8 8 8 8 8 8 8 5 8 8 5 5 8 8 8 8 5 8 8 8 8 8 8 2 8 5 5 5 8 8 8 8 8 8 8 8 8 8 8 8 8 8 8 8 8 8 8 8 8 8 8 8 8 8 8 8 8 8 8 8 8 2 5 8 8 8 8 8 8 5 8 8 8 8 8 8 8 8 8 8 ",
"8 2 8 8 5 8 8 5 8 8 3 8 8 8 2 8 8 8 8 8 8 8 8 8 8 8 8 8 8 8 8 8 8 8 8 8 8 8 8 8 8 2 8 8 5 8 8 5 8 8 8 8 8 8 5 8 5 5 5 5 8 8 8 8 8 8 8 8 8 8 8 8 2 8 8 8 8 8 8 8 8 8 8 8 8 8 8 8 8 8 ",
"8 8 8 8 8 8 8 8 8 5 8 8 8 8 8 5 8 8 5 8 8 8 8 8 8 8 8 3 8 8 8 8 8 8 5 8 8 5 8 2 8 8 5 8 8 8 8 8 8 8 8 8 8 8 8 8 2 8 8 8 8 8 8 2 8 8 8 8 8 8 8 5 5 8 8 8 5 8 8 8 8 8 8 8 8 8 8 8 2 8 "
};
