/* XPM */
static char *_[] = {
/* columns rows colors chars-per-pixel */
"90 90 170 2 ",
"   c #171655",
".  c #151659",
"X  c #1F1F5A",
"o  c #231F5F",
"O  c #21225C",
"+  c #1B1E66",
"@  c #1E2064",
"#  c #242464",
"$  c #2B2A67",
"%  c #25246A",
"&  c #28266E",
"*  c #27286C",
"=  c #2A296E",
"-  c #36366D",
";  c #38356F",
":  c #262572",
">  c #282772",
",  c #272877",
"<  c #2C2E73",
"1  c #272779",
"2  c #27287B",
"3  c #2B2B7C",
"4  c #302E75",
"5  c #312F7A",
"6  c #2F3276",
"7  c #2F3279",
"8  c #323276",
"9  c #383471",
"0  c #363876",
"q  c #383876",
"w  c #323278",
"e  c #38377C",
"r  c #37387B",
"t  c #39397C",
"y  c #444572",
"u  c #2C2B82",
"i  c #343480",
"p  c #393783",
"a  c #363982",
"s  c #3B3B85",
"d  c #3D3C89",
"f  c #3D3C91",
"g  c #4D4E82",
"h  c #545484",
"j  c #5E5D85",
"k  c #535288",
"l  c #585988",
"z  c #454693",
"x  c #494893",
"c  c #44439F",
"v  c #535597",
"b  c #6A668F",
"n  c #6B698F",
"m  c #696591",
"M  c #6D6A93",
"N  c #4646AB",
"B  c #4947AE",
"V  c #4848A5",
"C  c #4F4FB6",
"Z  c #504FB4",
"A  c #4F50B9",
"S  c #5151B6",
"D  c #5252BB",
"F  c #5B5BBC",
"G  c #7E7FA8",
"H  c #6D6CB7",
"J  c #6B6BBC",
"K  c #7574B5",
"L  c #7777BD",
"P  c #7877BA",
"I  c #7778BB",
"U  c #7979BA",
"Y  c #5856C2",
"T  c #5C5BCE",
"R  c #5653C3",
"E  c #5654D4",
"W  c #5857D6",
"Q  c #5D5CD5",
"!  c #5A57D8",
"~  c #5B5ADA",
"^  c #615FD6",
"/  c #615FD8",
"(  c #5F60C6",
")  c #6A6BC1",
"_  c #6B6BCC",
"`  c #716FC0",
"'  c #7D7CC2",
"]  c #6161D3",
"[  c #6D6ED2",
"{  c #6F70D4",
"}  c #7977D7",
"|  c #6F6EEB",
" . c #706EEA",
".. c #7675EB",
"X. c #7977EB",
"o. c #807FFC",
"O. c #8D8CAD",
"+. c #8485B6",
"@. c #8E8FB2",
"#. c #8080BA",
"$. c #918FB2",
"%. c #8F90B1",
"&. c #9191B2",
"*. c #8080C2",
"=. c #8484CF",
"-. c #8788C9",
";. c #9291C7",
":. c #8684D5",
">. c #8887D7",
",. c #8584DA",
"<. c #8886D8",
"1. c #9596D5",
"2. c #9696DA",
"3. c #9897DA",
"4. c #9798D9",
"5. c #9999DA",
"6. c #A3A4C4",
"7. c #B2B3CC",
"8. c #A9A9D3",
"9. c #A0A0D9",
"0. c #B0AFD0",
"q. c #B9BAD3",
"w. c #8B88F7",
"e. c #8382FD",
"r. c #8887FF",
"t. c #8C8BFE",
"y. c #918FF7",
"u. c #9493FF",
"i. c #9E9FF8",
"p. c #A19FF3",
"a. c #A09FFC",
"s. c #A6A6E5",
"d. c #AAAAE6",
"f. c #ADACE8",
"g. c #A4A2F6",
"h. c #A4A3FE",
"j. c #A8A6FD",
"k. c #ADACFF",
"l. c #B0AFFF",
"z. c #AFB0FF",
"x. c #BBBBF4",
"c. c #B1B1FE",
"v. c #BDBDFD",
"b. c #B4B5F4",
"n. c #C0BFFF",
"m. c #BEC0D4",
"M. c #BFC0F6",
"N. c #C6CAE2",
"B. c #CBCCE4",
"V. c #C9C9EB",
"C. c #D4D6EE",
"Z. c #D6D8EE",
"A. c #C3C2FE",
"S. c #C9C7FE",
"D. c #CBCBFF",
"F. c #D5D4F5",
"G. c #D3D3FB",
"H. c #D8D6F8",
"J. c #DBDBFC",
"K. c #DADBF2",
"L. c #E6E5F7",
"P. c #E4E4FD",
"I. c #E9E7FA",
"U. c #E7E9FB",
"Y. c #EDECFD",
"T. c #F0EEFE",
"R. c #EEF0FE",
"E. c #F2F3FE",
"W. c #F6F8FE",
"Q. c #FDFDFF",
/* pixels */
"w w w w w w 8 w w w w w w w w w w w w w w 8 w w w w w 8 w 8 8 9 w 5 w w w w w w w w w 9 8 8 w 7 7 u w 0 5 w w 9 5 w w w w w w w w w w w w w w 5 w w w w w w w w w w w w w w w w w w ",
"w w w w w w w w 4 w w w 8 w w w 8 w w w w w w w w w w w w w 4 w w w w w w w w 5 w w w w 8 8 7 0 i 7 7 w 9 w w w w w w w w w w w w w w w 8 w w w w w w w w w w w w 8 w w w w w w w w ",
"w w w w w w w w w w w w w w w 8 w w w w w w 4 w w 8 w w w w w w w w w w w w w w w w i w w w w 7 7 7 w w w w 5 e 4 w w w w w w w w w w w w w w 8 w w w w w w w w w w w 4 w w w w 4 w ",
"w w w w w 8 w w w w w w w w w w w w w w w w w w w w w w w w w w w w w w 8 w w w w w 5 5 w w w w w 7 w w w w 5 w w w w w e w w w 8 w 8 w w w w w w w w w w w w w w w w 8 8 w w w 8 w ",
"w w w 8 w w w w w w w 8 4 w w w w 4 w w w w w w w w w w w w w w 7 7 6 7 6 6 8 8 w w w w w w w 6 7 6 7 w w 5 5 w 5 i i w 5 w w 9 9 8 8 w w 7 7 0 8 4 w w w w 4 w w w w w w w w w w w ",
"w w w w w w w w w w w w w w w w w w w w w w w w w w w w w w w w 0 w w w 8 8 0 0 e e w e e w w w 8 8 w 5 w w w w w w 5 w w e q e e e e w w 7 7 6 w w w w w w 8 w 8 w w w w w 4 8 w w ",
"w w w w w 4 w w < w w w 8 w w w w w w w 8 w w w w w w w w 8 8 w 7 w w w w 8 # # $ # # O # 8 w w 0 7 0 i w w w w w w w w $ # # # # # # > w w w 6 w w w w w w w w w w w w w w w w w w ",
"w w w w w w w w w w w w w w w w w 8 w w w w w w 4 w w w w 8 w w w w e 8 = g Z.N.B.B.B.B.N.; 8 w 7 7 7 7 w w w w w w w o 6.C.B.B.B.B.K.G # e w w w w w w 8 w w w w w w w w w w w 8 w ",
"w w w 8 w w w w w w w 8 w w w w w w w w 8 w w 4 w w w w w w w w w w w w = h Q.E.W.W.W.W.R.; 6 8 7 i w 5 6 - w w w w q O m.Q.E.W.Q.E.Q.&.O q w w w w w w w w 8 w w 8 4 w w w 8 w w w ",
"w w w w w w 4 w w w w w w w 8 w w w w w w w w w w w w w w w w w w 5 w w & h Q.U.I.T.Y.R.U.- 8 w w w u i w 8 8 w w w 9 O q.Q.I.Y.T.I.Q.$.# t w w w w w w w w 4 w w w w w w w 4 w w w ",
"w 8 w w w w w w w w w w w 4 w w w w 4 w w 8 w w w w w w w 9 w w 5 5 i 5 < h Q.U.T.T.Y.E.Y.- 9 4 i 7 5 w 6 8 w w w w e O q.W.Y.Y.T.I.Q.$.o e w w 8 w w w w w w w w w w w w w w w w w ",
"w w w w w w w 8 w w w w w w w w w w w w w w w w w w w w w w w w w e 5 i = h Q.U.T.T.Y.R.Y.; 4 w w w 7 0 8 8 w w w w e O q.Q.Y.T.T.I.Q.$.o e w w w w w w w w w w w w w w 8 w w w w w ",
"w 4 w w w w w w 4 w w w w w w w w w w w w w 7 w w w 8 4 w w r r p e i p 4 l Q.U.T.T.T.E.Y.; w w w 7 w i w 8 w w w w e O q.W.Y.Y.E.I.Q.&.+ e 6 8 w 8 w 4 w w w 8 w w w w 8 4 w w w w ",
"w w w w 8 w w w w w w 8 w w w w w w w w 5 w w w w w w w e < + @ @ + # #   y Q.I.T.Y.Y.T.Y.9 4 w w 0 w 3 8 w 8 w w w e O q.Q.Y.T.T.I.Q.&.O e 0 6 w w w w w w w w w w w w w w w w w w ",
"w w w w w w w w w w w w w w w w w w w w w w w w w w w w = k 0.6.6.6.6.6.6.7.E.Y.T.E.Y.R.U.9 3 w w 7 w w w w w w w w e O q.W.Y.T.T.I.Q.$.# e w 6 w w w w w w w w w w 8 w w w w w w w ",
"w w w w w w w w w w w w w 8 w w w w w w w w w w w w w e # M Q.W.Q.Q.Q.Q.Q.Q.Y.T.T.Y.T.T.Y.9 w w 7 0 w w w w w w 9 w e o q.W.Y.Y.T.Y.Q.@.X e w 6 w w w w w w w w w w w w w w w w w w ",
"w w w w 4 w w w w w w 8 w w w w w w w w w 8 4 w w w w w & m Q.L.I.Y.Y.Y.Y.Y.Y.T.Y.E.Y.R.I.; 4 w w 6 8 0 w w w i 5 w r O q.W.Y.Y.T.I.Q.&.O e w w w w w w w 4 w w w w w w w w w w w w ",
"w 8 w w w w w w w w w w w w w w w w w 8 w w w w w w w w % m Q.I.T.T.Y.T.Y.Y.E.T.T.Y.Y.R.Y.; 8 8 6 8 w 7 w 7 w w w w r O q.Q.Y.T.E.I.Q.&.O e i w w w w w w w w w w 8 w w w w w w w w ",
"w w w w w w w w w w w w w 8 4 w w w w w w w w w w w 7 0 # m Q.I.T.T.Y.T.T.T.T.Y.Y.E.R.R.Y.- 4 8 8 6 w w w w w w w w e X q.W.Y.Y.T.I.Q.&.O e w w w w w w 6 w w w w < w w w w w w 4 w ",
"w w w 8 8 w w w w w w w w w w w w w w w w w w w w w w 0 $ b Q.I.E.Y.T.T.T.T.E.Y.T.Y.Y.R.U.- 8 8 8 w 7 w w w w w w w e X q.W.Y.T.E.U.Q.&.O e w w w w w 5 w w w w w w w 8 w w 4 w w w ",
"w w w w w w w w 8 4 w w w w w w w w w w w 8 8 0 0 e e r $ n Q.L.Y.Y.Y.Y.Y.Y.Y.I.Y.I.U.Y.L.- < w 6 8 7 w w w w w 9 8 q O q.W.Y.T.T.I.Q.&.O t w w w w w w w w w w w w w w w 8 w w w w ",
"8 w w w w w w 8 w w w w 8 w w w w w w w w w < # % # # %   j Q.U.E.E.E.R.E.E.Q.Q.Q.Q.Q.Q.Q.9 w w 0 7 w w w w w 7 8 8 q O q.Q.T.T.T.I.Q.&.O q w w w w w w w 5 w w w w w w w w w w w w ",
"w w w w w w w w w w w 6 w w w w w w w w w < v ' U U U U K ;.J.F.F.F.F.H.K.V.O.&.%.%.%.%.@.w 5 w 7 7 w i w w w 0 8 8 8 O 8.L.F.H.C.F.P.+.# e 5 w w w w w w w w w w w w w w w w w w w ",
"w w w w w 4 w w w w w w w w w w w w w w e % #.J.D.D.D.S.G.S.v.M.x.x.v.x.A.9.  # X # O O # w w i w 7 7 w w w w w - 8 e O 1.n.x.n.n.x.D.K % e 5 w w w w w w w w w w w w w w w 8 w w w ",
"w 8 w w w w 8 w w w w w 4 w w w w w w w e % P D.b.v.v.x.v.v.v.A.M.M.S.v.S.s.< t q e e q 9 8 w w w 6 w w w 7 w w 8 8 r * 5.S.v.A.v.v.D.L & p w w w w w w w w w w w w 4 w w w w w 8 w ",
"w w w w w w w w w 4 w w w w w w w w w 8 w % P D.v.n.v.v.A.v.v.v.v.M.v.v.A.d.% e 8 w 8 8 8 e w 7 7 6 w w i w w w 6 8 w % 2.S.v.n.v.v.D.U % e 5 w w w w 4 w 8 w w w 8 w w w w w w w w ",
"w w w 4 w w w w w w w w 8 w w w w w w w e % L G.v.v.n.n.v.v.v.M.A.v.v.v.S.s.* e w w 8 8 w w w w w 7 8 w 5 w w w 6 7 r * 2.S.v.n.v.v.S.U % 0 5 w w w w w w w w w w w w w 8 w w w w w ",
"w w w w 8 w w w w w w w w w w w w w w 4 e % U D.v.n.n.v.M.M.v.M.v.v.v.v.A.s.& e 5 w w w w w w 6 7 w w w w 5 w w 6 w r % 4.S.v.v.M.v.D.U % e w w w w w w 8 w w w w w 8 w w w w w w w ",
"w w w w 8 w w w w 8 w 4 w w 8 w w w w w e % U D.v.v.v.A.v.A.D.S.S.S.S.S.G.f.: w w w w w w 8 w 7 w 0 6 6 w w w w 7 7 w # 4.S.M.A.v.v.D.U # q 8 8 w w 8 w w w w w w w w w w w w w w 8 ",
"w w w w w w w w w w w w w w w w w w w w w % U D.v.v.M.v.A.b.1.4.4.5.4.2.5.-.> e w w w w w w w w w w 0 8 w w w w 7 0 r % 4.S.v.v.v.v.D.U % 8 8 8 w w w w w 4 w w 8 w w w w w w 8 w w ",
"w w 8 w w w w w w w w w w w w w w w w w e % L D.v.v.v.A.S.1.. * % % % % % * 6 w w w w w w w w w w w 7 w w w w w w w e # 5.S.v.v.v.v.D.L # e w 8 w w w w w w w w w w w w w w w w w w ",
"w w w w 4 w w w w w 8 w w w w w w w w w w % L D.v.v.v.v.S.4.* t e 0 e w 0 r 8 8 8 6 w w w w w w w w w w w w w w w w e % 5.S.v.v.A.n.D.P # e w w w 8 w w w w 8 w w w w w w w 4 w w w ",
"w w w w w w w w w w w w w w w 8 w w w w e % U D.v.v.M.M.D.5.% r 7 w w w w w w w w w w w w w w w w w w w w 8 w w w w w & 2.S.M.v.v.v.D.U # r w w w w w w w w w 4 w w w w w w w w w w ",
"w w w w w w 6 w 8 w w 8 w w 8 8 w w w w w $ U D.v.M.v.v.S.4.% 8 0 7 w w w w w w w w w w w w w w w w w w w w w w w w e % 4.S.v.v.v.v.D.U % w w i w w w w w w w w w w w w w w w w w w ",
"w 8 w w w 4 w w w w w w w w w 8 w w e w e % U D.v.v.M.v.S.4.% a w w w < w w w w w w 8 w w w w w w w 4 w w w w w w w w % 4.S.v.M.M.v.G.U % w w w w w w w w w w w w w w w w 6 w w w w ",
"w w w w w w w 8 w w w w w w w w < < 3 3 w # P D.v.v.M.M.S.4.% i 3 e w w 8 w w w w w 4 w w w 9 w w w w w w w w w w w e % 4.S.v.v.v.v.D.L % r w w w w w w w w w w w w w w w w w w w 4 ",
"w w w 8 w w w w w 8 w w w w 7 p s d d d d 5 ' D.v.v.v.v.A.1.& w w 8 8 8 w w w w w 8 8 w w w w w w w 6 w w w w w w 7 0 > 2.A.v.v.v.b.S.L : w w w w w 7 w w w w w w w w w w 4 w w w w ",
"w w w w w w w w w w w w w e : <.c.j.k.k.j.l.j.g.g.g.g.g.k.:.% e w 8 8 8 w w w w w 8 8 w w w w w w w w w w w w w w 0 w % :.k.g.g.g.i.c.H & e w w w w 0 w w w w w 8 w w w w w w w w w ",
"w w w w w w w w w w w w w i 1 ,.j.j.a.a.h.h.h.h.h.h.a.g.k.:.: a w 8 w 6 w 5 w w w w 9 w w w w w w w w w w 8 w w w w w > :.k.h.h.h.g.c.J : e w w w w w w w w w w w w w w w w w w 8 w ",
"w w w 4 w w w w w 4 8 w 7 w 1 ,.l.h.a.j.h.h.h.h.h.h.h.h.k.:.> i w 8 w w w w w w w w w w w w w w w w w w w w 4 w w w 0 * :.k.h.h.h.h.z.J : w 4 w w w w w w w w 7 w w w w w w w w w w ",
"w w w w w w w w w w w w w e : ,.l.a.h.h.j.a.j.h.h.h.h.h.z.:.: w w 8 8 8 w w w w w w w w w w w w w w w w w w w w w w e : ,.k.h.h.h.a.c.J : e w 6 w w w w w w w w w w w w w 4 w w w w ",
"w w w w 8 w w 4 w w w w w w : :.l.a.j.h.h.h.h.h.h.h.h.h.k.,., r w w 8 8 w w i 5 w w w w w w w w w w w w w w w w w w w : ,.k.h.h.h.h.c.J : w w 7 w 8 w w w w w 4 w 4 w w w w w w w w ",
"w w w w w w w w w w w w w w : ,.j.a.j.h.h.j.h.j.h.h.h.h.k.:.: i w 0 8 8 5 w 5 e w w w w 5 4 5 5 w w w w w w w w w w i : ,.k.h.h.h.a.c.J : i 7 0 w w w w w w w 8 w w w w w w w w w w ",
"w w w 8 w w w w w 4 w w w e 1 ,.l.j.a.j.h.h.h.h.h.h.h.h.z.:.: 7 5 < w 0 5 5 5 5 w 5 w w 5 5 9 4 8 w 4 w w 4 w w 7 w w : ,.k.h.h.h.a.c.J : 0 w w 8 w w w w w w w w w w w 8 w w w w w ",
"w w w w w w w w w w w w w e > ,.k.p.g.a.h.h.h.h.h.h.h.h.k.:.2 p i i e 5 i e e i i w e e 5 i p e w w w i w i w w i 7 a 2 ,.k.a.h.h.h.k.J : e w w 4 w w w w 8 w w w 8 w 4 w w w w w w ",
"w w w w w w w 8 w w w w w w w w w i w i i 1 J c.i.h.h.h.g.h.h.h.h.a.a.j.p.a.p.a.g.h.g.a.a.a.p.j.g.h.p.j.g.h.h.h.g.g.p.g.h.h.h.h.h.a.c.J : w w w w w w w w w w w w w w w w w 8 w w 8 ",
"w w w 4 8 w w w w w w w w w w w w 4 w w i 1 J k.h.h.h.h.h.h.h.j.h.h.h.h.j.j.a.j.h.h.h.j.j.a.a.a.a.j.a.j.h.j.h.h.h.h.h.j.h.h.h.h.h.a.c.J : w w w w w w w w w w w w w 8 w w w w w w w ",
"w w w w w w w w w w w w w w w w w w w w i : J k.h.h.j.h.h.h.h.h.h.h.h.h.a.h.j.h.h.h.h.h.a.j.j.j.j.h.h.a.h.h.h.j.h.h.h.h.h.h.h.h.h.h.l.J : i w w w w w w w w w w w w w w w w w w w w ",
"w 8 w w w w 8 w w w w w w w 8 < e < w e w : J k.g.h.h.h.h.h.h.h.h.h.h.h.h.h.h.h.h.h.h.h.h.h.h.h.a.j.a.j.h.h.h.h.h.h.h.a.h.h.h.h.h.i.z.J > w w w w w w w w w w w w w w w w w w w 4 w ",
"w w w w w w w w w w w w w w w w w w w w e : J z.g.h.h.h.h.h.h.h.h.h.h.h.h.h.h.h.h.h.h.h.h.h.h.h.j.a.j.a.h.h.h.h.h.h.h.h.h.h.h.h.h.g.z.J * r w w w w w w w w w w 4 8 w w w w w w w w ",
"w w w w w w w w 8 w w w w w w w w 6 w w w : J k.g.a.h.h.a.h.h.h.h.a.h.h.h.h.a.a.h.a.h.a.a.a.g.a.a.a.a.a.h.a.a.h.h.h.h.a.h.h.j.h.h.a.z.) : r 7 w w w w w 8 4 w w w w w w w w w w w w ",
"w w 8 w w w w w w w 4 w w w w w w w w w i : ` v.h.k.k.k.k.k.k.z.k.k.k.k.k.z.k.k.k.z.k.k.k.z.z.z.l.l.l.l.k.k.k.z.k.z.k.k.j.h.h.j.j.h.c.) , r w w w w w w w w w w w w 8 w w w w w w w ",
"4 w w w 8 w w w w w w w w w w w w 8 8 6 w w s x x z z z z z z z z z z z z z z z z z z z z z z z z z x z z z z z z z z f } y.w.t.t.r.u.F 1 w - 8 w w 6 w w w 8 w w w w w w w 8 4 w w ",
"w w w w w w w 4 w w w w w w w w w w 8 - 8 w 6 > < < 6 = < < = < < < < < < < < 6 6 < < < < = < < < < < < < = = < = < 3 : _ w.o.e.e.X.t.F 3 e < 8 w w w w w w w w w w w w w w w w w w ",
"w w w w w 8 w w w w w w w w w w w w w w w w w e 0 e 6 8 e w w w 7 r 7 7 w i w w w w 6 7 w w w w 4 w w w 8 e w w 0 7 7 u { w.o.e.e.e.t.F 2 i w w w w w w w 8 w w w 8 w w w w w w w w ",
"w w w w w w w w w w w 5 w w w w w w w w w w w w 3 6 8 8 w w w w w 7 r 7 w w w w w 7 7 0 w w w w 5 w w w 8 8 w w w w i u [ t.e.e.e.e.t.F u 7 w w w w w w w w w w w w w w w 8 w w w w ",
"w 8 w w w w w 4 w w w w w w w w 8 w 8 8 w w w w w w w 8 8 8 8 8 w w w w w w w w 8 8 8 w w w w w 4 w w w w w w w w 0 w u { r.e.X.e.e.w.F 2 0 w w w w w w w w w w w w w w w w w w w w ",
"w w w w w w w 8 w w w w w w w 8 w w 8 w w w 6 w w w w 4 8 8 8 8 0 w w w w w w w 8 w 8 w w w w w w w w w w w w w 7 7 w 2 [ r.e.r.e.e.t.F 2 7 7 w w w w w 8 w w w w w w w w w w w w w ",
"w w w w w w w w w 4 w w w w w w w w w 4 w w w w w w w w w w w w 7 w w w w w w w 4 w w w 8 w w 8 w w w w w w w w w w w 2 [ t.e.e.e.e.y.F 2 r 8 w w w w w w w w 8 w w 4 w w w w w w w ",
"w w w w w w w w w w w w w w w w w w w 8 w w w w w w w w w 8 w w 7 w w w w w w w w w w w w w w w w w w w w 7 w w w w w u [ t.e.e.e.e.t.F , 8 8 0 w w w w w 4 w w 8 w w w w w w 8 w w ",
"w w w w w w 8 w w w w w w w w w w w w w w w w w w w w w w w 8 w w 4 w w w 6 w w w w w 8 8 w w w w w w w w w w w w w r 2 [ r.e.e.e.e.t.F 3 8 w w 8 w 6 w w w w w w w w w w w w 4 w w ",
"8 4 w w w w w w w 4 8 w 8 w w w w w w w w w w w w w w w w w w w w w 8 w w w w w w w w w 4 w w w w w w w w w w w w w w 2 [ t.e.e.e.o.t.F , 8 8 w w w w w w w w w w w 8 w w 8 w w w w ",
"w w w w w w w w w w w w w w 8 w w w w w w w w w w w w w w w w w w w w w w w w w w w w w w w w w w w w w w w w w w w w 2 { t.e.e.e.e.y.F , e w w 4 w w w w w w 4 w w w w w w w w w w ",
"w w w w w w w w w w w w 6 w w w w w w w w w 4 w w w 9 w w w w w w w w w 8 w w w w w w w w w w w w w w w w w w 7 7 0 7 2 { r.e.e.e.e.t.F , w w w w w w w w w w w w 8 w w w w w w w w ",
"w w 4 w w w w w w 8 w w w w w w w w w w w w w w w 8 w w w w w w w 4 w w w w w w 8 w w w 8 w w w w 4 w 8 w w w w w w w 2 [ t.e.e.e.e.t.F 3 e w w w w 4 w w w w w w w w w 8 w w w w w ",
"w w 8 w w w w w w w w w w 8 w w w w 8 w w w w w w w w 4 w w w w w w w w w w w w w w 4 w w w w w w w w w w w w 8 w w i 2 [ t.e.e.r.X.t.F > e w 6 6 w w w w w w w 8 w w w w w w w 4 8 ",
"w w w w w w w w w w w w w 4 w w w w w w w w w w w w 8 w w 8 w w w w w w w w w w w w w w w w 8 w w w w w w w w w w w 7 u [ t.r.e.r.r.u.F : w w w w w w w w w w w w w w 8 w w w w w w ",
"w 8 w w w w w w w w w w w w w w 8 w w w w w w 4 w w w w w w w w w 8 w w w w 8 w w w w w w w w w w w w w 4 6 w w 7 0 7 u ( ..| | | | ..C 3 e w w 8 w w w w w w w w w w 4 w w w w w w ",
"w w w w w w w w 4 w w w w w w w w w w w w w w w 8 w w w w w w 8 w w 8 w w w w w w w w w w w w w w w w w w w w w w w w u C Q E W E E T V 3 0 < w w w w w w w w w w w 8 w w w w w w w ",
"w w w w w 8 w w w w w w w w w w 4 w w w w w w 8 w w w w w w w w w w w w w w 8 w w w 8 w w w w w 8 w w w w w w w w w w u S Q ~ ~ ! ! ^ N u e w w w w w 8 w 8 w w w w w w w w w w w w ",
"w w w w w w w w 8 w w w w w w w w w w w 8 w w w w w w w w w w 4 w w w w w w w w w w w w 4 w w w 4 w w 8 w w w w w w 0 u S Q ~ ~ ! ! / N u w w w w w w w w w w w w w w w w w w w w w ",
"8 w w w w w 4 8 w w w w w 8 w w w w w w w w w w w w w w w w w w w w w w w 4 w w 8 w w w w w w w w w w w w w w w w w 7 u S Q Q ~ ~ ! / N 3 i w 5 w w w w w 4 8 w w w w w 8 4 w w w w ",
"w w w w w w w w 8 w w w w w w w w w w w w w w w w w w w w w w w 8 w w w w w w 8 w 8 w w w w w w w w w w w w w w w w u u A Q ~ ~ ~ ! ] B 3 w w 8 w w w w w w w w w w w w w w w w w w ",
"w w 8 w w 8 w w 4 w w w 8 w 4 w w w w w w 8 w w w 8 w w w w 8 w w w w w w 4 w w w w w w w w w 8 w w w w w w w w w w i u A Q ~ ~ ~ ! ] B u w 8 w w w w w w w w w w w w w 8 w w 8 w w ",
"w w 4 w w w w w w w w w w w w 8 w w w w w w w w w w w w w 6 w w w w w w w w w w w w w w 4 w w w w w w w w w w w 7 7 w u A / ~ ~ ~ ~ ] B u 0 w w w 8 w w w w w 4 w w w w 4 w w w w 8 ",
"w w w w w w w w w w w w w w w w w w w 4 8 w w 8 4 w w w w w w w w w 8 w w w w w w w w w w w w w w w w w 4 8 w w w 0 i u A Q ~ ~ ~ ! / B u e w w w w w w w w w w w w w w w w w w w w ",
"w w w w w w w w w w w w w 4 w w w w 8 w w w w w w w w w w w w w w w w w w w 8 w w w w w w w w w 8 w w w w w w w w w w u D / ~ ~ ~ ! ] N u 7 w w w w w w w w w w 8 w w w w w w w w w ",
"w w w 8 8 w w w w w w w w w w w w w w w w w w w 8 w w w w w w 4 w w w w w w w w 8 w w w w w 8 w w w w w w w w 8 w w w u S Q ~ ~ ~ ! ] V u 7 w w w w w 8 w w w w w w w w w w w w w w ",
"w w w w 4 w w w w w w w w w w w w w w w w w w w w w w 8 w w w w w w w w w w w w w w w 4 w w w w w 8 4 w w w w w w w w u D Q ~ ~ ~ W ] N u w w r w w w w 8 w w 8 w w 8 4 w w w w w w ",
"w w w w w w w w 8 w w 6 w w w w w 4 w w w w 4 w w w w w w w w w 4 w w w w 8 w w w w w w w w w w w w w w w w w w w w w u Z Q ~ ~ ~ ~ ] V u w w w 8 w w w w w w w w w w w w w w 4 8 w ",
"8 w w w w w w w w 8 w w w w 4 w w w w w w w w w w w w w w w w w w w w w w w w w w w w w w w w 4 w w w w 8 w w w w 5 5 u D ] ~ ~ ! Q ^ V 3 w w w w w w w w w w w w w w w w w w w w w ",
"w w w w w w w w w w w w w w w 8 w w w w w w w w 8 w w w w 4 w w w w w w w w w w 8 4 w w w 8 w w w w w w w w w w w 5 p u S ] ~ ~ ! ! ^ B u w w 8 w 8 w w w w 4 w w w w w w w w w w w ",
"4 w w 8 w w w w w w w w w w w w w w w 8 w w w w w w w w w w w w w w w w w w w w w w w w w w w w w w 8 4 w w w w w w i u V F D R Y F F c 3 e 6 6 w w w w w w w 8 w 8 w w w w 4 8 w w ",
"w w w w w w w w w w w w w w w w w w w w 4 w w w w w w 8 8 w w w 4 8 w w w w 8 w w w w w w w w 8 w w w w w w w w w w w i 7 w u u 3 < w 3 w w 7 0 w w w w w w w w w w w w w w w w w 8 ",
"w w w w w w w 4 w 4 w w w w w w w 8 w w w w 8 w w w w w w w w w w w w w w 4 w w w w < w w w w w w w w w w w w w w w 5 w 8 0 7 0 e 9 0 5 w w 8 7 8 w w 4 w 8 w w w w w w w w w w w w ",
"w w w w w w w 8 8 w w w w w 8 w w w w w w w w w w w w w w w 8 w w w 8 w w 8 w w w w w w w w w w w w 8 w w w w w w w w w 8 6 7 w w w 5 i 4 w w 6 w w w w w w w w w w w w w w w w w w ",
"w w w w 8 w w w w w w w w w w w w w w w w w w w 8 w w w 4 w w w w w w w w w w w w w w w w w w w 8 w w w w w w w w w w w 8 8 w w w w 5 w w w 6 w w w w w w w w w w w w w w w w w 6 w ",
"8 w w w w w w w w w w w w w w w w w 4 w w 8 w w w w w w w w w w w w w w w w w 8 w 8 w w w w w w 4 w w w w w w w w w w w w w w w w w w w w w w w w w w w w w w w 8 4 w w w w w 8 w w ",
"w w w 8 4 w w w w w w w 8 4 w w w w w w w w w w w w w w 6 w w 4 w w w w w w w w w w w w w w w w w w w w w w w w w w w w w w w w w w w w w 5 w w w w w w w w w w w w w w w w w w w w ",
"w w w w w w w w w 8 w w w w w w w w w w w w w w w w w 8 w w w w w w w w w w w w w 4 8 w w w 8 w w w w w w w w w w w w w w w w 8 w w w w w w w w w w w 8 4 w w w 8 w w w w w w w w 4 "
};
