/* XPM */
static char *_[] = {
/* columns rows colors chars-per-pixel */
"90 90 151 2 ",
"   c #0C0B4D",
".  c #211F5D",
"X  c #22215D",
"o  c #1F1E64",
"O  c #221F62",
"+  c #211F6A",
"@  c #1E2065",
"#  c #252463",
"$  c #232369",
"%  c #29276C",
"&  c #2C2C6E",
"*  c #262672",
"=  c #282775",
"-  c #272872",
";  c #2D2D76",
":  c #272779",
">  c #27287C",
",  c #2C2D7C",
"<  c #302F73",
"1  c #302E7D",
"2  c #2E3176",
"3  c #2E3179",
"4  c #323376",
"5  c #383875",
"6  c #323278",
"7  c #38377C",
"8  c #36387F",
"9  c #38387A",
"0  c #272780",
"q  c #262881",
"w  c #2B2C81",
"e  c #2C2C88",
"r  c #343481",
"t  c #393680",
"y  c #3B3A81",
"u  c #3C3B89",
"i  c #3B3B94",
"p  c #3C3C9C",
"a  c #3E3EA2",
"s  c #41408F",
"d  c #57568C",
"f  c #414197",
"g  c #52509F",
"h  c #76779E",
"j  c #4343A5",
"k  c #4646AA",
"l  c #4A4BAB",
"z  c #504EA0",
"x  c #5352A2",
"c  c #4F4FB6",
"v  c #504FB4",
"b  c #504FB9",
"n  c #4F51B3",
"m  c #5251B5",
"M  c #5250BA",
"N  c #5B5BBC",
"B  c #7B7BA4",
"V  c #7F7FA8",
"C  c #6769B6",
"Z  c #6B6BBC",
"A  c #7675B6",
"S  c #7776BB",
"D  c #7A79BB",
"F  c #5554C2",
"G  c #5A59C1",
"H  c #5C5BCE",
"J  c #5654D4",
"K  c #5957D6",
"L  c #5C5BD5",
"P  c #5A57DA",
"I  c #5B5ADA",
"U  c #615ECE",
"Y  c #615FD4",
"T  c #615ED9",
"R  c #5F60C6",
"E  c #6362CE",
"W  c #6260D2",
"Q  c #6865D0",
"!  c #6D6ED2",
"~  c #6F70D4",
"^  c #7372D0",
"/  c #605DE2",
"(  c #6F6EEB",
")  c #706EEA",
"_  c #7675EB",
"`  c #7977EB",
"'  c #807FFC",
"]  c #8182AB",
"[  c #8F90AB",
"{  c #9191A9",
"}  c #8584B3",
"|  c #8E8EB1",
" . c #908FB2",
".. c #8F90B1",
"X. c #9291B2",
"o. c #9999B4",
"O. c #8684D6",
"+. c #8585DA",
"@. c #9493D4",
"#. c #9796DA",
"$. c #9896D9",
"%. c #9999DA",
"&. c #A4A4C5",
"*. c #ABABCA",
"=. c #A8A8D5",
"-. c #B8B6D3",
";. c #BAB9D4",
":. c #8887F7",
">. c #8A88F6",
",. c #8382FD",
"<. c #8887FC",
"1. c #8C8BFE",
"2. c #9F9FF5",
"3. c #9392FC",
"4. c #9E9EFC",
"5. c #A19EF5",
"6. c #A39FFA",
"7. c #A3A1F5",
"8. c #A4A3FE",
"9. c #A9A7FB",
"0. c #ABAAFE",
"q. c #B0AFF0",
"w. c #B0AEFF",
"e. c #AFB0FF",
"r. c #B3B3F3",
"t. c #BDBBF2",
"y. c #B2B1FF",
"u. c #B8B6FF",
"i. c #BDBDFD",
"p. c #C0BEFD",
"a. c #C6C4D5",
"s. c #CCCCE5",
"d. c #C2C2FE",
"f. c #C8C7FF",
"g. c #C7C8FF",
"h. c #CBCBFF",
"j. c #D5D4F4",
"k. c #D9D6F6",
"l. c #DADBF1",
"z. c #D1D1FF",
"x. c #E4E4F6",
"c. c #EBEAF7",
"v. c #E5E4FD",
"b. c #E9E7FB",
"n. c #E7E9F8",
"m. c #EDECFD",
"M. c #F0EEFE",
"N. c #F5F6FF",
"B. c #F8F5FF",
"V. c #F6F8FF",
"C. c #FEFEFF",
/* pixels */
"6 6 6 6 6 6 6 6 6 6 6 6 6 6 6 6 6 6 6 4 4 4 4 6 6 6 6 3 6 6 6 6 6 6 6 6 6 6 6 6 6 6 6 6 6 6 1 6 6 6 6 6 6 6 6 6 4 6 < 6 6 6 6 6 6 6 6 4 4 6 6 6 6 6 6 6 6 6 6 6 < 6 6 6 6 6 6 6 6 6 ",
"6 6 6 6 6 6 6 6 6 6 6 6 6 6 6 6 6 6 6 5 4 4 4 3 7 6 6 3 3 6 6 6 6 6 6 3 6 6 6 6 6 6 6 6 6 6 6 6 6 6 6 6 6 6 6 6 6 6 6 6 6 6 6 6 6 6 4 4 4 6 8 6 6 6 6 6 6 6 6 6 6 6 6 6 6 6 6 < 6 6 ",
"6 6 6 6 6 6 6 6 6 < 6 6 6 < 6 6 4 3 3 4 2 4 4 8 6 6 8 2 3 6 6 6 6 6 6 r 6 6 6 6 r 1 6 6 6 6 6 6 1 r 6 6 6 6 7 6 6 6 5 6 6 6 6 6 6 6 6 6 5 4 6 6 6 6 6 6 6 6 6 6 6 6 6 6 6 6 6 6 6 6 ",
"6 6 6 6 6 < 6 6 6 4 6 6 6 6 6 6 3 4 4 4 4 4 3 3 6 6 6 3 6 6 6 6 6 6 6 6 6 6 6 6 6 6 6 6 6 6 6 6 6 6 6 6 4 1 1 6 1 6 5 < 6 6 6 6 6 6 6 6 2 2 6 3 6 6 6 6 6 6 6 6 6 6 6 6 6 6 6 6 6 6 ",
"6 6 < 6 6 6 6 6 6 4 6 6 6 6 6 6 6 4 3 3 6 6 < 6 6 6 6 6 6 6 6 6 6 6 6 4 6 6 6 6 6 6 6 < 6 6 4 4 6 6 4 6 6 4 6 6 6 6 6 6 6 6 r 1 6 6 6 6 6 3 2 2 6 6 6 6 6 6 6 6 6 6 6 6 6 6 6 6 6 6 ",
"6 6 4 6 6 6 6 6 6 4 < 6 6 6 4 6 2 4 3 8 r 6 6 7 5 9 6 7 7 7 4 7 7 6 7 7 r 8 9 6 9 9 9 9 7 7 7 9 6 8 9 7 7 9 7 6 7 7 7 6 t 6 r 7 6 9 9 6 6 6 4 6 6 6 6 6 6 6 6 6 6 6 6 6 6 6 6 6 6 6 ",
"6 6 6 6 6 6 6 6 6 4 6 6 6 6 6 4 4 3 2 3 6 6 & # # # # # # # # # # # # # # # # # # X # # # # $ # # # # # # # # # # # # % # # # # X # X & 6 8 6 6 6 6 6 6 6 6 6 6 6 6 6 6 6 6 4 < 6 6 ",
"6 6 6 6 6 6 6 6 6 6 6 6 4 6 6 6 4 6 6 6 7 $ ] l.s.s.s.s.s.s.s.s.s.s.s.s.s.s.s.s.s.s.s.s.s.s.s.s.s.s.s.s.s.s.s.s.s.s.s.s.s.s.s.s.s.s.l.V $ 7 4 4 6 6 6 3 6 6 6 < < 6 6 6 6 6 6 6 < 6 ",
"6 6 6 6 1 4 6 6 6 6 6 6 6 4 1 4 6 6 4 4 5 X X.C.N.V.V.N.N.N.N.N.B.B.B.V.V.V.V.V.V.V.V.V.V.V.V.V.N.V.N.V.V.V.N.V.N.N.V.V.V.V.V.B.V.N.C.X.X 9 6 6 6 6 6 6 4 6 6 6 6 6 6 6 4 < 6 6 6 6 ",
"6 1 4 6 4 6 6 6 6 6 6 6 6 6 6 6 6 4 6 4 5 X  .C.x.M.m.m.m.m.m.m.M.M.m.m.m.m.m.m.m.m.m.m.m.m.m.m.m.m.m.m.m.m.m.m.M.m.m.m.m.m.m.m.m.b.C.[ X 9 7 4 6 6 6 6 < 6 6 6 6 6 6 6 6 6 6 6 6 6 ",
"6 6 6 6 6 4 4 6 < 6 6 6 6 6 6 6 4 4 6 6 5 X  .C.b.M.M.m.m.M.m.N.m.m.M.M.M.M.M.M.m.M.M.M.M.M.M.M.M.M.m.m.M.M.m.m.M.M.m.m.m.M.N.m.c.b.C.X.X 9 6 6 6 6 6 6 6 6 6 6 6 6 6 6 6 6 6 6 6 6 ",
"6 6 6 4 6 6 6 6 6 6 6 6 6 6 6 6 4 6 6 6 5 .  .C.b.M.M.M.M.M.M.M.m.N.m.M.m.M.M.M.M.M.m.M.M.M.M.M.m.M.m.N.m.M.m.N.m.M.M.M.M.M.M.m.N.b.C. .O r 6 6 < 6 6 6 6 6 6 6 6 6 6 6 6 6 6 6 6 6 ",
"6 6 6 6 6 4 1 6 6 6 4 6 6 6 < 7 9 8 8 8 y # X.V.x.c.c.c.b.m.b.b.m.b.b.b.b.c.b.b.n.m.b.b.c.m.b.b.b.b.m.b.b.b.c.b.b.m.x.m.b.c.b.m.b.x.V...# 9 4 4 6 6 6 6 6 6 6 6 6 4 6 6 6 6 6 6 6 6 ",
"6 6 6 4 6 6 4 4 6 6 6 6 6 4 6 % o @ @ @ $   [ C.V.C.C.C.C.C.C.C.C.C.C.C.C.C.C.C.C.C.C.C.C.C.C.C.C.C.C.C.C.C.C.C.C.C.C.C.C.C.C.C.C.V.C.o.o 9 4 < 6 6 6 6 6 6 6 6 6 < 6 6 6 6 6 6 6 6 ",
"6 < 4 6 6 6 6 6 6 4 6 6 < 9 % } *.&.&.&.&.*.X.h B B B B B B B B B B B B B B B B B B B B B B B B B B B B B B B B B B B B B B B B B B ] d & 6 4 4 4 6 6 6 < 6 6 6 6 6 6 6 6 6 < 6 6 6 ",
"6 6 6 4 6 4 6 4 4 1 6 6 6 7 . a.C.C.C.C.V.C.{   & @ # $ @ # $ $ $ $ # $ $ $ $ # @ $ $ $ $ $ # @ $ $ # $ $ $ $ @ $ # $ o # $ $ $ $ $ # - 6 6 6 6 6 6 6 4 6 6 6 6 6 6 6 6 6 6 6 6 6 6 ",
"6 6 6 6 6 6 6 6 6 6 6 6 < 7 X -.N.n.m.m.x.V. .# y 8 7 6 8 8 6 8 7 8 6 7 6 7 6 7 6 7 7 6 7 7 6 7 6 8 7 6 7 6 7 6 8 7 7 6 7 6 8 7 7 6 7 6 6 6 6 6 6 6 6 6 6 6 6 6 6 6 6 6 6 6 6 6 6 6 ",
"6 6 6 6 < 6 6 6 6 6 4 6 6 7 X ;.C.c.m.N.m.C.X.. t < 6 6 6 < 6 6 2 6 6 6 6 6 6 6 6 6 6 6 2 6 6 6 6 6 6 6 6 6 6 6 6 6 6 6 6 6 2 6 6 6 6 6 6 6 6 6 6 6 6 6 6 6 6 6 6 < 6 6 6 6 6 6 6 6 ",
"6 6 6 6 6 6 6 6 4 6 6 6 6 5 X ;.B.m.m.m.b.C. .X 7 6 6 6 6 6 6 6 6 6 6 6 6 6 6 6 6 6 6 6 6 6 6 6 6 6 6 6 6 6 4 6 6 2 6 6 6 6 6 6 6 6 < 4 6 6 6 6 6 6 4 < 6 6 < 4 6 6 6 6 6 6 < 6 6 6 ",
"6 6 6 6 6 6 6 6 6 6 6 4 6 7 X ;.V.m.M.m.b.C. .X 5 4 4 6 6 6 6 6 6 6 6 6 6 6 6 6 6 6 6 6 6 6 6 6 6 6 6 6 6 6 < 6 6 6 6 6 6 6 6 6 6 6 6 6 6 6 6 6 6 6 6 6 6 6 6 6 6 6 6 6 6 6 6 4 6 6 ",
"6 6 6 6 6 6 6 6 6 6 6 6 6 9 X ;.V.b.m.m.b.C...X 5 4 4 4 6 6 6 6 6 6 6 6 6 6 6 < 6 6 6 6 6 6 < 6 6 6 2 6 6 6 6 6 6 6 6 6 6 6 6 6 6 6 6 6 6 6 6 6 6 6 6 6 6 6 6 6 6 6 6 6 6 6 6 6 6 6 ",
"6 6 6 6 6 6 6 4 6 6 6 6 6 9 X ;.C.m.N.m.m.C.X.@ 5 4 4 4 4 6 6 6 6 6 6 6 6 6 6 4 6 6 6 6 6 6 6 6 6 6 6 6 6 6 6 6 6 6 6 6 6 6 6 6 6 6 6 6 6 6 6 6 6 6 < 6 6 6 6 6 6 6 6 6 6 6 6 6 6 6 ",
"< 6 6 6 6 6 < 6 6 6 6 6 6 7 # =.v.j.k.k.j.v.} # 7 6 6 4 6 6 6 6 6 6 6 6 6 6 6 6 6 6 6 2 6 6 6 6 6 6 6 6 6 6 6 4 6 4 6 6 6 6 6 6 6 6 6 6 6 6 6 6 6 6 6 6 6 6 6 6 6 6 6 4 6 6 6 6 6 6 ",
"6 6 6 6 6 6 6 6 6 6 6 2 6 7 $ $.d.t.t.t.t.g.A % 6 6 6 4 6 6 6 6 6 6 6 6 6 6 6 6 6 6 6 6 6 6 6 6 6 6 6 6 6 6 6 6 6 < 6 6 6 6 < 6 6 6 6 6 6 < 6 6 6 6 6 6 6 6 6 6 6 6 < 6 6 6 6 6 < 6 ",
"6 6 6 6 6 6 < 6 6 6 6 6 < 8 $ #.g.i.p.p.t.h.D * r 8 3 6 4 6 6 6 6 4 6 6 6 6 6 6 6 6 6 6 6 6 6 6 6 6 < 4 6 6 6 6 6 6 6 6 6 < 6 6 6 6 6 6 6 6 6 6 6 6 6 6 6 6 6 6 6 6 6 6 6 6 6 6 6 6 ",
"6 6 6 6 6 6 6 6 6 6 6 6 6 7 % #.g.i.p.p.i.h.S $ r 3 , 8 6 6 6 6 < 6 6 6 6 6 6 6 6 6 6 6 6 6 6 6 6 6 6 6 6 6 6 6 6 6 6 6 6 6 6 6 6 6 6 6 6 6 6 6 6 6 6 6 6 6 6 6 6 6 6 6 < 6 6 6 6 6 ",
"6 6 6 6 6 6 6 6 6 6 6 6 6 7 % $.f.i.p.p.i.h.D % 6 6 6 6 4 6 6 6 6 6 6 6 6 6 6 < 6 6 6 6 6 4 < 6 6 6 6 6 6 6 6 2 6 6 6 6 6 6 6 6 6 6 < 6 6 6 < 6 6 6 6 < 6 6 6 6 6 6 6 6 6 6 6 6 6 6 ",
"6 6 6 6 6 6 6 6 6 6 6 6 6 7 $ %.h.i.i.p.i.h.D $ 6 4 6 4 4 6 6 6 6 6 6 6 6 6 6 6 6 6 < 6 6 6 6 6 6 6 6 6 6 4 6 6 6 6 6 6 6 6 6 6 6 6 6 6 6 6 6 6 6 6 6 6 6 6 6 6 6 6 6 6 6 6 6 6 < 6 ",
"6 < 6 6 6 6 6 6 6 < 6 6 6 7 $ %.g.i.d.i.i.h.D $ 8 2 2 4 4 4 6 6 6 6 6 6 6 6 6 6 6 6 6 6 6 6 6 6 6 6 6 6 6 6 6 4 6 6 6 6 6 6 6 6 6 6 6 6 6 6 6 6 6 6 4 6 6 4 6 6 < 6 6 6 6 6 < 6 6 4 ",
"6 6 6 6 6 6 6 6 6 6 6 6 6 6 $ $.h.i.d.i.i.h.D $ 8 6 6 6 4 4 6 6 6 6 6 6 6 6 6 6 6 6 6 6 6 6 6 6 6 6 6 6 6 4 6 6 6 6 6 6 6 6 6 6 6 6 6 6 6 6 6 6 6 6 6 < 6 6 < 6 6 6 6 6 6 4 6 6 6 6 ",
"6 6 6 6 6 6 < 6 6 6 6 6 6 9 # $.h.i.i.i.i.h.D $ 9 6 6 4 4 6 4 6 6 6 6 6 6 6 6 6 6 6 6 6 6 6 6 6 6 6 6 6 6 6 6 6 6 6 6 6 6 r 6 < 6 6 6 6 < 6 6 6 6 6 6 6 6 6 6 6 6 6 6 6 6 6 6 6 6 6 ",
"6 6 6 6 4 6 6 6 6 6 6 6 6 7 $ $.g.i.i.d.i.h.D $ 7 2 4 2 4 6 6 6 6 6 6 6 6 < 6 4 6 6 6 6 < 4 6 6 6 6 6 < 6 6 6 6 6 6 6 6 < 6 6 6 6 6 6 6 6 6 6 6 6 6 6 6 6 6 6 6 6 6 6 6 6 6 6 6 6 6 ",
"< 4 6 6 6 6 6 < 6 6 6 6 6 7 % $.h.i.i.p.u.z.D $ 5 4 6 6 4 6 6 6 6 6 6 6 6 6 6 6 6 6 6 6 6 6 6 6 6 6 6 6 6 6 6 6 6 6 6 6 6 6 6 6 6 6 6 6 6 6 6 6 2 6 6 6 6 6 6 6 6 6 6 6 6 6 6 6 6 6 ",
"6 6 6 6 6 6 6 6 6 6 6 6 6 8 $ $.f.i.p.p.p.z.D # 6 6 4 6 4 6 6 6 6 < 6 6 6 6 6 6 6 6 6 6 6 6 6 6 6 4 6 6 6 6 6 6 6 6 6 6 6 6 6 6 6 6 6 6 6 6 6 6 6 6 6 6 6 6 6 6 6 6 6 6 6 6 6 6 6 6 ",
"6 6 6 6 6 6 6 6 2 6 6 6 6 7 $ $.f.i.p.p.i.f.D $ 8 6 6 6 6 6 6 6 6 6 6 6 6 6 6 6 6 6 6 6 6 6 6 6 6 6 6 6 6 6 6 6 6 6 6 6 6 6 6 6 4 6 6 6 6 6 6 6 6 6 6 6 6 6 < 6 4 6 6 6 6 6 6 6 6 6 ",
"6 6 6 6 6 6 6 6 6 6 6 6 6 6 # $.h.d.d.d.p.z.D + r < < ; 2 ; ; , ; ; 2 < < < ; ; ; 6 ; , ; ; 6 ; < 2 ; ; ; 6 ; , ; ; 1 , 6 6 6 6 4 6 6 6 6 6 6 6 6 4 6 6 6 6 6 6 < 6 6 6 6 6 < 6 6 6 ",
"6 6 6 6 6 6 6 6 6 6 6 6 6 7 $ @.i.q.r.r.q.p.S 1 s u u u u u u u u u u u u u u u u u u u u u u u u u u u u u u u u u u u 8 6 6 6 4 4 4 6 6 4 6 6 6 6 6 6 6 6 6 6 6 6 6 6 6 6 6 6 < 6 ",
"6 6 6 6 6 6 6 6 6 6 6 6 6 6 6 2 & & & & < + Z u.9.9.8.0.9.9.0.0.0.0.0.0.0.0.0.0.0.0.0.9.0.0.0.0.0.0.0.9.0.9.0.9.9.0.9.u.g - 6 5 4 4 4 4 6 6 6 6 4 6 6 < 6 6 6 6 6 6 6 6 6 6 6 6 6 6 ",
"< 6 6 6 6 6 6 6 6 6 6 6 6 6 6 6 4 5 5 6 y * Z w.6.6.8.8.8.8.8.8.4.8.4.8.8.8.8.8.4.8.8.8.8.8.8.8.8.8.8.8.8.8.4.8.8.8.5.w.g = 6 6 4 6 6 6 6 6 6 6 6 6 6 4 6 6 6 6 6 6 6 6 < 4 6 6 6 6 ",
"6 6 6 6 6 6 6 6 < 6 6 6 6 6 6 6 4 4 6 4 6 * Z w.6.8.8.8.8.8.8.8.8.8.8.8.6.8.6.8.8.8.6.8.8.8.8.8.8.8.6.8.8.8.8.8.8.8.8.y.x = 2 7 6 6 6 6 6 6 4 2 6 6 6 6 6 6 6 6 6 6 6 6 6 6 6 6 6 6 ",
"6 6 6 6 6 < 6 6 6 6 6 6 6 6 6 6 2 4 6 6 7 = Z 0.8.8.8.8.8.8.8.8.8.8.8.8.8.8.8.8.8.8.8.8.8.8.8.8.8.8.8.8.8.8.8.8.8.8.6.u.z = 6 1 4 4 6 8 3 6 4 5 6 < 6 6 6 6 < 6 6 6 < 6 6 6 6 6 < 6 ",
"6 6 6 6 6 4 6 6 6 6 6 6 6 6 6 3 6 4 6 ; 8 $ Z y.6.8.8.8.8.8.0.8.8.8.8.8.8.8.8.9.8.8.8.9.8.8.8.8.9.8.8.8.8.8.8.8.8.8.6.w.z ; 6 4 4 3 6 6 6 6 4 4 6 6 4 6 6 6 6 6 6 6 6 6 6 6 6 4 6 6 ",
"6 6 6 6 6 6 6 6 6 6 6 6 6 6 6 3 6 6 6 8 6 * Z e.8.8.8.8.8.8.8.8.0.8.8.8.8.8.8.8.8.8.8.8.8.8.8.8.8.8.8.9.8.8.8.8.8.8.8.w.z : 7 6 5 3 6 6 6 6 4 4 6 6 6 6 6 6 6 6 6 6 6 6 6 6 6 6 6 6 ",
"6 6 6 6 6 6 6 6 6 6 6 < < 6 6 6 4 4 6 6 r * Z y.8.9.9.8.8.8.8.8.8.8.8.8.8.8.8.8.8.9.8.8.8.8.8.8.8.8.8.8.8.9.8.8.9.8.5.w.x = r 6 3 3 2 6 6 2 6 3 6 6 6 6 6 6 6 6 6 6 6 6 6 6 6 6 6 6 ",
"6 6 6 6 6 6 6 6 6 6 6 4 6 6 6 6 4 6 6 6 r = Z w.5.8.5.6.8.8.8.8.8.8.8.8.2.8.8.8.9.8.8.6.2.8.8.7.9.8.8.7.8.8.5.8.8.7.7.w.x 1 r r 3 r 8 2 2 3 6 6 6 6 6 6 6 6 6 6 6 6 6 6 6 6 6 6 6 6 ",
"4 6 6 6 6 6 < 6 6 6 6 6 6 6 6 6 6 6 6 6 6 6 t 6 r 6 6 t 6 6 6 6 6 6 t 6 6 6 6 r 6 8 t 6 r 6 r 6 8 6 r 6 t 6 6 r 6 r t : +.0.6.6.8.2.e.C - 8 6 4 6 6 6 6 6 6 6 6 6 6 6 6 6 6 < 6 6 6 ",
"< 6 6 6 6 6 6 6 6 6 6 6 6 6 6 6 6 6 6 6 6 6 < < 4 6 , 6 6 6 6 6 6 6 6 6 6 6 6 6 6 6 6 6 6 6 6 6 6 6 6 6 6 6 6 6 6 , 6 ; O.w.8.8.9.2.y.C * 8 6 4 6 6 6 6 6 6 6 6 6 < 6 6 6 6 6 6 6 6 ",
"6 6 6 6 6 6 6 6 6 6 6 6 6 2 6 6 6 6 6 6 4 6 6 8 4 4 4 5 6 6 6 6 6 6 6 6 6 6 6 6 6 6 6 2 6 6 6 6 < 6 6 6 6 6 6 6 6 6 7 * O.0.8.8.8.8.y.C - 6 6 < < 6 6 6 6 6 6 < 6 4 6 6 6 6 6 6 6 6 ",
"6 6 6 6 6 6 6 6 6 6 < 6 6 6 6 6 6 6 6 6 4 2 6 6 6 6 6 6 6 6 6 6 6 4 6 6 6 6 6 6 6 6 6 6 6 6 6 6 6 6 6 6 6 6 6 6 6 6 8 * O.0.8.8.8.2.0.Q % 5 6 6 6 6 6 6 6 6 6 6 6 6 6 6 6 6 6 6 6 6 ",
"6 6 6 6 < 6 6 6 6 6 4 6 6 6 6 6 6 4 6 6 6 6 6 6 6 6 6 6 6 6 6 6 6 6 6 6 6 6 6 6 6 6 6 6 6 6 6 6 6 6 6 6 2 6 6 6 6 6 6 - +.0.8.8.8.8.y.Z - 6 6 7 6 6 6 6 6 6 6 6 6 6 6 < 6 6 6 6 6 6 ",
"6 6 6 6 6 6 6 6 6 6 6 6 6 6 6 6 6 6 6 6 6 6 < 6 , r 6 r 6 6 4 6 4 4 4 6 6 6 6 6 4 4 4 4 6 6 6 6 6 4 6 6 6 6 6 6 4 4 9 * +.0.8.8.8.4.y.Z * 8 4 6 6 6 6 6 6 6 6 6 6 6 6 6 6 6 6 6 6 6 ",
"6 6 6 6 6 6 6 6 6 6 6 6 6 6 4 4 6 6 4 6 6 6 6 6 6 6 6 6 6 6 4 4 4 4 6 4 6 6 6 6 4 4 4 6 4 4 6 6 4 6 6 6 6 6 6 6 4 4 4 = +.e.8.8.9.8.y.Z * 6 6 6 6 6 6 6 6 6 6 6 6 6 6 6 6 6 6 6 6 6 ",
"< 6 6 6 6 6 6 6 6 6 6 6 6 6 4 4 4 6 6 6 6 6 6 6 6 6 4 4 4 4 6 6 6 6 6 6 < 6 6 6 6 6 6 6 6 6 6 6 6 6 6 6 6 6 6 6 6 6 6 : ^ 3.:.>.<.:.3.N : 8 6 6 6 4 6 6 6 6 < 6 6 6 6 6 6 6 6 6 6 < ",
"6 6 6 6 6 6 6 6 6 6 6 < 6 6 4 4 6 6 6 6 6 6 6 6 6 6 4 4 4 4 6 6 6 6 6 6 6 6 6 6 6 6 3 6 6 6 6 6 6 6 6 6 6 6 6 6 6 4 8 > ! :.,.,.' ' 1.N , 6 < 6 6 6 6 6 6 6 4 6 6 6 < 4 6 6 4 < 6 6 ",
"6 6 6 6 4 6 6 6 6 6 6 4 6 6 6 6 6 6 6 6 6 2 6 6 6 4 4 4 4 4 4 6 6 6 6 6 6 6 6 6 6 6 6 6 6 6 4 6 6 6 6 6 6 6 6 6 6 6 3 > ! >.,.,.,.,.1.N > 6 6 6 6 4 6 2 6 6 6 6 6 6 6 6 6 6 6 6 6 6 ",
"6 6 6 6 < 6 6 6 6 6 6 6 6 6 4 6 6 6 6 6 6 6 6 6 6 6 4 4 4 4 6 6 6 6 6 3 6 6 6 6 6 6 6 6 6 6 < 6 6 6 6 2 6 6 6 6 6 6 8 q ! :.:.,.,.' 1.N w 6 6 6 6 6 6 6 6 4 6 6 6 6 6 6 6 6 6 6 6 6 ",
"6 6 6 6 6 6 6 6 6 6 6 6 6 6 4 4 6 6 6 6 6 6 6 6 1 r 6 6 6 6 6 6 6 6 6 6 6 6 6 6 6 6 6 6 6 6 6 6 6 6 6 6 6 6 4 3 6 2 3 q ! 1.' ,.,.,.1.N : 6 6 6 6 6 6 6 6 6 6 6 6 6 6 6 6 6 6 6 6 6 ",
"6 6 6 6 6 6 6 6 6 6 6 6 6 6 6 4 6 6 6 < 6 6 6 6 6 6 6 6 6 6 6 6 6 6 6 6 6 6 6 6 6 6 < 6 6 6 6 6 6 6 6 6 6 6 6 6 6 6 8 > ! 1.,.,.,.' 1.N > 6 6 6 6 6 6 6 6 6 6 6 6 6 < 6 6 6 6 6 6 6 ",
"6 6 < 6 6 6 6 6 6 6 6 6 6 6 6 6 6 6 6 6 6 6 6 6 6 6 6 6 6 6 6 6 6 6 6 6 6 6 2 6 6 6 6 6 6 6 6 6 6 6 6 4 4 6 4 6 6 6 6 > ! <.,.,.,.,.1.N ; 6 6 8 6 6 6 6 6 6 6 6 6 6 6 6 6 6 6 6 6 6 ",
"6 6 6 4 6 6 6 6 6 6 6 < 4 6 6 6 6 6 6 6 6 6 6 6 6 6 6 6 < 6 6 6 6 6 6 6 6 6 6 6 6 6 6 6 6 6 6 6 6 6 6 6 6 6 6 6 6 6 8 : ~ 1.,.,.,.,.3.N : 6 6 6 6 6 6 6 < 6 6 6 6 6 6 6 4 6 6 6 6 6 ",
"6 6 6 6 6 6 6 < 6 < 6 6 6 6 6 6 6 6 6 6 6 6 6 6 6 6 6 6 4 < 6 6 6 6 < 6 6 6 6 6 < 6 6 6 6 6 6 6 6 6 6 6 6 4 6 6 6 6 8 > ! 1.,.,.,.' 1.N = 5 6 6 6 6 6 6 6 6 6 6 6 6 < 6 < 6 6 6 6 6 ",
"6 6 6 6 6 6 6 6 6 6 4 6 6 6 6 < 6 6 6 6 6 6 6 6 6 6 6 6 6 6 6 6 6 6 6 6 4 < 6 6 4 6 6 6 4 6 6 6 6 6 6 6 6 6 6 6 6 6 3 > ! <.,.,.,.,.1.N : 4 6 6 4 < 6 6 < 4 6 6 6 6 6 6 6 6 6 6 < 4 ",
"6 6 < 6 6 6 6 6 6 6 6 6 6 6 6 6 6 < 6 6 6 6 6 6 6 6 6 6 6 6 6 6 6 6 6 6 6 6 6 6 6 6 4 6 6 6 6 6 6 6 6 6 6 6 6 6 6 6 3 q ! 1.,.,.,.,.1.N > 4 6 6 6 6 6 6 6 6 6 6 6 6 6 6 6 6 6 6 6 6 ",
"6 6 6 6 6 6 6 6 6 6 6 6 6 6 6 6 6 6 6 6 6 6 < 6 6 6 6 6 6 6 6 6 6 6 6 6 6 6 6 6 6 6 6 6 6 6 6 6 6 6 6 2 6 4 6 6 6 6 4 > ! 1.,.,.,.,.1.N = 7 6 6 6 6 6 6 6 6 6 6 6 6 6 6 6 6 6 6 6 6 ",
"6 6 6 6 6 6 6 6 6 6 6 6 6 6 6 6 6 6 6 6 6 4 6 6 1 4 6 6 < 6 6 6 6 6 6 6 6 2 6 6 6 4 6 6 6 6 6 6 6 6 6 6 6 6 6 6 6 6 6 > ! 1.,.,.,.,.1.N > 7 6 6 6 6 6 6 6 6 6 6 6 6 6 6 6 6 6 6 6 6 ",
"6 6 6 6 6 6 6 6 6 6 6 6 6 6 6 < 6 6 6 6 6 6 6 6 4 4 6 6 6 6 6 6 6 6 6 6 6 6 6 4 6 6 < 6 6 6 6 6 < 4 6 6 6 6 6 6 6 3 8 > ! 1.' ,.,.' 1.N = 9 6 6 6 6 6 6 6 6 6 6 6 6 6 6 6 4 6 6 6 6 ",
"6 6 6 < 6 6 6 6 < 6 6 6 6 6 6 6 6 6 6 4 6 6 4 1 6 6 6 6 6 6 6 6 6 6 6 6 6 6 6 6 6 6 6 6 6 6 6 6 6 6 6 6 6 6 6 < 6 6 6 > ! 3.,.,.<.,.3.G = 4 6 6 < 6 6 6 6 6 6 6 < 4 6 6 4 < 6 6 6 6 ",
"6 6 4 6 6 6 6 6 6 6 6 4 6 6 6 6 < 6 6 6 6 4 4 6 6 6 4 6 6 6 6 6 6 6 6 6 6 6 6 6 6 6 6 6 6 6 6 < 6 6 6 6 6 6 6 6 6 6 6 w H _ ( ( ( _ _ n : 7 4 6 4 6 6 6 6 6 6 < 6 6 6 6 6 6 6 6 6 6 ",
"6 6 6 6 6 6 6 6 6 6 6 6 6 6 6 6 6 6 6 6 4 1 6 6 4 6 6 6 6 1 4 4 6 6 6 6 6 6 6 6 6 6 6 6 6 6 6 6 6 6 6 6 6 6 6 6 6 6 6 w c L J I J J H j w 6 6 6 6 6 6 6 6 6 6 6 6 6 6 6 6 6 6 6 6 < ",
"6 6 6 < < 6 6 6 4 6 6 6 6 6 6 6 6 6 6 6 4 4 4 6 6 6 6 6 4 6 6 6 6 6 6 6 6 6 6 6 6 6 6 6 6 6 6 6 6 6 6 6 6 6 6 6 6 6 6 w m L I I I I Y j w 7 3 6 6 6 6 6 6 6 6 6 6 6 6 6 < 6 6 6 6 6 ",
"6 6 4 6 6 6 6 6 6 6 4 6 6 6 6 6 6 6 6 6 6 6 6 6 4 6 1 6 4 6 4 6 6 6 6 6 6 6 6 6 6 6 6 < 6 6 6 6 6 6 6 6 6 6 6 6 6 6 6 w n I I I I P W c , 6 6 6 6 6 6 < 6 6 6 6 6 6 6 6 6 6 6 6 6 4 ",
"6 6 6 6 6 6 6 6 6 6 6 6 6 6 6 6 6 6 6 6 6 4 6 6 4 6 6 6 6 6 6 6 6 4 6 6 2 6 6 6 6 6 6 4 6 6 6 6 6 6 6 6 6 < 4 6 6 2 8 , M W I I I K L j w 8 6 6 6 6 6 6 6 6 6 6 6 6 6 6 6 6 6 6 6 6 ",
"6 6 6 6 6 6 6 6 6 6 4 6 6 6 6 6 3 2 2 3 3 3 3 3 6 6 6 6 6 6 6 6 2 3 4 3 3 6 6 6 6 7 6 6 6 6 6 3 6 6 6 4 3 6 6 6 6 6 8 w n Y I I I K Y k w r 2 4 6 6 4 6 6 4 < 6 6 6 6 < 6 6 6 6 6 6 ",
"6 6 6 6 6 6 6 6 6 6 6 < 6 6 6 w 3 r 3 3 3 w 3 3 w 1 1 1 1 w 1 1 , , 3 3 w 3 , 3 , w , , 3 w 3 3 , , < , 3 3 w 3 w 3 w > n W L I T L Q l w r 6 2 4 6 6 6 6 6 6 6 6 6 6 6 6 6 6 6 6 6 ",
"6 6 6 6 6 6 6 6 6 6 6 6 6 6 , i i p p p a p a a p p p p p p p p p p p p a p p p p p p p p p p p p p p p p p p p p p p p l b M M b v m f , 6 6 4 6 6 6 6 6 6 6 6 6 6 6 6 6 6 6 6 6 6 ",
"6 6 6 < 6 6 < 6 6 6 6 6 6 6 , m Q W W W W E L L W W W W W W W W W W W W W W E W W W W W W W W W Y W Y Y W W W L W W R Q p e e e w w , < 6 6 6 6 6 6 4 6 6 6 6 6 6 4 6 6 6 6 6 6 6 6 ",
"6 6 6 6 6 6 6 6 6 6 6 6 6 6 w b Y P I I L J I I P P L P I P K I I J I I P P L P L P L P L L P P K I I L I L P L I K L H a e r 3 t 6 6 6 6 5 6 6 6 6 6 6 6 6 6 6 6 6 6 6 6 6 6 < 6 6 ",
"6 6 < 6 6 6 6 6 6 6 6 < 6 6 w c Y I P I I I I I I I I I I I I I I I I I I I I I I I I I I I I I I I I I I P I I I P I W a 3 3 9 1 6 6 6 5 < 4 4 < 4 6 6 6 6 6 6 6 6 6 6 6 6 6 6 6 6 ",
"6 6 6 4 6 6 6 6 6 6 6 6 6 8 , n L I I I L I I I I I L L I I I I I L I I I I I L L L I I I L I I I I I I P L L I I I K R i 2 3 4 7 7 1 4 < 4 4 4 6 6 6 6 6 6 < 6 6 6 < 6 4 6 6 6 < 6 ",
"6 6 6 6 6 6 6 6 6 6 6 6 6 6 , c L P I / L I I I I I L L I I I L I I I I P I I I P L P I I I I I I K I L I I I I I L I T p 3 6 2 6 1 1 4 5 < 4 4 6 6 6 6 6 6 6 6 6 6 6 6 6 6 6 6 6 6 ",
"6 6 6 6 6 6 6 6 6 6 6 6 6 6 w m Y L I I L L I I I I I L I L L I L I I I I I I I I I I I I I L I I I I I I I I I I P P Y p ; 2 < 4 6 6 4 4 3 3 6 6 6 6 6 5 6 6 6 6 6 6 6 4 6 6 4 6 4 ",
"6 6 6 6 6 < 4 6 6 6 6 6 6 8 w M L / / I T I I / I I I I I / I / I / I I T I I / I I T I / I I I I / I I I / I I I / I W p 3 4 4 5 4 4 6 4 3 6 t 1 6 6 6 < 6 6 6 6 6 4 6 6 6 1 4 6 6 ",
"< 6 6 6 6 6 6 6 6 6 6 6 3 6 , l R F F F F F F F F F F F F F F F F F F F F F F F F F F F F F F F F F F F F F F F F F F N i 2 6 6 < 6 6 6 6 3 6 6 6 4 6 6 < 6 6 6 4 4 6 6 6 6 6 6 6 6 ",
"6 6 6 6 6 6 6 6 6 6 6 6 6 6 3 2 > w w w , 3 w w w 3 3 w w , w 3 q 3 w 3 w 3 w 3 , w , w q 3 w 3 w 3 , w 3 3 w 3 w , , 2 3 3 6 6 t 6 w r 3 8 6 1 6 6 6 6 6 6 6 6 6 4 1 6 6 6 6 6 6 6 ",
"6 6 6 6 6 6 6 6 6 6 6 6 6 6 2 6 4 4 6 6 6 5 4 4 6 6 6 6 3 3 8 4 6 6 6 6 6 6 6 6 6 6 6 6 8 3 6 6 6 6 6 8 6 6 3 6 6 6 8 6 6 4 6 6 , 6 6 6 1 6 6 4 6 6 6 6 6 6 4 6 6 6 6 6 6 6 6 6 6 6 ",
"6 6 6 6 6 6 6 6 6 6 6 6 6 6 6 6 4 4 6 2 4 4 5 6 6 6 6 6 4 4 4 4 6 6 6 6 6 6 6 6 6 6 6 6 6 4 6 6 6 6 6 3 6 6 6 6 6 6 4 6 6 6 6 6 6 6 6 6 4 4 5 < 4 6 6 6 6 6 6 1 6 6 4 4 6 4 6 6 6 4 ",
"6 6 6 6 6 6 6 6 6 6 6 6 6 6 6 6 4 4 4 2 4 4 3 6 6 6 6 4 4 3 4 3 6 6 6 6 6 2 6 6 6 6 6 6 6 6 6 6 6 6 6 6 6 6 4 6 6 6 4 4 6 6 < 4 6 6 6 6 6 4 5 5 4 6 6 4 6 6 6 6 4 6 6 4 6 6 6 6 1 4 ",
"6 6 6 6 6 6 < 6 4 6 6 6 6 6 6 6 4 4 3 8 4 4 6 6 6 6 6 6 6 8 3 4 6 6 6 6 6 6 6 6 6 6 6 6 6 6 4 6 6 6 6 6 6 6 6 6 6 6 6 6 6 6 6 6 6 6 6 6 6 < < 6 1 6 6 6 6 6 6 6 6 6 6 1 6 6 6 < 4 4 ",
"4 < 6 6 6 6 6 6 6 6 6 6 6 6 6 6 6 6 6 6 6 6 6 6 5 3 6 6 6 6 6 6 6 4 6 6 6 < 6 6 6 6 6 6 6 6 6 6 6 6 6 6 6 6 6 6 6 6 6 6 6 6 6 6 6 6 6 6 6 6 6 6 6 4 6 < 6 6 6 6 4 6 6 6 6 6 4 6 6 6 ",
"6 6 6 6 6 6 6 6 6 6 2 6 6 6 6 6 6 6 6 6 4 6 6 4 4 3 6 6 4 6 6 6 6 6 6 6 6 6 6 6 6 6 4 6 6 4 6 6 6 6 2 6 6 6 6 6 6 6 < 6 6 6 6 6 6 6 6 6 6 6 6 4 4 6 4 6 6 6 6 6 6 6 6 6 1 6 6 6 6 6 "
};
