/* XPM */
static char *_[] = {
/* columns rows colors chars-per-pixel */
"90 90 194 2 ",
"   c #0E0F4A",
".  c #111052",
"X  c #1D1D5D",
"o  c #15145A",
"O  c #22225D",
"+  c #1E1E61",
"@  c #1D1E73",
"#  c #1F1F79",
"$  c #201F63",
"%  c #1F2062",
"&  c #1E2172",
"*  c #252464",
"=  c #282867",
"-  c #23246A",
";  c #28276D",
":  c #26286C",
">  c #2A2A6D",
",  c #262673",
"<  c #282774",
"1  c #262974",
"2  c #2B2C74",
"3  c #24257B",
"4  c #27287C",
"5  c #2C2D7C",
"6  c #302F75",
"7  c #322F7B",
"8  c #2F3276",
"9  c #2F317B",
"0  c #323376",
"q  c #323279",
"w  c #38377B",
"e  c #37387C",
"r  c #39387C",
"t  c #2B2C82",
"y  c #2C2C88",
"u  c #262781",
"i  c #2F3085",
"p  c #343480",
"a  c #3A3A81",
"s  c #3A3B93",
"d  c #3C3C9C",
"f  c #3D3DA2",
"g  c #413F92",
"h  c #3F4095",
"j  c #41418A",
"k  c #5F5E85",
"l  c #5D5D8D",
"z  c #454593",
"x  c #484796",
"c  c #4A4993",
"v  c #434499",
"b  c #4C4C9C",
"n  c #474996",
"m  c #50519E",
"M  c #5B599C",
"N  c #545395",
"B  c #68678E",
"V  c #656591",
"C  c #696690",
"Z  c #696992",
"A  c #6B6C9B",
"S  c #77779D",
"D  c #4543A6",
"F  c #4748A7",
"G  c #4C4DA4",
"H  c #4646A9",
"J  c #4846AD",
"K  c #4949A9",
"L  c #4847A4",
"P  c #5251A3",
"I  c #4B4AB0",
"U  c #514FB5",
"Y  c #514FB9",
"T  c #4F50B6",
"R  c #5352B4",
"E  c #5453BC",
"W  c #5758BE",
"Q  c #5A5ABC",
"!  c #7B7BA4",
"~  c #7576A2",
"^  c #6262BF",
"/  c #6B6ABD",
"(  c #6A66BE",
")  c #7877B5",
"_  c #7977B9",
"`  c #7A7ABB",
"'  c #7877B7",
"]  c #5554C1",
"[  c #5D5CC0",
"{  c #5C5CCF",
"}  c #5A57D4",
"|  c #5C5AD5",
" . c #5957DA",
".. c #5B5ADA",
"X. c #605ECE",
"o. c #615FD2",
"O. c #605FDA",
"+. c #5F60CE",
"@. c #5F62D3",
"#. c #6363C6",
"$. c #6B6AC0",
"%. c #6363CC",
"&. c #6866CE",
"*. c #6D6ECF",
"=. c #6867C1",
"-. c #7372CF",
";. c #6261D2",
":. c #6866D2",
">. c #6D6DD3",
",. c #6261D8",
"<. c #7373D2",
"1. c #7675DE",
"2. c #7B7ADE",
"3. c #7674E0",
"4. c #7C7BE5",
"5. c #817DED",
"6. c #807EF7",
"7. c #807FFB",
"8. c #8E8EB1",
"9. c #8484B4",
"0. c #918FB2",
"q. c #9191B3",
"w. c #9898B3",
"e. c #9A99B9",
"r. c #9797B8",
"t. c #8584D6",
"y. c #8684D9",
"u. c #8C8AD9",
"i. c #9696D4",
"p. c #9897D7",
"a. c #9998D7",
"s. c #9695D9",
"d. c #9998D8",
"f. c #9698D6",
"g. c #A4A5C5",
"h. c #A9A7C7",
"j. c #AFB0CF",
"k. c #B0B0CF",
"l. c #A2A0D9",
"z. c #A9A9D4",
"x. c #B9B9D4",
"c. c #B7B7D2",
"v. c #8F8EE3",
"b. c #908FE4",
"n. c #9291E5",
"m. c #9F9EE0",
"M. c #9997E8",
"N. c #8080F6",
"B. c #8A89F7",
"V. c #8382FD",
"C. c #8A86FD",
"Z. c #8C8BFD",
"A. c #928EFF",
"S. c #9594FD",
"D. c #9997FF",
"F. c #9E9FF6",
"G. c #A19EF6",
"H. c #A19FFC",
"J. c #9FA0E0",
"K. c #A2A2F6",
"L. c #A3A2FD",
"P. c #ADACFF",
"I. c #ABA7FF",
"U. c #B0AFFF",
"Y. c #AFB0FF",
"T. c #BDBAF2",
"R. c #B3B2FE",
"E. c #BCBCFC",
"W. c #B8B6FC",
"Q. c #C0BEFE",
"!. c #C0BCF6",
"~. c #BFC0FF",
"^. c #C2C2D1",
"/. c #C7C8E1",
"(. c #CCCCE5",
"). c #C5C5FE",
"_. c #CBCBFF",
"`. c #C8C7FB",
"'. c #D0CBFF",
"]. c #D5D4F4",
"[. c #D8D7F7",
"{. c #D5D5FF",
"}. c #DADAFF",
"|. c #D9DAF2",
" X c #E3E4F6",
".X c #E5E5FB",
"XX c #E7E8FA",
"oX c #EDECFD",
"OX c #EBE7FB",
"+X c #F0EDFE",
"@X c #EFF2FB",
"#X c #F5F6FF",
"$X c #F6F8FE",
"%X c #FEFDFF",
/* pixels */
"q q q q q q q 0 q 6 0 0 0 q 7 0 q q q 0 q q 7 0 q q q q 0 0 0 q q 7 0 0 q 0 q q 7 0 0 0 q q 7 q q q q q q q q q 0 q q q q 0 q q q q q q q 0 0 8 0 0 q q 0 q q q q q q 0 q q 0 6 q q ",
"q q q q q q q q q q 6 q q q q 0 0 0 7 0 0 q 0 q q 0 0 7 q 0 0 q q 0 q 0 q 7 q q q q q q 0 7 q q q q q q q q q q q q 7 q q 0 q q q q q q q 0 9 q q q 0 q q q 6 q q q q q q q q q 0 q ",
"q q q q 6 q q q q q q q q 0 q q 6 0 q q 7 q 0 q 7 q 0 q q q q q q q q q p q q q w 7 q q q q q q q q q q q 7 q 7 q 7 7 q q 8 q q q q q q q q q 9 q q q q q q q 6 q q q q q q q q 0 q ",
"q q q q 0 q q q q q q 0 0 7 q 0 q q 0 q 0 q q q 0 0 q q q q q q q q q q 7 q q q q q q q q q q q q 7 q q q q q 0 q q q q q q 8 q q q q q q q q q q 0 q q q q q q 0 q 6 q 0 q q q 7 0 ",
"0 q q 0 6 q q q q q 0 7 q q 0 7 6 q q q q q q q q 0 q q q q 7 q 0 7 7 7 q q q q q q 0 q q q 0 0 q q q q q q 0 0 0 q q q q q q q 0 0 q q q q q q q q q q q 0 q 0 q q 0 6 6 q q q q q ",
"q q q q q q q q q 0 q q q q q 0 q 0 q q q q q 6 q q 0 q 7 p a q w w w w w q w w q w r q w w q w w w w q w w w w w r q e q q q q q 0 0 0 q q q 0 q q q q q q q q 0 q 0 0 q q q q q q ",
"6 q q 0 q q q 6 q 0 q 0 0 7 q 0 q q q q q q q 0 q 0 q q q 6 $ = O = * * * * * * * * * * * * = * * * * * * * $ = * * * * 2 q q q q 0 q q q 0 0 0 q q q q 8 q q 0 q 7 q q q q q q q 0 ",
"q q q q q q q 0 0 7 q q 0 q q q q q q q 6 0 q q 0 7 q q > l |./.(.(.(.(.(.(.(.(.(.(.(.(.(.(.(.(.(.(.(.(.(.(.(.(.(.(./.|.l > e q q q q q q q q 0 q q q q q q q q q 0 q q q q 6 0 0 7 ",
"q q 0 q q 0 q q q q 7 0 q q q 0 0 q q q q q 0 q 0 q 0 w O B %X@X$X$X$X$X$X$X#X$X$X$X#X#X$X$X$X$X#X$X#X#X$X$X$X$X#X$X@X%XZ * e 0 q q q q 7 q 0 0 q 0 q q 0 q 7 0 0 q 0 7 q 0 q 0 7 q ",
"0 0 7 q q 0 7 q q 0 q 0 0 q 0 7 q q 6 q q q q q 7 q 0 q = B %XXXoXoX+XoX+XoXoXoXoXoX+XoXoXoXoXoXoXoXoXoXoXoXoXoX+X+XXX%XB * 0 0 q q q q q q 8 8 0 0 7 0 q q 0 q q q q 0 q 0 q q 0 q ",
"q q q q 0 q 0 q q 0 0 q q q q q q q q q 0 q q q 0 q q 0 = B %XXXoX+X+X+X+X+X+X+X+X+X+X+XoX+XoX+X+X#X#XoX+X#X+X+X+XoXOX%XB = w 0 q q q q q 9 q 0 0 q q q q q q q 7 q q 0 0 7 q 0 q 0 ",
"0 q 0 q 0 7 q q q 7 q q 0 q q 0 0 q q 0 q q 6 q q 0 q w = C %XXXoX+X+X+X+X+X+X+X+X+X+X+XoXoX#X+XoXoXoXoXoXoX+XoX+X+XOX%XV = w 0 q q q q q q q 0 0 q 0 7 0 q q 0 0 q q q q q q 0 q q ",
"7 q q 0 q q q 0 q 0 0 7 7 q 0 q q 0 q q q q e w w w w a > Z %X XXXoXXXoXOXOXXXXXXXXXXXoXXXoXXXoXXXXXoXoXXXoXXXoXXXoX.X$XZ > r r r e r q q q q q q 0 7 0 q 0 q 0 0 q 7 0 q q q 7 7 0 ",
"0 q q q q 0 0 7 q q q 0 0 q q q q q q q q q ; + $ $ + - . k %X$X%X%X%X%X%X%X%X%X%X%X%X%X%X%X%X%X%X%X%X%X%X%X%X%X%X%X$X%Xk . - $ + O + 2 p q q q q q q q q 0 q 7 0 q 0 q q 0 q 0 q 0 ",
"0 q 7 0 0 q q q q 7 q q q q 7 0 0 0 q q e = A k.g.g.g.g.h.e.S ! ! ! ! ! ! ! ! ! ! ! ! ! ! ! ! S ! S ! ! ! ! ! S ! ! ! S e.g.g.g.g.g.k.A ; e q q 0 7 0 q 7 0 q 0 q 0 0 q q 7 0 q q q ",
"7 q q 0 7 q 0 q 0 0 q 0 q 0 7 q 0 0 8 8 e X w.%X$X%X%X%X%X^.  > - - - % * - - - - * * % - - - - - - - - - - * - - - >   ^.%X%X%X%X$X%Xw.$ p q q 0 q q q q q q q q 7 q q q q 0 q q 0 ",
"0 q q q q 0 q q 0 q q q q 0 q q q q 0 q w O 0.%X.XoXoXXX#Xc.O r e e e 0 e e p p w 0 e 0 q e e 0 e e q e e q w q w e w O x.$XXXOX+XXX%X8.O w 0 0 0 0 q q q q 0 q q q 7 q q q q 0 q q ",
"0 q 0 q 7 0 0 q 7 0 0 q 0 7 q q q q q q w O 0.%XXX+XoXoX%Xx.O r q q 0 8 q q q q 0 q 0 q q q q q q q 6 q 0 6 q q q 7 w O x.%XoX+X+XXX%X0.$ w 0 0 0 7 q 0 q q 7 0 0 0 0 q q q 0 7 7 0 ",
"q q 0 q q q q 7 q q 7 q q q q 7 q q q q q O 0.%XXX+XoXoX$Xx.O r q q 0 0 q q q q q 0 q q q q q q q q q q q q q q q q w O c.%XoX+X+XXX%X8.O w 0 0 q q q q 0 0 0 q q 7 q q 0 7 0 q 0 0 ",
"q q 7 0 q 0 q 0 q 0 0 q q 0 q q q q q 0 w O 0.%XXX+X+XoX$Xx.O r q 7 0 0 q q p q q q q q q q q 8 q q q q q q 0 q q q w O c.$XoX+X+XoX%X8.O w 7 0 0 0 7 0 7 q q q q 0 0 q q 0 q q q q ",
"7 0 q 0 q 0 q q 7 0 q 0 q q q q q q q 0 w O 0.%XOXoXoXoX$Xx.O w q 6 q 0 q q q q 0 q q q q q q q q q q q q 6 q q 0 q e O c.#XOXOXoX X$X8.O w q q q q q 0 q q 0 0 0 q q 0 q q 7 q q 7 ",
"0 q q q 0 7 q 0 0 q q q q q q 7 q q 0 0 0 O q.%XoX+X#XoX%Xx.$ e q q q 0 q q q q q q 9 q q q q q q q 0 q q q 6 q q q w O ^.%X$X%X%X$X%Xw.X w q q 7 q q 0 0 q 7 q q q 0 7 q 0 0 0 0 q ",
"q q 7 0 q q q q q q 0 7 q q q q q q q q 0 * 9.OX].[.].]..Xz.* q q 0 0 0 q q q q q q 9 q q q q q q q q q q q 0 q q 6 0 > ~ r.q.q.8.8.r.V > e 8 e 0 q q 7 7 q 0 q 0 q q q q q q q q q ",
"0 q q 0 q 0 0 7 0 q q 0 q q 0 0 q q q q w = ) ).T.T.T.!.).i.= e q 0 0 0 q q q 0 0 q 9 q q q q q 6 q q q q q q q q q 0 0 = * * O X * % > e 2 q q 0 q q 0 0 q q q 7 q q 0 0 7 0 q 0 0 ",
"q 0 7 0 0 q q q 0 q 0 q q 0 0 0 0 q q 8 e - ` '.!.Q.Q.Q.`.d.- e q q 0 0 q q e q 0 0 8 q q 0 0 q q q q q q q q q q q 0 8 r a e p w w p q 7 q q q q q 0 q 7 q q q 0 q 7 0 q q q q q q ",
"q q q q q 0 q 7 q 0 q 7 q 0 0 0 0 q 9 q p - -.].E.Q.Q.W.).p.= e q 8 q q q q q q 0 0 9 0 q q q q q q q 6 q 6 0 q q 0 8 q q q p p p i p p p q q 8 0 q q q 0 q 0 0 0 q 0 q q 0 0 q 0 0 ",
"q 0 0 q 7 q q q q 0 q q q q 0 0 q 9 9 q e - ` _.E.Q.Q.Q.`.d.; p 8 8 q q q 7 q q 0 0 9 q q q q q 0 q 0 q q q q q q 0 8 q w p p 7 p p q q 9 9 q q 7 0 7 0 0 q 0 7 q 7 0 q q q 7 0 q 7 ",
"q 0 7 q 0 q q 0 7 0 q 0 0 q 0 w q q e q r = ` _.E.T.E.E.).p.- q q q 8 0 q 7 0 0 0 8 q q 0 q q 0 q q q q q q q q q q 8 8 w 7 7 7 q q e q 0 0 0 q q q 0 q q q q q q q 0 q q 0 q q q q ",
"q q 0 q q 0 0 q q q q 0 q 7 q > > > > > > X ) }.).`.`.).{.l.- e q q q q 7 p 7 0 0 q q q q 0 0 q 6 q q q q q 0 q q q e q 7 q q w q 7 q w 0 q 7 q 0 q 7 0 0 q q q 0 7 q 0 7 q q q 0 q ",
"7 0 7 0 q q q 7 0 q 0 q q q 6 c P M M M M N ` d.p.p.p.p.J.` > e q q q 7 q q 0 0 0 q q q q 0 6 q q q 0 q q q 6 q q q q q 7 q q 7 w q q q 0 q 0 0 q q q 0 7 0 0 q 0 q q q 0 0 q 0 q q ",
"0 0 q q q 0 q 0 q 7 q 0 q w $ l.}._._._.`.}.) o > - * - - 1 q 0 q q q p q q 0 0 0 q q q 0 7 0 q q q q q q q 0 q q 0 q q q q p q q q q q q 0 q q q 0 q q q q 0 7 q q 0 q q q 7 0 7 0 ",
"q q q q 7 0 q q 0 q q q q w ; p.).E.E.E.W.`.` > w p w e e p q q 0 0 7 q q 0 0 0 0 q q q q 0 q q q q 6 q q q 6 q q q q q q q 7 q q 7 0 q q q q q 0 7 q 0 q 0 q q 0 q 7 0 q q 0 q 0 q ",
"q q q q q 6 q q 6 q q q q e * a.`.E.).E.~.'.' - q q 7 e 6 7 0 0 0 0 0 e 0 0 0 0 q q q q q q q q q q q q q 0 q q q 0 0 q q q q q q q q 0 q q 7 0 0 q q 0 q q 0 q 0 7 q 0 q 0 0 q q q ",
"q q q q q 0 q q q q q q q e - i._.E.E.~.E._.' * e q q q q 0 0 0 8 0 0 0 0 0 0 0 q q q q q q 0 q q 0 0 q q q q q 0 q q q q 0 q q q q 0 7 q 0 q q q q 0 7 0 7 q q q 0 q 0 q 7 q q q 0 ",
"q 0 0 6 q q q q q q q q q e - a.).~.~.~.E._.' - e q q p 7 q q q 0 0 0 0 0 0 0 0 q q q q q q q q q q q q q q q q q q q q q 0 0 0 0 q 0 q q 0 0 0 q q q q 0 q 0 7 q q q 0 0 q q 0 7 0 ",
"0 6 q q q q q q q q q q 6 e = p.`.E.~.~.E._.' * e q q q q 0 q q 0 0 0 0 0 0 0 0 q q q e q q q q q q q q q q q e q q q q q 0 0 0 0 0 7 q q 7 q q 0 q q 0 q q 0 q 0 q q 7 q q 0 7 q q ",
"0 q 0 q q q q q q 0 q q q p - p._.E.~.~.E._.` * 0 8 0 0 0 q q q 0 q q 0 q 6 2 2 2 5 2 2 2 2 2 2 > 2 2 2 2 2 > 2 6 2 2 2 q q q q 0 0 0 q q q 0 q 7 0 0 7 0 q q q q q q q q 7 0 0 q 0 ",
"q q 0 7 q 0 0 6 q q q 6 q q ; s.).W.E.E.W.`.` = w 0 0 0 q q q q q q q q 0 a x x z z z z c z c z z c z z z c z z z z x c q q q q 0 0 q q 7 q q q q q q q 0 q 0 q 0 q 0 0 q q q q q 0 ",
"7 0 q 0 q q 6 q 0 q q q q e , y.U.K.H.L.G.U./ , p q 0 w q q q q q q q e 2 z W.I.P.Y.P.P.I.P.I.P.I.I.P.P.P.P.P.P.I.U.I.E.m 2 0 0 0 q q q 0 0 q q 0 7 0 q q q 0 q 7 0 0 7 q 0 0 q 7 0 ",
"0 q q q q q q q q q q q q q < y.U.L.L.L.H.U./ < q q q q 7 q q q q q q 0 2 c I.K.L.L.L.F.L.L.L.L.L.L.L.F.L.L.H.H.H.H.G.U.m 2 e 0 q q q q q q 0 q q q 0 q q q 7 0 q q q q q 0 7 q q q ",
"q q q 7 0 q q q q q q 6 q e < y.I.L.L.L.L.Y./ , q p q q 0 0 0 q q q q q 2 n P.L.L.L.L.L.I.L.L.L.I.L.L.L.I.L.L.L.L.L.H.U.P 6 7 q 0 0 7 q q q 0 0 q q q q q q q q q q 7 0 0 q q 0 7 q ",
"q 0 q 0 0 q 7 0 q q q 0 q q < y.P.L.L.I.L.P./ , q 0 0 q 0 0 0 0 q 7 q q 2 z Y.L.L.L.L.L.L.L.L.L.L.L.L.L.L.L.L.L.L.I.G.U.P 2 q q q 0 q q q q q 0 q q q q q q q q 0 q q 0 q q q q 0 q ",
"q 7 0 q q q 0 q q q 6 q q q < t.I.L.L.L.L.Y./ 1 e q 0 q 0 0 0 0 q q q q 2 n Y.L.L.L.L.L.L.L.L.L.L.L.L.L.L.L.L.L.L.L.L.U.P 2 q q 0 0 0 0 q q 0 q q 0 q q q q q q q q q q q q q q q q ",
"q q 0 q q q 0 q q q q q q e < y.P.L.L.L.L.P./ , w 0 0 q q 0 0 6 q 8 q 0 1 z P.L.L.L.I.L.L.I.L.L.I.L.L.I.L.L.I.L.L.L.G.U.P 4 q q 6 7 6 w q 0 q q 0 0 0 9 q q q q 0 0 0 0 q q q q q 0 ",
"0 7 q q 7 q q 0 q q q q q e , t.P.L.L.L.L.Y.$., w 0 0 0 q 7 q e q p q 9 5 n P.F.L.G.L.L.L.K.L.L.L.L.K.L.L.L.K.G.L.K.G.U.P 2 p q q p p 7 0 0 q q 0 0 0 q q q q q 0 0 0 0 q q q q q 0 ",
"q 0 q 0 0 0 q q q q q q q e , t.P.L.I.L.F.Y./ , 0 0 0 0 2 m U.G.K.L.L.L.I.b.4 p 0 w q q q w p q q p q q p q q p q p w < 5.U.L.G.L.G.U./ ; 0 0 q q q q q q q q q 0 0 q q q q 7 q 0 7 ",
"q q q q q q 7 0 q q q q q q , t.P.F.L.L.L.U.$., e 0 q q 4 P U.L.L.L.L.L.P.n.1 p 0 0 6 0 q q q 0 q q q q q 0 0 q q 7 q 5 y.P.L.I.L.H.U./ < e q q q q q q q q 0 0 0 0 q q q 7 q q q q ",
"q 0 0 7 0 q q 0 6 q q q q e , t.P.L.L.L.L.U./ , w q q 7 2 P P.L.L.I.L.L.I.v.4 q 0 q 0 0 q q q 7 q q q q q q q q 0 q p , y.P.H.L.L.L.U.( < q q 8 q q q q 0 0 0 0 0 0 q q q p q q 0 q ",
"q 0 q q q q 7 q q q 0 0 q q < y.P.L.L.L.L.P./ , q 0 0 0 1 m Y.L.L.L.I.L.I.b.2 e q q q q q q q q q q q q q q 0 q q q q 3 y.I.L.L.L.L.Y./ 1 e 9 0 0 0 0 0 0 0 0 0 q q q q q q 0 q 0 q ",
"7 0 0 q 0 q 0 0 7 0 7 q 0 w < y.I.L.L.L.L.Y./ , e 0 0 0 1 m Y.F.L.L.L.L.I.n.; w q q 6 q q q q q q q q q q q q q q q e 1 t.P.F.I.L.F.Y./ & e q 8 0 0 0 0 0 0 0 0 q q q q 0 0 0 q q q ",
"q q q 7 0 q q q 0 q 0 q q w , y.Y.L.L.L.L.P./ 1 e 8 8 e 9 m Y.L.L.L.L.H.I.u.> 0 0 q q q q q q 0 0 0 q q q 0 q q 0 q q ; t.I.L.F.F.F.Y./ 4 p e e 0 q e q 8 0 q q q 7 q q 0 q 0 q q q ",
"q 0 q 0 0 7 q q q q q q q q < y.Y.L.L.L.L.Y.=.& 9 1 8 4 & G E.I.P.P.I.U.R.M.> 0 0 q q q 0 q 0 q 0 0 0 0 0 0 q q 0 0 e - u.W.P.P.P.P.~./ & 4 1 1 9 4 4 9 e q q 9 7 p q q 6 q q q 0 q ",
"q 0 q q 0 q q 0 q q 0 7 q w 4 -.S.B.B.B.Z.Z.5.3.1.3.3.3.2.$.h v c z z j c j 0 8 q q q q q q q q q q q q q q q q q 0 0 q h c c c h n h Q 4.1.1.1.1.1.4.Q 2 q q p q q q q 0 0 0 q 6 q ",
"0 7 0 0 0 7 q 0 0 q 0 q 0 q 4 >.B.N.V.V.N.V.V.Z.C.Z.C.V.Z.<.& 9 1 2 2 8 2 2 0 0 q q p q q q 7 q q q q q q q q q q q 0 q > > 2 > 2 9 & [ S.V.Z.Z.Z.C.A.&.1 a q q q q 0 0 q q 0 q q q ",
"q q q 7 q q q 7 7 0 q q 7 w u >.C.V.V.C.V.V.V.V.V.V.V.V.Z.>.t p e q q q q 0 q 8 q 7 q q q 0 0 q q 8 q q q q q q q q p q 5 p q q 8 e 4 W Z.V.V.V.7.V.C.#.1 9 9 8 q q q q q q q q q q ",
"q 0 q q 0 q q 0 q q q q q q 4 >.Z.V.V.V.V.V.V.V.V.V.V.V.C.>.u q 9 9 p p q 8 0 q q q q q q 0 7 q q q q q q q q 9 q q 7 q q p q q e 9 4 [ Z.7.V.V.V.V.Z.%.: e 8 8 q q q 0 q q 7 q q q ",
"q 6 q q q 0 q q 0 q 7 0 0 e u >.Z.V.V.V.V.V.V.V.V.V.V.V.Z.>.4 8 8 8 q p 9 8 e 9 0 0 0 0 0 q q q q q q q 7 q q q q q q 7 q q q 0 8 e 4 Q Z.V.V.V.V.V.Z.#.1 q 8 q 0 q 0 0 0 0 q q q q ",
"q q q 0 q q q q q q q q q q u >.V.V.V.V.V.V.V.V.V.V.V.V.Z.>.4 e 0 8 9 q q q q q q 0 0 0 0 q 0 q q q 0 0 0 0 q 0 q q 0 q q 7 q 0 8 e 4 Q Z.V.V.V.V.V.Z.%.1 q q q 0 0 0 0 0 0 q q q 6 ",
"q q q q q 6 6 q 0 q q q q q 4 >.Z.V.V.V.V.V.V.N.B.7.V.N.B.>.t q 8 0 0 q q q q 0 0 0 0 0 q q 0 0 7 0 0 7 q 0 7 0 q 0 0 q q q q q 8 9 1 Q Z.V.V.V.N.V.Z.#.1 e p q 0 0 0 0 q q q 0 q q ",
"0 q q q q q q q 7 0 q 0 q q 5 >.Z.V.V.V.V.V.B.Z.Z.Z.Z.Z.S.<.4 q 0 0 0 e q q q 0 q 0 q q q q q 7 q 0 q q q q q q 7 0 0 0 p q q 0 8 p 1 +.Z.V.V.V.V.N.Z.#.1 e q q 0 0 0 0 q q q q q q ",
"q 0 6 q q q q 0 q q q q q p 5 >.Z.V.V.V.N.Z.,.D G K K F F g t q 0 0 q q q q 0 q q 7 q q 0 q 0 7 q 7 0 q 7 0 0 0 0 q q q 7 q q 0 0 e 1 Q Z.V.V.V.V.V.Z.+.2 q q q q 0 0 q q q q 6 q 0 ",
"q q q q q q q q q q q q q q 4 *.Z.V.V.V.N.Z.W & 5 4 t 4 5 5 p q 0 q q q q q 0 0 q q q q q q q 0 0 q q 0 q q q q q q 7 q q q 7 q 8 8 1 Q Z.V.V.V.V.V.Z.+.1 q q q q 0 0 q q q q q q q ",
"0 q q q 6 q q q q q q q q e 4 *.Z.V.V.V.V.Z.Q 4 a q 9 p q p q q q q 9 q 0 0 0 q q q q q q 7 q q q 0 q q q q 0 7 q q q q w 7 q q 8 e 1 Q Z.B.V.V.V.V.Z.%.2 q q q 0 0 0 q q q q q q q ",
"6 q q q q 0 q q q 8 q q q q 4 >.Z.V.V.V.V.Z.[ 4 8 0 0 9 q q 8 q 0 q q 0 0 0 0 q q q 0 q 0 0 q 0 q 7 0 q 0 q q 0 q q 0 7 7 q q q 8 e 1 Q Z.V.V.V.V.V.Z.#.1 q q q q q q q q q q q q 6 ",
"0 0 0 7 0 0 q q q q q q q q u >.Z.7.V.V.V.Z.Q 4 w 6 w q q q q q q q q q q 0 0 q q q 9 q q q 0 q q q q q q 6 q q q q q 8 8 q q 7 q e 4 Q Z.V.V.7.V.V.Z.#.2 0 q q q q q 6 0 0 0 q q 0 ",
"q q q q q q 7 q 7 q 0 7 0 w u >.V.V.V.V.6.C.[ 4 q q 7 7 7 q 0 q q q q q 0 0 0 q q q 9 q q q 6 q q q q q 0 q q q q 0 8 e 8 e p 7 p p 4 W Z.6.7.7.V.N.Z.^ 2 e 0 q q 0 q q 0 0 0 q q q ",
"0 q q q q 0 0 0 0 q q 0 q w 4 <.S.A.Z.Z.B.D.[ & p i 5 7 5 7 q q 8 q q q 0 0 0 q q q 9 0 q 0 0 q q 6 q q 6 q q q q 0 8 9 5 4 5 t t t # [ D.Z.A.A.Z.B.D.=.; q q q q q q q 0 0 0 q q q ",
"7 0 q 0 7 q q q q 0 0 0 q q 2 P Q Q Q Q [ [ Y F H D D H H g q q q q q q 0 0 0 0 q q 0 q q q q q q 0 q q q 0 q q q 8 q 9 z F H J J I D U ^ Q W W Q W ^ G 2 e q q q q q q q 0 q q 0 6 ",
"q 0 0 q 0 q q q 0 q 7 q q q q 6 ; 4 4 4 4 & H :.;.;.| @.:.R 7 q q q q q q 0 0 0 q q q q q q q q q q 6 0 q q q q q 9 q 5 R &.;.;.;.| :.H , 4 1 4 4 u 4 7 q q q q q q q q q q q q q q ",
"0 7 q q q 0 0 q q q q q q q q q q e q q p y J | | | ....{ R 5 q q 0 9 q q q 0 0 q q q 0 q q q q q q q q q q q 0 q q q t R +.}  ... .@.J t q q q q w p 7 q q 0 q q q q q q q q q q q ",
"q q 0 q q q 7 0 7 q 0 q q q 7 q 0 q e 8 e 5 F @. .......| Y t q q 0 q q q q 0 0 q q q q q q q q q q q q q q q q q q 9 y R |  .......@.J 5 9 q q 0 q 0 q q q q q q 0 q q q q q q q q ",
"q q 0 7 q 0 q q q q 0 0 q 0 q 7 q 0 6 q 8 t F @.........@.Y t p q q q q q q q q q q q q q 8 q q 0 q q 0 q q 6 q q q p t E ;.|  .....@.F t e q q 0 0 q q q q 7 q 8 0 0 q q q q 6 q q ",
"0 q q 0 q 0 7 q 0 q 7 0 0 q q q 0 0 0 0 q u K @..... ...| R 5 e q 9 q 9 q q q q q q q q q e q q q 0 0 q 0 q e q 0 e q t T |  . ... .;.F t p 6 0 0 0 0 q q q 0 q q q 0 7 q q q q 0 6 ",
"7 0 q q q q 0 q q q q 0 q q 7 q 0 0 0 0 p t K :.} o.,.| ,.R 4 t 5 i t 9 9 9 i t i 5 5 5 5 5 5 9 5 5 5 7 5 5 5 5 5 5 9 u R ,.+.,...| :.K t p q 6 q q q q q 0 7 0 0 q 0 q 0 q q q q q ",
"0 q q 0 0 q 7 0 q 0 q q 7 q q q 0 0 0 0 9 9 h R R U U T R I d f d d d d d d d d d d d d d d d d d d d d d d d d d d d d J Y Y R Y R R z 7 q q 0 0 q q 0 q q q q q 7 q q q q 6 q q q ",
"q q 0 7 q q 0 q 0 7 q 0 q q q q 0 0 0 0 9 9 9 5 t t t t u f :.o.{ ;.@.+.@.;.;.;.;.o.%.o.%.;.@.+.o.;.o.o.;.@.+.@.;.%.{ :.d y y y t 5 5 5 q q 0 0 q q q q 0 7 0 q q 0 0 0 0 6 q 0 q q ",
"q 7 q q q q q q q q 0 0 q q q q 0 0 0 0 q q 9 9 p q 9 q y f | } .... . .|  .....|  .| |  . ... .|  . .|  .| | .. .} } X.f y p 9 p q q q w 0 0 0 q q q q q q 0 0 0 q 0 7 q q q q 0 q ",
"q 0 0 q 7 0 0 0 0 q 7 q q 0 q q q q q q q q e 8 9 q e 9 5 f @. ....................... ........................... . .;.v 9 8 e 7 q q q 0 8 0 0 q 0 q q 6 0 6 0 q q q 0 q q q q 6 q ",
"0 q 0 q 0 0 q 7 7 q 0 q q q 0 0 q q q q q q q 8 0 q 9 e u h @. ..................................... .......| ......| %.d 5 0 8 q 7 q q 0 0 0 0 q 0 6 q q q q q 0 q q q q 6 q q q q ",
"q q 7 0 q q q q 0 q q q 7 0 0 0 q q q q q q q q q q 9 9 9 h +. ..................... ...........| ....| .......... ...;.d 5 0 0 q p 7 q 0 0 0 8 q q q q q q q q 7 q q 0 0 q q q q q ",
"q 0 q q q 0 0 7 q 0 q q 0 q q 0 q q q q q q q q 9 0 q q i d +.| ...... ...............................................;.d 5 q 0 0 q q q q 9 q q 0 7 q q 0 7 q q 0 0 q q 0 0 q q q 7 ",
"q 0 7 q q q q 0 q q q q q q q q q q q q q q q q 0 0 0 0 9 d :. .@.....O.............O.O.O.@.......O.....O.......O... .;.d 5 0 0 0 q q q 0 q q 7 q 0 q q 0 q q 0 q q 0 7 7 q q 0 q 0 ",
"q 0 q 0 q q q q q 6 q q q q q q q q q q q q 0 0 0 0 0 0 9 s Q R ] ] ] ] ] E ] ] ] ] ] ] ] ] ] ] ] ] ] ] ] ] ] ] ] ] E Q s 8 q 0 0 q q q q 9 q q q q q 0 q q q q 7 0 0 q q q 0 7 0 q ",
"0 7 q 0 7 0 0 0 q q 6 q q 0 q q q q q q 0 0 0 q 0 0 0 0 0 9 2 9 9 t t 5 9 5 9 9 5 9 t t u 9 4 9 9 t 5 9 t 5 5 5 t t 5 5 8 q 0 7 q q 9 p p q q q q q 0 7 q 0 0 7 0 q q q 0 q q 0 q q ",
"q q q q q q q 6 q q 0 q q 6 q q 9 q q 0 0 0 q q q q q q q 8 q 0 q p q p 0 0 q q q q q q q 8 q e q q q q q q q 0 q q q e 0 0 q q q q q p 7 q q q q q 0 7 q 0 q 0 q q q q 7 0 q q 0 7 ",
"q 0 0 q q q q 0 q q q q q 0 q q q q 0 0 0 q q q q q q q q q q 0 q q 9 q 0 0 q q q q q q q q q q q q q q q q q q q e q q q q q 0 q q q q q 0 0 0 q q q 0 q 0 q q q 0 q 0 q 0 q q q 0 ",
"q q 7 0 q q q q q q q 6 q q q q q q q 0 0 q q q q q q q q q q 0 q q q q 0 0 q q 0 q q q q q q q q q q q q q 6 q q q q q 7 0 0 7 q 0 q 8 0 0 0 0 0 q q 0 q 7 q 0 q 0 7 q q 7 0 0 q 0 ",
"q 0 q q q 6 0 q 0 q q q q q q 6 q q q q q q q 0 q q q q q q q q q q q q 0 0 q 6 q q q 0 q q q q q q q q q q q q 0 q q q 0 q 0 q q q q q q 0 0 0 7 q q q 0 q q 0 q q 0 q q 0 q q q q ",
"7 0 0 q 7 0 q q q q 6 q q q q q q q q q q q q q q q q q q q q q q q 6 q q q q q q 0 q q q q q q q q q q q q q q q q 0 q q 7 0 q q q q q q q q 0 0 q q 0 7 0 q 7 7 0 q q 7 q q q q q ",
"q 0 q q 0 q 0 q q 0 q q 0 q q q q q 8 q q q q q q q 9 q q q q q 0 q q q q q q 0 q q q 8 q q q q q q q q q q q q 0 7 q q 0 0 q q q 0 6 q q q q q q q q q q q q 0 0 q q 0 0 q 0 0 0 7 "
};
