/* XPM */
static char *_[] = {
/* columns rows colors chars-per-pixel */
"90 90 151 2 ",
"   c #0A0A4C",
".  c #10104D",
"X  c #0E0E50",
"o  c #1D1D5C",
"O  c #1F205B",
"+  c #22215C",
"@  c #1D1D62",
"#  c #211F64",
"$  c #1E2064",
"%  c #252463",
"&  c #272867",
"*  c #232369",
"=  c #28276B",
"-  c #2A2A6D",
";  c #292770",
":  c #2C2D72",
">  c #2D2E7A",
",  c #302F7A",
"<  c #2E3276",
"1  c #2F3279",
"2  c #323376",
"3  c #383676",
"4  c #383875",
"5  c #323278",
"6  c #38367B",
"7  c #36387F",
"8  c #39397A",
"9  c #2E2F82",
"0  c #2F3283",
"q  c #323383",
"w  c #383680",
"e  c #373985",
"r  c #3B3A83",
"t  c #37378F",
"y  c #37398E",
"u  c #3B3B8B",
"i  c #373793",
"p  c #383794",
"a  c #3B3B94",
"s  c #3E3E98",
"d  c #403F8C",
"f  c #3F4096",
"g  c #52518F",
"h  c #424394",
"j  c #464894",
"k  c #484892",
"l  c #404199",
"z  c #565597",
"x  c #56569A",
"c  c #5A599D",
"v  c #626392",
"b  c #6B6C9A",
"n  c #707094",
"m  c #75759F",
"M  c #5555B4",
"N  c #5A59BD",
"B  c #6666AA",
"V  c #7B7BA4",
"C  c #7F7FA8",
"Z  c #7676B5",
"A  c #7878B0",
"S  c #7475B8",
"D  c #7877BA",
"F  c #7678BA",
"G  c #7B7ABC",
"H  c #5654C1",
"J  c #5957C0",
"K  c #5B5BCB",
"L  c #5756D4",
"P  c #5A57D5",
"I  c #5658D5",
"U  c #5C5BD3",
"Y  c #5C57DB",
"T  c #5B5ADA",
"R  c #605FC8",
"E  c #615DD5",
"W  c #615DD9",
"Q  c #6562D6",
"!  c #6E6DDD",
"~  c #6F6EEB",
"^  c #6E70EE",
"/  c #7472EC",
"(  c #817EFC",
")  c #8585AF",
"_  c #8B8BAC",
"`  c #9090AB",
"'  c #8584B4",
"]  c #8E8FB1",
"[  c #918FB2",
"{  c #8F91B4",
"}  c #9191B2",
"|  c #9799B2",
" . c #9596B9",
".. c #9999BA",
"X. c #8685C7",
"o. c #9595D7",
"O. c #9F9ED6",
"+. c #9696D8",
"@. c #9897D8",
"#. c #9A99DB",
"$. c #A4A5C5",
"%. c #A9ACC4",
"&. c #AAABCB",
"*. c #AFB0C6",
"=. c #B5B4CC",
"-. c #A2A2DA",
";. c #B6B6D1",
":. c #B8B6D2",
">. c #BBB8D4",
",. c #8382F2",
"<. c #8B8AF3",
"1. c #8383FE",
"2. c #8A86FC",
"3. c #8C89FD",
"4. c #9E9EF6",
"5. c #9491FF",
"6. c #A19FF5",
"7. c #A39FF9",
"8. c #A2A3E4",
"9. c #A8A8EA",
"0. c #A4A3F6",
"q. c #AEAFF0",
"w. c #A4A3FD",
"e. c #A9A7FC",
"r. c #ABAAFE",
"t. c #B0AEFE",
"y. c #B4B3F4",
"u. c #B8B6F7",
"i. c #B9B8F3",
"p. c #B8B7F8",
"a. c #BDBDFC",
"s. c #BFC0F3",
"d. c #C6C5D5",
"f. c #CCCCE5",
"g. c #C3C3FF",
"h. c #C8C7FD",
"j. c #CBCBFF",
"k. c #D7DBF0",
"l. c #DADBF2",
"z. c #D4D3FF",
"x. c #DEDDFF",
"c. c #E4E4F5",
"v. c #EBEAF7",
"b. c #E5E5F8",
"n. c #E8E7FA",
"m. c #E7E9FA",
"M. c #EDECFD",
"N. c #F0EDFF",
"B. c #F6F7FF",
"V. c #F7F8FF",
"C. c #FEFEFF",
/* pixels */
"5 5 5 5 5 5 5 5 5 5 5 5 5 5 5 5 5 5 2 2 2 2 4 5 5 5 5 5 5 5 5 2 5 5 5 5 1 5 5 5 5 5 5 5 5 5 5 5 5 5 5 5 5 5 5 5 5 5 5 5 5 5 5 5 5 5 5 5 5 5 5 5 5 q 1 1 2 2 2 5 5 5 5 5 5 1 5 5 5 2 ",
"5 5 5 5 5 5 5 5 2 5 5 < 5 5 5 5 5 2 2 2 2 2 2 5 5 5 5 1 1 5 5 5 5 5 5 5 5 5 5 5 5 5 5 5 5 5 5 1 5 5 5 5 5 5 , 5 5 5 5 5 5 5 5 5 5 5 5 5 5 5 5 5 5 5 5 1 < 5 5 5 5 5 5 5 5 5 5 5 5 5 ",
"5 5 5 5 5 5 5 5 5 5 5 5 5 5 5 2 5 5 1 < < 1 2 5 5 q 5 1 1 q 5 5 5 5 5 5 5 5 5 q 5 q 5 5 5 5 5 5 5 5 , 5 5 5 7 5 5 5 7 5 5 5 5 5 5 5 5 5 5 5 5 5 5 5 5 5 < 5 5 5 5 5 5 5 2 < 5 5 5 5 ",
"5 5 5 5 5 5 5 5 5 5 5 2 5 5 5 5 5 2 1 1 1 5 5 5 5 5 5 5 5 5 5 5 5 5 5 5 5 5 5 5 5 5 5 5 5 5 5 5 5 q 5 5 5 , , 5 5 5 , , 5 5 5 5 5 5 5 5 5 5 5 5 5 5 5 5 5 5 5 5 5 5 5 5 2 < 5 5 5 2 ",
"5 5 5 5 5 5 5 5 2 2 5 5 2 2 , 5 5 1 1 7 1 1 5 5 2 2 1 5 5 2 5 5 5 5 5 5 5 1 5 5 5 5 5 5 5 1 2 1 5 5 5 5 5 5 5 5 5 5 5 5 5 < , 5 5 5 5 5 5 1 5 1 5 5 < 5 , 5 5 5 2 2 5 5 2 1 5 5 5 5 ",
"5 5 5 2 2 5 5 5 2 2 5 5 2 2 5 5 < 5 5 1 5 , 7 6 3 8 8 5 6 6 5 8 6 3 6 6 6 6 6 6 6 6 3 6 3 6 8 8 5 7 6 6 3 6 6 6 6 6 6 6 7 7 6 3 6 7 6 6 3 6 8 8 6 q 7 7 7 5 5 5 2 5 5 5 5 1 5 5 5 5 ",
"5 5 5 5 < 5 5 5 2 , 5 5 5 5 5 2 5 1 1 1 5 5 - % % % % % % % % % % % % % % % % % % % % % % % % % % % % % % % % % # % % % % % % % % % % % % % % % = # % ; , 7 , 5 2 5 2 5 5 5 5 5 5 5 ",
"5 5 5 5 < 5 5 < 5 5 2 5 5 5 5 5 5 5 5 5 3 % C l.f.f.f.f.f.f.f.f.f.f.f.f.f.f.f.f.f.f.f.f.f.f.f.f.f.f.f.f.f.f.f.f.f.f.f.f.f.f.f.f.f.f.f.f.f.f.f.f.f.f.l.] # 6 5 5 5 5 5 5 5 5 5 5 2 5 ",
"5 5 2 5 5 5 5 5 5 5 5 5 5 5 2 2 2 5 2 2 4 O | C.B.B.B.B.B.B.B.B.B.B.B.B.V.V.V.V.V.V.V.B.V.V.V.V.V.V.V.V.B.V.B.B.V.V.V.V.B.V.B.B.V.V.V.V.V.B.V.V.V.B.C.%.$ 8 5 5 5 5 5 5 5 2 5 5 5 2 ",
"5 5 5 5 5 2 5 5 2 5 5 5 5 5 , 2 5 2 5 2 4 + [ C.b.M.M.M.M.M.M.M.M.M.M.M.M.N.M.M.M.M.M.M.M.M.M.M.M.M.M.M.M.M.M.M.N.N.N.v.M.M.M.M.N.M.M.M.M.M.M.M.M.m.C.$.$ w 5 5 5 5 5 5 5 5 5 5 5 5 ",
"5 2 5 5 5 5 5 5 , 5 5 5 2 , 5 5 2 2 5 5 8 + { C.n.N.B.M.M.N.B.M.M.M.N.N.N.N.M.v.N.M.M.N.N.N.N.N.M.N.M.N.N.N.M.M.N.N.N.N.N.M.N.B.N.N.N.N.M.N.N.N.M.n.C.$.@ 7 5 5 5 5 5 5 5 5 5 5 5 5 ",
"5 5 5 5 2 5 2 5 5 5 5 5 , 2 3 5 2 2 5 5 8 O [ C.n.N.N.N.N.M.N.N.M.B.M.N.N.N.N.B.N.N.N.N.N.N.N.N.M.B.M.M.M.B.M.B.N.N.N.N.N.M.M.M.N.N.M.M.N.N.N.M.M.M.C.$.# 7 5 5 5 5 5 5 5 5 5 5 5 5 ",
"2 2 , 5 2 5 5 5 5 5 5 5 5 5 5 6 8 8 q w r % ] V.c.v.v.n.n.M.n.n.n.n.n.n.v.n.n.n.m.m.n.n.v.n.n.n.n.n.n.M.v.n.n.n.M.n.n.n.n.n.M.n.n.M.v.M.N.N.N.N.N.n.C.$.# q 3 5 2 2 2 5 5 5 5 5 5 5 ",
"2 2 5 5 5 5 5 5 5 5 5 5 5 5 6 # @ $ $ $ %   ` C.C.C.C.C.C.C.C.C.C.C.C.C.C.C.C.C.C.C.C.C.C.C.C.C.C.C.C.C.C.C.C.C.C.C.C.V.C.C.C.C.C.C.C.V.M.N.M.M.N.M.C.$.@ 6 5 5 2 2 2 2 5 5 5 5 5 2 ",
", 2 5 5 5 5 5 5 5 5 5 5 , 3 = ) &.$.$.$.$.&.{ V V V m V V V V V V V V V V V V V V V V V V V V V V V V V V V V V V V A C C V V V V V n =.V.M.N.N.N.M.C.$.* 6 2 2 2 2 2 2 5 5 5 5 5 5 ",
"5 2 5 5 5 5 5 5 5 5 5 5 , 6 + d.C.C.C.C.V.C.` X ; % % % * # * % * * * * * * * * * * * * % * * * * * * * * * * * * * * ; $ $ % % * = . _ C.n.M.N.N.M.C.$.@ 4 2 2 2 2 2 2 5 q 5 5 5 5 ",
"5 5 5 5 5 2 2 , 5 5 5 5 5 3 + :.V.n.M.M.b.C.[ % r 6 5 5 6 7 6 6 6 3 5 7 6 3 3 5 6 6 6 5 6 3 5 3 3 3 5 w 5 6 3 6 7 5 4 4 3 8 5 8 w w % } C.n.N.N.N.v.C.$.* 6 5 2 5 5 5 5 5 5 5 5 5 5 ",
"5 5 5 5 2 2 5 5 5 5 5 5 5 3 + >.V.M.N.N.n.C.[ # 6 5 5 7 , < 5 5 1 5 5 5 1 5 5 5 5 5 5 5 , 5 , 2 < 5 5 5 < 2 5 5 5 5 : 4 2 2 2 1 1 w % ] C.n.N.N.N.m.C.$.@ 6 5 5 5 5 5 5 5 2 5 5 5 5 ",
"5 5 5 5 2 5 5 5 5 5 5 5 5 3 + >.C.M.N.N.n.C.[ + 6 5 5 5 5 5 5 5 5 5 5 5 5 5 2 5 5 5 5 5 5 5 5 5 5 5 5 5 5 5 2 5 5 2 2 : 2 2 2 5 5 w % } C.v.N.N.N.v.C.$.* 8 5 5 5 5 5 5 5 5 5 5 5 5 ",
"5 5 5 5 2 5 5 5 < 5 5 5 5 6 + >.V.M.N.N.M.C.[ + 6 2 5 5 , 5 5 5 5 5 5 5 5 5 5 5 5 5 5 5 5 5 5 5 5 5 1 5 5 5 5 5 5 5 2 2 2 2 2 5 5 6 O } C.n.N.N.N.v.C.$.$ w 5 5 5 5 5 5 5 5 5 5 5 5 ",
"5 5 2 2 , 5 5 5 5 5 5 5 5 3 + =.B.c.M.n.c.V.` + 3 2 5 5 5 5 5 5 5 5 5 5 5 5 5 5 5 5 5 5 5 5 5 5 5 5 5 5 5 5 5 5 5 5 5 5 5 5 8 5 5 r % { C.c.m.m.m.b.V.$.+ 6 5 5 5 5 5 5 5 5 5 5 5 2 ",
"5 5 , 2 5 5 5 5 5 5 5 5 5 6 o d.C.C.C.C.V.C.| + 8 2 < 5 , 5 5 5 5 5 , 5 5 5 5 5 5 5 5 5 5 5 2 5 5 5 5 5 5 5 5 5 5 5 5 5 : * = * & - X ` C.V.C.C.C.C.C.*.@ 8 2 5 5 5 5 5 5 5 5 5 2 2 ",
"5 5 5 2 5 5 5 5 5 5 5 5 5 3 = V  .] ` { ` ..v - 3 5 5 5 5 5 5 5 5 5 5 5 5 5 5 5 5 , 5 5 5 5 < 5 5 5 5 5 5 < 5 5 5 5 5 : b ! F F G G Z ' { ] { ` ] ] ..b = 5 5 5 5 5 5 5 5 , 5 2 , 2 ",
"5 5 5 5 5 5 5 5 5 5 5 5 5 1 3 % % + O + + o - 5 > 5 7 5 5 5 5 5 5 5 5 5 5 5 5 5 5 5 < 5 5 5 5 5 5 5 5 5 5 5 5 5 5 5 8 % -.x.j.j.j.h.x.A . % o % + + o & 3 5 < 2 5 5 5 5 5 5 , 5 5 2 ",
"2 , 5 5 5 5 5 5 5 2 2 2 5 5 < 6 3 6 3 8 3 6 3 , 5 q > 1 7 < 5 5 5 5 5 5 < 5 < 5 5 5 5 5 5 5 2 5 5 5 5 5 5 5 5 5 5 5 5 * +.h.a.p.a.p.h.G = 8 8 8 3 3 8 3 2 2 2 5 5 5 5 , 5 5 5 5 5 5 ",
"2 2 5 5 5 5 5 5 5 5 5 , 5 5 , , 5 > 5 5 , 3 5 7 5 5 5 5 < 5 < , 5 5 2 5 5 < 5 5 5 5 5 5 5 5 5 5 5 5 5 5 5 5 5 5 5 5 8 & @.h.a.s.a.a.j.G = 5 5 5 5 5 < 5 2 5 5 5 5 5 5 5 5 5 , 5 5 5 ",
"5 5 5 5 5 5 2 5 5 5 5 5 5 5 < < 5 5 7 , 5 , 5 5 : 2 5 1 5 2 5 5 5 5 5 5 5 5 5 5 5 5 5 , 5 2 5 5 2 5 5 5 5 5 , 5 5 5 6 * #.j.a.s.s.a.j.G * w 5 5 5 5 5 5 3 2 5 5 5 5 5 5 5 5 3 , 5 5 ",
"5 5 5 5 , 2 2 5 5 5 5 5 5 5 5 2 5 5 , 7 5 , 5 5 2 5 5 5 2 5 5 5 5 5 5 5 5 5 5 5 5 5 5 < 5 5 5 5 5 5 5 5 5 5 7 5 5 5 r = o.g.a.a.a.p.z.F * w 1 < 5 5 5 5 < < 5 , 7 , 5 5 2 5 5 5 5 5 ",
"2 2 5 5 5 2 5 5 5 5 5 5 5 5 5 5 , 5 5 5 5 5 < 5 2 2 2 2 2 5 2 5 5 5 5 5 5 5 5 5 5 5 5 , 5 5 5 5 5 5 5 < 5 - = ; = ; : o O.z.g.j.h.g.z.G * 6 < 5 5 5 1 1 5 < 5 5 5 5 5 5 2 2 5 5 5 5 ",
", 2 5 5 2 2 5 5 5 5 5 5 5 5 5 5 5 5 5 5 5 5 5 5 5 5 2 5 5 5 5 5 5 5 5 5 5 5 5 5 5 5 5 7 5 5 5 5 5 5 5 < 5 x c c c c c z X.#.o.#.@.+.8.B ; 5 5 5 5 5 5 5 5 2 5 5 5 5 2 5 5 5 5 5 , 2 ",
"5 5 5 5 , 5 5 5 2 , 5 5 2 , 5 5 5 5 5 5 5 5 5 5 5 5 5 5 5 2 5 5 5 2 5 5 5 2 5 5 5 5 5 5 7 < 5 5 2 5 5 5 ; s.z.j.j.j.h.x.g @ = & * = * > 5 5 3 1 5 5 5 5 5 5 5 5 5 5 2 5 5 5 5 5 5 2 ",
"5 5 5 5 5 5 5 5 2 2 5 5 2 2 5 5 5 5 5 5 5 5 5 5 5 5 2 5 5 5 5 5 5 5 5 < 5 5 5 5 5 5 5 5 5 , 5 2 2 2 5 5 : q.a.a.a.a.u.h.c : 6 6 8 5 3 5 5 5 5 5 5 5 5 5 5 5 5 5 5 5 5 5 5 5 2 5 5 5 ",
"2 2 5 5 , 2 5 5 5 5 2 2 5 5 2 2 5 5 5 5 5 5 5 5 5 5 5 5 5 5 5 5 5 5 2 2 2 5 5 5 5 5 5 2 2 2 5 2 2 2 2 3 - y.g.a.a.a.a.h.c = 3 , 3 , 5 2 2 2 2 2 2 5 5 5 5 5 5 2 2 2 5 5 2 , 5 5 5 5 ",
"2 2 5 5 5 2 2 5 5 , 2 5 5 5 , 2 5 5 5 5 5 5 5 5 5 5 5 5 5 5 5 5 5 5 2 5 , 5 5 5 5 5 5 2 2 5 5 5 5 5 5 2 : y.g.a.a.g.a.j.c = 3 , 5 5 5 6 5 , 5 5 , 5 5 5 5 5 5 5 5 , 5 5 2 2 5 5 5 5 ",
", 5 5 5 5 5 5 5 5 5 5 5 5 5 5 5 2 2 2 , 5 5 5 5 5 2 5 5 2 2 5 5 2 5 5 2 5 5 5 2 5 5 5 2 2 , 5 5 5 5 5 3 : y.g.a.a.a.a.j.c - 5 , 5 5 2 2 2 5 5 5 2 5 5 5 5 5 , 2 5 5 5 5 5 5 5 5 2 , ",
"5 5 5 5 5 5 5 5 5 5 5 5 5 5 5 5 5 , 2 2 2 5 5 5 2 2 5 5 , 2 5 5 5 5 5 5 5 5 , 2 5 5 5 5 5 < , , > > > 5 ; i.h.g.h.g.a.z.c = 3 5 5 5 , 5 , 5 5 5 2 5 5 5 5 5 5 2 5 5 5 5 5 5 5 5 2 2 ",
"5 5 5 2 5 5 5 5 5 5 5 5 5 5 5 5 5 5 5 5 2 2 , 5 , 5 5 5 5 2 2 5 5 5 5 5 5 5 5 5 5 5 5 5 5 u u u u u u d w 9.y.y.y.y.q.g.c = 5 5 5 2 2 5 5 5 2 2 2 , 2 2 2 , 5 2 5 5 , 2 5 2 , 5 5 2 ",
"5 5 , 2 , 2 5 5 5 5 2 2 5 5 5 5 5 5 5 5 5 5 5 5 5 5 5 5 5 5 2 , 2 5 5 5 5 5 5 5 5 5 5 < 7 e.r.e.e.r.e.e.t.q = : : : : : 2 5 5 5 2 5 2 , 5 5 , 2 5 5 5 5 5 5 5 5 5 5 5 2 2 2 5 5 5 5 ",
"5 5 5 5 2 2 5 5 5 5 2 , , 5 5 5 5 5 5 5 5 5 , 2 2 5 5 5 5 5 5 5 2 , , 5 2 5 5 5 5 5 5 , 7 6.w.w.w.w.w.7.e.d < 3 5 5 5 5 < 5 5 5 5 5 5 5 5 5 5 5 5 5 5 5 5 5 5 5 5 5 2 2 5 5 5 5 5 5 ",
"5 5 5 5 5 5 5 5 5 5 5 5 2 2 2 5 5 5 5 5 5 5 5 2 2 5 5 5 5 5 5 5 5 5 2 2 2 5 5 5 5 5 5 5 5 7.w.w.w.w.w.w.r.u < 5 5 5 5 5 < 5 5 5 5 5 5 5 5 5 5 5 5 5 5 5 5 5 5 5 2 5 5 5 5 5 5 5 5 5 ",
"5 5 , 5 5 5 5 5 5 5 5 5 5 5 5 5 5 2 2 2 , 5 5 5 5 5 5 5 5 5 , 5 5 5 5 5 5 5 5 5 5 5 5 < q 0.w.e.w.w.w.w.r.r < 5 5 6 5 5 5 5 5 5 5 5 5 5 5 5 5 5 2 5 5 5 5 5 2 5 2 5 5 5 5 5 5 5 5 2 ",
"5 5 2 2 5 5 2 2 5 5 5 5 2 2 5 5 2 2 5 5 5 5 5 5 5 5 2 5 5 5 2 2 5 5 5 5 5 5 5 5 5 5 5 < 5 7.w.w.w.w.w.w.e.u : 2 , , 5 5 5 5 5 5 , 2 5 5 2 5 5 5 2 5 5 5 5 , 2 5 , 5 5 5 , 2 5 5 5 2 ",
"5 5 5 2 5 5 , 5 5 5 2 5 2 5 5 5 2 5 5 5 5 5 5 5 2 5 5 5 2 5 5 2 5 5 5 5 5 5 5 5 5 5 5 5 7 w.w.w.w.w.w.w.r.e : 3 , , 3 , 5 5 5 5 2 2 5 5 2 5 5 5 2 2 5 5 5 5 5 5 5 5 5 5 2 2 5 5 5 5 ",
"5 5 5 2 5 5 5 5 , 2 2 5 , 5 5 5 , 5 5 5 5 5 5 5 5 5 5 5 5 5 2 2 2 5 5 5 5 < 5 , , , 5 < , 0.w.w.w.w.w.e.r.e : 2 6 , 5 5 5 5 5 5 5 5 5 5 2 , 5 5 5 , 5 5 5 5 5 5 5 5 5 5 2 5 5 5 5 , ",
", 2 5 5 5 5 5 5 5 5 5 5 5 5 2 2 5 5 5 5 5 2 2 2 5 5 5 2 5 2 2 2 5 , , , 5 6 7 , q 7 7 5 e 0.7.0.7.7.w.6.e.f < 2 5 5 5 5 5 5 5 5 2 , 5 5 5 5 5 5 5 5 5 5 2 2 2 5 5 5 5 5 2 2 5 5 5 5 ",
"5 2 5 5 5 5 5 5 5 5 5 5 5 , 2 2 5 5 5 5 5 2 5 , 5 5 5 5 5 2 2 2 5 , , 7 : h r.7.7.7.0.0.0.9 7 5 q q q w 1 5 < 2 5 < 2 5 5 5 5 5 2 5 5 5 5 5 5 5 5 5 2 5 2 5 , 5 2 5 5 5 5 , 5 5 5 5 ",
"5 5 5 5 2 2 5 5 5 5 2 2 5 5 5 5 5 5 5 5 5 5 5 5 5 2 5 5 5 2 2 2 5 5 5 6 : k t.w.w.e.w.w.0.5 5 < 2 2 > < > 5 5 5 5 5 5 5 5 5 5 5 5 5 5 5 2 2 5 5 5 5 2 , 5 5 5 5 2 , 5 5 5 5 5 5 5 5 ",
"5 5 5 5 , 2 2 5 5 , 2 5 5 5 5 5 5 5 , 2 2 5 5 5 5 5 5 2 5 5 2 2 5 , 5 5 : k r.7.w.w.0.e.w.q , 5 2 2 2 2 3 5 5 , , 3 5 5 5 5 5 5 5 5 5 , 2 2 5 5 5 5 5 5 5 5 5 5 2 2 5 5 5 5 5 5 5 5 ",
"5 5 5 5 5 2 2 5 5 5 2 , 5 5 5 5 5 5 5 5 5 5 5 5 5 5 5 5 5 5 5 2 5 5 < 5 < h r.w.w.w.w.w.w.q 5 2 2 5 : 3 2 : 2 2 5 5 5 5 5 5 5 5 , 5 5 5 5 5 5 5 5 5 5 5 , 5 5 5 5 5 5 5 5 5 5 5 5 , ",
"5 5 5 5 5 5 2 , 5 5 2 2 5 5 5 5 5 5 5 5 5 5 5 5 5 5 2 2 5 5 5 2 5 5 5 < - h r.w.w.w.w.w.w.5 5 5 2 < 5 2 2 2 2 2 7 5 5 5 5 5 5 5 2 2 5 5 2 5 5 5 5 5 5 5 3 , 5 5 5 5 5 5 2 5 5 5 5 2 ",
"2 2 5 5 5 5 5 5 5 5 5 5 2 2 5 5 2 , 5 5 5 2 , 5 5 5 2 , 5 5 5 5 5 5 < 4 - j r.w.w.w.w.w.0.5 2 5 3 , 5 5 2 2 2 2 5 < 5 5 5 5 5 5 2 2 5 5 2 5 5 5 5 5 2 2 2 2 5 5 5 5 5 5 2 , 2 , 5 5 ",
"2 5 5 5 5 5 5 5 5 5 5 5 2 5 5 5 2 2 5 5 2 2 5 5 5 5 5 5 5 5 5 5 5 5 4 < - j r.w.w.w.w.w.w.e < 2 , 5 5 2 2 2 4 2 5 2 5 5 2 5 5 5 5 5 5 5 , 5 5 5 5 , 2 2 5 5 5 5 5 5 5 5 5 5 2 2 5 5 ",
"2 , 5 5 5 5 5 5 5 5 5 5 , 5 5 5 2 2 , 5 2 5 5 5 5 5 5 5 5 5 5 5 5 5 5 5 : f 5.2.3.1.<.<.<.1 < 2 5 , , 5 5 5 5 5 5 5 5 , 5 5 5 5 5 5 5 5 5 5 5 5 5 5 5 5 5 5 5 5 2 2 , 5 5 5 5 2 5 2 ",
"5 5 , 2 5 5 , 2 5 5 5 5 5 5 5 5 2 2 5 5 5 5 5 5 5 5 5 5 5 5 5 5 5 5 5 5 < f 1.1.1.1.1.1.,.0 5 5 , 3 , 7 , 7 5 5 5 5 5 2 5 5 5 2 5 , 5 5 5 5 5 5 5 5 5 5 5 5 , 2 2 2 5 5 5 5 5 5 5 2 ",
"5 5 5 2 5 5 5 2 5 5 5 5 2 5 5 5 5 5 5 5 5 5 5 2 5 2 2 5 5 5 5 5 5 5 5 5 : f 3.1.1.1.1.1.,.t < < 5 7 , 5 , , , 5 , 5 2 2 5 5 5 5 2 2 5 5 5 5 2 , 5 , 5 5 5 5 5 2 2 2 5 5 5 5 5 5 5 5 ",
"5 5 5 2 5 5 5 2 2 2 , 2 2 5 5 5 5 5 5 5 < 5 5 5 5 5 2 , 5 , , 5 q 5 5 5 < f 3.1.1.1.1.1.,.q 1 7 7 , , 5 , 7 5 5 5 5 2 5 5 5 < 5 2 5 5 5 5 5 2 5 2 2 5 5 5 5 2 2 2 5 5 5 5 5 5 5 5 , ",
"5 5 5 5 5 5 5 5 2 , 5 2 2 5 5 5 < 5 5 5 5 5 5 5 5 5 5 5 5 5 5 5 5 5 5 2 < f 3.1.1.1.1.1.,.0 < 5 5 5 2 2 2 2 2 2 5 5 5 5 5 5 5 5 5 5 5 5 5 5 5 5 5 5 5 , 5 5 5 5 , 5 2 2 2 5 5 5 2 2 ",
"5 5 5 , 5 5 5 5 5 5 5 5 2 , 5 5 5 5 5 5 5 5 5 2 5 5 5 5 5 5 5 5 5 5 5 5 < f 3.( 1.1.1.1.,.0 1 1 5 2 2 2 2 2 2 2 5 5 5 5 5 2 5 5 5 5 5 5 5 5 5 5 5 5 5 2 5 5 5 , 5 5 5 5 , 5 5 5 2 5 ",
"5 5 2 2 5 5 2 , 5 5 5 5 5 5 5 5 5 5 5 5 5 5 5 5 5 5 5 5 5 5 5 5 5 q 5 5 < l 3.1.1.1.1.1.,.0 < 1 5 5 2 2 2 2 2 2 5 5 5 5 , 2 5 2 5 5 5 5 5 2 2 5 5 5 2 2 5 5 2 2 5 5 5 5 5 5 5 5 5 5 ",
"5 5 2 5 5 5 2 2 5 5 5 5 5 5 5 5 5 5 5 5 2 5 5 5 5 5 5 5 5 5 5 5 5 5 5 5 : l 5./ 1.1.1.1.,.0 < 8 5 5 2 2 2 2 2 2 5 5 5 5 5 2 2 2 5 5 5 , 2 2 2 , 5 5 5 5 5 5 2 5 5 5 5 5 2 5 5 5 5 5 ",
"5 2 2 , 5 5 5 5 5 5 5 , 2 , 5 5 5 < 5 5 5 5 5 5 1 5 5 5 5 5 5 5 5 5 5 5 < f 3.1.1.1.1.1.( q 5 , 5 2 2 5 5 5 2 2 5 5 5 5 5 5 5 5 , 5 5 2 5 5 5 5 5 2 2 2 5 5 5 5 5 5 5 5 2 5 5 5 5 5 ",
"5 2 5 5 5 5 5 5 5 5 5 2 2 2 5 5 5 5 < 5 5 5 5 5 5 5 5 5 5 5 5 5 5 5 5 5 : f 2.1.1.1.1.1.,.q 5 5 5 2 5 5 5 5 2 2 2 5 5 5 5 5 2 5 2 2 5 5 5 5 5 5 5 5 3 , 5 5 5 5 5 5 5 5 2 , 5 5 5 5 ",
"5 5 5 5 5 5 , 3 5 5 2 2 5 5 5 5 5 5 5 5 < 5 5 5 5 5 5 5 5 5 5 5 5 5 5 5 < l 3.1.1.1.1.1.,.5 2 5 5 2 2 5 5 5 5 5 , 5 5 5 5 5 2 , 2 2 5 5 5 5 5 5 , 2 2 , 5 5 2 2 5 5 , 5 5 5 5 5 5 5 ",
"5 5 5 5 5 5 5 , 2 2 2 5 5 5 5 5 2 5 5 5 5 5 5 5 5 5 5 5 5 5 5 5 5 5 5 5 < l 3./ 1.1.1.1.,.q 5 5 5 5 2 5 5 5 2 5 5 5 5 5 5 5 5 5 2 5 5 5 5 5 5 5 5 5 5 5 5 5 , 2 5 5 2 2 2 5 5 5 5 5 ",
"5 5 5 2 2 5 5 5 2 , 5 5 5 5 5 5 5 5 5 5 5 5 2 , 5 5 2 2 , 5 5 5 5 5 5 5 > f 3.1.2.1.1.1.,.q 1 1 2 2 5 5 5 5 5 2 , , 5 5 5 5 5 5 5 5 5 5 5 5 2 5 5 5 5 5 5 5 5 5 5 2 2 , 5 5 5 5 5 5 ",
"2 5 5 5 , 5 5 5 2 2 5 5 5 5 5 , 5 5 5 5 5 5 2 2 5 5 2 5 5 5 5 5 5 5 5 5 < s 5./ 1.1.1.1.,.q 1 7 2 2 5 5 5 5 2 5 7 5 5 5 5 5 5 5 5 5 2 5 5 5 5 5 5 5 5 5 2 2 5 5 5 2 5 5 5 5 5 5 5 5 ",
"2 , 5 5 5 5 5 5 5 5 5 5 5 5 5 2 5 5 5 2 5 5 5 5 5 5 5 5 2 2 5 5 5 5 5 5 : l 3.3.3.1.1.3.,.q < 7 5 5 5 5 5 5 5 2 5 5 5 5 5 < 5 5 5 5 5 5 5 5 5 < 5 5 2 2 2 5 5 5 5 5 5 5 5 5 2 2 5 2 ",
"2 2 5 5 5 5 5 5 5 5 5 5 5 5 2 2 5 , 2 2 5 5 5 5 5 5 5 5 2 5 5 5 5 5 5 5 : a / / ^ ^ ^ ^ ! 0 < 5 5 2 5 5 5 5 5 2 5 5 5 5 5 5 5 5 5 2 5 5 5 5 5 5 5 , 2 5 , 5 5 5 5 5 5 5 5 5 , 5 5 2 ",
"5 5 5 5 5 5 2 2 5 2 2 , 5 5 2 5 5 5 5 5 5 5 , 5 5 5 5 2 2 , 5 5 5 5 5 5 5 y U L I I I I K 0 1 5 5 5 5 5 5 5 5 5 , 5 5 5 5 5 5 5 2 2 5 5 5 2 5 5 5 5 5 5 5 5 5 5 5 5 5 5 5 5 5 5 , 2 ",
"5 5 5 5 5 5 2 2 5 5 2 2 5 , 2 5 5 5 , 2 5 5 2 2 5 5 5 5 , 3 5 5 5 5 5 5 < y E T T I T T K 0 1 1 5 5 5 5 5 5 5 5 , 5 5 5 5 5 5 5 , 5 5 5 5 5 5 5 5 5 5 5 5 5 5 5 2 5 5 5 5 5 5 5 5 2 ",
"5 5 2 , 5 5 , 5 5 5 5 5 5 5 5 5 5 5 5 2 5 5 5 2 2 2 5 5 2 5 5 2 5 5 5 5 > a T T T U T T K 0 < 5 5 5 5 5 5 5 5 2 5 5 5 2 5 5 5 5 5 5 5 5 2 2 5 5 5 5 2 2 5 5 , 5 2 5 5 5 2 2 , 5 5 5 ",
"5 5 2 5 5 5 5 5 5 5 5 5 5 5 5 5 5 5 5 2 5 5 5 5 2 2 5 5 5 5 2 2 5 5 5 5 > y Q Y T T T T K 0 < 5 5 5 5 5 5 5 5 2 5 5 5 5 5 5 5 5 5 5 5 , 2 2 5 2 5 5 , 2 5 5 2 2 2 , 5 5 2 2 5 5 5 5 ",
"5 5 5 5 5 5 5 5 5 2 2 , 2 2 2 5 5 5 5 5 5 5 5 5 2 , 5 5 5 , 5 3 < 4 < 5 1 p W Y T T T T K 0 5 q 5 5 5 5 5 5 1 < 2 5 5 5 < 5 < 5 5 5 5 5 5 5 2 5 5 5 5 5 5 5 5 2 2 2 5 5 5 5 , 2 5 5 ",
"5 5 2 2 , 2 5 5 5 5 5 5 2 5 , 5 5 5 5 5 5 5 2 5 5 5 5 5 5 , 2 2 < 4 2 5 1 p T T U T T T K 0 1 5 5 3 5 5 q 5 1 5 2 2 5 5 2 5 5 5 5 5 5 5 5 5 2 , 5 5 5 5 5 5 5 5 2 5 5 5 5 5 5 2 2 2 ",
"5 5 2 2 , 3 5 5 5 5 5 5 5 5 5 5 5 2 < 5 5 5 5 5 5 5 5 , 5 5 2 2 2 2 5 5 1 p T Y T T T T K 0 < 5 5 2 5 5 5 5 5 5 5 5 5 5 5 5 2 5 2 5 5 5 5 5 2 2 5 5 5 5 5 5 5 , 2 , 5 5 5 5 5 5 , 5 ",
"5 5 5 , 2 2 5 5 5 5 5 5 5 5 5 5 5 5 5 5 5 2 5 2 5 5 2 2 5 5 5 2 2 2 5 5 < i Q T T T T T K 0 < 2 5 2 2 2 5 5 5 q 5 2 5 5 5 5 5 5 2 5 5 5 5 5 , 2 5 5 5 5 5 5 5 2 5 5 5 5 5 5 5 5 5 5 ",
"5 5 5 5 5 5 5 5 5 5 5 5 5 5 5 5 5 5 2 5 5 5 5 5 , 5 5 5 5 , 5 5 2 2 2 5 < y T T T U T T K 0 < 2 2 3 2 2 2 5 5 5 5 5 2 5 5 5 5 5 2 2 5 5 5 5 5 2 5 2 2 2 2 , 2 2 5 5 5 5 2 , 5 5 5 5 ",
"2 5 5 5 5 5 5 5 5 5 5 , 5 5 5 5 5 5 5 5 5 5 5 5 5 5 5 5 5 5 , 7 5 2 5 5 < y W T T T T T U 0 < 2 5 5 2 2 2 2 5 5 5 5 5 5 5 5 5 5 5 , 5 , 5 5 5 5 2 2 5 5 5 5 5 5 5 5 2 2 2 2 5 5 5 5 ",
"2 5 5 5 5 2 2 , 5 5 2 2 5 , 5 5 5 5 5 5 5 5 5 5 5 5 5 5 5 5 5 5 5 2 2 2 < y W T T T T T U 0 5 5 5 5 5 2 2 5 5 5 5 2 5 5 2 5 5 2 5 5 5 2 5 5 5 5 2 5 5 5 5 5 5 5 5 5 2 , 5 2 5 5 5 5 ",
", 5 5 5 5 5 2 2 5 5 2 2 2 2 5 5 5 5 2 5 5 5 5 5 5 5 5 5 5 5 5 , 2 2 5 5 < y T T T T T T K 0 5 5 2 5 5 2 2 2 5 5 5 5 5 5 5 5 5 5 5 5 5 2 5 5 5 5 , 5 5 5 5 5 5 5 5 5 5 5 5 5 5 5 5 5 ",
", 2 5 5 5 , 2 5 2 2 5 5 5 5 5 , 5 2 2 2 5 5 5 5 5 5 5 5 5 2 2 2 2 2 2 5 > t E P T Y T T U 0 5 5 5 5 5 5 5 5 5 , 2 2 5 5 5 5 5 5 2 2 5 5 5 5 5 5 5 5 2 5 2 2 5 5 5 5 5 5 2 2 , 5 5 5 ",
"5 2 2 5 5 2 2 5 2 2 5 5 5 5 5 2 5 2 , 2 5 5 5 5 5 5 5 5 2 2 2 2 2 5 5 7 > i Q T W Y T E R q > q 1 5 5 5 5 5 5 5 2 2 5 5 2 5 5 5 , 5 5 5 5 5 5 5 5 , 2 5 2 5 5 5 5 5 2 2 2 5 5 5 5 5 ",
"5 5 5 5 5 5 5 5 , 5 5 5 5 5 5 2 2 5 5 5 5 5 , 2 5 2 2 5 5 2 2 2 2 5 5 5 1 y N H H H J J M q 5 q q 5 5 5 2 2 5 5 2 2 5 5 2 2 5 5 5 5 5 5 2 2 5 5 5 5 5 5 2 , 5 5 5 5 2 , 5 5 5 5 5 5 ",
"5 5 5 5 5 5 5 5 5 5 5 5 5 5 5 5 2 5 5 5 5 5 5 2 2 2 , 5 5 5 2 2 2 5 5 5 2 < > : 9 > > > 9 > 5 1 5 5 5 2 2 < 5 5 2 2 5 5 5 , 5 5 5 5 5 , 2 2 5 5 5 5 5 5 5 5 5 5 5 5 5 5 5 5 5 5 5 5 ",
"5 5 5 5 2 2 2 5 5 5 2 2 , 5 5 5 , 5 5 5 5 5 5 5 5 5 5 2 5 5 , 3 2 2 5 5 5 5 5 5 1 1 2 5 5 5 5 w 5 2 5 5 5 2 5 5 2 2 , 2 2 2 2 5 5 5 5 5 5 5 5 5 5 5 5 5 2 , 5 5 5 5 5 5 5 5 5 5 2 5 ",
"5 5 5 5 2 5 , 5 5 5 5 , 2 2 5 5 5 5 5 5 2 5 5 5 5 5 5 5 5 , 5 5 5 5 5 5 5 5 5 5 5 5 5 < 1 5 5 5 5 2 5 5 5 5 5 5 2 2 , 2 5 5 , 5 5 5 5 5 , 2 5 5 5 5 5 5 2 2 5 5 5 5 5 5 5 5 5 5 2 5 ",
"5 5 2 2 5 5 5 5 5 5 5 5 2 2 5 5 5 5 5 5 2 , 5 5 5 2 5 5 5 5 5 5 5 5 5 5 5 5 5 5 5 5 5 1 2 2 5 5 5 5 5 5 5 5 5 , 5 5 3 , 5 5 5 5 2 5 5 5 5 2 5 5 , 2 5 5 5 5 5 5 5 2 2 5 5 5 2 , 2 , ",
"5 5 , 2 5 5 5 5 5 5 5 5 5 5 5 5 5 5 5 5 2 2 5 5 5 5 5 5 5 5 5 5 5 5 5 5 5 5 5 5 5 5 5 5 5 5 5 2 5 5 5 5 5 5 5 2 5 5 5 5 5 5 5 5 2 5 5 5 5 5 5 5 5 2 2 2 5 5 5 5 5 5 2 , 5 5 2 2 5 5 ",
"5 5 5 5 2 , 5 5 2 , 5 5 5 5 5 5 5 5 5 , 2 2 5 5 5 5 < 5 5 5 5 5 5 < 5 5 5 5 5 5 5 5 5 5 5 5 5 5 5 5 5 5 5 5 5 2 5 5 5 5 5 2 5 5 2 2 5 5 5 2 , 3 5 5 5 2 2 2 5 5 5 5 5 , 2 5 5 5 5 5 ",
"5 5 5 5 2 2 5 5 2 5 5 5 5 5 5 5 5 5 5 2 2 2 5 5 5 5 5 2 5 5 5 5 < 5 < 5 5 5 5 5 5 5 2 5 5 2 5 5 5 5 5 5 5 5 5 5 5 5 5 5 2 2 5 , 5 , 5 5 5 2 5 , 5 5 5 5 5 , 5 5 5 5 5 2 2 5 5 5 5 5 "
};
