/* XPM */
static char *_[] = {
/* columns rows colors chars-per-pixel */
"90 90 187 2 ",
"   c #131355",
".  c #16145C",
"X  c #1E205F",
"o  c #22225B",
"O  c #1D1E65",
"+  c #1E1E68",
"@  c #1D1E74",
"#  c #1E2065",
"$  c #242464",
"%  c #25246A",
"&  c #27286B",
"*  c #2A296C",
"=  c #282866",
"-  c #262672",
";  c #282774",
":  c #262973",
">  c #2B2C73",
",  c #28267F",
"<  c #27287B",
"1  c #2C2D7C",
"2  c #27277E",
"3  c #302F75",
"4  c #312F7B",
"5  c #2F3276",
"6  c #2F327A",
"7  c #323376",
"8  c #323278",
"9  c #38367C",
"0  c #36387F",
"q  c #39397A",
"w  c #484874",
"e  c #48477A",
"r  c #252682",
"t  c #2C2D82",
"y  c #2E3080",
"u  c #353480",
"i  c #393780",
"p  c #363880",
"a  c #3A3883",
"s  c #3D3D88",
"d  c #3C3C9C",
"f  c #38379C",
"g  c #3D3CA0",
"h  c #403F8B",
"j  c #4E4E83",
"k  c #404088",
"l  c #555485",
"z  c #585887",
"x  c #545389",
"c  c #464593",
"v  c #484795",
"b  c #494995",
"n  c #43449D",
"m  c #4A4A99",
"M  c #535597",
"N  c #66658E",
"B  c #69668F",
"V  c #67688F",
"C  c #636186",
"Z  c #6A6991",
"A  c #666690",
"S  c #4544A5",
"D  c #4646AA",
"F  c #4847AC",
"G  c #4748A8",
"H  c #4A4BAD",
"J  c #4548A2",
"K  c #4F51A1",
"L  c #5151A4",
"P  c #4C4BB1",
"I  c #4F4FB9",
"U  c #504FB7",
"Y  c #504FB8",
"T  c #4F51B7",
"R  c #4F50B8",
"E  c #5252B5",
"W  c #5C5CB6",
"Q  c #5453BC",
"!  c #5B5ABD",
"~  c #6D6DAE",
"^  c #7778A0",
"/  c #7B7CA4",
"(  c #6B6ABD",
")  c #6A68BB",
"_  c #7877B7",
"`  c #7778B7",
"'  c #7777B8",
"]  c #7877BA",
"[  c #7A79BA",
"{  c #7677B8",
"}  c #5554C2",
"|  c #5C5AC0",
" . c #5B5ACF",
".. c #5655D4",
"X. c #5957D6",
"o. c #5C5AD5",
"O. c #5A57DB",
"+. c #5B5ADA",
"@. c #625FCF",
"#. c #605DC5",
"$. c #605ED3",
"%. c #615EDB",
"&. c #6363C6",
"*. c #6C6CC0",
"=. c #6464C9",
"-. c #6967CE",
";. c #6260D2",
":. c #6967D5",
">. c #6D6DD2",
",. c #706FD3",
"<. c #6E70D6",
"1. c #7574DE",
"2. c #7C7BDD",
"3. c #7170D6",
"4. c #6E6DEB",
"5. c #706EEA",
"6. c #7674E0",
"7. c #7474EA",
"8. c #7B7AE7",
"9. c #7775F0",
"0. c #807EB4",
"q. c #817EFC",
"w. c #7E81A9",
"e. c #7F80C1",
"r. c #8585B4",
"t. c #908EB0",
"y. c #8F90B2",
"u. c #9291B3",
"i. c #9C9FBE",
"p. c #8080C2",
"a. c #8685D5",
"s. c #8B8BD0",
"d. c #8683D9",
"f. c #8C8ADA",
"g. c #9796D7",
"h. c #9798D7",
"j. c #9C9CD5",
"k. c #9796DA",
"l. c #9897D9",
"z. c #9999D9",
"x. c #9798DA",
"c. c #A5A5C5",
"v. c #A6A8C6",
"b. c #AFAFD0",
"n. c #B0AFD0",
"m. c #8382FD",
"M. c #8A86FE",
"N. c #8788FF",
"B. c #8C8BFE",
"V. c #918EFF",
"C. c #9F9EF4",
"Z. c #9392FF",
"A. c #A19FF7",
"S. c #A39FFC",
"D. c #A5A5E6",
"F. c #ACABEE",
"G. c #A8A8E6",
"H. c #A2A2F6",
"J. c #A3A3FD",
"K. c #AAA6FD",
"L. c #ADACFF",
"P. c #B0AEFF",
"I. c #AFB0FF",
"U. c #B1B1F2",
"Y. c #B4B2FE",
"T. c #BDBDFD",
"R. c #B9B7F9",
"E. c #BFC0FF",
"W. c #C7C9E2",
"Q. c #CBCCE4",
"!. c #D6D7EE",
"~. c #D7D9E6",
"^. c #C3C3FE",
"/. c #C8C7FF",
"(. c #CBCAFF",
"). c #D3D2FF",
"_. c #DBDAFF",
"`. c #E5E5F8",
"'. c #EAE7FB",
"]. c #E7E8FB",
"[. c #ECEBFC",
"{. c #E5E2F7",
"}. c #F0EDFE",
"|. c #F4F6FE",
" X c #F5F8FF",
".X c #FEFDFF",
"XX c #F8F7FB",
/* pixels */
"8 8 8 8 8 8 8 8 8 8 8 8 7 8 8 8 8 8 8 8 8 7 8 8 8 7 3 8 8 7 7 7 3 9 8 8 8 8 8 8 8 8 7 8 8 8 8 7 7 7 7 8 7 7 7 7 4 9 8 8 8 8 8 8 8 8 8 7 8 8 8 8 8 8 8 8 8 3 8 8 8 8 8 8 8 7 8 8 8 8 ",
"8 8 8 8 8 8 8 7 8 3 8 8 3 8 8 8 3 8 8 8 8 8 8 8 8 8 8 8 3 8 7 7 9 3 8 8 8 8 4 8 8 8 8 8 5 8 8 7 7 7 8 8 8 7 7 3 9 3 8 8 8 8 8 8 8 8 8 8 8 8 8 7 7 3 8 8 7 8 8 8 8 8 8 8 8 8 8 8 8 3 ",
"8 8 8 8 8 8 8 7 8 8 8 7 3 7 8 8 8 8 8 8 8 7 3 8 8 8 8 8 8 8 8 8 3 8 8 8 8 8 8 8 8 8 8 8 5 8 8 8 8 8 8 8 8 8 8 8 3 8 8 8 8 8 8 8 8 8 7 8 3 8 8 8 7 8 8 8 8 8 8 8 8 8 8 3 8 8 7 3 8 7 ",
"8 8 8 8 8 8 3 8 8 8 8 8 8 8 8 8 7 8 8 8 8 8 8 8 8 8 8 8 8 8 8 8 3 8 8 8 7 8 8 8 8 8 8 8 8 7 8 8 8 8 8 8 8 8 8 8 8 8 3 8 8 3 8 8 3 8 8 8 8 8 8 8 8 8 8 8 8 8 8 8 8 7 8 8 8 8 8 8 8 8 ",
"8 8 8 7 8 8 8 8 8 8 7 8 8 8 8 8 8 8 8 8 8 8 7 8 7 8 8 8 8 8 8 8 6 6 5 5 5 5 7 7 8 8 8 8 7 8 8 8 8 8 8 8 8 8 8 5 5 7 8 7 8 8 8 8 8 8 8 8 8 3 8 8 3 8 8 3 8 8 8 8 8 8 3 8 8 8 8 7 7 8 ",
"8 7 8 8 8 8 8 8 7 8 8 8 8 8 8 8 3 7 8 8 7 8 8 8 8 8 7 8 8 3 8 8 8 8 8 8 8 7 7 q q 0 8 9 q q 7 q 0 0 9 9 9 8 8 8 5 7 8 8 8 8 7 8 8 8 8 8 8 8 8 7 8 8 8 8 8 8 3 7 8 8 8 8 8 8 3 8 8 8 ",
"8 3 8 8 7 8 8 8 3 8 8 8 8 3 8 7 8 8 8 8 3 8 8 8 3 8 8 8 8 7 8 7 8 8 6 8 8 5 o = $ $ $ $ $ $ $ $ $ o $ o > 9 3 8 8 5 8 8 8 8 8 8 3 8 8 8 8 8 8 8 8 8 8 7 8 7 8 8 8 8 7 8 8 8 8 8 8 8 ",
"8 8 8 8 3 8 8 8 8 8 8 8 8 8 8 8 8 8 8 8 8 8 8 8 8 8 8 8 8 8 8 8 8 8 8 q * j !.W.Q.Q.Q.Q.Q.Q.Q.Q.Q.Q.Q.!.j > 7 8 8 8 8 8 8 8 3 8 7 8 8 7 8 8 8 8 8 8 8 8 8 8 8 8 8 7 8 8 8 8 8 8 8 8 ",
"8 8 8 8 8 8 8 8 8 8 8 8 8 8 8 7 8 8 8 8 8 8 8 8 8 8 8 8 8 8 8 8 8 8 8 q * l .X|.|.|. X X X XXX.X|.|.|..Xz * 7 7 8 8 8 8 8 8 8 6 7 3 8 8 8 8 8 8 8 3 8 8 8 8 7 8 8 8 7 3 8 8 7 8 8 8 ",
"8 8 8 8 8 8 8 8 8 8 8 8 8 8 8 8 8 8 8 3 8 8 3 8 8 8 8 3 7 7 8 8 8 8 8 8 * l .X`.[.[.[.[.}.[.[.[.}.[.`..Xl = 7 7 u 8 8 8 8 8 8 8 8 8 8 8 8 8 8 8 8 7 8 8 7 8 8 8 8 8 8 8 8 8 3 8 8 8 ",
"7 8 8 8 8 8 7 3 8 8 7 8 8 8 8 3 8 8 8 8 8 8 8 8 8 8 3 9 8 7 8 8 4 8 8 u * l .X].}.[.}.}.}.[.[.[.}.}.'..Xl * q 7 8 8 8 8 8 8 8 8 8 8 8 8 8 7 8 8 8 8 8 8 3 8 8 8 8 8 8 8 8 8 8 8 8 8 ",
"3 8 8 3 7 8 8 8 8 8 3 8 8 8 8 8 8 8 8 8 8 8 7 8 8 8 7 7 7 7 8 8 8 8 4 8 : l .X].}.}.[.|.}.}.}.|.|.[.'..Xl * 7 7 u 6 8 8 3 8 8 8 7 8 8 7 8 8 8 3 8 8 8 8 8 8 8 8 8 8 8 8 8 8 8 3 8 8 ",
"8 8 8 8 8 8 8 8 8 8 8 3 8 8 8 8 8 8 3 8 8 8 8 8 8 8 8 8 8 8 0 0 a p 0 9 3 z |.`.[.'.'.[.'.'.'.'.`.'.`. Xx 3 9 q p 9 0 0 8 3 8 8 8 8 7 8 8 8 8 8 8 8 8 7 8 8 3 8 7 8 8 8 8 3 8 7 8 7 ",
"8 8 8 8 8 8 7 8 8 8 8 7 8 7 7 8 8 8 8 8 8 8 3 8 3 8 8 8 8 > # # + + O $   w .X.X.X.X.X.X.X.X.X.X.X.X.X.Xe . $ . $ O O O > q 8 8 7 7 8 8 8 8 3 8 8 8 8 8 7 8 8 8 8 3 7 8 8 8 8 8 8 8 ",
"3 8 8 7 8 8 8 8 8 8 8 8 8 8 3 8 8 5 8 8 8 8 8 8 8 8 8 8 * x b.c.c.c.c.c.v.i.^ / / ^ / / / ^ / / / / / ^ i.v.c.c.c.c.c.b.x * 8 8 7 5 7 8 8 8 8 7 8 8 3 8 8 8 8 8 8 8 8 8 8 8 8 8 8 8 ",
"8 8 8 8 8 3 8 7 8 8 8 8 8 8 8 8 8 8 8 8 8 8 8 8 8 8 3 q $ Z .XXX.X.X.X.X.X~.  & % $ $ # $ $ % $ $ $ %   ~..X.X.X.X.XXX.XZ % 0 8 7 5 7 8 8 8 8 8 8 8 8 8 8 8 8 8 8 8 8 8 8 8 8 7 3 8 ",
"8 8 8 8 8 8 8 8 8 8 7 8 3 8 7 3 8 8 8 8 8 8 8 8 8 8 8 9 $ N .X{.[.[.[.[.|.Q.* a u p 0 8 8 0 8 q 8 p a % Q.|.].[.[.[.`..XV = 0 8 6 8 8 8 8 8 8 8 8 8 8 8 8 8 7 8 8 8 8 8 8 8 8 8 8 8 ",
"8 8 8 3 8 8 7 8 8 8 8 8 8 8 8 8 8 8 8 3 8 8 7 8 8 8 8 8 $ B .X'.}.}.}.[.|.Q.$ i 8 8 8 8 8 8 8 8 8 8 p $ Q. X[.}.[.}.'..XN $ 0 8 8 8 8 8 8 8 7 7 8 5 8 8 8 8 3 8 8 8 8 8 8 7 8 8 8 8 ",
"8 8 8 7 8 8 8 8 8 8 8 3 8 8 8 8 8 8 8 7 8 8 8 8 8 8 8 8 = B .X'.}.}.}.}.XXQ.$ 9 4 8 8 8 8 8 8 8 8 8 0 $ Q. X}.}.[.[.[..XN = 9 3 8 u 8 8 8 8 8 8 7 8 8 8 8 8 8 8 8 8 7 3 8 7 8 7 8 8 ",
"8 7 8 8 8 8 8 3 8 8 8 8 8 8 7 8 8 8 8 8 8 3 7 8 8 8 8 q = B .X'.}.}.}.[.|.Q.o q 4 8 u 8 8 8 8 8 8 8 9 $ Q. X[.}.|.[.'..XB $ q 8 8 8 8 8 8 8 8 8 8 8 8 8 8 8 8 3 7 8 8 8 8 8 8 8 7 8 ",
"8 8 7 8 8 8 7 8 8 8 8 7 8 8 8 3 8 8 8 3 8 8 7 q 9 9 7 0 * B .X{.[.[.'.'.|.W.$ 7 8 8 8 8 8 8 8 8 3 7 9 $ W.}.'.[.[.].{..XB = 0 0 8 0 0 8 7 8 5 5 8 8 8 8 8 3 8 7 3 8 8 8 8 8 8 8 8 8 ",
"8 8 3 8 8 8 8 8 8 8 8 8 8 8 8 8 8 8 8 8 8 7 * $ $ $ = =   C .XXX.X.X.X.X.X~.$ q 8 8 8 8 8 8 8 8 8 9 q $ ~..X.X.X.X.XXX.XC . = % & & $ : 7 8 8 5 7 8 8 8 8 8 8 8 8 8 8 8 > 8 8 8 8 3 ",
"8 8 8 8 8 8 8 7 8 8 7 8 8 7 8 8 8 8 8 8 8 : M e.[ [ ' ` ` r.u.t.u.t.t.t.u.w.* 7 7 7 8 7 7 8 8 7 8 8 9 * w.u.t.t.u.t.u.u.0.' [ ] [ ` e.M 5 8 8 6 8 8 7 5 8 8 8 8 8 8 8 8 8 8 8 8 8 8 ",
"8 8 8 8 8 8 8 3 8 8 3 8 8 8 8 7 8 8 8 8 0 % r._.(.(.(./._.j.  = o o o o X $ q 8 5 8 8 7 7 8 7 7 8 8 1 8 $ o o o o o o   j._.(.(.(.(._.[ % 0 6 8 8 8 8 8 8 8 8 7 3 7 8 8 8 7 8 8 8 8 ",
"8 7 8 8 8 7 8 8 > 8 8 8 8 8 8 8 8 8 8 8 9 % { (.R.R.E.R.^.l.* 9 7 q 9 q 0 q 6 6 6 8 8 8 8 7 7 7 4 8 u u q q q 7 9 9 q * l.^.R.T.R.R.(.[ = 8 0 6 8 8 8 3 8 8 8 3 8 8 3 8 8 8 8 8 8 8 ",
"8 8 8 3 8 8 8 8 8 8 8 8 8 8 8 8 8 8 8 3 q % { (.R.E.T.T.(.k.% 8 q 7 8 8 8 1 u 8 8 3 8 8 7 8 7 8 8 6 u u > 7 7 7 4 4 9 % l.(.E.T.^.R.(.[ $ 0 8 8 8 8 8 8 8 8 8 8 8 8 8 8 8 8 8 7 8 8 ",
"8 8 8 8 8 8 8 3 8 8 8 8 3 8 8 8 8 8 8 8 9 % [ (.T.T.E.T./.k.% 9 3 8 3 3 6 6 6 8 9 3 3 9 8 8 8 7 8 8 8 8 0 8 7 7 u 4 a = g.(.T.E.T.T.).` $ 9 8 3 7 8 8 8 8 8 8 7 8 8 8 8 8 8 8 8 7 3 ",
"8 8 8 8 8 8 8 8 8 8 7 8 8 7 8 8 8 8 8 8 9 % [ (.R.E.E.T.(.l.% 9 9 3 8 0 8 8 7 8 > 9 9 3 8 8 8 7 8 8 5 6 8 5 7 7 3 8 9 # l.(.T.T.E.T.(.[ % q 8 8 8 8 8 7 8 8 8 8 8 8 7 8 8 3 7 8 8 8 ",
"7 8 8 8 8 8 7 8 7 8 8 8 8 8 8 8 8 8 8 8 7 % [ (.T.E.E.T./.g.% 8 7 8 8 5 8 8 7 7 8 7 8 7 8 8 8 8 8 8 5 7 5 7 5 5 8 3 q % k./.T.T.T.T./.` $ q 8 8 8 8 8 8 8 8 8 8 8 3 8 8 8 8 8 8 8 8 ",
"8 8 7 8 3 7 8 8 8 8 8 8 8 7 8 8 8 8 8 8 q % [ (.T.T.E.T.(.l.% 9 8 8 8 8 8 8 7 7 8 8 8 8 8 7 8 7 8 8 8 8 8 8 7 7 8 3 9 % l.(.T.T.^.R.(.] % 7 8 8 7 3 8 8 8 8 8 8 8 8 8 7 8 8 7 8 8 8 ",
"8 8 8 8 8 8 8 8 8 8 8 8 8 7 3 8 8 8 8 8 9 % { (.T.E.E.E./.l.% 9 8 8 8 8 8 7 7 7 8 8 8 5 8 8 8 8 8 8 8 8 8 8 8 8 8 8 q $ z./.T.T.T.T.(.[ $ 0 8 8 7 8 8 8 7 3 8 7 8 8 8 8 8 8 8 8 8 8 ",
"3 8 8 8 8 8 8 8 7 8 8 3 8 8 8 8 7 3 8 8 9 % ' (.R.E.E.T./.l.% 9 8 8 8 8 8 7 7 7 3 8 8 8 8 8 8 8 7 8 8 8 8 8 8 8 8 8 q % z./.T.T.E.T.(.] $ q 8 8 3 8 8 8 8 8 8 8 8 8 8 8 8 8 8 3 8 8 ",
"8 8 7 8 8 3 8 8 8 8 8 8 8 8 8 8 8 8 8 8 q % [ (.T.^.^.T.(.l.$ 9 8 8 8 8 8 8 8 8 8 8 8 5 8 8 8 8 8 8 8 7 8 8 8 8 8 8 9 % l.(.T.T.T.T.(.[ $ 9 9 8 3 8 8 8 8 8 8 8 8 7 7 8 8 3 8 8 3 8 ",
"8 8 3 8 8 8 8 7 8 7 8 8 7 8 8 8 8 8 8 6 8 & ] (.T.T.T.E./.l.% 9 8 8 4 8 8 8 8 8 8 8 8 8 8 8 8 8 8 8 8 8 8 8 8 8 8 8 9 % l.(.T.T.E.T.(.[ % 9 8 8 8 8 8 8 8 8 8 8 8 8 8 8 8 8 8 8 7 8 ",
"8 8 8 8 8 8 8 8 8 7 8 8 8 8 8 8 8 8 8 8 8 & [ (.R.T.T.T./.l.= 9 8 8 8 8 8 8 8 8 8 8 8 8 3 8 8 8 7 8 8 8 8 8 8 8 8 8 q % g.(.T.T.E.R.(.[ % 9 3 3 8 8 8 8 8 8 8 8 3 8 8 8 8 8 8 8 8 8 ",
"8 8 8 7 8 8 8 8 8 3 8 8 3 8 8 3 8 8 8 8 0 % [ (.T.T.T.T./.l.= 7 8 8 8 8 8 8 8 8 8 8 q 7 8 8 8 8 8 8 8 8 8 7 8 8 8 8 8 & k./.T.T.E.T.(.[ % 9 9 3 8 8 8 8 3 7 8 8 8 8 8 8 8 8 7 8 8 7 ",
"8 8 8 3 3 8 8 8 8 8 8 8 8 8 8 8 8 7 8 8 8 % [ ).^.^./.^.).z.# 7 > : 1 > > > > > > > > > > 5 > : * > > > > > > > > > 3 + z.(.(././.E.).[ % 9 8 8 8 8 8 8 5 8 8 8 8 7 8 8 7 8 8 8 8 8 ",
"8 7 8 8 8 8 8 8 8 8 8 8 8 8 8 7 8 8 8 8 q & ~ U.D.D.D.D.F.s.s b b c c c c c c c c c c c c c c c c c c c c b c c c b b s s.F.D.D.D.D.U.~ & 7 8 8 8 3 8 8 8 8 8 8 8 8 8 8 3 8 8 8 8 8 ",
"8 8 8 8 8 7 8 8 8 8 8 8 8 8 7 8 8 8 3 8 8 8 > % = & % * + m T.K.L.P.L.L.L.L.L.L.L.L.K.L.L.L.I.L.L.L.L.K.L.K.L.L.L.L.K.T.b + = * % % * ; 8 9 8 8 8 8 8 8 8 7 3 8 8 8 8 8 8 8 8 8 8 8 ",
"7 8 8 8 8 8 8 8 8 8 3 7 8 8 3 8 7 8 8 8 8 7 8 q q 7 0 0 1 L L.A.J.H.J.J.C.S.J.H.C.J.J.J.J.A.J.J.H.J.S.J.H.J.J.J.S.J.H.L.L > 8 q 9 9 0 p 3 3 8 8 8 8 8 8 8 8 8 8 3 7 8 8 3 7 8 8 8 8 ",
"8 8 8 8 8 8 8 8 8 8 8 8 8 8 8 8 8 8 8 8 8 3 8 3 8 8 8 8 > L L.H.J.J.J.J.J.J.K.J.J.J.J.J.K.J.J.J.J.J.J.J.J.K.J.J.J.J.J.L.K 1 8 7 8 8 8 8 8 8 8 8 8 7 8 8 8 8 8 8 8 8 8 8 8 8 8 8 8 8 ",
"8 8 8 8 7 3 8 8 8 8 8 8 8 8 8 8 8 8 8 8 8 8 8 8 8 8 9 8 < L L.A.J.J.J.J.J.J.J.J.J.J.L.J.J.J.J.J.J.J.K.J.J.J.J.J.J.J.C.Y.L : 7 7 8 8 8 8 8 8 8 8 8 8 8 8 8 8 8 8 8 8 8 8 8 8 8 8 8 8 ",
"7 8 8 8 7 8 8 8 8 8 8 8 8 8 8 8 8 7 7 8 8 8 8 8 8 8 8 0 ; L L.J.J.J.J.J.J.J.J.J.J.J.J.J.J.J.J.J.J.J.J.J.J.J.J.J.J.J.J.L.L < 8 8 7 8 8 4 8 8 8 8 8 7 8 8 8 8 8 8 8 8 8 8 8 8 3 8 8 8 ",
"3 8 8 8 8 8 8 8 8 8 3 8 3 8 8 8 7 7 5 5 8 7 8 8 8 7 > 8 > L Y.H.K.J.K.K.J.J.J.J.L.J.J.J.J.J.K.J.J.K.J.J.K.J.J.J.J.J.H.Y.L : 8 5 8 3 1 q 8 8 8 8 7 7 7 8 8 8 8 8 7 7 7 7 8 8 8 8 8 8 ",
"8 8 8 8 8 8 8 8 8 8 8 8 8 8 8 8 7 8 6 6 8 6 8 8 u 8 p 8 < L L.S.H.J.H.H.J.J.H.J.H.H.J.J.H.J.J.J.J.J.J.H.H.H.J.J.H.H.H.P.L 1 p 8 8 u p 3 7 8 3 9 7 7 7 8 8 8 8 8 7 7 7 7 8 8 8 8 8 8 ",
"8 7 8 8 3 8 8 8 8 8 8 8 8 8 8 8 7 8 8 8 q % ) P.A.H.A.S.K.d.> u 8 0 8 0 u u u u u u u 8 8 8 u 8 0 8 p 8 u 8 8 u u 8 9 < d.K.J.H.H.S.P.( & 7 9 7 8 8 6 8 8 8 8 8 7 7 8 8 8 8 8 8 8 8 ",
"8 7 8 8 8 8 8 8 8 8 8 8 8 8 8 8 7 7 8 6 8 - ( Y.J.K.J.J.L.a.- 8 6 6 8 5 6 8 8 8 6 8 8 8 8 8 8 8 8 8 8 8 8 8 8 8 9 3 8 < d.L.J.J.J.S.P.*.% 9 8 7 u 8 8 8 8 8 7 7 7 7 8 8 8 8 y 8 8 3 ",
"8 3 8 3 8 8 7 8 8 8 8 8 8 8 8 8 8 7 6 8 p - ( P.J.J.K.A.L.a.- 8 8 8 7 7 8 8 8 8 6 6 8 8 8 8 8 8 8 8 8 8 8 8 8 8 8 8 p - d.L.J.J.J.S.P.*.- 8 8 5 6 8 8 8 7 7 7 7 7 7 8 8 8 8 8 8 8 8 ",
"8 8 8 8 8 8 8 8 8 8 8 7 8 8 3 8 7 7 5 7 7 & ( L.J.J.J.J.L.d.& p 8 8 7 7 7 8 7 8 8 8 3 7 8 8 8 8 8 8 8 8 8 8 8 8 8 8 p - d.L.J.J.J.J.I.*.: 6 8 7 7 7 7 7 7 7 7 7 8 8 8 8 7 8 8 8 7 8 ",
"8 8 8 8 8 8 8 8 8 7 8 8 8 8 8 3 7 7 5 7 q & ( I.J.J.J.H.Y.a.- p 8 7 7 7 8 8 8 8 8 8 8 8 8 8 8 8 8 3 8 8 8 8 8 8 8 8 8 : d.K.A.K.J.H.I.) : u 8 7 7 7 7 7 7 7 7 7 8 8 8 8 7 7 8 8 3 8 ",
"8 8 8 7 8 3 8 8 8 3 8 8 8 8 8 0 0 7 q 7 6 : *.L.S.S.S.J.K.a.- u 0 3 7 7 7 8 8 8 8 8 8 8 7 7 8 8 8 7 8 8 7 8 8 8 8 7 7 - a.L.A.J.A.C.I.*.< u 8 7 7 7 0 7 7 7 8 8 8 4 8 8 7 8 8 8 8 8 ",
"8 3 8 8 7 8 8 8 8 8 8 8 8 8 8 > : < : 1 6 @ *.E.K.P.P.K.Y.d.- p 8 8 7 5 5 7 7 8 8 8 8 8 7 7 5 8 7 7 8 7 7 7 7 8 8 7 q & f.Y.L.L.L.L.T.*.@ < < > 6 < 2 6 8 8 6 u 1 u 8 8 8 8 3 8 8 8 ",
"8 8 8 8 8 8 8 8 8 8 8 8 8 8 t &.8.1.1.1.1.2.W c c c v n c h u 4 8 8 7 7 8 8 8 8 8 8 8 8 8 8 8 8 8 8 8 8 8 8 8 8 8 8 8 8 k c c c c v d W 8.6.6.7.1.6.8.! > 9 8 8 8 8 8 7 7 7 7 8 8 8 ",
"8 8 8 8 7 8 8 8 8 8 8 3 8 8 r 3.V.M.B.M.m.Z.W @ 3 > > > > 1 8 u 8 8 7 7 8 8 8 8 8 8 8 8 8 8 8 8 8 8 8 8 8 8 8 8 8 8 8 8 > > > > 5 6 @ ! Z.m.M.M.N.N.V.-.: 8 8 8 8 8 7 7 7 6 7 8 8 8 ",
"8 8 8 3 8 8 7 8 8 8 8 8 8 0 , >.N.m.e.m.e.B.! 6 q 8 u 1 8 8 8 8 8 7 8 8 8 8 8 8 8 8 8 5 8 8 8 8 8 5 8 8 8 8 8 > 8 8 u 4 4 p 7 0 8 8 , W V.m.e.m.m.q.B.&.: 6 8 7 8 8 8 8 8 u 8 3 8 8 ",
"8 7 8 8 8 8 3 8 8 8 8 8 8 8 2 3.N.m.m.m.e.V.! < 8 8 8 q 9 8 4 8 7 5 8 8 8 8 8 3 8 8 8 8 8 8 8 3 8 8 8 8 8 8 8 8 8 8 8 4 8 8 8 5 8 8 < ! B.m.N.m.m.m.B.=.: 8 6 7 8 8 8 7 8 8 8 8 7 8 ",
"7 8 8 8 8 7 8 8 8 8 8 8 8 8 < >.B.m.m.m.e.B.! < 7 7 7 5 5 7 8 7 8 7 7 7 8 7 8 8 8 7 7 8 8 8 8 7 8 8 8 3 8 8 7 8 8 8 8 3 7 4 9 3 7 q : ! B.e.m.m.e.e.B.=.> 7 6 7 7 8 7 7 7 7 8 8 8 8 ",
"8 8 8 8 8 8 8 8 8 8 8 8 8 8 2 >.M.m.m.m.e.V.! < q 7 7 7 7 7 7 8 8 7 7 7 8 8 8 8 8 7 7 8 3 7 8 8 8 8 8 8 8 8 3 8 8 8 8 7 9 3 8 7 7 0 < ! B.e.e.N.N.e.B.=.: 7 8 7 7 8 7 7 7 7 8 8 7 8 ",
"8 3 8 8 8 8 8 8 8 3 8 8 8 0 2 >.B.m.m.m.e.B.| < 8 8 7 7 7 7 8 8 8 8 8 8 8 7 7 8 8 8 8 8 8 8 8 8 8 8 8 7 8 8 8 8 8 7 7 7 3 8 8 7 5 7 < | B.m.m.m.e.e.B.=.> 6 8 7 7 8 8 8 8 8 8 7 8 8 ",
"8 8 8 8 3 7 3 8 8 8 8 8 8 8 2 >.B.m.m.m.m.V.! < 7 8 7 7 7 7 3 8 8 8 7 8 8 8 8 8 8 8 8 8 8 8 8 8 8 8 8 8 8 8 7 8 8 8 7 8 8 8 8 7 5 0 < ! V.m.m.m.e.N.B.=.> 7 8 7 7 8 8 8 8 8 8 8 8 8 ",
"8 8 8 8 5 8 8 8 8 8 8 8 8 8 t >.N.m.m.m.e.B.! : 8 8 8 8 7 8 8 7 8 8 8 8 3 8 8 8 8 7 8 3 8 8 8 8 7 8 3 8 8 8 8 8 8 8 8 8 8 8 8 8 5 7 < ! B.m.m.e.N.e.B.4.: 8 8 7 8 8 8 8 8 8 8 8 8 8 ",
"8 8 7 8 8 8 8 8 8 8 8 8 8 8 2 >.N.m.m.m.e.B.! < 0 6 8 7 7 8 8 8 8 8 7 8 8 8 8 8 8 8 8 8 8 8 8 8 8 8 8 8 3 8 8 8 8 8 8 8 8 8 8 8 5 0 < | B.m.m.N.e.e.B.;.: 8 8 8 7 8 8 8 7 8 8 8 8 8 ",
"8 8 8 8 7 8 8 7 7 8 8 8 8 0 2 >.B.m.N.e.m.B.! < 8 8 8 8 7 8 8 8 7 3 8 8 8 8 8 8 8 8 8 8 8 8 7 3 8 7 8 8 8 8 8 8 8 8 8 8 8 8 8 8 7 8 < ! B.m.m.m.N.e.N.=.: q 8 7 7 8 8 8 8 8 8 8 8 5 ",
"8 3 8 8 8 8 8 8 8 8 8 8 8 8 < >.B.m.e.N.e.V.! < 0 8 8 8 7 8 8 8 8 8 8 8 3 8 8 7 8 8 8 3 8 7 8 8 8 8 8 8 7 8 8 8 7 8 8 8 8 8 8 7 7 8 1 ! B.m.m.m.e.e.N.=.: 7 8 7 8 8 8 5 8 8 8 8 8 8 ",
"8 8 8 8 8 8 8 8 8 8 8 8 8 8 < >.B.m.m.m.e.B. .< 7 8 8 8 8 8 8 8 8 8 8 7 8 8 8 8 8 8 8 8 3 8 8 8 8 8 8 8 8 8 8 8 8 8 8 8 8 6 8 8 7 8 < | V.m.m.m.e.N.B.=.< 6 8 7 7 6 8 7 8 8 8 8 8 6 ",
"8 8 8 8 8 8 8 7 8 8 8 3 8 8 2 3.B.q.q.m.m.B.! < 0 8 8 5 7 8 8 8 8 8 8 8 8 3 8 7 7 3 8 8 8 7 8 8 8 8 8 8 8 7 7 8 8 8 8 8 8 8 8 8 7 7 < ! B.e.e.N.e.e.B.=.: 0 8 7 7 0 8 7 8 8 8 8 8 8 ",
"7 8 8 8 8 8 3 8 8 5 8 8 8 8 t 3.V.m.m.N.m.Z.! < 0 8 6 8 7 8 8 8 8 8 7 8 8 8 8 8 7 8 8 8 8 8 8 8 8 8 8 8 8 8 3 8 8 8 8 8 8 8 8 8 7 7 < | Z.N.m.N.N.e.Z.=.: 0 7 7 5 8 8 7 8 8 8 8 8 8 ",
"8 8 7 3 8 8 8 8 8 8 8 8 8 0 r | 7.5.5.7.4.8.E < 6 6 8 8 7 8 8 8 8 8 3 8 8 8 8 8 3 8 8 8 8 8 8 8 7 8 3 8 8 8 8 8 8 8 8 8 8 8 8 8 7 6 < E 9.4.4.4.4.4.9.} : 5 7 7 7 8 8 8 8 8 8 8 8 8 ",
"8 8 3 7 8 7 8 8 8 8 8 8 8 u t I  .X...X...o.S t 8 8 8 8 7 8 8 8 8 8 8 8 8 8 8 8 8 8 3 8 8 8 8 8 8 8 8 8 8 8 7 3 8 8 8 8 8 6 7 7 7 8 t D  ...o...O...+.H 6 7 8 7 7 8 8 8 7 8 8 8 8 8 ",
"8 8 8 8 8 8 8 8 8 8 8 8 8 8 t R $.+.+.+.o.;.D y 0 6 8 8 7 8 8 8 8 8 8 8 8 8 8 3 8 8 8 8 8 8 3 7 8 8 8 3 8 8 8 8 8 8 5 8 8 0 7 7 7 8 1 F ;.+.+.+.+.+.%.P > 7 8 7 8 8 8 7 8 8 8 8 8 8 ",
"8 8 8 8 8 8 3 8 8 8 6 8 8 8 t R %.X.+.+.X.;.D < 6 6 8 8 7 8 8 7 3 8 8 8 8 8 8 8 8 8 8 8 8 8 8 8 8 7 8 8 8 8 8 8 8 8 7 8 8 8 7 7 8 8 < D %.+.+.+.+.+.+.P > 8 8 7 7 8 8 8 8 8 8 6 8 8 ",
"8 8 8 7 8 8 8 8 8 8 8 8 8 8 t T %.o.+.+.+.$.F 1 8 8 8 8 7 8 8 8 7 8 8 8 8 8 8 8 8 8 8 7 8 7 8 8 8 8 8 7 8 8 8 8 8 8 8 8 8 8 7 5 5 0 t F $.o.+.+.O.+.;.P 6 8 8 8 7 8 8 8 8 8 8 8 8 8 ",
"8 8 3 8 7 8 8 8 8 8 8 8 8 u t T ;.o.O.O.o.%.D y 0 6 6 6 6 6 8 8 6 6 8 6 8 8 7 q 8 8 8 8 8 8 8 6 8 8 8 8 6 6 8 8 8 8 8 8 6 5 5 7 8 u t D ;.o.X.+.+.+.;.P 1 8 8 8 8 8 8 8 7 7 8 8 8 8 ",
"7 8 8 8 8 8 8 3 8 8 7 8 8 8 t T ;.o.%.;.o.;.F r 6 6 y 6 6 6 6 y 6 > 6 6 t 6 1 1 1 6 1 1 1 1 6 6 1 1 1 1 6 > 6 1 y t t y 1 6 6 6 6 t r D -.o.%.o.%.+.;.T 1 0 6 8 8 8 8 8 8 7 7 8 8 8 ",
"7 8 8 8 8 8 8 8 8 3 8 8 8 8 t S Q Q E E T E D f g f d d d d d d d d d d d d d d d d d d d d d d d d d d d d d d d d g g d d d d d g g D Q R I R I I E m 1 7 q 8 8 8 8 y 8 8 8 8 8 8 ",
"8 8 8 8 8 8 8 8 8 8 8 8 8 8 8 u 1 t < t t r F :.;.;.;.;.;.;.;.o.;.;.;.;.;.;.;.$.;.;.;.;.;.;.;.;.$.$.$.=.;.;.;.;.;.;.;.%.;.;.;.$.%.o.:.D r t t t t t 1 1 6 8 3 8 8 8 8 8 8 8 3 8 8 7 ",
"8 8 8 8 7 3 8 3 8 8 8 8 8 8 8 8 6 8 8 8 0 y D  .X.+.+...o.+.+.X.+.+.X.+.+.X.+.X.+.X.+.O.+.+.X.X.o.o.o.X.+.X.+.+.o.o.+. .X.+.+.+.X.X.o.H t 8 5 0 8 8 0 6 7 7 8 8 8 8 8 8 8 8 8 8 8 8 ",
"3 8 8 8 8 8 7 8 8 8 8 8 8 8 8 8 8 8 0 8 5 < G %.X.O.+.+.+.+.+.+.+.+.+.+.+.+.+.+.+.+.+.+.+.+.+.+.+.+.+.+.O.O.+.+.+.+.+.+.+.+.+.+.+.O.;.F 6 5 7 8 7 5 7 7 7 8 8 8 8 8 8 8 8 8 8 8 8 5 ",
"8 8 8 7 8 8 8 8 7 8 8 3 8 8 3 3 8 8 8 5 7 6 H +.O.+.+.+.+.+.+.+...o.+.+.+.+.+.+.+.+.+.+.+.+.+.+.+.+.o.+.+.+.+.+.+.X.o.+.+.X.o.+.+.O.;.F 1 7 7 8 7 7 7 8 8 8 8 8 7 7 7 8 7 7 7 8 8 8 ",
"8 8 8 8 8 8 8 8 8 8 8 7 8 8 8 8 8 8 8 7 8 1 D ;.+.+.+.+.+.o.+.+.+.+.+.+.+.+.+.+.o.+.+.o.+.+.+.+.+.+.+.+.+.+.o.+.+.+.+.+.+.+.+.+.O.+.;.F 6 6 8 8 7 8 8 8 8 8 8 8 7 5 7 7 7 7 8 8 8 8 ",
"3 8 7 8 7 8 8 8 8 8 3 9 7 7 7 7 7 8 8 8 6 1 G %.+.+.+.+.+.+.+.+.+.+.+.O.+.+.+.+.+.+.+.+.O.+.+.O.+.O.+.O.+.+.+.O.+.+.+.O.+.+.+.+.+.+.;.S < 8 3 3 8 8 u 8 4 8 3 7 7 7 7 7 8 8 8 8 6 8 ",
"8 8 8 8 3 8 8 8 8 8 8 7 7 7 7 5 7 8 4 8 u t D ;.o.%.+.%.%.+.+.+.+.+.+.%.%.+.+.+.%.+.+.%.%.O.+.%.+.%.+.+.%.+.+.+.+.+.%.+.%.+.+.%.%.+.%.F t u 8 9 8 8 8 8 8 8 8 7 7 7 7 7 4 u 8 8 8 8 ",
"8 8 8 8 8 8 8 8 8 3 9 3 7 7 7 5 8 8 8 y 8 t n ! R } Q } } } } } } } } } } } } } } } } } } } } } } } } } } } } } } } } } } } } } } } | n 1 8 8 8 4 8 8 8 8 8 8 7 8 8 7 7 8 8 8 8 8 8 ",
"8 8 8 8 8 8 8 8 8 8 3 7 7 7 7 7 8 8 8 8 5 6 6 1 6 y 6 < < t 6 y 1 1 t 6 t 1 t 6 1 1 t t 6 1 1 1 y y 1 6 t y 1 y t t 6 1 1 t 1 3 1 t 1 1 8 9 8 8 8 8 8 8 8 8 7 7 8 8 8 7 8 8 6 8 3 8 ",
"8 7 8 8 8 8 8 8 8 8 8 8 8 8 8 8 8 u 7 5 7 5 8 8 5 8 8 0 0 6 8 7 8 8 8 8 7 8 8 8 9 8 8 8 8 6 8 7 8 8 8 8 8 8 8 8 q 8 8 7 7 7 7 7 8 8 8 8 8 8 7 5 8 8 8 8 8 8 7 8 8 8 8 8 8 8 8 8 8 8 ",
"8 8 8 8 8 7 7 3 8 8 8 8 8 8 8 8 u 8 8 8 7 7 8 8 7 9 8 8 6 6 8 8 8 8 7 8 8 8 8 8 8 8 8 8 8 8 8 8 8 8 8 8 3 8 8 8 8 8 8 8 8 7 7 7 9 3 8 8 8 8 8 5 u 6 7 7 8 8 7 8 8 8 8 8 7 8 7 8 8 8 ",
"8 8 7 3 8 8 8 8 8 8 8 8 8 8 8 8 6 8 8 8 7 8 8 7 8 8 5 8 8 8 8 8 8 8 8 8 8 8 8 8 8 8 8 8 8 8 8 8 8 8 8 8 8 8 8 8 8 8 8 8 8 8 3 7 8 8 8 8 8 8 > 8 8 7 7 7 8 8 3 8 8 u 8 8 7 7 8 7 8 8 ",
"8 8 8 8 8 8 8 8 3 8 8 8 3 7 8 8 8 8 8 8 8 8 8 8 8 8 8 7 8 8 8 8 8 5 8 8 8 8 8 8 8 8 8 8 8 8 8 8 8 8 8 8 8 8 8 8 8 8 8 8 8 8 8 8 8 8 8 8 8 8 8 8 8 8 8 8 8 8 8 7 8 8 8 8 7 8 8 8 8 8 ",
"8 8 3 8 8 8 8 8 8 8 8 8 8 8 8 8 8 8 8 3 8 8 8 8 8 8 7 8 8 8 8 8 8 5 8 8 8 8 3 8 8 8 8 8 8 8 8 8 8 8 7 8 8 8 8 8 7 8 8 8 8 8 8 7 8 8 8 8 8 8 8 8 8 7 3 8 8 8 8 8 8 8 8 8 8 8 8 8 8 8 ",
"8 8 7 8 8 8 8 8 8 8 7 3 8 8 8 8 8 8 8 7 8 7 8 8 8 8 8 8 8 3 8 8 7 8 8 8 7 8 8 8 8 8 8 8 8 8 8 8 8 8 8 8 8 8 8 5 8 8 3 8 8 8 8 8 8 8 8 8 8 8 8 8 8 8 8 8 8 8 8 8 8 8 8 8 8 3 8 8 8 8 "
};
