/* XPM */
static char *_[] = {
/* columns rows colors chars-per-pixel */
"90 90 182 2 ",
"   c #0E0F4B",
".  c #100F4D",
"X  c #121152",
"o  c #1F1F5E",
"O  c #201F5F",
"+  c #1F205E",
"@  c #22225C",
"#  c #232257",
"$  c #1D1D63",
"%  c #1F1F7B",
"&  c #1F2062",
"*  c #252464",
"=  c #292761",
"-  c #24246A",
";  c #282769",
":  c #2A2A6C",
">  c #27286B",
",  c #262673",
"<  c #282774",
"1  c #262877",
"2  c #2B2C73",
"3  c #25257A",
"4  c #292778",
"5  c #27297B",
"6  c #2C2D7D",
"7  c #302F77",
"8  c #2F3275",
"9  c #2E317A",
"0  c #323376",
"q  c #323278",
"w  c #38377B",
"e  c #37387B",
"r  c #39397C",
"t  c #252681",
"y  c #272881",
"u  c #2B2C82",
"i  c #2C2C88",
"p  c #2E3080",
"a  c #353481",
"s  c #383781",
"d  c #3A3981",
"f  c #3D3C89",
"g  c #3B3C93",
"h  c #38379C",
"j  c #3C3C9C",
"k  c #3E3EA2",
"l  c #43428D",
"z  c #5E5E86",
"x  c #5D5D8D",
"c  c #454593",
"v  c #484795",
"b  c #494896",
"n  c #41429B",
"m  c #494898",
"M  c #504E9F",
"N  c #51509F",
"B  c #66668F",
"V  c #69688E",
"C  c #676790",
"Z  c #696690",
"A  c #696992",
"S  c #6C6B9B",
"D  c #77779D",
"F  c #4343A4",
"G  c #4847A4",
"H  c #4646AA",
"J  c #4846AD",
"K  c #4748A8",
"L  c #494AAA",
"P  c #4548A2",
"I  c #514FA3",
"U  c #5251A3",
"Y  c #4F4FBA",
"T  c #504FB6",
"R  c #514FB9",
"E  c #4E52B5",
"W  c #5251B4",
"Q  c #5353BB",
"!  c #5B5BBC",
"~  c #6464A7",
"^  c #7676A2",
"/  c #7B7BA4",
"(  c #6C6ABC",
")  c #7776B3",
"_  c #7776BC",
"`  c #7877B9",
"'  c #7778B9",
"]  c #7979BB",
"[  c #5554C2",
"{  c #5F5FC0",
"}  c #5957D5",
"|  c #5C5BD4",
" . c #5A57DA",
".. c #5B5ADA",
"X. c #615FCE",
"o. c #605FD3",
"O. c #605EDA",
"+. c #5F61D4",
"@. c #6866CF",
"#. c #6C6DCD",
"$. c #6767C9",
"%. c #7E7EC2",
"&. c #7273CD",
"*. c #6260D2",
"=. c #6867D2",
"-. c #6E6DD3",
";. c #6463D8",
":. c #7576D1",
">. c #817FFB",
",. c #9392AC",
"<. c #8F8DB1",
"1. c #8584B3",
"2. c #918FB2",
"3. c #8F90B1",
"4. c #9291B3",
"5. c #9998B2",
"6. c #9999B9",
"7. c #9997B3",
"8. c #8684D5",
"9. c #8585D9",
"0. c #8D8BDB",
"q. c #9897D7",
"w. c #9898D6",
"e. c #9695D9",
"r. c #9897D9",
"t. c #9798D9",
"y. c #9A99D9",
"u. c #8685C9",
"i. c #A4A4C5",
"p. c #A8A7C8",
"a. c #A8A8C8",
"s. c #B0B0CF",
"d. c #A3A2D9",
"f. c #B3B4D1",
"g. c #B9B9D3",
"h. c #8180F5",
"j. c #8889F5",
"k. c #8282FD",
"l. c #8C8BFD",
"z. c #8985F8",
"x. c #9493FC",
"c. c #9897FF",
"v. c #9F9FFD",
"b. c #9193F6",
"n. c #A19FF5",
"m. c #A09FFC",
"M. c #A5A4E6",
"N. c #A8A7E7",
"B. c #A3A2F7",
"V. c #AEADF0",
"C. c #A4A2FD",
"Z. c #A8A6FF",
"A. c #ADACFF",
"S. c #B0AFFF",
"D. c #AFB1FF",
"F. c #B7B6F7",
"G. c #B2B2FF",
"H. c #B8B6FD",
"J. c #B7B8F8",
"K. c #BDBDFD",
"L. c #C1BEFF",
"P. c #BFC0FE",
"I. c #C2C3D3",
"U. c #C7C8E1",
"Y. c #CCCCE5",
"T. c #C4C4FE",
"R. c #C8C7FF",
"E. c #CBCBFF",
"W. c #D0CFFF",
"Q. c #D4D4FF",
"!. c #DDDCFF",
"~. c #D9DAF2",
"^. c #E3E4F6",
"/. c #E5E6F9",
"(. c #EAE7FB",
"). c #E7E8FA",
"_. c #EDECFD",
"`. c #F0EDFF",
"'. c #EFF2FB",
"]. c #F6F6FF",
"[. c #F6F8FF",
"{. c #FDFDFF",
/* pixels */
"q q q q q 0 q q 0 7 q 0 q q 7 q 0 q q 0 7 0 0 q q 7 q 0 q 7 7 q q 0 0 0 q q q q q q q q q q q q q q q q q q q q q q q q q q q 7 q q q 7 q q 0 8 0 0 q q 0 7 q q q q q 0 q q q q 0 q ",
"q q q q q q q q 0 0 q 7 q q 0 q q q q q 0 0 q q q q q q q q q q q q q 0 q q q q q q 7 q q q q q q q q q q 7 q q q q p q q 7 q q q q q w q q 9 0 0 q q q q q q q q 0 q q 7 q 0 q q q ",
"q q q q q 7 q q 0 0 q q q q q q 7 q 0 q q q q 7 q q q q q q q q q q q q q a q q q q q q q q q 6 q q q q q a q q q q q q q 9 q q q q q q q q q 9 q 0 0 q q q q 0 q 7 q q q 7 q q 0 q ",
"q q q q q q 0 q q q q q q 0 q q q q q q q 0 q q 7 q q 0 q q q q q q q q q q q q q q q q q q q q q q q q q q q q q q q q q 8 q q q q q q q q 9 q q q q q 0 q q q q q q 0 q 0 q q q q ",
"q q q 0 q 7 q q q q q 7 q q 0 q 0 7 q q q q q 7 q q q 0 q q q q q q q 7 q q q q q q q q q q q q q q 7 q q q q q q q q q q q q q 0 0 0 q q q 9 9 q q q q q q q q q q q q q q 0 q q q ",
"q 0 q q q q q 7 q 0 q q 7 q q q q q q q q 0 q q q 0 q q q a w q w q w w w q w w w w q w w q w w w w w w w q q w w q w w q q q q 0 8 0 0 q 0 0 0 q q q q q q q q q 0 q 0 q q 7 q 0 q ",
"q 7 q q q q q 0 q 0 q q 7 q q 0 q q q q q 0 q q q 0 q q q 7 - * * * * * * * * * * * * * * * * * * * * * * * * = * * * * 2 q q q q e q q 0 0 0 0 q q q q q q q q q 7 0 0 q q q q q q ",
"q q q 0 q 0 q q q q q 0 q q q q 0 q q q 7 q q q q q q q : x ~.U.Y.Y.Y.Y.Y.Y.Y.Y.Y.Y.Y.Y.Y.Y.Y.Y.Y.Y.Y.Y.Y.Y.Y.Y.Y.Y.U.~.x > w q q q q q q q q q 0 q q q 8 q q q q q 7 0 q q 0 q q 0 ",
"q 0 q q 0 q q 0 q q q q q q q q q q q q q q q q q q q q = V {.'.].].].].].].].{.].].].].[.[.{.].].].].].].].].{.].].].{.V = 0 0 q q q q a 9 q 0 q 7 q q q q 0 q 0 q q 7 q 0 q q q q ",
"q q q 0 q q q q q 7 q 7 q q q q q q q q q q 8 q q q q w * Z {./.`.`._.`._._.`._._._._._._._._._._._._._._._._._.`.`.).{.B * e q q q q q q q 0 0 0 0 q q 0 q q q q q 0 q q q 7 q q q ",
"q q q q q 0 q q q q q q q q q q 8 q q q q q q q q q q q ; V {.)._.`.`.`.`.`._._.`._._._.`.`.].`._.]._.]._.]._._.`._.).{.C * w q q q q q q q q 0 0 q q 0 q q q q q q q q q q q q q q ",
"q 0 q 0 0 0 7 q q q q 0 0 q q 7 q q q q 0 q 0 q q q q w * Z {./.`.`.`.`.`.`.`.]._._._.]._._._.`._._.`._._._._.].`.`.).{.C * w q q q q q q q q 0 0 q q q q 7 q q q 0 q q q q 7 q q q ",
"q 7 q 0 q q q q 7 q q q q q 0 q 0 q q q q 9 w w w w w s = A {.^.).(.).(.(.(.).(._._.).(._.).).)._.).(.(.).)._.(.(.).^.{.A : d w r e r q q q q q q q q 0 0 q q 8 q 7 7 q q 0 0 q q q ",
"q q q q 0 q q 0 q q 0 q q q q q q q q q q w > $ & & & - . B {.{.{.{.{.{.{.{.{.{.{.{.{.{.{.{.{.{.{.{.{.{.{.{.{.{.{.{.[.{.z X - * $ + $ > a q q q q q q q q q q q q q q q q q q q 7 q ",
"q q q q q q q q q q 0 q q q 0 0 0 0 q q q ; S s.i.i.i.i.p.5.D / / / / / / / / / / / ^ ^ / / / / / / / / / / / ^ / / ^ ^ 6.a.i.i.i.i.s.S > q 8 q q q q q q q q q 0 q q q q q q q q q ",
"0 q q 0 q 0 q q 0 q q q q q 0 0 0 8 9 q w O 5.{.[.{.{.{.{.I.  : - - - * - * - & - * * - > * & - - - * - & - - - * > >   I.{.{.{.{.{.{.5.& w q 0 q q 7 0 q q q q q q 0 q q 7 0 q q q ",
"7 q q 0 q q 0 q q 0 q q 0 7 q q 0 7 q q w * <.]./.`.(.(.].g.# r w a q e q w a a q w w w w w w w q w q w q w w q w w r @ g.[.)._.(.).{.<.@ w 6 q q q q q q q q q q q q q q q q q q q ",
"q q q q q q q 7 q q q q q q q 7 q q q q w O 2.{.).`.`.`.{.g.# w q q q 0 q q q q q q q q 7 q 7 q q q q 9 0 q q q 9 q w # g.{._.`.`._.{.4.* w w q q q q q q q q q q 0 q q q 7 q q q 0 ",
"q 0 q 7 q q q q 7 q q q q 0 q q q q q q w O 2.{.).`._._.{.g.O w q q q q q q q q q q q q 7 q q 0 q q q q q q 0 q q q 0 # g.].(.`.`.).{.4.O w q q q q q q 0 q q 0 q 7 q 0 q q q q q 7 ",
"q q q q q 0 q q q q 0 q q q q q q 7 q q w O 2.{.)._.]._.].g.O w q q q q q q q q q q q q q q q 7 q q q q q q 7 q q q w # g.{._.`.`.).{.4.O w q q q q q q q q q q q q q q q 0 q q q q ",
"q q 7 0 q q q q 7 q q q q q q w q w w w r = 2.{.^.).).).].g.@ w 6 q q q q q q q q q q 7 q 0 q q q q q q q q q q q q e @ f.].)._.).^.{.3.= w w w 0 w 0 e 0 0 q q 0 q q 0 7 q q q 0 q ",
"q q q q 0 7 q q q q q 0 0 q q < - - - * = . ,.{.{.{.{.{.{.I.@ r q q q q q q q q q q q q q q q q q q q q q q 0 q q 0 e @ I.{.{.{.{.{.{.,.. > - > - - > q q q q q q q q q q 0 q q q q ",
"q q q q q q q 0 0 q q q q q < ~ %.' ` ] ] ) 1.2.4.2.4.4.4.^ : w q w 0 0 9 q q q q q q q 0 q q q q 8 q q q q 7 q q q q : ^ 4.<.3.3.3.,.1.` ] ' ] ` %.~ : q q q q q q q q q q q 7 q q ",
"q q q 0 q 7 q q q q q q q w * d.Q.E.E.W.E.!.) X @ @ @ @ + > 0 2 q 0 q 0 q q q q 0 q q q q q 7 q q q q q 0 q q q q q 8 0 ; & @ + @ @ X ) !.R.W.E.E.Q.d.* e 8 q q 0 q q 0 q q q q q 0 ",
"q 7 q q q 7 q q q 7 7 0 q w - q.R.J.K.K.F.R.] : w w w w w 0 0 q q q 0 0 q q q q 0 q q q q q 0 q 0 q q 0 q q 7 q q q q 2 w r q w w d 2 _ R.F.K.J.L.R.y.- w q q 7 q q q q q q 0 0 q q ",
"0 q q q q 7 q 7 7 w 7 w 7 w * r.R.K.P.K.K.W.] - q w q a q 0 0 w q q 0 0 q q q q 0 0 q q q q q q q q q q q q q q q q q w q q 9 q w a - %.R.K.K.K.L.L.y.- w q q q 7 q q 0 0 q 0 0 q q ",
"q q q q q q q q q 0 7 w q w - r.R.K.K.P.J.E._ - d q q 6 9 q q q 2 q q 0 q q q 0 0 0 q q q q q 7 7 q 7 q q 0 q q q q q q q q q q q a , ` E.K.K.T.L.R.r.* q q q q q 0 q q q q q q q 0 ",
"q q q q q q q q 0 0 0 0 q w - r.R.K.P.P.K.E.` * w q 7 q q q q q w 2 0 q q q q 0 0 q q q q 0 q q q q q q q q q q q 0 8 q q q q q 0 q * ] E.K.L.L.L.L.y.* w q q q q q q q 0 0 0 q q 7 ",
"q 7 w 7 7 0 q q q 0 q q q q - r.R.K.P.K.K.E.` > 0 0 0 0 0 q q q q q q q q q q q 0 q q q q q 0 0 q q q q q q 8 q q q w q 0 0 0 0 0 0 ; ] E.K.L.K.L.R.w.* w q q q 0 q q 0 q q 0 q q q ",
"q q 7 q 0 w q 7 q q q q q w - r.R.K.K.T.K.E.` > w q 0 0 0 q 0 q q 0 q 9 q q q q 0 q 0 q 7 q q 0 q 0 0 q q q q q q q 9 q 0 0 0 0 q w * ] E.K.K.L.L.T.q.* w q q q q q q q q q q q q q ",
"q 7 q q q q 0 q 7 q q q q w - r.R.K.T.K.K.E.] - w q q 7 0 q 0 0 0 0 q q q q a q q 0 0 0 q q 7 0 q q 7 q q q q q q q q q q 0 0 0 q w * ] E.K.L.K.L.R.q.- q q q 0 q 7 q q q q q q q 0 ",
"q q q 7 0 q q 0 q q q q q w - r.R.P.K.P.K.E.] > w 6 q 7 q q 0 0 0 0 q q a 9 q q q 0 0 q q 0 q q 0 q q q q q q q q q q q q 0 0 0 q q - ] E.K.K.L.L.R.r.* w q q q q q q q q 0 q 7 q 7 ",
"0 q q q q q 0 7 q q q q 6 w - r.E.K.L.K.K.W.] - w q q 8 q q q q 0 0 q q q q q q q 0 0 q q q q q q q q 0 q q 7 0 q q q q q 7 w 7 q w - ] E.K.K.T.K.R.t.* e q q q q q q q 9 q q q q q ",
"q q 7 q 0 0 0 q q 7 q q q w - r.E.K.K.L.K.W.] - q q q 0 q q q q 0 0 q q q q q q q 0 0 0 0 q 0 q 7 q q q q q q q q q q q 7 q 0 7 9 w - ' E.K.K.P.K.R.q.> e q q q q q q q q q q q q q ",
"q q 0 q q q q 0 q q q q q w - r.E.K.L.L.K.R.] - w q q 0 q q q q 0 0 0 q q q q q q q q 0 q q 0 q q q q q q 0 q q q 0 7 q q q w 0 q a - ] E.K.K.L.P.R.r.- q q q q q q q q q 0 q q q 0 ",
"0 q q q 7 q q q q q q q 9 w > r.E.J.K.L.K.E.] - w q q q q q q q q 0 0 q q q q q 0 q q q q q q q 0 q q 0 q q q 7 0 0 q 7 q q q q q w - ' E.K.K.K.J.R.t.- e q q q q q q q 0 0 0 q q q ",
"q q 7 q 7 q q q q q 7 q q w - y.W.T.T.T.L.Q.` $ 2 2 2 2 2 2 w q q q q q q q q q q q q q 7 q q q 0 0 q q q q q 0 0 0 0 w 2 : 7 2 9 q $ ' W.J.P.P.P.E.r.& r q q q q q q q q 0 0 q 0 q ",
"q q 0 q q q q 0 q 0 q q 8 w - u.V.M.N.M.M.V._ f b b c v v l 7 q q 8 q 0 q q q q 0 q 7 q q q q q 0 0 0 q q 7 q q 0 0 0 : l b v v c c f %.R.J.K.K.H.T.e.> w 9 0 q q q q q 0 0 q q q q ",
"q q q q 0 q q q q q q q q q q 2 , , > > 2 $ ( K.A.A.G.A.H.0.- s q q q q q q q q q q q q q q q q q q 0 q q q q q 0 q w ; >.L.A.A.A.A.A.Z.m.B.C.C.n.A.u.> q 0 q q q q q q q 0 0 q q 7 ",
"q 0 q q q q q 7 0 q q 0 q q q q w q w w w , ( A.v.C.m.m.Z.8.4 6 q 7 q q q q q 9 0 q q q q q q 7 q q q q 0 q q 0 0 w w # >.Z.m.m.C.C.B.C.Z.C.C.C.C.D.8.< w 9 0 0 q 9 q q q q 0 q q q ",
"q 7 q q q q q 7 q q q 0 q q q q 9 w q q q 3 ( A.C.C.m.C.A.8.4 w q q q q 0 q q 7 q q q q 7 q q q q q 0 q q q q q 0 0 q < >.V.n.m.C.C.Z.Z.C.C.C.C.m.Z.9., w 0 q q q q q q q q q q q q ",
"q q q 0 0 q q q q 7 q q 7 q q q q q 0 0 w , ( G.C.C.C.C.A.8.4 q q q q q q 7 q q q q q 0 q q 7 q 7 q q q q 0 q q q 7 w , >.s.m.Z.C.C.C.C.C.C.C.C.C.A.9., a 0 0 0 q q 9 a q q q q q q ",
"0 q q q q 0 q q q 0 0 q q q 0 8 0 8 0 0 w , ( D.C.C.C.C.A.8., a q q q q q q q q q 0 0 q q q q q q q q q q 0 q q q q w < 8.S.Z.m.C.C.C.C.C.C.C.A.C.Z.9.3 w q q 0 0 q q q q q q q 0 q ",
"q q 7 q q q q 0 q q q q q q 0 0 0 0 0 q a , ( G.C.C.Z.m.A.8., w q q q 2 7 7 7 q q q 0 7 q 7 q q 7 0 0 7 q 0 q q 0 7 w < >.G.m.Z.Z.C.Z.B.C.C.C.C.C.A.9., w q q q q 9 q q q 6 q q q q ",
"q q q q q q q q 0 q 7 q q q q q 0 q q q a , ( S.n.B.n.m.S.8.4 s a a s s q a w s q s a w q a w q q w w q w q a w a a a < u.S.n.n.B.C.B.B.C.C.C.C.C.A.8., w 7 7 7 q 8 0 0 q q q q q q ",
"q q 0 q q 7 q q q q q q q q q q q q q q q 9 q q a q a a 4 I A.B.m.m.B.n.n.n.B.B.B.m.C.B.m.m.Z.n.m.m.m.m.Z.n.m.n.n.n.n.S.N : s s a r , ( D.C.C.C.C.Z.9., w q w 7 q 0 0 0 q q q q q q ",
"0 q q q q 7 q q q q q q 8 q q q q q q q q q q q q q 7 q 4 U A.C.Z.C.C.Z.Z.C.Z.C.C.C.C.C.C.C.Z.C.m.Z.Z.Z.m.Z.m.Z.m.Z.n.S.I < q q q 0 > ( G.C.C.C.C.Z.8., w 7 q q q q 0 0 q q q q 7 0 ",
"7 q q q q q q q 0 q q q q q q q q q q q 0 q q q q 0 q w 2 U S.C.m.C.Z.C.C.C.C.C.C.C.C.Z.C.C.C.C.Z.Z.m.m.Z.m.Z.m.Z.m.m.G.U < a q 0 0 > ( A.m.C.C.C.A.8.2 w q q q q q q q q q q q q q ",
"q q 0 q q 0 q q 0 q q q q q q q q q q q q 0 q q 8 q q 0 2 I D.B.C.C.C.C.C.C.C.C.C.C.C.C.C.C.C.C.m.m.Z.m.C.C.C.C.C.C.C.D.M 2 q q q e < ( D.C.C.C.C.A.9., w q q q q q 0 q q q q q q q ",
"q q q q q q q q q q q 7 q 0 7 q 0 q q 7 q q q q q q q w 1 I D.n.C.C.C.C.C.C.C.C.C.C.C.C.C.C.C.C.m.Z.m.Z.C.C.C.C.C.C.B.D.N 2 a 9 q q < ( A.m.C.C.C.A.9.& q q q q q q q q q q 0 q q q ",
"0 q q 0 0 0 q 0 q q q q q q q 0 q q 0 q q q 7 q 6 a q q 2 I D.n.C.C.v.v.C.C.v.C.C.C.C.C.C.C.B.C.m.m.m.m.v.C.C.C.C.v.m.A.I 2 q q q w , ( D.v.C.C.v.A.9.1 w q q q q q 7 q q q q q q q ",
"q q q q 0 0 q q 0 q q 0 q q 0 0 q q 7 q q q q q q q q a 2 U J.A.A.D.A.D.A.D.A.A.A.A.A.A.A.A.A.A.S.S.S.S.A.A.A.D.D.A.Z.K.U 5 q w 0 q , #.G.B.C.Z.C.D.9.1 w q q q q q q q 0 q 0 q q q ",
"q q q q 0 q q q q q q q 0 q 0 0 q q q q q 0 q q q q 0 0 0 w c b c c c c c c c c c c c c v c c c v c v c c c c c c c c c w 0 0 8 8 q 5 ! x.j.b.j.j.b.:.1 9 8 0 w 7 q q q q q q q q 7 ",
"7 q q q q q 0 q q q 0 7 q q 0 0 0 q 0 q 0 0 0 q q q 0 0 0 0 : 2 2 2 2 2 2 8 8 2 8 2 2 2 : 7 : 8 : 7 : 7 8 : : 2 : 8 : : q 0 0 0 8 e 5 { l.k.k.k.h.j.#.5 s 8 0 q q q q q 0 q q 7 q q ",
"q q q 0 q q q q 0 q q q q q q q q q q q q 0 q q q 0 0 0 0 0 w q a 9 q w e 9 q q q q 8 8 q q q q 7 q q q 0 w q q q q q q w 6 0 0 q 9 5 ! l.k.k.k.k.l.#.5 s q 0 q 7 q q q q q q q q q ",
"q 0 q q 0 q q 7 7 q q 0 q q q 0 q 0 q q q q q 7 q q 0 0 0 : e 0 q q q q q q q q q q 9 e q q q q q 7 q q 0 0 q q q 8 q q q q w 0 8 e 5 ! l.>.k.k.k.l.-.y a 9 0 0 q q q q q 0 q q q q ",
"q 7 q q q q q q q q q q q q 0 0 0 q q q q q q q q 7 q q q q 0 q q q q 0 0 0 0 0 q 0 q 0 q q q 0 q q q q q q q q q q 0 q q q 9 q 8 0 1 ! l.k.k.k.>.l.-.u w q q q 0 0 0 q q q q q q 7 ",
"q q q 0 q q 0 q q q q q 0 q q q q q q q q q q q q q q q q q q 7 q q q q 0 0 0 0 0 7 q q 0 q q q q 7 0 q q q q q q q 0 q q q q q 8 e 1 { l.k.k.k.>.l.-.t w q q q q 0 0 0 0 q q q q q ",
"0 q q q 0 7 q 7 0 q q q q q q 7 q q q q q q q q q q q q q q q q q q q q q q 0 q q q q q q q 7 q q q 0 q 7 q q q q 0 0 0 a q q 9 9 9 5 ! l.k.k.k.>.l.#.5 q q q q q q 0 0 q q q 0 q 0 ",
"q q q q q q q q q q 0 7 q q q q q 0 q q q q q q q q q q q q q q q q q q 0 q 0 q q 0 q q q q q q 0 q q q q q q q q 0 e 8 9 q 8 e 9 e 5 ! l.k.k.k.>.l.-.u q q q q q q 0 0 0 q q q 0 q ",
"q q 7 q q q q 0 q q q q q q q q q q q q 0 q q q q q q q q q q q 0 q 7 q q q 0 q q q 7 0 q q q q q 0 0 0 q q q q q q q q q q q q 0 0 5 ! l.k.k.k.>.l.-.5 q q q q q q 0 0 0 q q q q q ",
"0 q q q 7 0 q q q q q q 0 q q q q q q q q q q q q q 7 q 0 q 0 7 q q q q q q q q q q q q 0 7 q q q 7 q 0 q q 7 q q q q q q q q q 0 w 1 ! l.k.k.k.>.l.-.3 w 0 0 q q q 0 0 q q q q q q ",
"0 q q 0 q q q q q 7 q q q q q p w 6 q q q q a 6 q q q q 0 q q q q q q 0 0 q q 0 q 0 0 q q q q 0 0 q q q q q q q 7 w q q w 6 q q 0 0 2 ! b.k.k.k.>.l.-.u q 0 q q q q q 0 0 q q 7 7 q ",
"7 q q q q q 0 q q q q q q q q q q q 0 0 q q q q q q q q 0 q q 7 0 q q q q q q q q q q 7 q q q q q q 7 q q q q 7 q 7 q q 7 7 w q q 0 1 ! l.k.k.>.>.l.-.3 q 0 0 q q q q q q 0 q q q q ",
"q q q q q q q q q q q q q 7 0 0 0 q 0 0 9 q q q q q q q q q q q q 0 q q 7 q q q 0 q q 7 q 7 q 0 q q 0 q q q q q q q q e 8 q q q w q 5 ! l.k.k.k.>.l.-.5 q q 0 0 q q q q q q q q q q ",
"q q q 7 q q q q q q q q q q 0 0 0 0 0 q a q 9 q q q q q q q q q q q q q 0 q 7 q q q q q q 0 q q q q q q q 7 q 0 q q 8 q 0 q 6 w a a 5 ! z.>.>.>.>.j.#.5 w 0 0 0 0 8 9 q q q q q q q ",
"q q q q 7 q 7 q q q q q q q q 7 6 u 9 u u 6 9 9 8 q e 0 0 q q q 0 q q q q q 0 q q 0 0 q q q q q 0 q q q q q q q q 8 9 9 9 6 u u u i % ! c.l.l.x.l.b.:.5 q q 0 q q 9 q q q q q 0 q q ",
"q q q q q q 7 q q q 7 q 0 q 6 n G H J H H K g 9 q 8 9 0 0 q 0 q q 7 q q q q q q q q q q q q 0 q q q 0 q q q 0 q q 0 0 9 n P H J J J H T X.! ! ! ! { I 4 q q 0 q q q 9 q q q q q q q ",
"q q q q 7 7 w 7 q q q 8 q q u W ;.o.*.*.*.=.L 9 q q q 7 0 0 0 0 q q 7 0 q 0 q q q q 7 q q q q q 0 q q 0 0 q q 7 q q q 6 W $.+.+.*.+.=.H % 3 , 5 5 5 4 a w 0 q 0 q q 9 0 q q q q 0 q ",
"q q q 7 w 7 0 7 q q q q q q u R .. . ...| | H 5 q q q 7 0 0 q q q q q q q q q 0 q 7 q q q q q q q q q 0 q q q q q q q u W | } } ..} +.H 2 w q w w q w q q q 0 q e q q q q 0 q 0 q q ",
"q q q q q q w 0 q q q q q q u T *.........+.H 6 0 w w 7 0 q q 7 q 0 0 q q q q q q q q q q q q q q q 0 0 q q 0 q q q q i Q | } ......+.J u e q 8 7 0 q 7 q q q 0 8 0 0 0 q 0 q q q q ",
"q q 0 q 0 0 0 0 q q q q q a 6 T *.......} +.H 6 q q 6 w q 0 q q q q q q q 0 q 0 q 0 0 q q q 7 q 0 q 0 q q 0 q q q q a u W *.........+.H u q 9 q q q 0 w q q q q 0 0 0 q q q q q 0 q ",
"q 7 q q q q q q q q 7 q q w u T | .... .| | H p q q 8 q q 9 q q 9 q q 9 q q 0 q q w q q q q q q q q q q q q q 0 w q q u W | ......} *.H u a 7 0 0 0 0 0 q q q q q 7 q q q q 7 0 q q ",
"0 q q q q 7 q q 7 q 7 q q 6 u T @.| | ;.| ;.J y p p 9 9 p 9 u 9 9 9 9 9 u 9 6 6 6 6 6 6 9 u 9 6 6 6 6 6 6 9 6 6 6 6 9 y W ;.| ;...| @.L u a 7 7 0 0 q q q 7 q q q q q 0 q q q q 0 q ",
"q q q q q q q q 7 7 q q q w 6 G Q Q W W E Q J h k g j k j j j j j j j h j j j j j j j j j j j j j k j j j j j j j j k j J W W Y Q W W n q q q 0 q 0 0 q q q q 0 0 q 0 0 q 0 q q 7 q ",
"7 q q q q q q q 0 w 7 q 7 7 w i 6 u 5 u u t J =.+.| *.*.*.*.*.*.X.+.+.+.*.*.*.*.*.X.*.*.*.*.*.+.X.o.X.X.*.*.*.*.+.X.X.@.h i i i u 5 6 q q q q q q q q q q 0 q q q q 0 7 q q q 0 q q ",
"q q 0 w 0 0 q q w 7 q 0 q 7 q q 9 q q q 8 p J | } ....} } ..} ....} ..} } ..} } } ....} } ..} ..O. .} ..} ....} } } | | n u a 9 a w q q q q 0 0 q q 0 q q q q q q q q q 7 q q q q q ",
"q 7 7 7 q 0 q q w 7 q 0 q q q q q q w q 8 6 K ;... ............................................. .O. ...............} *.k 6 9 w q 6 q q 0 7 0 0 q 0 q q 7 q q q 0 q q 7 q 0 q q 0 q ",
"q 7 w w 0 q 0 q 0 q 0 q q q q q q 0 9 q e 1 H ........................+.........| ..............O. .} ....} ........} *.g 9 8 0 q q q q 0 0 0 0 q 7 q q q q q 7 7 q q 0 q q q q q q ",
"7 q 7 7 q 0 q 7 0 0 q 0 q q q q q q q 0 q 9 H ;. . .......} ....................................}  . .O.........| ....+.j 9 q 0 q q q q 0 0 0 0 q q q 0 q 0 q q q q q q q q 0 7 q q ",
"q q 0 q 0 q q q q q 0 q 0 0 0 0 0 q q q 9 p H +........... ....................................................... . .o.h 7 7 7 7 q q q q 7 q q q q q q 0 q q 0 0 q q 0 q q q q q 0 ",
"0 q q q q q q q 7 q q q 0 0 0 8 q q q q p u J ;...+.....+...O.........O.....O.O.......O.O.......O...O.....O.....O.O...o.k 7 7 0 q 7 q q 7 q q q q q q 2 q q q q q q q q q q q q q q ",
"q q 0 q q 7 q q q q q q 0 0 0 0 q q q p q p n ! Q Q [ [ [ [ [ [ [ [ [ [ [ [ [ [ [ [ [ [ [ [ [ [ [ [ [ [ [ [ [ [ [ [ [ ! g 7 q 0 0 0 q q q 6 q q q q q q q q q q q 0 q q q 7 q q q q ",
"q q q q q q q q q 0 0 0 0 0 0 0 q q q q 0 9 9 9 6 6 9 6 y 9 p u 9 u 6 9 u u 9 u 6 6 u u 6 6 9 6 6 u u 9 u u 6 9 u u 6 7 7 7 q q s q q a p w q q q q q q 0 q q 0 q q q 7 q q q q q 0 ",
"0 q 7 q q 0 q q q 0 q q q q 0 q a 9 0 0 0 0 q q q q q w 8 e 9 9 q 8 q q 0 q q q w q q q q q 9 q q q q q q 0 q q q w q w 0 0 q q 7 q q q q q q w q q q q q q q q q q q 7 q q q q q 7 ",
"q q q q q q 7 q q q q q q 0 7 q a q 0 0 0 0 q q 0 q q q q q q q q q 0 q q q q q q q q q q q q q q q q q q q q q q q 2 q q q q 0 q 7 q q q 7 7 7 q q q 0 q 0 7 q q 0 q q q q q 7 q q ",
"q 0 0 q q q q q q q 7 q q q 7 q q 6 q q 0 q q q q q 8 q q q q q q q q q q q q q q q q q q q q q q q q q q q q q q q q q 0 q 7 0 q 0 0 0 0 0 0 0 0 q q q q q 0 0 q 7 q q 0 0 q q q q ",
"q q q q q q q 7 q q 0 q q q q q q q q q q q 0 q q q q q q q q q q q q q q q q 7 q q q q q q q q q q q q q q q q q q q q q q q q q q q q q 0 0 q q q 0 q q q 0 0 q q q 0 q q q q q 0 ",
"q q q 0 q 0 0 0 0 q q 0 7 q q 0 q 0 q q q q q q q 0 q q q q q q 0 q q q q q q 0 q 0 q q q 8 q q q q q q q q q q q q q q 7 q q q q q q q q q q 0 q q q q q q q 0 q q q q q q q q q q ",
"q 0 q q q 0 q q q q q q q q q q q q q q q 8 q q q q q q q q q q q q 7 q q 0 q q q q q q q q q q q q q q q q q q q 0 0 q q q 0 q q 7 0 q q 7 q q q 0 0 q q 0 q q q 7 q 0 q 0 q q 0 q "
};
