/* XPM */
static char *doors[] = {
/* columns rows colors chars-per-pixel */
"90 90 187 2 ",
"   c #1F1E1D",
".  c #1C1915",
"X  c #211E1C",
"o  c #2A1F14",
"O  c #2F2107",
"+  c #2C210C",
"@  c #31230A",
"#  c #242116",
"$  c #292110",
"%  c #23211D",
"&  c #28241E",
"*  c #1F1F20",
"=  c #201F21",
"-  c #1F2121",
";  c #252525",
":  c #282522",
">  c #252628",
",  c #252829",
"<  c #2C2C2A",
"1  c #2B2B27",
"2  c #302E2B",
"3  c #33312E",
"4  c #363635",
"5  c #383634",
"6  c #373835",
"7  c #3A3936",
"8  c #383638",
"9  c #373839",
"0  c #3D3C3C",
"q  c #373638",
"w  c #403E3B",
"e  c #3F413F",
"r  c #4B4234",
"t  c #42413E",
"y  c #4A4138",
"u  c #474644",
"i  c #484645",
"p  c #454845",
"a  c #4A4945",
"s  c #474548",
"d  c #494648",
"f  c #4E4D4B",
"g  c #464848",
"h  c #524C43",
"j  c #504F4B",
"k  c #4F504C",
"l  c #51514D",
"z  c #5C544A",
"x  c #4F4F50",
"c  c #504F50",
"v  c #4F5050",
"b  c #535352",
"n  c #585753",
"m  c #5A5955",
"M  c #595858",
"N  c #575858",
"B  c #615446",
"V  c #605549",
"C  c #605E5B",
"Z  c #63615D",
"A  c #666461",
"S  c #686662",
"D  c #686864",
"F  c #6D6D69",
"G  c #746F67",
"H  c #71716D",
"J  c #7C766C",
"K  c #7E796F",
"L  c #767572",
"P  c #7A7773",
"I  c #7A7975",
"U  c #797778",
"Y  c #767A7B",
"T  c #7B7A79",
"R  c #777874",
"E  c #927745",
"W  c #937843",
"Q  c #92794A",
"!  c #81766D",
"~  c #81786C",
"^  c #807872",
"/  c #C79A3D",
"(  c #CB9A3B",
")  c #CB9837",
"_  c #D09A3B",
"`  c #9F835C",
"'  c #9D8B6F",
"]  c #9A8879",
"[  c #968878",
"{  c #A28D67",
"}  c #A3916C",
"|  c #A39272",
" . c #A8997A",
".. c #C69A43",
"X. c #C99B41",
"o. c #C59E4C",
"O. c #C99E4B",
"+. c #C59E50",
"@. c #C29E5A",
"#. c #D5AB5C",
"$. c #D4A855",
"%. c #D2AD64",
"&. c #DAB46B",
"*. c #DBB468",
"=. c #DDBA74",
"-. c #DEBD7C",
";. c #D7B476",
":. c #E3BE75",
">. c #E1BD7C",
",. c #E3C07B",
"<. c #8C8A87",
"1. c #8D8C8A",
"2. c #908D87",
"3. c #908D89",
"4. c #919091",
"5. c #9C9C9C",
"6. c #9F9D97",
"7. c #AB9F8E",
"8. c #BBA68C",
"9. c #BDAC94",
"0. c #B2AB9D",
"q. c #B4A894",
"w. c #AAA088",
"e. c #AEACA9",
"r. c #B1ABA1",
"t. c #BAB6AD",
"y. c #B7B5AF",
"u. c #B7B6B2",
"i. c #B9B7B3",
"p. c #BBB9B6",
"a. c #BABABB",
"s. c #CEAF8C",
"d. c #C2AB8D",
"f. c #CEB18D",
"g. c #DBBD83",
"h. c #D0B08A",
"j. c #D5BB89",
"k. c #CBB192",
"l. c #C7B299",
"z. c #C9B49A",
"x. c #D9BF91",
"c. c #E0BE80",
"v. c #DDC187",
"b. c #DDC18B",
"n. c #DEC291",
"m. c #DFC89C",
"M. c #E1C186",
"N. c #E2C897",
"B. c #DEC9A1",
"V. c #EACFA0",
"C. c #E4CFA7",
"Z. c #E7D0A5",
"A. c #E9D1A5",
"S. c #E8D2A8",
"D. c #EAD7B5",
"F. c #F7E3BD",
"G. c #FBE5BE",
"H. c #CBC9C4",
"J. c #CFCFCF",
"K. c #D2D2D2",
"L. c #D9D9D8",
"P. c #E3DFD9",
"I. c #EFE4CB",
"U. c #EDE1C7",
"Y. c #F5E5C4",
"T. c #F9E6C2",
"R. c #F1E4CC",
"E. c #F4E8CA",
"W. c #EEE5D3",
"Q. c #E7E4DE",
"!. c #F0E5D1",
"~. c #F3E9D4",
"^. c #F2EADA",
"/. c #F9EBD4",
"(. c #E6E6E6",
"). c #EDEDED",
"_. c #E8E6E0",
"`. c #F5EDE0",
"'. c #F6F2E7",
"]. c #FBF3E5",
"[. c #F7F4EB",
"{. c #F9F5EC",
"}. c #FCF9EE",
"|. c #F5F5F4",
" X c #F9F6F0",
".X c #FDFAF3",
"XX c #FEFEFE",
/* pixels */
").).).).).).).).).).).).).).).L.J.J.J.J.J.J.J.J.J.J.J.J.K.5.; ; > ; ; ; ; ; > ; ; ; ; ; > ; ; , ; ; ; ; > > ; ; , ; ; ; 5.K.J.J.J.J.J.J.J.J.J.J.J.J.L.|.|.|.|.XX|.|.|.).).).).).).).",
").).).).).).).).).).).).).).).L.J.J.J.J.J.J.J.J.J.J.J.J.K.5.- ; ; ; > ; ; ; > ; ; ; , ; ; ; ; , ; ; ; ; ; ; ; ; ; ; ; - 5.K.J.J.J.J.J.J.J.J.J.K.J.J.L.|.|.|.|.|.|.|.|.).).).).).).).",
").).).).).).).).).).).).).).).L.J.J.J.J.J.J.J.J.J.J.J.J.K.5.- > ; ; ; ; , ; > ; ; , ; ; ; : > ; > : > ; ; ; ; ; ; ; ; ; 5.K.J.J.J.J.J.J.J.J.J.J.J.J.L.|.|.|.|.|.|.|.|.).).).).).).).",
").).).).).).).).).).).).).).).L.J.J.J.J.J.J.J.J.J.J.J.J.K.5.- ; > ; ; ; ; ; ; ; ; > : ; ; ; ; ; ; ; > ; : ; ; , , ; : ; 5.K.J.J.J.J.J.J.J.J.J.J.J.K.L..X|.|.|.|.|.|.|.).).).).).).).",
").).).).).).).).).).).).).).).L.J.J.J.J.J.J.J.J.J.J.J.J.K.5.; ; ; ; ; ; ; ; ; ; ; ; ; ; ; > ; ; ; > ; , ; ; ; ; ; ; ;   5.K.J.J.J.J.J.J.J.J.J.J.J.J.L.XX|.|.|.|.|.|.|.).).).).).).).",
").).).).).).).).).).).).).).).L.J.J.J.J.J.J.J.J.J.J.J.J.K.5.- ; > ; ; > ; , ; : > ; ; , ; : ; > ; ; , ; ; : ; ; ; > ; ; 5.K.J.J.K.J.J.J.J.J.J.J.J.J.L.|.|.|.|.|.|.|.|.).).).).).).).",
").).).).).).).).).).).).).).).L.J.J.J.J.J.J.J.J.J.J.J.J.K.5.; ; ; : ; ; ; ; ; > ; > > ; ; , > ; ; ; ; ; ; > ; ; ; > ; ; 5.K.J.J.J.J.J.J.J.J.J.J.J.J.L.|.|.|.|.|.|.|.).).).).).).).).",
").).).).).).).L.L.K.L.K.L.K.L.J.J.J.J.J.J.K.1.s d d d f g e > ; ; > ; , ; ; > ; ; ; ; ; > ; ; ; , ; ; ; ; > ; ; ; ; ; > e d d g g g u 1.K.J.J.J.J.J.K.L.K.L.L.L.L.L.L.).).).).).).).",
").).).).).).).L.J.J.J.J.J.J.J.J.J.J.J.J.J.L.U   = ; ; ; ; ; > ; ; , ; ; : > ; ; ; ; ; ; > ; ; ; ; ; ; ; ; ; ; ; ; ; ; ; ; ; ; ; ; ; * U L.J.J.J.J.J.J.J.J.J.J.J.J.J.K.).).).).).).).",
").).).).).).).K.J.J.J.J.J.J.J.J.J.J.J.J.J.K.U * ; > ; ; ; ; > > ; , ; ; ; ; ; > , ; ; ; ; ; ; ; , ; > ; ; ; ; ; ; ; ; ; > ; ; ; ; ;   Y K.J.J.J.J.J.J.J.J.J.J.J.J.J.K.).).).).).).).",
").).).).).).).L.J.J.J.J.J.J.J.J.J.J.J.J.J.L.T * ; ; ; ; ; ; ; ; , ; ; ; , ; ; ; : ; ; ; ; ; ; ; , ; ; > ; ; , , ; ; ; ; ; ; ; ; ; ; - T K.J.J.J.J.J.J.J.J.J.J.J.J.J.L.).).).).).).).",
").).).).).).).K.J.J.J.J.J.J.J.J.J.K.J.J.J.K.Y * ; ; ; ; ; ; ; ; ; ; ; ; ; > ; ; ; , ; ; ; > ; > ; ; ; ; ; , ; ; > ; ; ; ; > ; ; ; > - T L.J.J.J.J.J.J.J.J.J.J.J.J.J.K.).).).).).).).",
").).).).).).).L.J.J.J.J.J.J.J.J.J.J.J.J.J.K.U * : ; ; ; ; ; ; ; : ; ; ; ; ; ; ; ; ; ; ; ; ; : > ; ; : > , ; ; ; > ; ; ; ; > ; ; ; ; * U L.J.J.J.J.J.J.J.J.J.J.J.J.J.L.).).).).).).).",
").).).).).).).K.J.J.J.J.J.J.J.J.J.J.J.J.J.L.T * > ; ; ; ; ; ; ; ; ; ; ; ; > ; ; ; ; ; ; ; ; ; ; ; > ; ; ; ; ; ; ; ; ; ; ; ; ; > > ; * U K.J.J.J.J.J.J.J.J.J.J.J.J.J.K.).).).).).).).",
").).).).).).).L.J.J.J.J.J.J.J.J.K.K.K.K.K.L.T ; ; ; ; > : ; X = ; % % X ; % X % ; % % ; % : ; ; > > > ; ; & ; ; ; ; ; ; ; ; ; ; ; ; * T L.K.K.K.K.K.K.J.J.J.J.J.J.J.L.).).).).).).).",
"L.L.L.L.L.L.L.J.J.J.J.J.J.J.K.U b N N N N M w ; ; ; ; ; ; j a.u.i.i.i.u.i.i.i.i.i.i.i.i.e.2 ; > ; > > ; b Z M Z A M Z Z 7 ; ; ; ; ; ; e M N N N N N T K.J.J.J.J.J.J.J.L.L.L.L.L.L.L.",
"J.J.J.J.J.J.J.J.J.J.J.J.J.J.K.N * - ; = ; * ; ; > ; ; > = S XX.X.X.X.X.X.X.X.X.X.X.X X.X(.4 ; > > ; ; ; D I I I T T T T t ; ; ; , ; ; > ; % ; - -   b K.J.J.J.J.J.J.J.J.J.J.J.J.J.J.",
"J.J.J.J.J.J.J.J.J.J.J.J.J.J.K.N ; ; ; > ; ; ; ; ; ; ; ; = Z .X[. X{. X{. X X X X{.{. X}.Q.4 ; > > > ; ; D I I I T T T I t ; ; ; ; ; ; ; ; > ; ; ; ; N K.J.J.J.J.J.J.J.J.J.J.K.J.J.J.",
"J.J.J.J.J.J.J.J.J.J.J.J.J.J.K.N ; ; ; ; ; ; ; ; ; > ; ; ; Z .X.X X[.[.'.[.[.[.{.{.{.{.[._.4 % ; ; > > ; D I R T I I T T t ; ; , ; ; ; ; ; ; ; ; ; * N K.J.J.J.J.J.J.J.J.J.J.J.J.J.J.",
"J.J.J.J.J.J.J.J.J.J.J.J.J.J.K.N * > ; ; ; ; ; ; ; ; : ; X Z .X'.[.[.[. X[.[.[.[.[.[.[. XQ.3 ; ; > ; ; ; D I T T I I T I 0 % , ; ; ; ; ; ; > ; ; ; ; N K.J.J.J.J.J.J.J.J.J.J.J.J.J.J.",
"J.J.J.J.J.J.J.J.J.J.J.J.J.J.K.M ; ; ; ; ; ; > ; ; ; ; ; X Z .X|.[.[.].{. X[. X[. X}.{.}.Q.4 ; ; ; ; ; ; S T I I T T I T 0 % ; ; % ; ; ; ; ; ; ; ; ; M K.K.J.J.J.J.J.J.J.J.J.J.J.J.J.",
"J.J.J.J.J.J.J.K.L.K.K.L.K.L.L.M ; > ; ; ; ; ;     X X X X C .X[.[.}.].[. X|.XX.X.X.XXX.X).3 % ; ; ; ; & Z I I I I T T I t % % ; ; ; ; ; ; , ; ; ;   M L.L.K.K.L.K.L.K.J.J.J.J.J.J.J.",
"J.J.J.J.J.J.J.1.Y U U U U U T e ; ; ; ; ; ; M 3.3.3.3.3.<.r..X{.{.{.}.[.|.P.1.1.2.2.<.<.<.b j j f k f l J I I R I I I I C j k l b l k 0 ; ; ; ; ; ; 0 T U U T U T Y 1.J.J.J.J.J.J.J.",
"J.J.J.J.J.J.J.u     ; * - - - ; ; ; ; ; ; = 4.XX.X.XXX.X.X.X{.{.{.{.{.{.|.C.% . % .     ; L T T T T T T I I I I I I T K K T T I T T T v - ; ; > ; ; ; = * * - * - * e J.J.J.J.J.J.J.",
"J.J.J.J.J.J.J.g ; ; ; ; ; > ; ; ; ; ; ; ;   1..X[.|.{.{.{.{.{.[.[.[.[.[..XB.> - ; & ; ; 1 J R T T I I I I I J I I I I I I I I T T T T j ; ; ; ; > ; > > ; ; ; ; > ; d K.J.J.J.J.J.J.",
"J.J.J.J.J.J.J.f ; > ; ; , ; ; ; ; ; ; ; : X 1.XX|.[.{.{.[.}. X{.[.{.[.[.{.J.> > ; ; ; ; 1 H R I I I R I R I I K I I I I T I I R T T T l ; ; ; ; ; ; ; : ; ; ; , ; ; d J.J.J.J.J.J.J.",
"J.J.J.J.J.J.K.d ; > ; ; ; ; ; ; ; - ; ; ; X 2..X{.{.{.[.[.{.{.{.}.[.}.[..XH.> ; , , ; ; 1 L Y T I I K I I T T I I T I J I I I I T I T k % ; ; ; ; ; ; ; , : ; ; ; * g J.J.J.J.J.J.J.",
"J.J.J.J.J.J.J.d - ; ; ; ; ; ; ; ; ; ; ; ; % 3.XX{.[.{.{.[.[.[.[.].[.].}.}.H.; ; ; ; ; ; < L U T I I I I I R I I J J T R I I I I T I I b ; ; ; ; ; ; ; > ; ; , ; ; ; g J.J.J.J.J.J.J.",
"J.J.J.J.J.J.J.g ; ; ; ; ; ; ; ; ;   ; % % . 1..X{.].{.].{.}..X{..X}..X XXXH.; ; % ; ; ; 1 H I I I I I R I I I I I I I I I I I I T I I l ; ; ; : ; ; > ; > > ; ; ; ; g J.J.J.J.J.J.J.",
"L.L.L.L.L.L.L.g ; ; ; ; ; ; ; f A A Z Z Z C e..X[.'.{.[.}.Q.i.i.u.u.i.u.i.6.w 7 w t 0 0 u R I I I I I I F F F F F F F F F F F F F F F a & ; ; ; ; ; ; ; ; ; ; ; ; ; d L.L.L.L.L.L.L.",
").).).).).).).x - ; ; ; ; ; ; a..X X.X.X.X.X{.{.{.{.].{..Xy.X % % - % ; X 5 I ^ T I I I I I R R I I I J n f l j k k f j f l k k f h l 5 ; ; ; ; ; ; ; ; , ; ; ; ; - x ).).).).).).).",
").).).).).).).x ; ; ; ; ; ; ; y. X[.}.[.{.{.{.{.[.[.[.}..Xi.X : ; ; : ; : 7 I I I I I T I R I I I I I I n f l f k k j j j k k k k k l q ; ; ; ; ; , ; , > ; > ; > - f ).).).).).).).",
").).).).).).).x ; > > ; > : X t..X'.}.[. X{.{.[.].[.[.{..Xi.% ; ; ; ; ; ; 5 T I R I I I I I K I I I I K n j k k j j k j j j j j f l l 9 ; ; ; ; ; ; ; : ; ; ; : > ; v ).).).).).).).",
").).).).).).).c ; ; ; ; ; ; % t.}.].'.{.[. X{.[.[.[.}. X.Xu.% : ; ; ; > ; 4 R I I T I I I I I I R I T I n k j j j k j j j j j j l l l 7 ; ; ; ; ; , ; ; ; ; ; ; ; ; f ).).).).).).).",
").).).).).).).f ; ; ; ; ; ; ; i..X{.{.{.{.{. X{.[.].{.{..Xu.% : ; ; ; : ; 4 T I R I T T I I I R I R I I n k j j j j k j j j j j k f l 7 ; ; , ; ; ; , , ; > > ; ; ; f ).).).).).).).",
").).).).).).).x = ; ; > > ; X i..X'.'. X X X{.{.[.}.[. X Xi.X ; ; ; > > ; 4 I R I I I R R I I I I I I T n a j j j j j j j j k j k k l 0 ; ; ; ; ; ; ; ; ; ; ; ; ; ; x ).).).).).).).",
").).).).).).).x ; ; ; ; ; ; = i..X{.{.{.{.{.[.{.[.].].{.}.i.% ; ; ; > > ; 4 T L I R I R I I I T I K I I n k j j j j k j f k k k k k k 0 ; : ; ; ; ; & ; ; ; ; ; ; ; b ).).).).).).).",
").).).).).).).x = ; ; ; ; ; = i..X{.{. X[.[.[.[.`.].`.].].t.X : ; ; ; > ; 4 R T I I I I I G F G H H H H n j k k j k j k f h f p k k f 0 1 < < 2 3 2 , ; ; ; > ; ; ; f (.(.(.).(.(.(.",
").).).).).).).f ; > ; ; ; : % i..X{.{.{.[.'.^.W.W.W.R.~.^.r.% : ; ; ; , ; 4 U T I I I I R l f j k l j k j j j j j j k j f h t 7 p u p a l f f l l l w ; ; ; ; ; ; - d J.J.J.J.J.J.J.",
").).).).).).).f ; ; ; ; ; ; ; i..X{.{.{.].[.'.W.R.I.U.I.^.0.% % ; ; ; ; ; q U I R J I I I l k j k k j j j j k f j j k k a p y j u i d d k l f l f l u ; ; ; ; > ; ; g J.J.J.J.J.J.J.",
").).).).).).).f ; ; ; ; ; ; = i..X'.{.].].{./.!.R.R.U.I.^.r.% & ; , , ; ; 4 U T I J T I R l k l j f j j j l j j j j j k a u u u i u u f f f j f l l t ; ; > ; ; ; > g J.J.J.J.J.J.J.",
").).).).).).).x ; ; ; ; ; ; = i..X{.{.{.{.].^.W.R.R.U.R.~.r.X & ; ; ; ; ; 4 Y T R L I I L l k l j j j j j j j j j j k k p u u u u u u f k h j l l l t ; , ; ; , > - s J.J.J.J.J.J.J.",
").).).).).).).x - ; ; ; > > * i..X}.'.[.].{.`.W.R.!.I.R.~.r.X ; ; ; ; ; ; 9 T T I R I T J k f l j j j j j j l k j k k j f a u u i u u a k l l j j l t ; : > ; > ; ; d K.J.J.J.J.J.J.",
").).).).).).).f ; ; > ; ; ; * i..X[.}.].{.].`.W.!.!.R.R.^.0.# ; ; ; , ; ; 9 Y U I I I T J l l f j j j l j l l l j j k j a y u u u i u f l f j j f b u ; ; ; ; > ; ; g J.J.J.J.J.J.J.",
").).).).).).).x ; ; ; ; ; ; ; p. X].].].].].~.!.I.R.R.R.~.0.# ; ; ; ; ; ; 4 T U I I I I L l j j j j j k k k k l j k k k a u p u u u u a j j j j f c u ; ; , ; ; ; ; g K.K.J.J.K.K.K.",
").).).).).).).x ; ; ; ; ; ; X r.^.~.!.W.!.!.!.R.R.R.R.R.W.0.% ; ; & & : : q U P I K K I P l l j j j j k a u u y u u u a u u u u i u u i i d d d g s 0 ; ; ; : > ; * f ).).).(.).).).",
").).).).).).).x ; ; ; ; ; ; % 0.~.W.I.R.R.W.R.R.U.R.I.E.~.0.% ; > : ; ; ; 5 T P I I I T J l l j k j k k u u p u t t u u u u u u a i u i i d d u d s 0 ; ; ; > > ; - x ).).).).).).).",
").).).).).).).x ; ; ; ; ; ; % 0.R.R.U.U.R.R.R.I.U.R.R.R.~.0.% ; ; > ; ; ; q R R I T R T L l k k l j j j a u a p e 0 u u u u u u u u t i d i d d s g 0 ; ; ; ; ; ; ; x ).).).).).).).",
").).).).).).).f ; ; > ; ; ; % 0.~.I.R.R.!.R.R.R.R.R.R.R.~.0.% , ; > ; ; ; q T I I T R T T l k l l j j j a u h u a a u u u i u u u u u u i u u d u u 0 ; > ; ; ; ; - x ).).).).).).).",
").).).).).).).x ; ; ; ; ; ; % 0./.R.R.R.R.R.R.R.!.R.R.!.~.0.# ; ; ; : ; ; 4 I I I I I K L l k f j j j j a u u u g g u u u u u u u u u i u u d u d d 0 > : : ; ; ; - x ).).).).).).).",
").).).).).).).x ; ; ; ; ; ; # 0.~.I.R.R.!.!.R.~.R.!.R.!.~.0.# ; ; ; ; > ; 4 T I I R I ~ J l c j l j j j u u i i g s i u u i u u i u i i u d s d s g 0 ; , ; ; ; ; ; x ).).).).).).).",
").).).).).).).x - ; ; ; ; : % 0./.W.R.I.!.R.R.R.R.R.R.R.I.0.% ; ; ; ; > ; 4 ! ~ I K ~ ~ J l x l k l h j u u u i s u u u u u u u u u u d u u s u d s 0 ; > ; ; ; > - g ).).).).).).).",
").).).).).).).x ; ; ; ; ; ; X 0.~.I.R.R.R.R.R.R.R.I.R.R.R.r.X ; ; ; ; ; & w 8.8.8.8.8.8.7.n h v l l j j d h t i u u i i h f f f j j f d u u u g g s 0 ; ; ; ; ; ; - b XXXX.XXXXXXXXX",
").).).).).).).x ; ; ; > ; : & r.~.I.R.I.R.R.I.I.R.I.R.R.~.r.X ; ; ; : ; & r f.h.h.f.h.z.9.z l l h j j j a i i u u u i a f j j j j j j a u u u u d g 0 ; ; ; , ; ; ; v XXXXXXXXXXXXXX",
").).).).).).).f ; ; ; ; > : X 0.~.R.R.R.R.E.R.R.E.E.I.U.R.0.# & ; ; ; : ; w k.s.f.k.s.k.9.z l f l h l f i i i u u u i t f j j f j j j d u u d i u g 9 ; ; > ; ; ; - b XXXXXXXXXXXXXX",
").).).).).).).f ; ; ; ; ; ; o 0.~.U.R.R.R.U.R.R.U.R.I.I.~.0.# ; , ; ; ; ; r k.f.k.f.h.s.d.z l k l f h j i i i u u u a i a j j j j j b f s u d g u g w ; ; ; ; ; ; ; b XXXXXXXXXXXXXX",
").).).).).).).f X ; ; ; ; ; % r.~.I.I.E.I.R.R.R.R.R.W.I.~.0.% ; , ; ; ; ; r k.f.s.s.h.h.d.B h l j j f k i u i u u u u u f k l k j f j a u u a p d g 0 ; > ; ; ; ; ; b XXXXXXXXXXXXXX",
").).).).).).).v ; ; ; > ; ; X r.~.R.I.I.R.I.R.R.R.R.R.I.~.r.# , , > > - ; r k.f.s.f.f.f.d.B l h j j l f a u u u u u u u f h j j j k j a u p u u g p 0 ; ; ; ; ; ; - b XXXXXXXXXXXXXX",
").).).).).).).v ; ; ; ; ; ; % r.~.E.R.U.E.U.R.R.R.R.I.I.~.r.# ; > > > ; * r l.f.k.f.s.f.9.B h l f l l j y a u s u u u u f h j j j j l f u u u u i i 0 ; ; ; ; ; > ; b XXXXXXXXXXXXXX",
").).).).).).).v * ; ; ; ; ; % q.E.F.F.F.F.T.E.R.R.R.I.I.~.0.# ; > > > ; % r l.l.l.l.l.l.9.z l l k f k k p a s s u u u u f l j j j j f a t a u u i i 0 ; ; > ; > ; ; x XXXXXXXXXXXXXX",
"L.L.L.L.L.L.L.d ; , ; ; ; ; $  .C.N.m.m.B.B.D.Y.I.R.R.R.~.q.# ; > > ; ; ; 5 [ ] ] ] ] [ [ z l v k k h h i i d u u u u u a f l j l f a p i i u u u i 0 ; ; ; ; ; ; - x |.|.|.|.).[.|.",
"K.J.J.J.J.J.J.p ; ; ; ; ; ; $ } n.g.g.g.j.j.S.Y.Y.R.I.I.~.0.# ; ; > ; , ; 4 J ! ! ~ J ! G l f x k k h l d d i i u a u u d l l f k k l a u t i u u i 0 ; ; ; ; ; ; ; x ).).).).).).).",
"J.J.J.J.J.J.J.g ; ; ; ; ; ; + | M.>.M.-.g.j.S.Y.R.R.I.R.~.0.% ; ; ; ; - ; 7 I ^ I I I R J l v v k k l k f i u u u u t u a j f j h k j h y a u u u s 0 ; ; ; ; ; ; ; f ).).).).).).).",
"J.J.J.J.J.J.K.g % ; ; ; ; & $ | v.-.>.-.-.g.Z.Y.Y.I.I.I.^.0.% , ; ; , ; - 9 U U I R R T R l k v k k h j u u u u u u i u f j j j l f l f g a i u u i 0 ; ; ; ; ; ; ; x ).).).).).).).",
"J.J.J.K.J.J.J.d ; ; ; ; , , $ } v.-.,.-.g.g.C.T.R.U.R.R.~.0.; ; ; ; : ; ; 6 R R I P T T P b k k l f f d i i i u u u u u l j j f l f k f t a u u u i 0 ; ; ; ; ; ; ; f ).).).).).).).",
"J.J.J.J.J.J.J.d - ; ; ; ; & # } v.-.-.-.c.g.A.T.R.R.R./.!.0.X > ; ; ; : ; 4 T I I R I I T l j j l h j j d i i u u u u u h l l f j j k h a u u u i u 0 ; ; ; ; ; > ; f ).).).).).).).",
"J.J.J.J.J.J.J.d ; ; ; ; ; & + } v.-.-.=.>.g.A.G.T.E.Y.T./.9.& ; ; ; ; ; ; 4 T T I R P I P l j j j l j l d d u u u u u u f j h k j j f p u a u u u d 0 ; ; ; ; ; ; ; c ).).).).).).).",
"J.J.J.J.J.J.J.f ; ; ; ; ; ; + } b.g.>.,.:.>.N.V.A.A.C.N.D.7.# ; ; ; ; ; ; 4 T P U T ^ ^ J l j j l h h l d s u u u u u u f l k k j j j a u t a u u u 0 ; ; ; ; ; ; ; c ).).).).).).).",
"J.J.J.J.J.J.J.g ; ; ; ; ; ; + } N.>.>.>.>.>.g.g.j.g.g.j.x.' + & ; ; ; ; ; 3 T T U I T P P l j j j j j j i u u u u u u t a j j j k j k a u u u u i i 0 ; ; > ; ; ; = x ).).).).).).).",
"J.J.J.J.J.J.K.g ; ; ; ; ; ; + } M.g.g.-.>.>.>.g.g.-.g.-.j.} + ; ; ; > , % 6 T I I I ^ I P l j j j j j j u u u u u u u u k k f j j l k p u u u u u u 0 ; , ; ; ; ; ; x ).).).).).).).",
"J.J.J.J.J.J.J.d ; ; ; ; ; ; $ } b.g.-.-.>.-.>.>.>.>.-.-.g.} $ ; ; ; , ; ; 6 Y Y I I ^ I P l j j j l j j j y u u u u u u a l j j l j j a a u u u h d 0 ; ; ; ; > > ; x ).).).).).).).",
"K.J.J.J.J.J.J.d ; ; ; ; ; ; $ } b.g.>.-.-.>.>.-.-.>.-.-.v.} + ; > , ; ; ; 6 I T I I I I P l j j l l j l a u u u u u u u k k j j j j l l y a t a a a 0 ; ; ; ; ; ; ; d ).).).).).).).",
"J.J.J.J.J.J.J.d ; ; ; ; ; & + } b.>.>.>.>.-.-.=.>.=.>.>.v.{ @ > , , , , ; 4 I I I R I I L l f j l l f h i u u u u i t u f j j j j j k a u u u u p u e ; ; ; : ; > - x ).).).).).).).",
"J.J.J.J.J.J.J.d ; ; , ; ; ; $ } b.-.>.>.>.-.>.:.,.:.>.>.c.{ $ : , , ; ; ; 4 I I I I I I L l j j l h l f d u i u u u u u f j j j j j k a u u u u u u 0 % ; > > ; > * x ).).).).).).).",
"L.L.L.L.L.L.L.g ; ; > ; ; ; o } n.>.-.>.>.>.;.*.*.*.*.*.;.` @ ; ; - ; , % 5 I I I I I I L l j j j j f l p u a p u u u u f j f j j j f u f u u u u u 0 ; ; > ; > ; ; x (.(.P.(.(.(.(.",
").).).).).).).x ; ; ; ; ; ; $ | b.-.>.-.,.>.%.o.........@.Q @ : ; ; , ; ; 3 I I I T I I J l j j j j j j a a a a u u u u f j j k j j j a y u u u u g 0 ; > ; ; ; > = g J.J.J.J.J.J.J.",
").).).).).).).k - ; ; , ; ; + } b.-.g.>.-.,.#...X.( ( X.@.E @ : ; - ; , ; 5 I R I I I I L l l j j j j l d u y a u u u u j l j j j j j t h p u u u g 0 % ; > ; ; ; ; s J.J.J.J.J.J.J.",
").).).).).).).v ; ; ; , ; & + } M.-.-.-.-.,.#...( ( ( ( +.W O : ; ; ; , ; 9 R I I I I I T l j j j j j k u u u u u u u u j l j k j j j a a u u u u i 0 ; ; > ; ; ; ; s J.J.J.J.J.J.J.",
").).).).).).).f - ; ; ; ; & + } v.-.-.-.>.:.#.X.( _ ) ( +.W + & ; ; , ; ; 3 R I I I I I H l j j f j l k u u u u u u t u a k j j j j j f t p p u u i 0 % ; ; ; ; ; ; d K.J.J.J.J.J.J.",
").).).).).).).v ; ; ; ; ; ; + | v.-.-.-.:.:.#./ ) _ ) ( O.W @ & ; ; ; ; & 6 I I I I I I J l j f l f h k u u u u u u a u k k j j j j j p p p u u i i 0 ; ; > : > ; ; d J.J.J.J.J.J.J.",
").).).).).).).v ; ; ; ; ; ; + } b.>.,.-.,.,.#.X.( ( ( ( O.W @ & & ; , ; ; 7 T I I I I I R l k l j j j j a u t u u u u u f l k k l f k h t u u u d g 0 ; ; ; , ; ; ; g J.J.J.J.J.J.J.",
").).).).).).).v ; ; ; ; ; ; o } n.v.=.-.,.,.#.( X.( ( X.o.W O & ; ; ; ; ; 4 I T R T K I R l l f j j j j a u a u u u u u f l f k j j l f u u u u i g 0 ; ; ; ; ; ; ; g J.J.J.J.J.J.J.",
").(.(.(.(.(.(.k ; ; > > ; : + ' -.&.=.&.=.&.$.X.( ( ( ( +.W O & ; ; ; ; ; 3 T I R I T I R l j f j j j j a u u u u u u u f h h k j j l a u u u i y f 0 ; ; ; ; ; ; ; d L.L.K.K.L.L.K.",
"J.J.J.J.J.J.J.g ; ; ; ; ; & O W o.../ / / / / ( ( _ ( ( +.W @ & , ; , ; ; 4 I I T R T J J l j j j j l k u u u u u i u u f k l j j j l h u u u u u d 0 ; ; > ; ; ; ; v ).).).).).).).",
"J.J.J.J.J.K.J.f ; ; ; ; ; & O W +./ ( ( ( ( ( ( ) ( ( ( +.W O & , ; ; ; ; 6 T I T R I J J k l f j j j j a u u u u u i t f k f j f j j u u u u u u u 0 ; ; ; ; ; ; - f ).).).).).).).",
"J.J.J.J.J.J.J.d * ; ; ; ; ; @ W o./ ( ( ( ( ( ( ( ( ( ( +.W @ : ; ; , , ; 7 Y T I I I I R b f l j j j j u u u u u u u u f k l f j j j h u u u u u g 0 ; ; ; ; > ; ; x ).).).).).).).",
"J.J.J.J.J.J.J.d ; ; ; ; ; & @ W +./ ) ( ( ( ( ( ( ( ( ( o.W @ & , ; , ; ; 6 T I I R I I R l k h k j f j a u u u u u u u f h f l j j j a u u u u u d 0 % ; ; ; ; ; - f ).).).).).).).",
"J.J.J.J.J.J.J.g ; ; ; ; , & + W o./ X.) ( ( ( ( ( ) ( ( o.W @ : ; ; ; ; - 6 I I I I I I L l k l j f j j a u u u u u u u f l l f j j j u u u u u u i 0 ; ; ; ; ; ; ; v ).).).).).).).",
"J.J.J.J.J.J.J.d % ; , , ; & + W o.( ( ) ( ( / / ( ) ( ( o.W O & , ; ; ; ; 7 I I I I I I I l l k j j j j t p p p g u i u f j f l j j j a u a u u u u 0 ; ; ; ; ; ; ; x ).).).).).).).",
"J.J.J.J.J.J.J.f ; , ; ; ; ; O W o.( ( ( ( ( ( ( ( ( ( ( o.W @ & ; : ; ; ; 7 R R R I I I L l l z k j j j a p y u g p u u f j k h j j k h t a u u u u 0 ; ; ; ; ; ; ; x ).).).).).).)."
};
