/* XPM */
static char *mo[] = {
/* columns rows colors chars-per-pixel */
"90 90 195 2 ",
"   c #161657",
".  c #23225D",
"X  c #1E1D69",
"o  c #1A1964",
"O  c #1F2061",
"+  c #242464",
"@  c #25256C",
"#  c #29276A",
"$  c #27286A",
"%  c #2A2B6D",
"&  c #2B2C61",
"*  c #35356E",
"=  c #36386F",
"-  c #262673",
";  c #292773",
":  c #272873",
">  c #2B2C73",
",  c #25267B",
"<  c #29277C",
"1  c #27287D",
"2  c #2B2D7B",
"3  c #312F7A",
"4  c #302F76",
"5  c #2E3175",
"6  c #2F317A",
"7  c #323376",
"8  c #323278",
"9  c #38377D",
"0  c #37387A",
"q  c #39397B",
"w  c #393871",
"e  c #4A4B7B",
"r  c #50517F",
"t  c #2B2C81",
"y  c #2C2B88",
"u  c #2F3182",
"i  c #333383",
"p  c #393882",
"a  c #393889",
"s  c #373792",
"d  c #393793",
"f  c #3B3C94",
"g  c #3D3C9C",
"h  c #353499",
"j  c #3C3CA0",
"k  c #3F4096",
"l  c #3F4098",
"z  c #444386",
"x  c #4B4B8D",
"c  c #464789",
"v  c #545486",
"b  c #54548A",
"n  c #454593",
"m  c #4C4C91",
"M  c #42429B",
"N  c #494996",
"B  c #56569A",
"V  c #5A599D",
"C  c #525097",
"Z  c #616295",
"A  c #4443A5",
"S  c #4646AA",
"D  c #4847AA",
"F  c #4A49AB",
"G  c #514FA4",
"H  c #5352A2",
"J  c #5C5BA1",
"K  c #4D4FB5",
"L  c #504FB8",
"P  c #514EB1",
"I  c #4F50B6",
"U  c #5554BB",
"Y  c #5857BD",
"T  c #5A5ABB",
"R  c #5D5EB4",
"E  c #6465AE",
"W  c #6263BD",
"Q  c #6C6BBB",
"!  c #6766B8",
"~  c #7877B9",
"^  c #7979BA",
"/  c #7777B9",
"(  c #5554C2",
")  c #5856C5",
"_  c #5B5BC0",
"`  c #5D5ACE",
"'  c #5655D5",
"]  c #5857D7",
"[  c #5C5BD4",
"{  c #5A57DA",
"}  c #5B5ADB",
"|  c #5658D2",
" . c #605ECD",
".. c #615FD4",
"X. c #615DDB",
"o. c #5F61D5",
"O. c #6A6BC7",
"+. c #7878CC",
"@. c #6361D4",
"#. c #6D6DD3",
"$. c #6460D9",
"%. c #6866D4",
"&. c #716FD7",
"*. c #6F70D5",
"=. c #7373D5",
"-. c #7A7AD6",
";. c #5E5AE1",
":. c #7676F2",
">. c #7877F4",
",. c #7D7CF5",
"<. c #7678F6",
"1. c #7976E6",
"2. c #807FF5",
"3. c #817FFA",
"4. c #8B8CAC",
"5. c #9191AF",
"6. c #8E8EB1",
"7. c #908FB1",
"8. c #9291B3",
"9. c #8584C9",
"0. c #8887C8",
"q. c #8584D5",
"w. c #8B89D6",
"e. c #8584DA",
"r. c #8886D9",
"t. c #8C8EDE",
"y. c #9596D7",
"u. c #9797D9",
"i. c #9999DA",
"p. c #9A9AD8",
"a. c #9FA1D6",
"s. c #BBB7D4",
"d. c #BBBAD4",
"f. c #B6B8D5",
"g. c #8381EB",
"h. c #918FE2",
"j. c #9292E5",
"k. c #9799E6",
"l. c #8382F5",
"z. c #8986F3",
"x. c #8B8AF7",
"c. c #8383FD",
"v. c #8887FE",
"b. c #8B8AFD",
"n. c #9191F6",
"m. c #9392FA",
"M. c #9D9DFE",
"N. c #A19FF5",
"B. c #A19FFA",
"V. c #A5A5E6",
"C. c #A8A6E6",
"Z. c #A8A8E6",
"A. c #AEACEE",
"S. c #B0AFEE",
"D. c #AFB0EE",
"F. c #B8B8EF",
"G. c #A4A1F5",
"H. c #ABA7F7",
"J. c #AAA9F5",
"K. c #A4A3FE",
"L. c #A9A7FC",
"P. c #A7A8FE",
"I. c #ADACFD",
"U. c #B0AEFF",
"Y. c #AFB1FF",
"T. c #B0B1F0",
"R. c #B3B2FF",
"E. c #B9B6FF",
"W. c #BDBDFD",
"Q. c #BBBCF7",
"!. c #C0BEFE",
"~. c #BFC0FE",
"^. c #CBCCE4",
"/. c #C7CAE4",
"(. c #C6C6F4",
"). c #C7C8F7",
"_. c #C9C8F5",
"`. c #C3C2FE",
"'. c #C9C7FE",
"]. c #C7C8FF",
"[. c #CBCAFF",
"{. c #D0CFFF",
"}. c #D3D4FF",
"|. c #D9DAFF",
" X c #D6D7E3",
".X c #E5E7F9",
"XX c #E7EAFC",
"oX c #ECECFD",
"OX c #EAE7FB",
"+X c #F1EDFE",
"@X c #EEF1FE",
"#X c #F2F4FF",
"$X c #F9F7FF",
"%X c #F6F9FF",
"&X c #FCFDFF",
/* pixels */
"8 8 8 8 8 8 8 8 8 8 4 8 8 8 8 8 8 8 8 7 3 7 8 8 8 7 8 8 8 7 8 8 8 8 8 8 8 8 8 8 8 8 8 3 7 8 8 8 4 8 8 8 7 8 8 8 8 8 8 8 7 8 8 8 8 8 8 7 8 8 8 8 3 8 8 7 8 8 8 8 8 8 8 8 8 8 8 7 8 8 ",
"8 8 8 8 8 4 8 8 8 8 8 8 8 8 8 8 8 8 8 8 8 8 8 8 8 3 7 8 8 7 8 8 8 8 7 8 8 8 7 8 8 7 8 8 8 8 8 8 8 8 8 7 8 8 8 8 8 8 8 8 8 8 8 8 8 8 7 3 8 8 8 8 7 8 8 8 7 8 8 8 8 8 8 8 8 8 8 8 8 7 ",
"8 8 8 8 8 8 8 8 8 7 8 8 8 8 8 8 8 8 8 8 8 8 8 7 8 8 8 8 8 3 8 8 8 8 8 8 8 8 8 8 8 8 8 8 7 8 8 8 8 8 8 8 8 8 8 8 7 3 7 8 8 8 8 3 8 8 8 8 8 8 8 8 8 8 8 8 7 8 8 8 8 4 8 7 8 8 3 7 8 8 ",
"8 8 8 8 7 8 8 8 8 8 8 8 8 8 8 7 7 8 8 8 8 8 8 8 8 8 8 8 8 8 8 8 8 8 4 8 8 7 3 8 8 8 8 8 8 8 8 8 8 8 8 8 4 8 8 8 8 8 8 8 8 7 8 7 8 8 7 8 8 8 7 8 8 8 8 8 3 8 8 8 8 8 8 8 8 8 8 8 8 8 ",
"8 8 8 8 8 8 8 8 8 8 7 8 8 4 8 8 8 8 8 4 8 8 8 8 8 8 8 8 8 8 8 7 8 8 8 8 8 7 8 8 8 8 7 8 8 8 8 8 7 8 8 8 8 8 8 8 7 3 8 8 8 8 8 8 8 8 8 8 8 8 8 7 8 8 8 8 8 7 8 8 8 8 8 8 8 8 8 8 8 8 ",
"8 8 8 8 7 8 8 8 8 8 4 8 8 8 8 8 8 8 8 8 8 8 7 8 8 8 8 8 7 8 8 8 8 8 8 8 8 8 8 8 8 8 3 7 4 8 8 8 7 3 8 7 8 8 8 8 8 8 8 8 8 8 3 7 8 8 4 8 3 8 8 8 8 4 8 8 3 8 7 8 8 8 8 8 7 8 8 8 8 4 ",
"8 8 8 8 4 8 8 8 8 8 8 8 8 8 8 8 8 8 8 8 8 3 8 8 4 8 8 8 8 7 8 8 8 8 8 8 8 7 8 8 8 8 7 8 8 8 8 8 8 8 8 8 3 8 7 8 8 8 7 8 8 8 7 8 8 8 8 7 7 8 8 8 8 7 8 8 7 8 8 8 4 8 8 8 8 7 8 8 8 8 ",
"8 8 8 8 8 8 8 8 8 8 8 8 8 7 8 8 8 8 7 8 8 7 8 8 8 8 7 8 8 3 8 8 8 4 8 8 7 3 8 8 8 8 8 8 8 8 8 7 8 8 8 8 7 8 8 8 8 7 8 8 8 8 8 8 8 8 8 8 8 8 8 8 8 8 8 8 8 8 8 8 7 8 8 8 8 8 7 3 8 8 ",
"8 8 8 8 8 8 8 8 8 8 8 8 8 8 8 8 4 8 8 8 8 7 8 8 7 8 8 8 8 8 8 8 8 8 8 8 8 8 8 7 8 8 8 3 3 7 8 8 8 8 7 8 7 8 8 8 8 8 8 8 7 8 8 8 8 3 7 7 8 8 8 8 8 8 7 3 8 7 8 8 8 8 8 8 8 8 8 8 8 3 ",
"8 8 8 8 7 8 8 8 8 8 8 8 8 8 8 8 8 8 8 8 8 8 7 3 8 8 8 7 8 8 8 7 7 8 8 8 8 8 8 8 8 8 8 7 8 8 8 8 8 8 8 7 8 8 8 8 8 8 8 8 8 8 8 8 8 8 8 8 8 8 8 8 8 8 8 8 8 8 8 8 8 8 8 8 8 8 8 7 8 8 ",
"8 7 8 8 4 8 8 8 8 8 7 8 8 8 8 8 8 8 8 8 8 8 8 7 8 8 8 3 8 8 7 3 8 8 8 8 7 8 8 8 8 8 8 8 8 8 8 8 8 8 8 3 8 8 7 8 8 8 8 8 8 7 8 8 8 8 8 8 8 8 8 7 8 8 8 7 8 8 8 4 3 8 8 8 8 8 8 4 8 8 ",
"8 8 8 8 8 8 7 8 8 8 8 4 4 8 8 7 8 8 8 8 8 8 8 8 8 8 8 8 8 7 8 8 8 8 7 8 3 7 8 8 8 8 7 8 8 7 8 8 8 8 8 8 8 8 3 8 8 8 8 4 8 3 8 7 8 8 7 8 8 8 7 3 7 8 8 8 8 8 8 8 7 8 8 7 8 7 8 8 8 7 ",
"4 8 8 8 8 8 8 8 8 8 8 8 8 8 8 8 8 8 8 8 8 7 8 8 8 8 8 4 8 8 8 8 3 7 8 8 8 4 8 8 8 8 7 8 8 8 8 8 8 8 4 8 8 8 8 8 8 8 8 8 8 8 8 8 3 7 8 8 8 8 8 8 8 8 8 8 8 8 8 8 8 8 8 3 7 7 8 8 8 8 ",
"8 8 8 8 4 8 8 8 8 8 8 4 8 8 8 8 7 3 8 7 8 3 7 8 8 8 8 8 8 7 8 8 8 8 8 8 8 8 8 8 8 8 8 8 8 8 8 8 8 8 8 8 8 8 8 7 8 8 8 8 8 8 8 7 8 8 8 8 8 4 8 8 8 8 7 3 8 8 8 8 8 8 8 8 8 8 8 8 8 7 ",
"8 8 8 8 8 8 8 8 8 8 8 8 8 7 8 8 8 8 8 8 8 8 8 8 8 8 8 8 8 8 8 8 8 7 8 8 8 8 8 8 8 8 8 8 8 8 7 8 8 8 7 8 8 8 8 8 8 8 7 8 3 8 8 8 8 7 8 8 8 7 8 8 8 8 8 8 7 8 8 8 8 8 8 8 8 8 8 8 8 8 ",
"8 8 8 8 8 8 8 8 7 8 8 8 8 8 8 8 8 8 7 8 8 8 8 8 8 7 8 8 8 7 3 8 8 8 8 8 8 8 7 8 8 4 8 8 8 8 3 7 8 8 8 8 8 7 8 8 4 8 8 8 7 8 8 8 8 8 8 8 8 8 8 8 8 8 7 8 8 8 8 8 7 8 8 8 8 8 8 8 8 8 ",
"7 8 8 8 8 8 8 8 8 8 8 8 8 8 8 8 8 8 8 8 7 8 8 8 8 8 8 8 8 7 8 8 8 8 8 8 8 8 8 8 8 7 8 8 7 8 4 8 8 7 8 8 8 3 7 8 8 8 8 8 8 8 8 7 8 8 4 7 8 8 8 8 7 8 8 8 8 8 8 8 8 8 8 8 8 8 8 8 8 8 ",
"8 8 8 8 8 7 8 8 8 4 8 7 8 8 8 8 8 8 7 3 8 8 8 8 8 8 8 8 7 3 8 7 8 8 8 7 8 7 8 8 8 3 8 7 8 8 8 8 8 8 7 3 8 8 8 8 7 8 4 8 8 8 8 8 8 8 7 7 8 8 8 8 8 8 8 8 8 8 8 4 8 8 8 8 8 8 7 8 7 8 ",
"8 8 8 8 8 8 8 8 8 8 8 8 8 8 7 7 7 8 8 8 8 4 8 8 7 8 8 8 8 8 8 8 8 8 8 8 8 3 8 8 8 8 8 8 8 8 8 8 7 8 8 8 8 7 8 8 8 8 8 8 8 8 8 8 8 8 7 8 7 3 7 8 8 8 8 3 8 8 8 8 8 8 4 8 8 8 8 8 8 8 ",
"8 4 8 8 8 8 4 8 8 8 8 8 8 8 8 3 8 8 8 8 8 8 8 8 8 8 8 4 8 8 8 8 4 8 8 8 8 7 8 8 8 8 8 8 8 8 8 8 8 8 8 8 8 8 8 8 8 8 8 8 7 8 8 8 8 8 8 8 8 8 8 8 8 7 8 7 8 7 8 8 8 8 7 8 8 8 8 8 8 8 ",
"8 8 8 8 8 8 7 8 8 7 8 8 8 8 7 3 8 8 8 8 8 8 8 8 8 8 8 8 8 8 8 8 8 8 8 8 8 8 7 8 7 8 8 8 8 8 8 8 8 8 8 8 8 8 8 8 8 8 8 8 3 8 8 8 8 8 8 8 8 8 8 8 8 8 7 8 8 8 8 8 8 7 4 8 8 8 8 8 4 8 ",
"8 8 8 8 8 8 8 8 8 7 8 8 8 8 8 7 8 7 8 8 8 7 8 8 8 8 8 8 8 7 8 8 8 8 8 7 8 8 3 7 8 8 8 8 8 8 8 8 8 8 8 8 8 8 7 8 8 8 7 8 7 8 8 8 8 8 8 8 8 8 8 8 8 8 8 8 8 8 7 3 8 8 8 8 8 8 8 4 8 8 ",
"8 8 8 8 7 8 8 8 8 3 8 8 8 8 8 8 8 8 8 8 8 8 8 8 8 8 8 8 8 8 8 8 8 8 8 8 8 8 7 8 8 8 8 8 8 7 8 8 8 8 3 8 8 8 8 8 8 8 8 8 8 8 8 8 8 4 8 8 8 8 4 8 8 8 8 8 8 8 7 8 8 8 8 8 8 8 8 8 8 8 ",
"8 8 8 8 4 8 8 8 8 8 8 8 7 8 8 8 8 8 8 7 3 7 8 8 8 7 8 8 7 3 8 8 8 8 8 8 8 8 8 8 8 8 8 4 7 3 8 8 8 8 7 7 8 8 8 4 8 8 7 3 8 8 7 8 8 8 8 7 8 8 8 8 8 8 8 4 8 8 8 8 8 8 8 8 7 8 8 8 8 8 ",
"7 8 8 8 8 8 8 8 8 8 8 8 8 8 8 8 8 8 7 8 8 8 8 8 8 8 8 8 8 8 7 8 7 3 8 8 8 7 8 8 8 8 8 8 7 8 8 8 8 8 8 8 3 8 8 8 8 8 8 8 8 7 3 7 8 8 7 8 8 8 7 8 8 8 8 8 8 7 8 8 8 8 8 8 8 8 8 8 8 8 ",
"8 4 8 8 8 8 8 8 4 8 8 8 7 8 8 8 3 7 8 8 8 8 8 7 8 8 8 8 8 8 3 7 8 7 8 7 8 3 8 8 8 8 8 8 3 8 8 8 8 8 8 8 7 8 8 8 8 4 8 8 8 8 8 8 8 8 4 8 8 8 8 8 7 8 8 8 4 8 8 8 8 8 8 8 8 8 8 8 8 8 ",
"8 8 8 8 8 7 8 8 8 8 8 7 8 8 8 8 8 8 8 8 4 8 8 8 8 8 7 3 8 8 7 8 8 8 8 8 8 8 7 8 8 8 8 4 7 8 8 7 4 8 8 8 8 8 8 7 8 8 8 8 8 8 8 8 8 8 8 8 8 8 8 8 8 8 8 8 8 8 8 8 8 8 8 8 8 8 7 8 8 8 ",
"8 8 8 8 8 8 8 8 8 8 8 8 8 8 4 8 8 8 8 8 8 8 8 8 8 8 8 7 8 8 8 8 8 8 8 8 8 8 8 8 7 8 8 8 8 8 8 8 8 8 8 8 7 8 8 8 8 8 7 8 7 8 8 8 8 8 8 8 8 8 8 8 8 8 8 8 8 8 8 8 8 7 8 4 4 8 8 8 8 8 ",
"8 8 8 8 8 8 8 8 8 8 8 8 8 8 8 8 8 8 8 8 7 8 8 8 8 8 8 8 7 8 8 8 8 8 7 3 8 8 4 8 8 8 8 8 8 8 8 8 8 8 8 8 7 8 8 8 8 8 8 8 8 8 8 3 4 8 8 8 8 8 8 4 4 8 8 8 8 8 8 8 8 8 8 8 8 8 8 8 8 8 ",
"7 8 8 8 8 8 8 4 8 8 8 8 7 3 8 8 8 4 8 8 8 8 8 7 8 8 8 8 8 8 8 8 8 8 8 7 8 8 8 8 8 8 8 8 8 8 7 8 7 8 8 8 3 8 8 8 8 8 4 8 8 8 8 7 7 8 8 8 8 8 8 8 8 8 8 8 8 8 8 8 8 8 8 4 8 8 8 8 8 8 ",
"8 4 8 8 8 8 8 8 7 7 8 7 8 7 8 8 8 8 8 8 3 8 8 8 7 8 8 8 8 8 8 4 8 8 8 8 8 8 8 8 8 8 8 8 8 8 8 8 3 8 8 8 8 7 8 8 8 7 8 8 8 8 8 8 8 8 8 8 8 8 8 8 8 7 8 8 7 4 8 8 7 8 8 8 8 8 8 8 8 4 ",
"8 8 8 8 7 8 8 8 4 7 8 8 8 8 8 8 8 7 8 8 7 8 8 8 8 8 3 7 8 8 8 8 8 8 8 8 8 8 8 7 8 8 7 7 3 8 8 8 7 8 7 8 8 8 8 8 8 8 8 8 8 8 7 8 8 8 8 8 7 8 8 8 8 8 8 8 8 8 8 8 8 8 8 8 8 8 8 7 8 8 ",
"8 8 8 8 8 8 8 8 8 8 4 8 8 8 8 8 4 8 8 8 8 8 8 4 8 8 8 8 8 8 8 7 7 8 8 8 8 8 8 8 8 8 8 8 8 8 8 7 8 8 8 8 8 8 8 8 7 8 8 8 8 8 8 8 8 8 8 8 8 8 8 8 7 8 8 8 8 8 8 8 8 7 8 8 8 7 8 8 8 8 ",
"8 8 8 8 8 8 8 8 8 8 8 8 8 8 7 8 8 8 8 7 8 8 8 8 8 8 8 8 8 8 8 6 8 8 8 7 8 8 8 8 8 8 7 8 8 4 8 8 8 8 4 8 8 8 8 8 4 8 8 8 8 7 8 8 8 8 8 7 4 8 8 8 8 8 8 8 8 8 8 8 8 8 8 8 8 8 8 8 8 8 ",
"8 8 7 4 8 8 8 8 8 8 8 8 8 8 8 8 8 8 8 8 8 8 7 8 8 8 8 8 8 8 8 8 8 3 7 8 7 8 8 4 8 8 8 8 8 8 8 8 8 8 8 8 8 8 8 8 8 8 8 8 8 8 4 8 8 8 8 8 8 8 8 8 8 8 8 4 8 8 8 8 8 8 8 8 8 8 8 8 8 8 ",
"8 8 8 8 8 8 8 4 8 8 7 8 8 8 8 8 8 8 8 8 8 8 8 8 8 8 8 8 8 8 8 8 8 8 8 8 8 8 8 8 8 8 8 8 8 8 8 8 8 8 8 8 8 8 8 8 8 8 8 8 8 8 8 8 8 8 8 8 8 8 8 8 8 8 8 8 8 8 8 4 4 8 8 8 8 8 8 4 8 8 ",
"8 8 7 8 8 8 8 7 8 7 8 8 8 8 8 8 8 8 8 8 8 8 8 8 8 8 8 8 8 8 8 8 8 8 8 8 8 8 8 8 8 7 8 8 8 8 8 8 8 7 8 8 8 8 7 4 8 8 8 8 8 8 7 8 8 8 8 8 8 8 8 8 8 8 4 8 8 8 8 7 8 8 8 8 8 8 8 7 8 8 ",
"8 8 4 8 8 8 8 8 8 8 8 8 8 8 7 8 8 8 8 7 8 8 8 8 8 8 8 8 8 8 8 7 8 8 8 7 8 8 8 8 8 8 4 8 8 8 7 8 8 8 8 4 8 8 8 8 8 8 7 8 8 8 8 8 8 8 8 4 8 8 8 8 8 7 7 8 8 8 8 8 8 7 8 8 8 8 8 8 8 8 ",
"8 8 8 8 8 8 8 8 8 8 8 8 8 8 8 8 8 8 8 8 8 8 8 8 5 8 8 7 8 8 8 8 3 7 8 8 8 8 7 8 8 8 8 7 8 8 8 8 8 8 8 8 7 8 8 8 8 8 8 8 4 8 8 8 8 8 8 8 8 8 8 8 8 8 8 8 8 8 8 8 8 8 8 8 8 8 8 8 8 8 ",
"8 8 8 8 7 8 8 8 8 8 4 8 8 8 8 8 4 8 8 8 8 8 8 8 8 8 8 8 8 7 8 8 8 8 8 8 8 8 7 3 8 8 8 8 8 8 8 8 8 8 8 8 8 8 8 8 8 8 8 8 8 8 8 8 8 8 8 8 8 8 8 8 8 8 8 8 8 8 8 8 8 8 8 8 4 8 8 8 8 8 ",
"8 8 8 8 8 8 8 8 8 8 7 8 4 8 8 8 8 8 8 8 8 8 8 8 8 8 8 8 8 8 8 8 7 8 8 8 8 7 8 8 8 8 8 7 8 8 8 8 8 8 8 8 8 8 8 8 8 7 8 8 8 7 8 8 8 8 8 8 8 8 8 8 8 8 8 8 8 8 8 8 8 4 8 8 8 5 8 8 8 8 ",
"8 8 8 4 8 8 8 8 8 8 8 8 8 8 8 8 8 8 8 8 8 8 8 8 8 8 8 8 8 7 8 8 8 8 8 8 8 8 8 8 8 8 7 3 8 8 8 8 8 8 8 8 8 8 8 8 7 4 8 8 8 3 8 8 8 8 8 8 8 8 8 8 8 8 8 8 8 8 8 8 8 7 8 8 8 8 8 8 8 8 ",
"8 8 8 8 8 8 7 8 8 8 7 8 8 8 8 8 8 8 8 8 8 8 8 8 8 7 7 8 8 8 8 8 8 8 8 8 8 8 4 8 8 8 8 8 8 8 8 5 8 8 8 7 7 8 8 8 7 7 8 8 7 7 8 8 8 8 8 8 8 7 7 8 8 7 8 8 8 8 8 8 8 8 8 8 8 8 8 8 8 8 ",
"8 7 8 8 8 8 8 8 8 8 8 8 8 8 7 > 7 4 8 3 8 4 8 4 7 7 7 7 7 6 7 8 8 7 3 7 8 8 8 8 8 8 8 8 8 8 2 2 3 8 5 7 8 7 8 8 8 8 8 8 7 7 7 7 8 3 8 8 7 > 8 3 4 4 8 5 * 2 3 8 4 7 4 8 8 w 7 8 8 8 ",
"8 8 4 7 8 8 8 8 8 8 8 8 8 7 7 7 w * * * * * 7 7 8 7 7 8 8 6 8 3 8 8 8 8 4 7 8 8 8 8 8 8 8 w w w * w * * 8 8 8 8 8 8 8 8 7 7 7 7 8 9 8 8 w = w w w w * * * * w w * * w 2 8 7 8 8 8 8 ",
"8 8 8 8 4 8 8 8 8 8 8 8 8 0 + s.#X.XoXoXOX&X4.+ p 5 0 6 6 6 8 8 8 8 8 8 8 8 8 8 8 8 8 3 7 .XoXoXOXoX.X#Xb ; 8 8 8 8 7 7 7 7 8 8 8 8 O 6.&X.XXXoXXXOXoXXXOXoXOXoX.X#X/.@ 0 8 8 8 8 4 ",
"8 8 8 8 8 8 8 8 8 8 8 8 8 0 . d.$XoX@X@XoX&X7.. q 6 8 6 8 8 8 8 8 8 8 8 8 8 7 8 8 8 8 3 w oX#X@X@X@X@X&Xv ; 9 8 8 8 8 8 8 8 8 8 8 9 . 8.&XXX+XoX@XoXoX#X+X+X+XoX@X%X^.& 0 8 8 8 8 8 ",
"8 8 8 8 8 8 8 7 8 8 8 8 8 0 . d.$XoX+X+XoX&X7.. q 7 5 0 6 8 8 8 8 8 8 8 8 8 8 8 8 8 7 3 * OX@XoX@X@X.X&Xv > 8 7 7 8 8 8 6 8 8 8 8 0 . 6.&XoX+X#X+X+X+X+X+X+X+X+XoX$X^.. 8 8 8 8 8 8 ",
"8 8 8 8 8 8 8 8 8 8 7 8 8 0 . s.&X+X+X+XOX&X8.. q 8 8 6 8 8 8 8 8 8 7 8 8 8 8 8 8 8 8 3 w oX@X+XoX+XoX&Xv ; 9 9 3 8 7 8 8 8 6 8 7 0 . 8.&XoX+X+X+X+X+XoX+X+X+X+XoX$X^.+ 0 8 8 8 8 8 ",
"8 8 7 8 8 8 7 8 8 8 8 8 8 7 . s.&XoX+XoXoX&X8.. 9 3 8 3 8 8 8 8 8 8 8 7 3 8 8 6 8 8 8 8 7 oX@XoX#XoXoX&Xb ; 3 3 8 8 8 7 8 8 6 8 7 q . 5.&XoX+XoX+X+X+X+X+XoX+X+X+X$X^.# i 8 8 8 8 8 ",
"8 8 4 8 8 8 8 8 8 8 4 8 7 0 . d.$XOXoX+XOX&X7.. q 7 8 p 9 8 8 8 8 8 8 7 8 8 9 0 9 8 0 0 = oX@XoXoXoXXX$Xv : 0 5 8 2 7 7 8 9 0 8 7 q . 5.&X.XoXOXoX.XOXOXoXoXoXoXoX#X^.@ 9 0 0 0 0 0 ",
"8 8 8 8 8 8 4 8 8 8 8 8 7 0 . s.&X@X#XoXoX&X4.  % # # # + > 8 4 8 8 7 2 8 8 + $ % @ # # . oX#X+X#X#X@X&Xb > 8 5 7 w 7 7 > + $ % $ %   5.&X%X&X&X&X&X&X&X&X$X&X&X$X&X X  > + $ # $ @ ",
"8 8 4 8 8 8 8 8 8 8 8 8 7 9 + p.}._._.'.).).F.C.Z.Z.Z.C.S.0.# 9 8 8 7 8 > c T.V.C.C.C.C.C.)._._._._.(.}.x % 8 w 5 8 9 $ 9.D.V.V.V.V.D.^ e v v v r r v v v v v b v r Z A.C.C.C.Z.C.Z.",
"8 8 8 8 8 8 8 8 5 8 8 8 8 q + y.`.W.W.W.W.W.`.`.`.[.`.`.{.p.@ 8 8 8 8 8 % x }.`.`.`.`.].`.W.W.!.!.!.E.'.x % 7 5 5 6 0 - p.{.`.].].`.}./   % - > % % % : : % % % > + c }.`.`.`.`.`.`.",
"8 8 8 8 8 8 8 7 8 8 8 8 8 9 $ y.[.W.!.!.W.!.`.W.W.W.W.Q.'.u.@ 9 8 8 8 0 5 x `.W.W.W.!.W.W.W.W.!.!.!.W.[.m > 7 8 8 8 p O p.].~.~.W.E.{./ # q 0 u 7 8 8 0 6 6 7 6 8 > c [.Q.~.W.W.W.W.",
"8 8 7 8 8 8 8 8 8 8 8 8 8 0 @ i.'.W.!.!.!.!.W.W.`.W.`.W.[.u.@ 9 7 8 3 8 > x ].W.`.~.W.`.W.`.!.!.!.W.E.'.x > 7 8 0 8 9 + u.].Q.Q.~.W.[.^ + 0 8 6 0 5 8 8 0 6 7 0 9 % x [.E.W.`.~.W.`.",
"7 8 8 8 8 8 8 8 8 8 8 8 8 8 @ u.[.W.!.Q.!.(.W.W.~.W.Q.`.'.u.@ q 4 8 9 3 > c [.W.!.!.W.W.`.W.~.W.W.~.W.[.c % 0 8 2 8 0 O k.].~.`.!.Q.[.~ # 7 8 i 9 3 8 8 8 8 5 5 8 > x [.W.~.`.W.`.W.",
"8 8 8 8 4 7 8 8 8 8 8 8 8 0 + u.].W.W.W.W.W.`.~.~.W.`.E.[.u.@ 9 8 8 8 9 > x [.W.`.!.W.~.W.`.W.~.~.~.Q.[.x % 8 3 8 i 8 @ u.[.W.W.!.Q.{.~ + 9 8 8 3 8 u i 8 8 7 5 8 > x ].Q.W.W.W.W.~.",
"8 8 8 8 8 8 8 8 8 8 8 8 8 9 + u.[.W.W.W.W.W.W.W.W.Q.Q.Q.`.y.# p 9 9 8 i 8 x `.E.Q.Q.W.W.E.W.W.W.~.W.Q.[.c & 8 9 i 8 9 @ u.'.E.~.!.Q.{.~ + 9 3 8 3 8 8 8 i 8 8 8 0 # x [.W.W.`.W.W.W.",
"8 8 8 8 8 8 8 8 8 8 8 8 8 0 ; i.[.!.`.`.`.~.'.[.[.[.[.[.|.a.  # - - , - X c |.).[.[.[.[.[.`.W.`.`.`.!.[.x 7 8 8 6 6 9 @ u.[.W.`.!.!.[.~ @ 9 3 3 8 8 8 8 8 8 8 8 8 > m [.W.`.W.`.~.`.",
"4 8 8 8 8 8 8 8 8 8 8 8 4 9 @ r.E.H.H.H.H.U.9.C J V V B B E w.2.r.r.e.r.r.+.B V V V V B V J.I.I.J.J.H.E.x > 8 8 8 8 0 @ w.E.H.H.U.H.E.Q @ 9 8 8 7 * 7 8 3 8 8 8 7 2 n E.J.H.H.I.J.I.",
"8 8 8 8 8 8 8 8 8 8 8 8 8 9 - e.L.B.K.K.N.U.! X 2 @ % > X C W.L.I.I.L.I.E.j.+ > > ; # # > G.G.K.K.K.B.L.n 2 7 8 5 8 8 @ q.I.B.K.K.B.U.Q - 9 5 8 7 7 7 8 8 8 8 8 8 2 n I.N.K.G.G.K.K.",
"8 7 8 8 4 8 8 8 8 8 8 8 3 9 - r.U.B.K.K.K.U.Q ; p 8 p 8 2 H I.K.K.K.K.B.P.h.; 9 8 8 7 8 9 G.L.K.K.K.K.I.n > 8 7 5 7 8 ; q.I.K.L.K.B.U.Q - 0 8 8 * 7 7 7 8 8 3 9 0 > n U.K.K.K.K.K.K.",
"8 8 8 8 8 8 8 8 8 8 8 3 4 9 - e.U.K.K.K.K.U.Q - 8 9 8 8 ; G U.B.K.K.K.K.L.j.> i 9 8 8 8 9 K.K.K.K.K.K.I.m % 0 7 7 7 0 ; q.I.K.K.K.K.I.Q - 8 8 8 5 8 8 8 8 8 8 8 8 > n R.K.K.K.K.K.K.",
"8 8 8 7 8 8 8 8 8 8 8 8 8 0 - q.P.K.P.K.B.Y.Q @ 0 5 8 0 - H R.B.K.K.K.K.K.j.: i 0 8 8 8 9 B.K.K.K.K.B.Y.n % 7 5 8 8 9 : e.L.K.K.P.M.Y.Q $ 6 5 8 8 8 8 8 8 8 8 8 8 > n I.B.K.K.K.K.K.",
"8 8 8 8 8 8 8 8 8 8 8 8 3 0 @ q.P.K.K.K.B.Y.Q - 0 6 8 8 % H I.B.M.K.K.N.P.t.> 6 6 6 7 8 3 K.K.K.K.K.B.Y.n % 0 7 8 8 9 - e.I.K.K.K.K.Y.Q @ 0 6 0 8 8 8 i i 8 8 5 0 > n I.B.K.K.K.K.K.",
"8 8 8 8 8 8 8 7 2 8 8 8 8 9 - r.Y.P.K.P.G.Y.O.- 8 8 6 8 % H W.I.R.R.R.I.E.k.: 6 8 8 7 5 i P.P.K.P.K.K.P.n 5 8 8 8 8 9 : g.I.K.K.P.K.Y.O.- 0 8 8 8 8 8 6 3 8 8 8 8 % n Y.L.K.P.K.K.P.",
"4 8 8 8 8 8 8 4 8 8 8 8 8 8 : -.M.n.m.m.n.M.W - 7 0 0 6 4 c O.! O.Q ! ! Q E > 0 9 8 7 5 i n.m.n.m.m.n.M.k > 8 8 8 2 9 < -.M.m.m.m.n.M.W - 0 7 8 8 8 7 5 8 8 8 8 8 > k M.n.m.m.m.m.m.",
"8 8 8 8 8 8 8 8 8 8 8 8 6 0 : #.l.2.2.3.,.x.R 1 8 3 8 8 8 4 # ; - @ : - - > w 7 6 8 8 8 u g.l.c.2.c.,.x.k 6 6 8 8 7 0 , #.z.,.l.2.,.x.T : 8 8 8 8 8 7 w 8 8 7 8 8 5 k b.2.l.c.2.3.3.",
"8 8 8 8 8 8 8 8 8 8 8 8 6 0 1 *.x.c.c.c.c.x.T 1 9 i 8 4 7 7 9 i 9 i i 9 8 8 5 8 8 8 8 5 i z.c.c.c.v.c.v.l 5 0 8 7 7 8 , #.x.c.c.c.c.m.T 1 9 8 8 8 8 7 7 8 8 8 8 6 5 l v.l.c.c.c.v.c.",
"8 7 8 8 8 8 8 8 8 8 8 8 8 0 , %.b.c.c.c.c.m._ , 8 8 8 8 7 7 8 3 9 8 8 8 8 8 5 7 8 8 i 6 u l.v.c.c.c.c.b.f > 6 8 8 7 9 , &.b.l.c.v.c.b.T , 9 0 8 8 8 w 8 8 8 8 8 8 5 l v.c.c.c.c.c.c.",
"8 8 8 8 8 4 7 8 8 8 8 8 8 6 t &.b.c.c.c.c.b._ 1 9 8 8 w 7 7 8 8 8 2 0 8 8 8 7 8 8 8 8 6 i 2.c.c.c.c.c.b.M 5 7 8 8 8 8 < #.x.c.v.c.c.b.T , 8 8 8 8 6 5 8 8 7 8 8 0 > l b.3.c.c.v.c.c.",
"8 8 8 8 8 8 8 4 8 8 8 8 8 i 1 #.b.c.c.c.c.b.T 1 8 8 i 8 7 8 8 8 8 8 8 8 8 8 8 8 8 8 8 8 i l.v.,.c.c.c.b.k 5 0 5 8 8 0 , #.z.l.c.,.,.b.T , 6 6 7 6 6 6 6 8 7 7 8 6 2 l b.c.c.c.c.c.c.",
"8 4 8 8 8 8 8 7 8 8 8 8 8 8 , &.b.c.c.b.c.m.T 1 i 8 8 8 8 8 8 8 8 8 8 8 8 8 8 8 8 8 8 4 i l.v.v.c.c.b.b.l > 8 8 8 8 8 1 =.n.v.v.v.b.m.T t u 6 2 6 6 u u 6 2 6 2 6 1 l m.c.b.c.b.v.v.",
"8 8 8 8 8 8 8 8 8 8 8 8 8 0 1 @.,.>.:.>.:.2.Y 1 8 8 8 8 7 8 8 8 8 8 8 8 8 8 8 8 8 8 8 5 i 1.>.:.<.<.<.,.g 2 6 0 8 8 i 2 R =.#.%.#.%.=.T h j j j g g g j j j j l l g A *.#.#.#.*.*.#.",
"8 8 8 8 8 7 8 8 8 8 8 8 6 0 2 I [ ] ' ' | ` A 2 6 8 0 6 7 8 8 8 4 7 8 8 7 8 4 8 8 8 8 8 u [ ] ] | | ] } h 6 8 8 8 8 8 6 2 , t t , t t A %.@.@.o. .@.o.o.o.o.o.o.o.o.Y , 1 1 1 2 1 t ",
"7 8 8 8 8 8 8 8 8 8 8 8 8 8 t I ` } o.;.} o.S u 7 4 8 7 8 6 8 8 8 8 8 8 8 8 8 8 8 8 8 8 i [ } } } [ } o.s 5 w 5 8 7 8 7 0 8 i 9 6 i u S o.] { ] [ [ ] } { { ;.{ } [ ) 6 0 6 0 i i 8 ",
"8 8 8 8 8 7 8 4 7 8 8 8 8 8 t I o.] ;.;.{ o.S 1 8 8 8 7 w 8 8 8 7 8 8 8 8 8 8 8 8 8 8 5 i [ } } } } } } f 5 8 8 7 8 7 5 8 9 3 3 6 0 t S $.] [ } } } } } } } { { } } ) 2 7 8 6 8 8 8 ",
"8 4 8 8 8 8 8 8 4 8 8 8 8 9 t L o.{ { ;.} o.S t 8 8 8 5 8 8 8 8 8 8 8 8 8 8 8 8 8 8 8 5 i [ } } [ } } } s 5 8 8 8 8 7 5 8 3 3 i 8 0 1 S o.] } [ } } } } } o.| { } } ( 2 7 8 8 7 8 7 ",
"8 8 8 8 8 8 8 8 8 8 8 8 8 8 t K o.{ { ;.} @.S 2 0 8 7 8 8 8 4 8 8 8 8 8 7 8 8 8 8 8 7 5 i [ } } } } ] o.s 5 8 8 8 8 5 w 8 8 8 8 8 7 2 S o.{ } } } } ] } } } { o.} ;.( 2 7 8 8 8 8 8 ",
"3 8 7 8 7 8 8 8 3 8 8 8 3 9 y L o.} } ] ] ..D t 8 8 8 8 8 8 8 8 8 8 8 8 8 8 8 8 7 8 8 5 u ` } } } } } ..s 5 8 8 8 6 6 8 7 8 8 7 7 7 t S $.{ } } } } } } } } } } ;.;.) 2 7 7 7 8 8 8 ",
"7 8 8 8 3 8 8 8 7 8 8 8 7 8 y U o.[ } } ..@.A 3 9 6 8 8 8 8 8 8 8 8 8 7 8 8 8 8 8 8 8 5 6 ` } } ;.;.X.$.d > 0 8 8 6 0 6 8 8 8 7 7 6 u S $.} ;.} o.} } } } } } } X.;.) 2 7 8 8 8 3 9 ",
"8 8 8 8 7 8 8 8 8 8 8 8 8 8 2 F ( U ) ) Y T M 6 8 8 8 8 8 8 8 8 8 8 8 8 4 8 8 8 8 8 8 5 i U ) ( ( ( ) Y a 8 8 8 8 8 8 8 8 8 8 8 7 6 2 l _ ( ( ) ) ( ( ( ) Y ( ( ) ) P 3 8 8 8 8 8 8 ",
"8 8 8 8 8 8 8 7 8 7 8 8 8 8 7 4 > 6 6 2 2 2 8 8 8 8 8 8 8 8 8 8 8 8 8 8 8 8 8 8 8 7 8 7 2 t t 2 2 2 > 2 5 7 4 3 8 8 7 7 8 8 8 8 7 7 6 6 6 2 2 > 6 t 2 2 5 2 6 2 2 2 2 8 8 8 8 8 8 8 ",
"8 8 8 8 3 7 8 8 8 8 8 8 8 8 4 7 0 5 6 0 6 6 8 5 7 7 5 8 8 8 8 8 8 8 7 8 7 8 8 8 8 8 8 7 8 9 8 0 8 7 0 6 8 7 7 9 8 8 8 8 7 8 8 8 0 6 5 8 0 8 8 0 6 6 0 6 w 5 8 8 8 0 8 8 8 8 8 8 8 8 ",
"8 7 8 8 8 8 8 8 8 8 8 8 8 8 7 8 8 6 0 6 6 0 7 7 7 8 7 8 8 8 8 8 8 8 8 4 4 8 8 8 8 8 8 7 4 3 8 6 8 5 6 0 8 4 7 8 i 8 8 8 3 8 8 8 5 0 8 8 8 8 8 3 8 8 0 8 8 8 8 8 8 7 7 8 8 7 7 8 8 3 ",
"8 8 8 8 8 8 8 8 8 8 7 3 8 8 8 8 8 8 8 6 6 8 8 8 7 7 8 8 8 8 8 3 8 8 8 8 8 8 8 8 8 8 8 8 8 7 8 8 7 8 6 8 8 8 8 8 8 8 8 8 8 8 8 8 8 8 8 8 8 8 8 8 8 6 6 8 8 8 8 4 8 7 7 8 8 8 8 8 8 8 ",
"8 4 8 8 8 7 8 8 8 8 8 7 8 8 8 8 8 8 8 8 8 8 8 8 8 8 8 8 8 8 8 8 8 8 8 8 8 8 8 7 8 8 8 8 8 8 8 7 8 8 8 8 8 8 8 8 8 8 8 8 7 8 8 7 8 8 8 8 8 8 8 8 8 8 8 8 8 8 8 7 8 8 8 8 8 8 8 8 8 8 ",
"8 8 8 8 8 8 8 8 8 8 8 8 8 7 8 8 8 8 8 8 8 8 8 8 8 8 8 8 8 8 8 8 8 8 8 8 8 8 8 8 8 8 8 8 8 8 8 5 8 8 8 8 8 8 8 8 8 8 8 8 8 8 8 3 8 8 8 8 8 8 8 8 8 8 8 8 8 8 8 8 8 4 8 8 8 8 8 8 8 8 ",
"8 8 8 7 8 8 3 7 8 8 8 8 8 4 8 8 8 8 8 8 8 8 8 8 8 8 8 8 8 8 8 8 8 8 8 8 8 8 8 8 8 8 8 8 8 8 8 8 8 8 8 8 8 8 8 8 8 7 8 8 7 8 8 8 8 8 8 8 8 8 8 8 8 8 8 8 8 8 8 8 8 8 8 8 8 8 8 8 8 8 "
};
