/* XPM */
static char *ves[] = {
/* columns rows colors chars-per-pixel */
"90 90 196 2 ",
"   c #17165C",
".  c #201F59",
"X  c #1F205A",
"o  c #23225C",
"O  c #1D1D61",
"+  c #161664",
"@  c #1C1C75",
"#  c #1F226A",
"$  c #252464",
"%  c #262862",
"&  c #282965",
"*  c #25256C",
"=  c #27286B",
"-  c #2A2A6D",
";  c #35356E",
":  c #262672",
">  c #282772",
",  c #272971",
"<  c #2B2B73",
"1  c #23237B",
"2  c #27287B",
"3  c #2C2D7B",
"4  c #28277F",
"5  c #302F76",
"6  c #312F7A",
"7  c #2E3175",
"8  c #2F317B",
"9  c #323376",
"0  c #3A3877",
"q  c #323278",
"w  c #383779",
"e  c #37387C",
"r  c #39397B",
"t  c #383575",
"y  c #53537E",
"u  c #4A4B7A",
"i  c #2C2D82",
"p  c #292A86",
"a  c #2F3283",
"s  c #333482",
"d  c #333489",
"f  c #37388F",
"g  c #38398E",
"h  c #383981",
"j  c #3C3D94",
"k  c #3C3C9C",
"l  c #373795",
"z  c #3C3CA0",
"x  c #3F4097",
"c  c #3F4098",
"v  c #44458E",
"b  c #4A4A8D",
"n  c #535485",
"m  c #555589",
"M  c #454594",
"N  c #4B4A92",
"B  c #42429B",
"V  c #4B4B97",
"C  c #504F9C",
"Z  c #56559A",
"A  c #59599B",
"S  c #595998",
"D  c #65678E",
"F  c #68688F",
"G  c #646490",
"H  c #686992",
"J  c #78799E",
"K  c #4645A4",
"L  c #4A4AA4",
"P  c #4646AA",
"I  c #4847AB",
"U  c #4648AA",
"Y  c #4948AA",
"T  c #514FA3",
"R  c #5352A3",
"E  c #5C5BA0",
"W  c #5E5DAC",
"Q  c #5252A8",
"!  c #4F4FB9",
"~  c #514EB1",
"^  c #5351B4",
"/  c #5C5BB7",
"(  c #5454BD",
")  c #5B5ABC",
"_  c #5857BD",
"`  c #6363AD",
"'  c #7B7BA5",
"]  c #6B6AB1",
"[  c #6C6BBB",
"{  c #6564BD",
"}  c #7877BA",
"|  c #7A79BB",
" . c #7E7DB7",
".. c #5554C2",
"X. c #5956C5",
"o. c #5E5BCF",
"O. c #5757D6",
"+. c #5957D6",
"@. c #5B5AD6",
"#. c #5A57DA",
"$. c #5B5ADB",
"%. c #5756D7",
"&. c #615FCF",
"*. c #615ED4",
"=. c #605DDA",
"-. c #5F60D2",
";. c #6C6CC1",
":. c #6261CE",
">. c #6D6DCE",
",. c #6866CC",
"<. c #7373C1",
"1. c #6361D3",
"2. c #6D6DD2",
"3. c #7272D4",
"4. c #7675DE",
"5. c #7979D6",
"6. c #5E5BE1",
"7. c #7C7BE0",
"8. c #7776F6",
"9. c #7976F5",
"0. c #7D7BF2",
"q. c #817FF7",
"w. c #827FFB",
"e. c #8D8FB3",
"r. c #908EB3",
"t. c #9192B3",
"y. c #8A8AC7",
"u. c #8989C9",
"i. c #8686C8",
"p. c #8583D6",
"a. c #8584DA",
"s. c #8B8ADB",
"d. c #8D8CD4",
"f. c #9796D9",
"g. c #9897DA",
"h. c #9A99DA",
"j. c #A0A0D8",
"k. c #BAB9D4",
"l. c #B6B6D3",
"z. c #8E8EE6",
"x. c #8382E5",
"c. c #918FE4",
"v. c #8F90E2",
"b. c #9191E3",
"n. c #9898E8",
"m. c #9594E5",
"M. c #8381F5",
"N. c #8C8BF6",
"B. c #8382FD",
"V. c #8986FC",
"C. c #8788FC",
"Z. c #8C8AFD",
"A. c #908DFE",
"S. c #9191F6",
"D. c #9393FB",
"F. c #9E9DFE",
"G. c #9997FE",
"H. c #A09DF6",
"J. c #A29FFB",
"K. c #9FA0FB",
"L. c #A6A6E6",
"P. c #A7A8E8",
"I. c #A9A9E4",
"U. c #A3A0F7",
"Y. c #ABA9F4",
"T. c #A4A2FD",
"R. c #AAA7FE",
"E. c #ADABFD",
"W. c #B1AFFF",
"Q. c #AFB0FF",
"!. c #B3B1FF",
"~. c #B8B7FD",
"^. c #BDBDFD",
"/. c #B8B6F5",
"(. c #C0BFFF",
"). c #BFC1FF",
"_. c #CCCCE4",
"`. c #C5C5F2",
"'. c #C9C7F5",
"]. c #C8C8F6",
"[. c #C3C2FF",
"{. c #C7C8FC",
"}. c #CBCBFF",
"|. c #CCC7F8",
" X c #CFD0FA",
".X c #D3D3FF",
"XX c #DADAFF",
"oX c #E4E6F9",
"OX c #E7EAFC",
"+X c #EDECFD",
"@X c #E7E7F9",
"#X c #F0EEFF",
"$X c #EEF0FF",
"%X c #F3F3FF",
"&X c #F6F8FE",
"*X c #FCFDFF",
/* pixels */
"q q q q q q 9 q q q q q 5 q q q q q q q 9 q q q 9 q q q q q q q q q 9 q q 6 9 q 5 q q q q 9 q q q q q q 6 9 q q q 9 q 9 q q q q q q q q q q 9 q q 9 q q q q q q 9 6 q q 6 q q q q q ",
"q q q q q q 5 q q q q q q q q q 9 q q q q q q q 6 9 q q 9 q q q 5 q q q q q 9 q q q q q q q q q 9 q q q q 9 q q q q q q q q q 9 q q 5 q q q 6 q q q q q 9 q q q q 9 q q 9 9 q q 9 q ",
"q q q q q q q q q q q q q q 9 q q q q q 6 q q q 6 q 9 q q q q q q 9 q q 9 q q q q q q q q q 9 9 q q 9 6 q q 9 q q q q q q q q 6 q q q q 9 q q q q q q q q q 5 q q q q q q 9 q 9 9 q ",
"q q q q 9 q q q q q q 9 9 q q q q 5 q q 9 q 9 q 9 q q q 9 6 q 9 q q q q 6 q q q q q 9 q q q q 6 q q q 9 q q q 9 q q 5 q 9 q q 9 9 q q q q q q 9 q 9 6 9 q q q q q q 9 q q 6 q q 6 q ",
"q q q q q q q q q q q q 5 q q q q 9 q q 6 9 q q q 9 q q q 9 q q q q q 9 9 q q q 9 q 6 q q q q q 9 q q q 9 6 q 6 q q q q q q q q q q 9 9 q q 9 6 q q q q q q q q 9 q 6 q q q q q q q ",
"q q q q q q 5 q q q q q q q q q q q q q 9 q q q q q q q q q q q q q q q q q 9 q q q 9 q 9 q q 9 q q q q q 9 q q q 9 6 9 q q q q q q q 6 q q q 9 9 q q 9 6 9 q q q q 9 q 9 q q q 9 q ",
"q q 9 5 q 9 q q 9 q q 5 9 q q q 6 9 9 q q q q 9 q q 9 9 q 9 6 q 9 6 q q q 5 q q q q q 9 q q 9 6 6 q q q q q q q q 9 q q q 9 5 q 9 q q q q 9 q q q 6 9 q 9 q q 9 q q q q q q 9 6 q q ",
"q q q q q q q q q q q q q q q q q q q q q q q q q q q 6 q q q 9 q 9 q q q q q q q q 9 6 q q q q 9 q 9 q q q 9 q q q q q q q q q q 9 6 q q q q q q q q q q q q q q q 9 q q q q 9 q q ",
"q q q q q q q q q q q q q q q 5 q q 5 q q q q q q q q q q q q 9 q q 9 q q q 9 q q q q 9 q 9 q q q q q q q q 6 q q q q q q 9 q 9 q q 9 q q q q q q q 9 q 6 q 9 q q q q 5 q q 9 9 q q ",
"q q 5 q 5 9 q q 9 q q q 9 q q q q q q q 9 q q 9 9 q q 9 q q q q q q q q q q 6 9 q q q q q q q q 9 q q 9 9 q 9 q q q 9 q q 6 q q q q 6 9 q q 9 q q 9 6 q 9 q q q q q q q q q q 6 q q ",
"q 9 q q 9 9 q q 5 q q q q q q q q q q q q q q 6 6 9 q q 9 6 q q q 9 q q q q 9 6 q q q q 6 9 9 q q q 9 6 q q 9 q 9 q q q 9 6 q q q q q q q q q q q q q q q q q q q q 9 q 9 q q q q 9 ",
"q q q q 9 q q q q q q q 9 q q q 9 q q q q q q 9 q q q q q 9 q q q 6 9 q 9 q q q q 5 q q q q q q q q q q q q q q 6 9 q q q 9 q q 9 q q q 9 q 6 9 9 q q q 9 q q 9 9 q q q q q q q q q ",
"q q 9 q 5 q q q q q q q q q q q q q 9 q q q q 9 q q 9 q q q q q q q q q q q q q q q q q q q q q 6 q 9 q 6 9 9 q 9 q q q q q q 9 q q 9 9 q q q q q q 6 9 q q q 9 q q 9 q 6 9 q 5 q q ",
"q q 6 q 9 q q q q 5 q 9 q q 5 9 q q 6 9 q q q 6 q q 6 q q q 5 q q q 9 q q q q 9 9 q q 9 9 q q q 9 q q q q q q q q q q q q q q q q q q 6 q q 9 q q q 9 q q q q 6 q q q q q q q q q q ",
"q q 9 q q q q q q q q q q q q q q q 9 6 9 q q 9 q 9 9 q 9 q q q 9 6 9 q 9 q q q q q q 6 q q q 9 q 9 q q q q q q 6 9 q 9 q q q q q q q q q q q q 9 q q q q 9 q 9 6 q 9 q q 9 q q 9 q ",
"q 9 q q q q 9 q q q q q q q q q 9 q q q q q q q q q q q q q q 9 q q q q 6 9 q q q q q 9 q q 9 6 q 6 q 9 q q 9 q q q q q q 5 q q 9 q q q 5 q 9 6 q q q q q q q 6 9 q q q q q q q 6 9 ",
"q q q q q q q 6 q q q q q q 9 q q q q q q q 9 q q q q q q q 9 6 q q 9 q 9 6 q q q 9 q q 9 q 9 6 q 9 q q q q q q 9 6 q 6 9 q q q q q 5 q q 9 q q q q q q q q q q 5 9 q q q q q q q q ",
"q q q q q 9 q 9 q q 5 q q q 6 q q q 9 9 q q 6 q q q q 9 6 q q q q 9 6 q q q 9 q q q q q q q q q q q q q 9 q q q q 9 q q q 9 q q q q q q q q q 9 9 q q q q q q 9 q q q q q 5 q q q 9 ",
"q q q 9 q q q q 9 q q q q q q 9 9 q q 6 q 9 9 q 6 9 q q 9 9 q q q q q q q q q q q q 9 q q q q q q q q q 9 q q 9 q q q q q q 9 q q q q q q q 9 6 q q 9 6 q 9 q q q q 9 q q q q 9 q q ",
"q 5 q q q q q 9 q q q 9 9 q q q q q q q q q q q 9 q q q q q q q 9 q q q 9 q q 9 6 q 6 9 q q 9 q q q 5 q 6 q q q q q 9 q q q 9 6 q q 9 q q q q q q q q 9 q q q 5 q q q q q q q q q 5 ",
"q 9 q q q 9 q q q q q 6 q q 6 9 q q q 9 q 9 6 9 q q q q q 5 q q q 6 9 q q q q q 9 q q q 9 q q q q 9 q q q 9 q q 9 6 9 q q q q q 9 q q q q q q 9 9 q q q 9 6 q q q q q q q q q q q q ",
"6 q q q 9 6 q q q q q 9 q q 9 q q q q q q q q q 9 6 q 9 q q q q q q q q 5 q q q q 9 q q 6 9 q q q q q q q q q q q q q q 9 q q q q q 6 9 q q q q q q q q q 9 q q q q 9 q q q q q q q ",
"9 q q 9 q q q q q 9 q q q q q q q q 9 q q q q q 9 q q q q q q q 9 q 9 q q q q 9 q q q 9 q q q 9 q q 9 9 q q 9 q q q q q q q q 5 q q q q q 5 q q q 9 q q q q q q q q q q 5 q q q 9 q ",
"q q 9 6 q q q 9 q 9 6 q q 9 q q q q 6 q q 9 q q q q q q 9 q 9 q 6 q q q q q q q q 9 6 q q q q q q q q 6 q q 6 9 9 q q 9 q q q q q q 9 q q q q q q 6 9 q q q 9 q q q 5 q 9 q q q q q ",
"q q q q q q q 9 6 q q q q q q q 5 9 q q 6 9 q q 9 q q q 6 9 q q q 9 5 q q q q q q 5 q q q q q q 9 q q q 9 q q q q q q 9 q 6 9 q q q q q q q 6 9 q q q q q q q 9 q q 9 9 q q q q q q ",
"q 9 q q 9 q q q 9 q q q 9 6 q 9 q q q q q 9 q q q q 9 q q 9 q q q q q q q q q 9 q q q q q 9 q q 6 q q q q q q q q q q q q q q q q q 9 q 6 q q 9 q q 9 q q q 9 6 q q 5 9 q q q q q q ",
"q q q q q q q q 6 q 9 q 9 q q q q q q q q q q 9 q q 6 9 q q q 9 q 9 q q 6 q q q q q q q q q 9 9 9 q q 9 6 9 q 9 q 6 9 q 9 q 9 q 9 q q q 9 q q q q q q q q q q q q q q q q q q q q q ",
"q q q 5 9 6 q 9 9 q q q q q q q q q q 9 q q q q q q q q q q q q q q q q 9 9 q q q q 9 q q q q 6 q q q q q q q q q 9 q q 6 q q q 6 9 q q q 9 q q q 5 9 6 q 9 q q 9 q q q q q 9 5 9 q ",
"q 9 q q 9 q q q q 9 q q 9 q q 9 6 9 q q q q q q 9 q q 9 6 9 6 9 q 9 q 9 q q q 9 9 q 6 q q q q q q 9 q q q q 5 q q q q 9 9 q q q q q q q q q q 9 q q q 9 q q q 9 6 q 9 q q q q q q q ",
"q q q q q q q q q q q q q q q q 9 q q 9 q 9 q q q q q q q q q q q 6 q q q q q q q q 9 q 9 q q 9 q q 9 6 q q q q q q q q q q 9 q 9 6 9 q q q q q q q q q q 9 q q 9 q q q 9 q q q q q ",
"q 9 q 9 q 9 6 q q q 9 9 q q q q q q q 6 q q q q 6 q q q q q 9 q q q q q 9 9 q q q q q 9 q q 9 6 q q q q q q q q 9 6 q q 5 q q q q q q q 9 6 q q 6 q q q 9 6 q q q q q q q q q q q q ",
"q q q 6 q q 9 q q q q 6 q q 5 q q q q 9 q q q 5 9 q 9 q q q q q q 9 q q q 6 q q q 9 q 6 q q q q q q 9 q 9 q q q q 9 q q q q q q q 9 q q q 9 q q 9 9 q q q q q q 9 q q q 9 q q 5 q q ",
"9 q q q q q q 9 9 q q q q q q 9 q 9 6 q 9 6 q q 9 q q q q q q 9 q q q q q 9 q q q q q q q q 9 q q 6 9 q q 9 6 q q q q q q 9 6 9 q q q 9 q q q q q q 9 q q q 5 q q q q q q q q q q q ",
"q q q q q q q q 5 q q q q 5 q q q q 9 q q 9 q q q q q q q q q q q q 9 q q 6 q 9 9 q q q q q q q q q q 9 q q 9 q 9 q q 9 q q q q q q q q q q q q q q 5 q q q q q q q q 5 q q q q q q ",
"q q q q 9 5 q q q q q 9 q q q q q q q q q q q q q 6 q 9 q 5 9 9 9 q q q q q q q 9 q q q 5 9 q q q 9 q q q q q q q q 6 q q q q q q q q q q 5 q q q q q q 9 q q q q q q 9 q q q q q q ",
"q q q q q q q q q q q q q q q q q q q 9 q q 9 q q 9 q q q q 5 q 6 9 q q q q q q 6 q q 9 q q q q 6 q q q q 9 q q q q 9 q q 9 q q q 5 q q q 9 q q q q q q q q q q 9 q q q 5 q q 9 q q ",
"5 q q q q q q q q q q q q q q q 9 q q q q 6 9 q q 9 q q q q q q q q q q q q 9 q 5 9 9 q q 5 q q 9 q 5 q q q 9 q q q q q q 9 q 9 q 7 q q q q q q q q q q q 9 q q q q q q q q q q q q ",
"q q q q q q 5 q q q q q q 5 q q 6 9 q q q 9 q q q q q q q q q 9 9 q q 9 5 q q q 9 q q q q q q q q q q q q q 6 q q q q 9 q 6 q q q 9 q q q q q q 9 q q q q q q q q q q q q q q q q q ",
"q q q 9 q 9 q q q q 9 q q 9 q q q q q 9 q q q 9 q q q q q q q q 6 9 9 q q q q q q q 9 q q q q q q q q q 9 q q 9 5 q q q 9 6 q q q q q 9 q q q q q q q q q q 9 q q 9 q q q q 9 q q q ",
"9 q q q q q q q q q 5 q q q q q q q q q q q q q q 5 q q q q q q q q 6 q q q 9 q q q q q q q q q q 9 q q q q q q q q q q q q 9 q q q q q q q q q q q q 5 q q 5 q q q q 5 9 q q q q q ",
"5 q q q q 9 q q q q q q q q q q 5 q q q q q q q q q q q q q 5 q q 9 q q 9 q q q q q q q q q q q q q q q q q q q q q q q q 9 q q q q q 9 q q q q 5 q q q q q q q q 9 9 q q q q q q q ",
"q q q q 9 6 q q q q q q q q q q q q q q q q 9 q q q q q q q q q q q q q q q q q 9 q q q q q q q q q q q q q q q 9 q q q q 6 q q q q q q q q q q q 9 q q q q q q 5 9 q q q q q q q q ",
"q q q 9 q q q q q q q q q q q q q 9 q q q 9 q q 9 q q q q 9 q q q q q q q q q 9 q q 9 5 q q q 9 q q q q q q q q q q q q q q 9 q 9 q q q q 8 q q q q q q q q q q q q 9 q q q q q q q ",
"q 9 6 q 9 q 9 5 q q 7 7 7 9 q q 6 q q 9 q 9 < q 5 q 5 q 5 9 q q 7 q q q q 9 5 9 q q q 5 q 5 6 6 q < q 5 q 7 8 7 q 5 6 6 6 q q q 9 9 q q q q q 9 9 q q 9 7 9 q t 5 9 q 5 q 5 q 7 q < ",
"q q q q q t q 9 t ; ; ; ; ; t 9 q e q q 9 q 9 ; ; ; ; ; t 9 9 t q q 8 q q 9 t ; ; ; ; ; ; ; ; ; ; ; ; ; t ; ; ; ; ; ; t q q q 9 7 9 9 q q q q 9 9 t q 9 ; ; ; ; ; ; ; ; ; t t ; ; ; ",
"9 q q q q t o _.%XOXOX+XOXoX*XD = q 8 q w X e.*XoX+XOX@X&Xk.o 0 7 q s q > n &X@XOXOXOX+X#X+X+X+X+X+X+X+X+XOXOX+X+X+X@X*XF % t 7 q q q q q q 9 q q q * ' *XoXOXOXOX+X+X+XOXOX+XOX+X+X",
"9 9 q q q w o _.&X+X%X+X$XOX*XF % q q q e $ t.*XOX%X#X+X&Xk.. 0 q q q e - n *X+X+X$X$X#X#X#X#X#X#X#X#X#X#X%X#X%X#X+XOX*XD % t 7 q q q q q q q q q q # ' *X+X#X#X#X#X#X#X$X+X%X%X#X#X",
"9 8 q 8 q w % _.&X#X+X#X%XOX*XD & 0 q 9 w o t.*XOX+X#X+X*Xk.o 0 q q q q - y *XOX#X#X#X#X#X#X+X#X#X+X#X#X#X$X+X+X$X$XOX*XF = q q q q 9 9 q q q q q q $ ' *X@X#X#X#X#X#X#X%X#X#X+X+X+X",
"q 8 8 q q e $ _.&X#X#X+X#X+X*XG $ t q q e $ r.*X+X#X#X+X*Xk.. w q q 9 9 - y *X+X#X#X#X#X+X+X+X+X+X+X+X+X#X#X+X+X+X+XOX*XF & e 6 q q q q q q q q q e * ' *X@X%X#X#X#X#X+X#X#X#X+X+X$X",
"q q 8 q q w $ _.&X+X#X#X#X@X*XH = q q q q $ t.*X+X#X+X+X&Xk.o w q s q q - y *X@X#X#X#X#X%X+X%X%X#X%X+X#X#X+X#X#X+X#XOX*XF $ q 6 s q q q q q q q e s * ' *X@X#X#X#X#X#X%X#X+X%X+X#X+X",
"q q e 8 q q $ _.&X+X+X#X#X@X*XD & e q q w . t.*X@XOX#X@X*Xk.. r q 3 q t < n &X@X+X+X+X+X+X+XOXOX+XOX+X+X@X+X+X+X+XOXoX*XF & e 6 q q q q q e q q q e * ' *X@X+X+X@X+XOXOX@XOXOX+XOX+X",
"q q 9 9 q w & _.*X+X#X#X%X+X*XH % q 9 q w . t.*X+X%X%X+X*Xk.o w q q t 9 > m *X#X#X%X%X#X#X*X*X*X*X*X*X*X*X*X*X*X*X*X&X*XH & 9 6 q q q 5 = = = & = =   ' *X%X*X*X*X*X*X*X*X*X*X*X*X*X",
"q q q q q e * I.}.'.].'.'.`..XS - q q q q $  .XX`.'.'.`..Xj.$ s q q e 8 < b .X`.'.|.|.'.{.n n n n n n n m n n n n n n m 0 6 q q 9 q - ] /.L.L.P.P.P.Y.e.u m n n n n n n n n n n n n ",
"q q q q q q : P.{.^.^.(.^.^.{.A < q q 7 q * } {.~.^.^.^.{.g.* h q 8 7 8 3 N }.(.^.(.^.(.^.- = , > > < < < < - < - 5 > > q q q q 9 q = | }.[.[.{.{.(..Xy.  < < > - > > - > - < - > < ",
"s q q q q q : P.{.^.^.^.).^.}.E > q q q h * } .X^.(.(.^.{.g.* q 9 7 w e < V {.^.^.(.(.^.^.e 9 q 9 q q q 9 q q q 6 6 q e 3 8 e q 9 w * } }.^.[.^.^.^.{.u.* e 6 q q q q q q q q q q q ",
"q q q q q e * P.{.^.(.(.).^.}.A > s q q q * | }.^.^.(.^.}.g.$ e 9 7 7 8 < b {.^.[.).^.(.^.t q q q q q q 6 9 q q 9 9 9 q s q q q 9 t $ } |.^.^.^.^.^.}.u.* e q q q q q q q q q 9 q 9 ",
"9 9 q q 8 e * P.[.(.(.(.(.^.}.S * q q h h * } }.^.[.^.^.{.h.* q 7 w q q < b }.^.^.^.).^.).7 q 7 9 6 q q q 9 q 6 q 9 9 9 q q 8 8 t w = } }.^.[.^.).^.}.u.= e 7 8 q q q q q q q q q q ",
"9 9 q q 8 e * P.[.(.(.(.^.^.}.A - e q q q * | }.^.(.^.^.}.g.* e 7 9 q 7 < b }.^.).[.^.).).9 9 9 9 6 e 6 q 9 9 6 9 9 6 9 q q q q q q $ } {.^.).^.^.^.}.u.# e 8 7 8 q q q s q q q q q ",
"9 9 q q q q * P.{.^.^.(.^.^.}.A * q q 9 q $ } .X^.^.(.~.{.h.* e 9 9 w w - b }.^.(.(.^.[.^.e q w w q s s w w e e w e q h q q q 9 t q * } {.^.^.^.^.~.{.u.= h q s e 8 e 7 q q q q 9 9 ",
"q 9 q q q e * I.{.(.(.(.(.^.}.E - q q t e * | }.^.(.(.(.}.g.* q q q 7 q < N {.).(.(.(.(.^.< : * : : : : : : > > : : : : 8 q q 9 q q *  .XX}.|.}.}.|.XXy.+ 3 , : , : , 8 q q q q q q ",
"9 9 9 9 q q < m.~.Y.E.W.E.E.~.Z > q q q e * [ ~.Y.W.E.Y.!.d.* e q q q s < N ~.E.W.Y.Y.E.E.p.a.a.a.q.i.q.p.p.q.p.i.q.p.s.N < e q 9 q 5 v E Z A A S S S ] s.a.a.a.a.s.<.< q 9 t q q q ",
"q 9 9 q 6 e 2 c.R.U.U.U.U.H.E.C < w q q s > [ W.n.T.J.J.E.i.* h q q 6 q 8 M E.F.U.T.R.U.U.W.E.E.W.E./.Y.W.W.Y.Y.Y.W.E.~.R < s q q 9 w 5 - - - < - < O W ^.R.R.E.E.!.n., q 9 q q q q ",
"q q q q q s < b.E.T.R.T.T.U.!.C < q q q q : [ W.J.R.R.J.E.p.: s q q e q < M E.U.T.T.T.T.T.T.J.J.J.J.H.J.T.J.J.T.J.R.H.W.R 2 q q 9 9 9 q q w s 6 q e > W W.H.K.T.T.R.c.: q 9 q q q 7 ",
"q q q q q q < v.R.T.T.T.T.F.!.R < q q 6 e : [ W.T.T.T.T.E.p.: e q q q q < N E.T.T.T.R.T.T.T.R.J.R.R.J.R.T.T.R.T.T.J.T.W.T 2 q s 6 9 9 q q 6 q 6 s e * / W.J.T.R.T.R.c.3 e q 9 9 q q ",
"q q 7 q q q < b.E.T.T.T.T.K.Q.R , q 8 9 e * [ Q.T.T.R.K.Q.p., s q 9 9 9 7 v E.K.T.T.T.T.E.K.K.K.R.K.T.T.T.T.T.T.T.T.T.W.T < e 3 q 9 w 7 9 q 8 q q e , W W.H.R.J.J.W.c.2 q q q 7 w 7 ",
"q q q q q q , z.R.T.T.T.T.K.Q.Q < e q 7 q , [ Q.K.T.T.K.E.a.2 q q 9 9 9 - v Q.K.T.T.K.T.K.K.K.R.K.K.T.U.U.T.F.T.T.H.F.E.T < q q 9 9 9 9 9 9 q q q q = W E.J.J.J.J.R.c.4 s q e 8 8 e ",
"q q q q 8 e , m.E.T.T.T.R.K.Q.Q < q w 7 q : ;.!.T.T.T.T.Q.x.: q q 9 7 t - N Q.K.E.K.E.R.T.Q.Q.Q.Q.Q.Q.Q.W.W.W.!.E.!.E.^.R : e 5 t 9 9 9 9 q q q q 9 = ` (.W.W.W.W.~.n.@ 3 2 2 3 2 2 ",
"q q q q q q , x.G.D.D.D.D.S.K.L < q q q q : { K.S.S.D.D.F.5.2 q q q q q 7 x F.S.D.D.S.D.S.;.[ [ <.[ [ [ [ [ [ [ [ [ [ <.v 6 6 q q 9 9 9 9 9 9 9 q t - N <.{ [ [ [ { [ ) ) / ) ) ) ) ",
"q q 9 9 q q 3 4.B.q.q.M.q.0.N.K 3 q e 7 8 2 / N.q.q.q.q.C.>.2 e q q q q < x V.w.q.B.M.M.x.2 , # : : : : * : * : > * < : 3 q q q q q q q 9 q 9 9 q q q 3 : > : * > * f D.Z.N.Z.Z.Z.Z.",
"q q 9 q q q 2 7.V.B.B.B.B.M.N.K 3 8 8 8 e 2 ) A.B.B.B.B.C.>.2 q q q 8 q < c A.w.B.B.B.C.N.a e 9 q e q s e e q q q 9 e q q q q q q q q q q q 9 q q e q q e e q q e < B V.M.M.B.B.B.B.",
"q q 9 q q 8 , 7.Z.B.B.B.B.B.S.L 3 q 8 8 8 , _ A.B.B.B.B.Z.3.2 s q q q q - B A.w.B.B.B.B.M.a 8 9 q q q q q q t q 9 q 9 9 q q q q q q q q q q 9 q q q 3 q q q q q q 7 x Z.w.B.B.B.B.B.",
"9 q q 9 8 8 1 7.Z.B.B.B.B.q.Z.L 3 7 7 e e 2 ) Z.w.B.B.B.Z.2.2 s q q q 9 < M Z.w.B.B.B.B.M.a 8 7 q s q q q q q q q q 9 q 9 q q q q q q q q q 9 q q q q q q q 9 q 6 < x Z.B.B.w.B.B.C.",
"q q q 8 8 q 3 7.B.B.B.0.B.B.C.Y 3 8 7 w q 2 ) Z.B.B.B.B.Z.2.2 s q q q q 7 x Z.w.B.B.B.B.M.d 8 7 q q s q q q q e q q q q e 8 q 9 8 q q q q t q q q 8 q e 9 t 9 q 8 3 c C.B.B.B.B.B.B.",
"q q q q q e , 7.Z.Z.Z.Z.C.C.D.U p a 8 < s 1 ) D.V.V.Z.V.D.3.i q 8 s q q - x Z.V.B.B.C.C.C.p i 3 i i i i 3 8 6 3 i i 3 3 q q q q q q q q 3 3 3 3 8 i i 8 3 a 8 3 8 3 c D.C.C.C.C.C.C.",
"q q q q q q < { 3.2.2.2.2.>.3.I l z k k k l ^ 3.>.2.2.2.2./ 3 q q q q q 7 x 0.9.8.8.8.8.8.z c c k z k k j j k c k k k c d q q 7 q q 8 f x k z k k k z z z z z z k k K 3.2.2.2.2.2.2.",
"q q q s 6 q q 2 2 2 2 2 2 p 1 ^ 1.-.@.*.@.2.P 1 2 4 2 2 2 3 s q 9 q s q 7 g @.O.O.O.-.O.O.-.:.:.&.*.1.1.:.:.:.1.&.1.1.,.k a q q q q 3 L ,.1.1.1.1.1.1.@.-.1.1.-.-.1.( 1 2 p 2 i i p ",
"9 9 9 6 9 q q w e q q q 8 s a ! -.@.#.$.6.@.U a q q q q w q q q 9 9 9 q 7 f %.6.-.%.%.6.$.O.O.@.$.#.#.#.+.@.#.%.+.+.O.:.k 3 a 9 9 q 3 K *.+.%.$.@.@.+.$.#.$.%.%.#.@...q 8 e 8 q s 8 ",
"q q 9 q 6 q 9 9 q q 9 q 8 e 3 ^ 1.#.6.$.6.-.U i w q q 5 t q q q 7 9 9 q 7 l -.6.$.$.$.-.$.$.@.%.$.$.6.$.@.#.$.$.$.$.%.&.k a s q 7 e i I *.+.$.$.$.+.$.$.$.$.$.$.@.6...3 w 7 e 7 q 7 ",
"q 9 t q q 6 e 6 9 9 t q q q a ! 1.@.#.$.%.-.U 3 q e q q q q q q 7 9 8 8 7 f -.6.$.%.$.-.$.%.$.6.$.6.$.$.$.$.$.$.$.$.$.&.k i 8 q q s i I 1.#.$.$.$.$.#.$.%.%.-.$.$.6...8 7 q q 9 9 q ",
"q q 9 q q q s 6 9 9 q q q s p ! $.$.$.$.%.-.U 8 q 8 6 9 9 q q q w 9 7 7 7 x -.$.$.6.%.6.$.$.$.$.$.$.#.#.$.$.$.$.6.$.$.&.j 8 8 q q q 2 I 1.#.#.$.$.$.$.$.$.-.$.$.$.6...3 w q q q q 9 ",
"q 8 w 7 q q q q q q s q q q i ! 1.$.$.$.@.-.U i 8 q q q q t q q q 9 q q 8 f 1.$.$.$.6.$.$.$.6.6.$.6.$.$.$.6.$.$.$.$.+.:.k 3 7 9 9 t 3 Y -.$.$.$.6.$.#.$.$.@.$.#.6.6.X.3 t q 9 q q q ",
"8 8 7 w 8 q q 9 q q q q q q i ( -.$.-.$.@.1.U a q 8 q q q 9 q q 9 9 q q 3 f 1.@.=.$.6.$.$.6.6.$.$.-.$.-.$.-.$.$.6.6.+.1.c i q q 9 q i U -.$.-.$.$.$.$.$.-.6.$.$.$.6.X.3 q q q q q q ",
"8 q q 7 7 q q 8 q q q 8 q w 3 L X.! X.....X.K 3 e q q q q q q s q 9 q q 8 f ) ( ....X.X...........( ( ( ( ( ( ......( ) j 3 q q 9 q 3 B X.( ....X.( ........( ..X.X.~ 6 q q q q q q ",
"s q 9 9 9 q q q q q q 9 9 9 9 < 7 a 3 i 8 3 < t 7 8 q 8 8 s q q 9 9 9 9 9 7 < 3 3 3 3 3 3 3 8 8 8 3 3 3 3 8 7 7 8 i 3 8 8 q 9 9 q q 8 8 8 a 8 2 8 8 3 3 8 8 3 8 3 3 3 q q q q q q q ",
"q q 8 9 9 9 q 9 q q q q q q q q 8 e q q q w q q 9 q q q 8 q q q q 9 9 9 q q 9 q q q 9 9 q q q 9 7 w 8 8 s 8 9 9 q q q e 7 9 q q q q q q e 8 q e 8 8 q q 9 9 9 9 q q 9 q q q 7 q q q ",
"q q 9 9 9 q q q 9 q s q q q q q 8 7 9 q 9 q q q q q q 7 8 q q q q q 9 q s q q q q q q q 9 q q 9 7 q s q q q 9 9 q q 7 q q q q q q q q q q 9 w 7 q q q q 9 q q q q 9 q q q q 9 q q q ",
"9 9 q q q q q q q q 8 q q q q 5 q 9 q 7 q 9 q q q q 9 q 9 q q 9 q q q q q q q q q q q q q q 9 9 q q q 8 q q 9 9 q q q q q q q q q q q q q q q q q q q q q q q q q 9 9 q q q q q q q ",
"q q q q q q q q q q q q q q q q q q q q q q q q q q q q q q q q q q q q q q q q q q q q q q q q q q q q q q q q q q q q q q q q q q q q q q q q q q q q q q q q q 9 q q q q q q q q ",
"q q 9 q q q q 9 q q q q q q 9 q q q q q q q q q q q q q q q q q q q q 9 q q 9 5 q q q 7 q q q q q q q q q q q q q q q q q q 7 q q q q q q q q q q q q q q q q 5 q q 5 q q q q q q q ",
"q q q q q q q q 5 9 q q q q q q q q q q q q q q q q q q q q q q q q q q q q q q q q q q q q q q q q q q q q q q q q q q q q q q q q q q q q q q q q q q q q q q q q q q q q q q q q "
};
