/* XPM */
static char *wall[] = {
/* columns rows colors chars-per-pixel */
"90 90 185 2 ",
"   c #5C5656",
".  c #5E5D5C",
"X  c #5D5758",
"o  c #625756",
"O  c #615E5D",
"+  c #685E5E",
"@  c #5F625E",
"#  c #62615F",
"$  c #68605E",
"%  c #635F60",
"&  c #685F60",
"*  c #5F6160",
"=  c #626160",
"-  c #696866",
";  c #6B6A68",
":  c #767776",
">  c #787777",
",  c #797876",
"<  c #797778",
"1  c #777878",
"2  c #797878",
"3  c #777975",
"4  c #BA3429",
"5  c #B73127",
"6  c #B72F24",
"7  c #FC1F0E",
"8  c #F71E0E",
"9  c #EF1E10",
"0  c #F21F13",
"q  c #FE1F13",
"w  c #C92E1F",
"e  c #D62B1C",
"r  c #DA2A1D",
"t  c #DF2717",
"y  c #F2220F",
"u  c #FE220E",
"i  c #E72516",
"p  c #EB2514",
"a  c #E2291B",
"s  c #EA2919",
"d  c #E92817",
"f  c #F42413",
"g  c #FD2212",
"h  c #F62816",
"j  c #FC2916",
"k  c #F4261A",
"l  c #F92418",
"z  c #F52B1C",
"x  c #FB2B1A",
"c  c #F5301E",
"v  c #C82F22",
"b  c #D32E23",
"n  c #DB2D21",
"m  c #CD3226",
"M  c #C63222",
"N  c #D13024",
"B  c #DE3527",
"V  c #E62F21",
"C  c #F62F21",
"Z  c #FC2E20",
"A  c #E83121",
"S  c #E93629",
"D  c #F53423",
"F  c #FB3222",
"G  c #F63B2C",
"H  c #FD3E2E",
"J  c #F03628",
"K  c #F43E31",
"L  c #FE3E31",
"P  c #DF463C",
"I  c #F3402E",
"U  c #FD402F",
"Y  c #E54333",
"T  c #EB4134",
"R  c #E4463B",
"E  c #EA4539",
"W  c #E0493F",
"Q  c #F54132",
"!  c #FC4132",
"~  c #FA4639",
"^  c #FD4C3C",
"/  c #F6473A",
"(  c #FE503D",
")  c #BF766D",
"_  c #DE574D",
"`  c #DD594D",
"'  c #FD4F41",
"]  c #E3564C",
"[  c #E85749",
"{  c #E1594D",
"}  c #E95B4E",
"|  c #E65747",
" . c #FF5545",
".. c #FE5846",
"X. c #FE5649",
"o. c #F7594B",
"O. c #FD5849",
"+. c #E25C51",
"@. c #EB5B50",
"#. c #DD6055",
"$. c #E96A5D",
"%. c #E66A5E",
"&. c #D56D63",
"*. c #DA6E67",
"=. c #C1746D",
"-. c #D27367",
";. c #DD7E79",
":. c #E56F64",
">. c #EA6D61",
",. c #E47266",
"<. c #E7776C",
"1. c #F07A6D",
"2. c #E67D73",
"3. c #E97E74",
"4. c #82827F",
"5. c #D4867E",
"6. c #DB8278",
"7. c #E38177",
"8. c #E68179",
"9. c #E8867C",
"0. c #848281",
"q. c #888585",
"w. c #8D8D8C",
"e. c #9A8785",
"r. c #928E8D",
"t. c #9A8884",
"y. c #8F918E",
"u. c #91908F",
"i. c #928F90",
"p. c #8F9190",
"a. c #919090",
"s. c #9B9A99",
"d. c #A4A3A3",
"f. c #B0AFAE",
"g. c #D18680",
"h. c #DE9186",
"j. c #D4958E",
"k. c #DD928A",
"l. c #D18F89",
"z. c #E38D84",
"x. c #EA8E85",
"c. c #E18E89",
"v. c #E09087",
"b. c #E19189",
"n. c #E59F97",
"m. c #EB9990",
"M. c #CAA49E",
"N. c #E7A29A",
"B. c #CEADA8",
"V. c #C9A9A4",
"C. c #C1B9B7",
"Z. c #C1BDBC",
"A. c #E6ABA3",
"S. c #EBABA2",
"D. c #F0AEA2",
"F. c #ECB4AC",
"G. c #EBB6AC",
"H. c #F0B0A7",
"J. c #E9B9B0",
"K. c #E6B8B2",
"L. c #BFC1BE",
"P. c #C1C0BF",
"I. c #C2C1C0",
"U. c #CFCFCF",
"Y. c #D0CFCE",
"T. c #D2C9C7",
"R. c #CFD0CF",
"E. c #D0D0CF",
"W. c #CFCFD0",
"Q. c #D0CFD0",
"!. c #CFD0D0",
"~. c #D2D2D1",
"^. c #DDDCDB",
"/. c #DEDAD7",
"(. c #E6C6C3",
"). c #E1E0DF",
"_. c #FFEEE6",
"`. c #FFEEEA",
"'. c #F2EEEB",
"]. c #FFF2E7",
"[. c #FFF2ED",
"{. c #FFF5F2",
"}. c #FFF9F5",
"|. c #FFF7F9",
" X c #FFFFFE",
/* pixels */
" X X X X X X X^.U.U.U.U.!.!.!.0.# # # # # # # # # = # # # = # # # # # # # # # # # # # # # # # # # # # # # # # # # # # # # = # # # = # # # = # # # # @ w.~.~.E.U.U.U./. X X X X X X X",
" X X X X X X X~.U.U.U.U.U.U.!.0.. # # # # # # # = # # # # # # # # # # # # # # # # # # = = # # # # = = = # # # # # # # # # # # # # # # # # # # # = = . w.~.E.R.R.U.U.^. X X X X X X X",
" X X X X X X X^.U.U.U.U.R.R.~.0.O # # # # # # # = = # # # # # = = # = # # # # = # # # # # # # # # = # # # # # # # # # # = # # # # # # # # # = # # # O w.~.E.U.U.U.U.^. X X X X X X X",
" X X X X X X X^.U.U.U.U.R.R.~.0.. # # # = # # # # # # # # # # # # # = # # # # = # # # # # # # # # # # # # # # # # # # # = # = # # # = # # = # # # # . w.E.U.U.R.~.U.~. X X X X X X X",
" X X X X X X X~.U.W.R.R.!.!.~.0.@ # # # # # # # # # # # # # # # # # # # # # # # # # # # = # = = = # = # = # # # # # # # # # # # # # = # # = # # # # # w.E.E.E.R.U.U.^. X X X X X X X",
" X X X X X X X^.U.W.W.R.!.!.~.0.. # # # # # # # # # # # # = # # # # # # # # # # # # # # = # # = # # # # = # # # # # # # # # # # # # # # # # # # # # . w.E.E.E.E.U.U.^. X X X X X X X",
" X X X X X X X^.U.U.R.R.R.!.~.0.@ # # # = # # # = = # # = = # # # # # # # # # = @ # = # # @ = = # # # # # # # # # # @ # # = # # # = # # # # # # # # @ w.E.E.E.E.U.U.~. X X X X X X X",
"^././.~./.^.^.q.: : 1 1 1 1 1 - # # = = # # # # # # # # @ q.).^.).^.^.).^.).^.).).^.).^.^.).^.^.^.).^.^.).^.).^.).^.).).q.@ = # = # # # # # # # # # # - , , , , : : w.^.^.~.^./.^.^.",
"U.U.U.U.U.U.Y.< . # @ O O # . # # # # # # # # # # # # # . p. X X X X X X X X X X X X X X X X X X X X X X X X X X X X X Xy.. % = # # # # # # # # # # # # . # O @ . . : W.W.U.U.U.U.U.",
"U.U.U.U.U.U.Y.1 O = # # # # # = # = # # # # = = # # = = . i. X X X X X X X X X X X X X X X X X X X X X X X X X X X X X Xi.. # = # # # # # # # # # = # # # # = # @ * : W.W.W.U.U.W.U.",
"U.U.U.U.U.U.R.1 @ # # # = # # # # = # # = # # # = # = = . a. X X X X X X X X X X X X X X X X X X X X X X X X X X X X X Xi.. # # # = = # # = = # # # # # # # # # % * : W.W.W.W.W.U.U.",
"U.U.U.U.U.U.Y.1 O = # # = @ # # # # # = # # # # # # = = . i. X X X X X X X X X X X X X X X X X X X X X X X X X X X X X Xi.. % # O # # # # # = # # # = # # = # @ = % : W.W.W.W.R.W.U.",
"U.W.W.W.~.W.W.1 # # # # = # # # # # # O # @ = = # # # O # a. X X X X X X X X X X X X X X X X X X X X X X X X X X X X X Xi.O % O @ # # O # % = = # # # # # # # # = . 1 Y.U.U.~.R.U.U.",
"~.~.~.~.~.~.~.2 @ # # # # # = . . . . . X . . . . . . .   a. X X X X}. X X X|. X X X X X}. X X|. X X X X X}. X|. X|. X Xr.X . . . . . . X . . . . . . . # # # # = @ 2 ~.~.~.~.~.~.R.",
"w.w.w.w.w.w.w.; O = = # = = @ d.I.I.I.I.f.I.L.L.I.I.Z.L.f.B.5.2.2.2.2.2.2.8.x.x.x.v.x.x.x.8.2.2.2.2.2.<.2.2.2.2.2.2.2.5.V.Z.P.P.L.I.I.L.L.L.I.I.P.I.I.s.. # # # = # ; w.w.w.w.w.w.w.",
". O . . . . . # # # = = = = . Q. X X X X X X X X X X X X XK.w i 9 y y f 0 k K K G I I G G p f y 9 y y f p p y 9 f 0 p v J.|. X X X X X X X X X X X X XP.. # # # # = # . . O . . . . ",
"= = # # # # # # # # # # # = O Y. X X X|. X X X X X X X X}.F.N f u u u u g x L H U H L L H l u u u u u u g u u g g u l b F.|. X X X X X X X X X X X X XP.. # # # # # # # # # # # # # ",
"= = # # # # # # # # = # # # . Y. X X X X X X X X X X X X}.F.N l u u u u g j H L U H L H H l g u u q g g u u u u u u h b F.}. X X X X X X X X X|. X X XP.. # # # # # # # # # # # # # ",
"= # # # # # # = # # # # # # O Y. X X X X X X X X X X X X}.F.N l u u u y g g H H L L L L H f g u g q q q u u u u u u h N F.}. X X X X X X X X X X X X XI.. @ # # # # = # # # # # = # ",
"# # = # = = # # # # = # # # . U. X X X X X X X X X X X X}.F.N k g u u u u j H ! H L H H H f g u u g g g g u u u g g h b F.}. X X X X X X X X}. X X X XP.. # # # # = = # # # # # # # ",
"# # = # # # # # # # # # # # . U. X X X X X X X X X X X|.{.F.b k g g g g q l L ! ! L L L H f g g g g g g g u u u g u h m F.{.}. X X X X X X X X X X X XI.. = # # # # # = # # # # # = ",
"# # # # # # # # # # # = # # . Y. X X X X X X|.}.{.{.{.{.].S.n p l g k f g x L Q ! ! L L H k f p p l l g g u u u u u f n D.`.{.{.{.}.}.|.|. X X X X X XI.. # # # # # # = # # # = # # ",
"= = # # # # # # # # # # # # . Q. X X X X X|.(.j.k.b.b.h.c.,.K G G G G G G G ^ ~ ^ ~ ^ ^ ~ H G G G G G H l g u g g g l s %.9.v.v.k.b.j.(.|. X X X X X XL.X # # # # # # # # # # = = # ",
"# # # # = = # # # # # # # # O Y. X X X X X}.j.5 b e r e r S .. . . . . . . ......... . . . . . . . . .^ c g u g g g g h s r e r e e 6 j.}.|. X X X X XI.. # # # # # # # # # # # # # ",
"# # # # # # # # # # # # # = O Q. X X X X X{.k.e s l g f s D .. . . .X. .X... .X..... . . . . . . ..... .z g g 7 q g u g g l g l f f e k.{. X X X X X XI.. # # # = # = = # # # # # # ",
"# # # # # # # # # # # # # = . Q. X X X X X{.v.r l q q g g c  . .....X. .O.X. ....... . . . . . . ... .( c g g q g g g g g l g u g g n h.{. X X X X X XI.. # # # = # # # # # # # # # ",
"= # # # # # # # # # # # # # . Y. X X X X X{.v.r g q q g j D  . ...X...o.O.X...X.X.X.O.X.......X... ... .c g u g g g u u q q g g g h r b.{. X X X X X XI.. # # # # # # # # # # # # # ",
"# = # # # # # # = = # # # # O Y. X X X X X[.v.e g q g g y D ^  .X. .X. .X.X.X. . .X.X. . . . . .X.X... .Z g 7 g g g u u g q g g g g r b.{.}. X X X X Xf.. # # = # # # # # = = = # # ",
"# # # # # # # @ . . . . . . o Y. X{.}.}.{.[.v.e k l f y y D  . . .X....... . . . . .X....... . . . . . .C g g g g g u g u 7 g g u g r 9.].[.{.{.}.}.|.C.X O . . . . . # = = = # # # ",
"# # # # # # @ q.i.a.a.a.i.a.t.B.K.G.F.F.F.F.,.S D D D D D I ' ^ ^ ' ' ' ^ ^ ~ ~ ! ! ! ! U ! U ! ! ! U ! z g g g g g g u q u q u g j p $.D.F.G.F.F.F.F.V.r.i.r.r.y.y.q.# = = = # = = ",
"# # # # # # # ). X X X X X X}.) 4 m b b e e T X. .( .. ...( U U L L H L ! F k g l f f h h h s f f f f g g g q u 7 g g g 7 g 7 g g g f d t N N N b b M 5. X X X X X X).@ = * = # # # ",
"# # # = # # = ). X X X X X|.[.-.r h f h f h K .. .( ..( ..^ U Q U ! H ! L G h g g u u y u u g g g g g u u u u g 7 u g g g q g g g g u u y f f h k k i ;.|. X X X X X).= @ @ # # # # ",
"# # = # # # = ^. X X X X X X{.&.a g q q u y G  . ...X. .X.' ~ L ! ! H H U H u u u u u u g u g g g g g g g g g u u u g g g g g g g g g g g g g q u u y 2.}. X X X X X).# # # # # # # ",
"= # # # # # # ^. X X X X X|.[.*.s g 7 g u f H X.X. . .X.X.' L L L H ! H H H f u g u u g g g g g g g g g g g g u g u u u u u u u g g g 7 g g g g u u y 2.}. X X X X X^.# $ # # # # # ",
"# # # # # # # ). X X X X X|.].&.a g g q g f H .. .X.o.X.X.' Q L L L ! H H F l u u u u u u g g g g q g g u u g u g u g g u u u g g g u g g u u g g u p <. X X X X X X^.$ $ + $ # # # ",
"# # # # # # = ^. X X X X X X[.&.a g g g g 7 G  .X.X.O.X.X.' L L L L L H H H l g g u u u u u u u g u u q g u g u u u g g g u g u g g g u u u u g g q 9 2.|. X X X|. X^.# = + O # # = ",
"= = # # # # # ^. X X X X X|.[.&.a g q q y f G .. . .o. ...^ K H L K K K G G f g l f f u g y f u y f q y g q g f 7 0 g f g u y 8 f q g u u g 7 g g q 0 3.}. X X X X X^.* = % % = # = ",
"# # # # = = # ). X X X X X}.[.-.B C C Z c V | 1.2.7.3.8.2.2.,.,.:.:.:.:.>.%.+._ ` _ { { _ ] ] ] _ _ _ { { ` { { { _ _ ] { | | ` { ] ] Y k u g g g g 0 2.|. X X X X X).= = = = = # # ",
"# # # # # # = ^. X X X X X X[.z.@.X.X.X. .| N.].[.[.{.}.{.{.{.{.{.[.{.[.{.{.{.{.[.[.[.[.{.[.{.{.[.{.[.[.[.[.{.[.[.{.{.{.{.{.[.[.[.[._.z.r u u u g u f <. X X X X X X).* @ @ # = # # ",
"# # # # = = = ^. X X X X X X{.c.@.X.X.X...%.N.{. X|. X X X X X X X X X X X X X X X X X X X X X X|. X X X X X X X X X X X X X X X X|.{.k.r g u u u g y 2.}. X X X X X^.@ @ # @ $ # # ",
"# # # # = = # ). X X X X X X{.c.@.o. .X.o.` A.|. X X X X X X X X X X X X X X X X X X X X X X X X X X X X X X X X X X X X X X X X X X{.b.r g 7 u u u y 2. X X X X X X^.# # $ # # # # ",
"# = = # # # # ^. X X X X X X[.c.+.O.X.X.X.{ A.|. X X X X X X X X X X X X X X X X X X X X X X X X X X X X X X X X X X X X X X X X X X[.h.r l g u u u f 2. X X X X X X^.# $ O $ # # # ",
"# # = # # # # ). X X X X X|.[.c.@.o.X.X.O.+.A.}. X X X X X X X X X X X X X X X X X X X X X X X X X X X X X X X X X X X X X X X X X}.[.h.r h u u u u 9 2.|. X X X X X^.= # # # # # # ",
"# = # # # # # ^. X X X X X X[.v.} X.X.X.X.+.S.}. X X X X X X X X X X X X X|. X X X X X X X X X X X X X X X X X X X X X X X X X X X X{.k.e g u g u u f 2. X X X X X X^.= # = = = # # ",
"# # # # # # # ). X X X X X|.].c.@.X.X...o.] N.|.|. X X|. X X X X X X X X X X X X X X X X X X X X X X X X X X X X X X X X X X X X X|.{.h.e g u g u g y 2.}. X X X X X^.# # # # # # # ",
"# # # # # # # ^. X X X X X X`.6.R L ~ ! ! | N.}.}. X X X X X X X X X X X X X X X X X X X X X X X X X X X X X X X X X X X X X X X X X{.h.e g g q g g f 2. X X X X X X).= # # # # # # ",
"# # # # # # # ^. X X X X X X{.;.E L H L Q P n.}.}. X X X X X X X X X X X X X X X X X X X X X X X X X X X X X X X X X X X X X}.|. X X{.b.r l g g g g f 2. X X}. X X X^.= # # = # # # ",
"# # # # # # # ). X X X X X|.[.;.R L H H L P n.}. X X X X X X X X X X X X X X X X X X X X X X X X X X X X X X X X X X X X X X X X X X{.h.e g 7 q u u y 2. X X X X X X^.= # # # = # # ",
"# # # # = # # ^. X X X X X X[.6.R U H H ! R n.}.|. X X X X X X X X X X X X X X X X X X X X X X X X X X X X X X X X X X X X X X X X X{.v.r g u g g u f 2.}. X X X X X).# = @ # # # # ",
"# # # # # # # ^. X X X X X X[.6.R H H U L R n.{. X X X X X X X X X X X|. X X X X X X X X X X X X X X X X X X X X X X X X X X X X X X[.b.r h g g g u 9 2. X X X X X X^.# = # # # # # ",
"# # # # @ # # ^. X X X X X X{.6.E L H ! ! P n.}. X X X X X X X X X X X X X X X X X X X X X X X X X X X X X X X X X X X X X X X X X}.{.h.r l u u g u f 2. X X X X X X^.# # # # # # # ",
"# # # # # # # ). X X X X X|.{.6.T L L ! ! R m.`.`.{.{.{.[.{.{.{.{.{.{.{.{.[.{.{.{.{.{.{.[.{.{.{.{.{.{.{.[.[.{.{.{.{.{.{.{.{.{.{.{.[.`.9.t g u u u u 8 2.}. X X X X X).# # # # # # # ",
"# # # # # # # ^. X X X X X X`.*.V z h h h k Y ] +._ ] _ _ { { { ] _ ] _ _ { { { ] ] { ` #.<.3.3.2.2.2.2.,.:.:.:.:.:.:.,.:.:.:.:.:.*.>.E h u u g u g 9 2. X X X X X X^.# # # # # # # ",
"# # # = # # # ^. X X X X X|.[.*.a g g u u u y f 0 q q g y u y u u 8 8 u u u u y g y y l p ' X.X. .o.o. ./ K Q K L K U H L L H K ! Q L F g u g g g u f 2.}. X X X X X^.# # # # # = = ",
"# # # # # # # ). X X X X X|.`.&.a g g u u u u u g u u u u g g u g g g u g g u g g g g g k  . .X.X.O.X. ./ ! ! ! ! ! ! U U U H ! ! ! H F h g g q g u 9 2. X X X X X X^.# # # = # # # ",
"= # # # # # # ). X X X X X X[.&.a g g g u g u u g g g u g g u g g g u g u g g u u g g g x ^ ' X.X.X.X...~ ! H U H H U U H U H L H H H D y u g g g g y 2. X}. X X X X^.# = = # = # # ",
"# # # # # # # ^. X X X X X|.].&.a g g l g g u 7 7 q g g g u g u g u g u g u g u g u u g l ( ..X.X.X. ...! H ! H H L L ! L ! H U U H H x g g g q g u p 2. X X X X X X^.= = = # # = # ",
"# = # # # # # ). X X X X X X].&.t g q g q q 7 u u g g g g g u g g g g g u u u g u g g g h ( .. .X.X. ...~ ! H H U H H H L L H U U U H F u u 7 u u u 9 2.|. X X X X X^.# = = @ # # # ",
"# = # # = # # ^. X X X X X|.[.&.b k h h l g g g g u g g g g u g g g g u u u g u u g g l h ( .. . . .....! ! L L ! U U H L L L L ! U ! F f g h h f u i 2. X X X X X X^.= = = = # # # ",
"# # # # # = # ). X X X X X X|.) 4 N b N m n s h g u u u g g g g g g g g u g g g l g l g x ^ .. . .X.....! ! H H H U U L L H H L H U ! S r N b b N m v 5. X X X X X X).% # = = # # # ",
"# # # # # # # q.r.a.i.i.a.i.e.B.J.G.G.G.G.D.$.i u u u g g u u g g g g g g g F H F F H F F ! ~ ~ ~ ' ~ ~ ! U H U H ! H H F x x x x c V ,.H.F.F.F.G.F.G.M.r.r.i.i.y.a.q.= = = = = # # ",
"# # # # # # # . . . . . . . o Y.}.{.{.{.{.].9.t g u u u u u u u g g g u u x H H H H H H L L L L L L K L H H U L L L ! H x g u g g k r 9.`.{.}.{.{.{.}.C.  . . . . O O = = = = = # # ",
"# # # # = = # # = = = % % % O Y. X X X X|.}.v.r g u g u g q g g g g u u u x H H L H ! U ! L L L L L L L U H L L L L ! H j u u u g k r b.{.|. X X X X XI.. * = # O O # O = # = $ # # ",
"# = = # = # # = = = = = % % O Q.|. X X X X}.k.r l u g u g g 7 g l g u u u l H H ! ! U U H L L L L L L H H H ! L L ! U U j j u u u g b k.{. X X X|. X XI.. = = # # # @ # = # # = # # ",
"# = # # # # # # # # # # = # . Y. X X X X X{.c.r f q 7 g q g g g g g q u g x ! ! ! ! H U U H L L L L H H H U ! U ! L L H l u l u u f e g.'. X X X X X XL.. @ # # # # @ # # @ = = # # ",
"# = # # # # # # # # # = = # . R. X X X X X{.k.n f u u g g l g g g g q u u l H ! L U H U ! H L L H U U U H U ! U ! H L H C h l g g h n c.{. X X X X X XL.. @ # # # # # # $ $ # # # # ",
"# # # # # = # # # = # # # = . R. X X X X X{.j.4 b r r r t a h u g q 7 u u j H ! U H H U H L H U U U H L H ! U H H H L ! A n r r e n 5 j.{. X}. X|. X XI.X @ # # # # # # O O # # # # ",
"# # # # = = # # # = # # # # . R. X X X X X|.(.j.k.k.c.c.z.$.d f g u u 7 u g Z x F F x F F F Z F F F F x F F F x C F F S >.v.c.c.c.k.j.(.|. X X X X X XL.. # # # @ # # # # # = # # # ",
"# # # # # # # # # # # = # # . R. X X X X X X|.|.{.{.{.{.].D.r f g g g 7 u 7 g g h q g q g q g l f l q g g g g l g f h t S.].{.{.{.{.}.|. X X X|. X X XI.. % = = # @ # $ $ $ # # # # ",
"= # # # # # # # # # # # # # . R. X X X X X X X X X}.}.}.{.F.b h u g g g u q g g g u g u g q g g g g g q g g q g g g l b F.{.|. X}.}.|. X X X X X X X XI.O % = $ # # # $ # # # # # # ",
"= # # # = = # # # = # # # # . U. X X X X X X X X X X X X XF.b k u u g g u u 7 g g u u g u g 7 u u g g g g g g g g u h b F.}. X X X X X X X X X X X X XI.. O = = # @ # O $ # @ # # = ",
"# # # # # # # # # # # # = = . R. X X X X X X X X X X X X}.F.N l g g g g u u g g u g g u u u u u u u q u g g u 7 g 7 h N F.}. X X X X X X X X X X X X XZ.. % = O # @ # $ # @ # # # # ",
"# # # # * @ @ * * * * @ # # . R. X X X X X X X X X X X X}.G.m k q g g u u g g g g g u g g g g g g g g g g g l u g g k m F.}. X X X X X X X X X X X X XZ.. # # # # # # # = = % % # # ",
"@ @ O @ * * * * * * @ * # # . ~. X X X X X X X X X X X X|.K.4 n a t t r a a V r a a a a a a r a a a t t a a a a a a n 4 K.|. X X X X X X X X X X X X XI.. # O # # # O O . . . O @ # ",
"0.0.4.4.4.) 0.- O = * * = # O f.~.~.Q.Y.R.Q.R.~.~.Q.Q.Y.Y.B.) &.&.&.&.&.*.&.&.&.&.#.&.&.&.&.&.&.&.&.-.&.&.&.&.&.&.&.-.) B.T.U.~.U.U.W.U.Y.E.T.Y.R.R.~.d.O O # # # # - 4.0.0.0.0.0.0.",
"~.~.E.~.~.~.E.1 . * = @ = = = . . . O . . . . . . . O O o e.}.{.`._._._.`.].].[.[.[.[.`.[.[.[.].`.`.[.[.`.[.`.].[.].[.{.t.o . . O O . . . O O O . . . . # = # # # # 1 ~.~.~.Q.~.~.~.",
"U.U.U.W.W.W.U.1 # = # # # = = = = O = = # # @ # # # O # o i. X X{.{.}. X X{. X X}.|.|.|.|. X X|. X|.|. X|. X|. X X}.|. Xr.O $ = O + = = = = = O # O = # # # # # O @ < E.Y.Q.Y.W.U.U.",
"U.U.U.W.W.U.Y.< @ # # # # # = = = = # = # = = = # = = = O p. X X X X X X X X X X X X X X X X X X X X X X X X X X X X X Xr.O # $ O + = = = = = = O = # = # # # # $ . 2 E.W.U.W.W.U.U.",
"W.U.U.U.U.U.W.1 O = # # # # # # # = # # # # # = # # = = . i. X X X X X X X X X X X X X X X X X X X X X X X X X X X X X Xa.. O + & = = = = = = = = = # = = # # # # . < U.W.U.U.U.U.U.",
"U.U.U.U.U.U.U.1 O = # # # = = # # # # # = # # # # # = % . w. X X X X X X X X X X X X X X X X|. X X X X X X X X X X|. X Xr.. $ O = # # # * = = * = = # # O # @ @ = O < U.U.W.U.U.U.U.",
"U.U.U.U.U.U.W.: O # # # # # # # # # # # # # # = = # = # @ r. X X X X X X X|. X}. X X X|. X X X X X X X X X X X X X X X Xr.. # # # # # # @ # # # # # # # # # # # = * < W.!.U.!.U.U.U.",
"U.U.U.U.U.U.U.: O O O # O @ # $ # # . = # # # # # # = # . a. X X X X X X X X X X X X X X X X X X X X X X X X X X X X X Xy.. @ = @ @ @ @ # # $ # # # # # . # # O @ O : W.U.!.U.U.U.U.",
"~.^./.^.~.^.^.w.: < 1 1 1 1 1 - # # = = # # # # # # # # . q.).^.^.).).^.^.^.^.).^.^./.^.).^.^.).^.^.^.^.^.^.).^.^.^.^.).q.. # % = # # # # $ # # # $ # - 1 1 : 1 : : w.^.^.~.^./.^.~.",
" X X X X X X X^.W.W.U.Y.Y.E.~.0.. # # # = = # # # # # # # $ O # = @ @ # = @ = = # O # # # = # = = = = = = = = # = = @ @ # # O # = # # # $ # # # # # O r.E.E.U.W.U.U.^. X X X X X X X",
" X X X X X X X~.U.W.W.U.Y.Y.~.4.# # # @ = # # # # = # # $ # # # = @ # # & = = = = = # # # # = # = # # = @ = # # = = * = # $ # # = # # $ # # # = # # @ w.~.W.W.W.U.U.^. X X X X X X X",
" X X X X X X X^.U.U.W.U.U.Y.~.0.. # # = = # # = # = # # # # # # * @ @ $ + % = = * = @ # # # # # = = # $ # = # # = = = = # $ # # = # # # # $ = * @ # . w.~.W.W.W.U.U.^. X X X X X X X",
" X X X X X X X^.U.U.U.U.W.Q.~.0.O = # = # # # # # # # # @ # # # = @ = & O = = = = # # # # # # # # # # # = # # # = = = = # # # # # # # # # # # @ # # . w.~.W.W.W.U.U.^. X X X X X X X",
" X X X X X X X/.U.U.U.U.Q.Q.~.0.O # # = = # # # # # # # = # # # = $ O = = = = = = # # # # # # # # # # # = # # # # = = = # # = # # # # # # # # # # # . w.R.U.W.W.U.U.~. X X X X X X X",
" X X X X X X X^.U.U.U.U.U.U.~.0.# # # # # = = # # # # # = # # # # # = = # # # # # # # # # # # = # # # # # # # # * = = = = # # # # # # # # # = # * * . w.R.W.W.W.U.U.^. X X X X X X X",
" X X X X X X X~.U.U.U.U.W.U.~.0.@ = # # # # # # # # # # # # # # # # # # # # # # # # # = = # # = # # # # # = = # * * # # # # # # # # # # # # # # @ . . w.~.W.W.W.U.U.^. X X X X X X X"
};
