/* XPM */
static char *base[] = {
/* columns rows colors chars-per-pixel */
"100 100 69 1 ",
"  c #738573",
". c #758675",
"X c #768776",
"o c #778877",
"O c #788978",
"+ c #788A78",
"@ c #7A8C7A",
"# c #7E8D7E",
"$ c #7F8F7F",
"% c #7E917E",
"& c #7F927F",
"* c #808F80",
"= c #809380",
"- c #819381",
"; c #859985",
": c #879B87",
"> c #8A978A",
", c #889B88",
"< c #8C988C",
"1 c #8C998C",
"2 c #939E93",
"3 c #8EA28E",
"4 c #8FA38F",
"5 c #90A090",
"6 c #97A397",
"7 c #96A596",
"8 c #96AB96",
"9 c #9BA59B",
"0 c #99AB99",
"q c #9CA89C",
"w c #9BB29B",
"e c #9CB39C",
"r c #9EB59E",
"t c #9FB79F",
"y c #A1B1A1",
"u c #A0B6A0",
"i c #A1B8A1",
"p c #A3B8A3",
"a c #ABB2AB",
"s c #ADB4AD",
"d c #AEB4AE",
"f c #AEB5AE",
"g c #A9BBA9",
"h c #AABCAA",
"j c #ACBDAC",
"k c #B1BAB1",
"l c #BBBEBB",
"z c #BBBFBB",
"x c #B2C0B2",
"c c #B4C1B4",
"v c #BAC3BA",
"b c #BCC0BC",
"n c #BDC1BD",
"m c #BCC6BC",
"M c #BDC6BD",
"N c #C0C3C0",
"B c #C0C4C0",
"V c #C3C9C3",
"C c #C5CAC5",
"Z c #C8C9C8",
"A c #C8CBC8",
"S c #CBCDCB",
"D c #CCCECC",
"F c #CECECE",
"G c gray81",
"H c #D0CFD0",
"J c #D0D0D0",
"K c #D1D1D1",
"L c #D4D3D4",
/* pixels */
"GGGGGGGGGGGGGGGGGGGGGGGGGGGGGGGGGGGGGGGGGGGGGGGGGGGGGGGGGGGGGGGGGGGGGGGGGGGGGGGGGGGGGGGGGGGGGGGGGGGG",
"GGGGGGGGGGGGGGGGGGGGGGGGGGGGGGGGGGGGGGGGGGGGGGGGGGGGGGGGGGGGGGGGGGGGGGGGGGGGGGGGGGGGGGGGGGGGGGGGGGGG",
"GGGGGGGGGGGGGGGGGGGGGGGGGGGGGGGGGGGGGGGGGGGGGGGGGGGGGGGGGGGGGGGGGGGGGGGGGGGGGGGGGGGGGGGGGGGGGGGGGGGG",
"GGGGGGGGGGGGGGGGGGGGGGGGGGGGGGGGGGGGGGGGGGGGGGGGGGGGGGGGGGGGGGGGGGGGGGGGGGGGGGGGGGGGGGGGGGGGGGGGGGGG",
"GGGGGGGGGGGGGGGGGGGGGGGGGGGGGGGGGGGGGGGGGGGGGGGGGGGGGGGGGGGGGGGGGGGGGGGGGGGGGGGGGGGGGGGGGGGGGGGGGGGG",
"GGGGGGGGGGGGGGGGGGGGGGGGGGGGGGGGGGGGGGGGGGGGGGGGGGGGGGGGGGGGGGGGGGGGGGGGGGGGGGGGGGGGGGGGGGGGGGGGGGGG",
"GGGGGGGGGGGGGGGGGGGGGGGGGGGGGGGGGGGGGGGGGGGGGGGGGGGGGGGGGGGGGGGGGGGGGGGGGGGGGGGGGGGGGGGGGGGGGGGGGGGG",
"GGGGGGGGGGGGGGGGGGGGGGGGGGGGGGGGGGGGGGGGGGGGGGGGGGGGGGGGGGGGGGGGGGGGGGGGGGGGGGGGGGGGGGGGGGGGGGGGGGGG",
"GGGGGGGGGGGGGGGGGGGGGGGGGGGGGGGGGGGGGGGGGGGGGGGGGGGGGGGGGGGGGGGGGGGGGGGGGGGGGGGGGGGGGGGGGGGGGGGGGGGG",
"GGGGGGGGGGGGGGGGGGGGGGGGGGGGGGGGGGGGGGGGGGGGGGGGGGGGGGGGGGGGGGGGGGGGGGGGGGGGGGGGGGGGGGGGGGGGGGGGGGGG",
"GGGGGGGGGGGGGGGGGGGGGGGGGGGGGGGGGGGGGGGGGGGGGGGGGGGGGGGGGGGGGGGGGGGGGGGGGGGGGGGGGGGGGGGGGGGGGGGGGGGG",
"GGGGGGGGGGGGGGGGGGGGGGGGGGGGGGGGGGGGGGGGGGGGGGGGGGGGGGGGGGGGGGGGGGGGGGGGGGGGGGGGGGGGGGGGGGGGGGGGGGGG",
"GGGGGGGGGGGGGGGGGGGGGGGGGGGGGGGGGGGGGGGGGGGGGGGGGGGGGGGGGGGGGGGGGGGGGGGGGGGGGGGGGGGGGGGGGGGGGGGGGGGG",
"GGGGGGGGGGGGGGGGGGGGGGGGGGGGGGGGGGGGGGGGGGGGGGGGGGGGGGGGGGGGGGGGGGGGGGGGGGGGGGGGGGGGGGGGGGGGGGGGGGGG",
"GGGGGGGGGGGGGGGGHGGHGGHGGGGGGGGGGGGGGGGGGGGGGGGGGGGGGGGGGGGGGGGGGGGGGGGGGGGGGGGGGGGGGGGGGGGGGGGGGGGG",
"GGGGGGGGGGGGGGGGHHHHHHHHGGGGGGGGGGGGGGGGGGGGGGGGGGGGGGGGGGGGGGGGGGGGGGGGGGGGGGGGGGGGGGGGGGGGGGGGGGGG",
"GGGGGGGGGGGGGGHCxxxcxxxcAHGGGGGGGGGGGGGGGGGGGGGGGGGGGGGGGGGGGGGGGGGGGGGGGGGGGGGGGGGGGGGGGGGGGGGGGGGG",
"GGGGGGGGGGGGGGHMrrrrrrrrVHGGGGGGGGGGGGGGGGGGGGGGGGGGGGGGGGGGGGGGGGGGGGGGGGGGGGGGGGGGGGGGGGGGGGGGGGGG",
"GGGGGGGGGGGGGGJMrruuuuruVHGGGGGGGGGGGGGGGGGGGGGGGGGGGGGGGGGGGGGGGGGGGGGGGGGGGGGGGGGGGGGGGGGGGGGGGGGG",
"GGGGGGGGGGGGGGHMrrurrruuVHGGGGGGGGGGGGGGGGGGGGGGGGGGGGGGGGGGGGGGGGGGGGGGGGGGGGGGGGGGGGGGGGGGGGGGGGGG",
"GGGGGGGGGGGGGGJMruuruuuuCGGGGGGGGGGGGGGGGGGGGGGGGGGGGGGGGGGGGGGGGGGGGGGGGGGGGGGGGGGGGGGGGGGGGGGGGGGG",
"GGGGGGGGGGGGGGJMrruuururVHGGGGGGGGGGGGGGGGGGGGGGGGGGGGGGGGGGGGGGGGGGGGGGGGGGGGGGGGGGGGGGGGGGGGGGGGGG",
"GGGGGGGGGGGGGGJMrururuuuVGGGGGGGGGGGGGGGGGGGGGGGGGGGGGGGGGGGGGGGGGGGGGGGGGGGGGGGGGGGGGGGGGGGGGGGGGGG",
"GGGGGGGGGGGGGGJMruuuuuruVGGGGGGGGGGGGGGGGGGGGGGGGGGGGGGGGGGGGGGGGGGGGGGGGGGGGGGGGGGGGGGGGGGGGGGGGGGG",
"GGGGGGGGGGGGGGHSCCVVCVVVGGGGGGGGGGGGGGGGGGGGGGGGGGGGGGGGGGGGGGGGGGGGGGGGGGGGGGGGGGGGGGGGGGGGGGGGGGGG",
"GGGGGGGGGGGGGGGGHHHGHHHHGGGGGGGGGGGGGGGGGGGGGGGGGGGGGGGGGGGGGGGGGGGGGGGGGGGGGGGGGGGGGGGGGGGGGGGGGGGG",
"GGGGGGGGGGGGGGGGGGGGGGGGGGGGGGGGGGGGGGGGGGGGGGGGGGGGGGGGGGGGGGGGGGGGGGGGGGGGGGGGGGGGGGGGGGGGGGGGGGGG",
"GGGGGGGGGGGGGGGGGGGGGGGGGGGGGGGGGGGGGGGGGGGGGGGGGGGGGGGGGGGGGGGGGGGGGGGGGGGGGGGGGGGGGGGGGGGGGGGGGGGG",
"GGGGGGGGGGGGGGGGGGGGGGGGGGGGGGGGGGGGGGGGGGGGGGGGGGGGGGGGGGGGGGGGGGGGGGGGGGGGGGGGGGGGGGGGGGGGGGGGGGGG",
"GGGGGGGGGGGGGGGGGGGGGGGGGGGGGGGGGGGGGGGGGGGGGGGGGGGGGGGGGGGGGGGGGGGGGGGGGGGGGHGGGGGGGGGGGGGGGGGGGGGG",
"GGGGGGGGGGGGGGGGGGGGGGGGGGGGGGGGGGGGGGGGGGGGGGGGGHGGHGGHGGGGGGGGGGGGGGGGGGGGHHHHGGGGGGGGGGGGGGGGGGGG",
"GGGGGGGGGGGGGGGGGGGGGGGGGGGGGGGGGGGGGGGGGGGGGGGGGHJJJJJJJJHHHHHHHHHGGGGGGGGHJJHJJJJJHHHJGHJJGGGGGGGG",
"GGGGGGGGGGGGGGGGGGGGGGGGGGGGGGGGGGGGGGGGGGGGGGGGGGnnnznznzNCCCCCCCCHGGGGGGGAnlnnlnnNCCCCCCCCJGGGGGGG",
"GGGGGGGGGGGGGGGGGGGGGGGGGGGGGGGGGGGGGGGGGGGGGGGGHC$oOOOOOX,uuuuuuuuCGGGGGGJlOOOOOoX,ruuuuuuuCJGGGGGG",
"GGGGGGGGGGGGGGGGGGGGGGGGGGGGGGGGGGGGGGGGGGGGGGGGHA$XooOXOX,uuruuuuuCJGGGGHHlOoooooo:irruurruCGGGGGGG",
"GGGGGGGGGGGGGGGGGGGGGGGGGGGGGGGGGGGGGGGGGGGGGGGGHC$XoOXOoX,uuuurruuCJGGGGHJlooooooX:iuururuuCJGGGGGG",
"GGGGGGGGGGGGGGGGGGGGGGGGGGGGGGGGGGGGGGGGGGGGGGGGHA$XXXOXXX,irruuruuCHGGGGGJlOXooooX:uuuruuruCHGGGGGG",
"GGGGGGGGGGGGGGGGGGGGGGGGGGGGGGGGGGGGGGGGGGGGGGGGGA$XooXOOX:uuuuruuuCHGGGGGHlOoooooX:uruuruuiCHGGGGGG",
"GGGGGGGGGGGGGGGGGGGGGGGGGGGGGGGGGGGGGGGGGGGGGGGGHZ$XoooXXX,ururuurrCHGGGGGHlOoooooX:iurururrCHGGGGGG",
"GGGGGGGGGGGGGGGGGGGGGGGGGGGGGGGGGGGGGGGGGGGGGGGGGZ#XooXOOX,uuuruuruCHGGHGGJlooooooX,uuruuurrCHGGGGGG",
"GGGGGGGGGGGGGGGGGGGGGGGGGGGGGGGGGGGGGGGGGGGGGGGGHC@XXXXXX :ruirirriCJJGJJJJnooOOXoX:rrrrrrrrVHHGGGGG",
"GGGGGGGGGGGGGGGGGGGGGGGGGGGGGGGGGGGGGGGGGGGGGGGGHHdaaaaaaa9,,,:,::,7qq9999994535343yMMMvMvMMSGGGGGGG",
"GGGGGGGGGGGGGGGGGGGGGGGGGGGGGGGGGGGGGGGGGGGGGGGGHHHJGGHHHLdXXXXXoXo oXXXo o%riuuuirxJJJJJHJJHGGGGGGG",
"GGGGGGGGGGGGGGGGGGGGGGGGGGGGGGGGGGGGGGGGGGGGGGGGHHJGJGGGGHaXooooooooXoXXooo-rrururrxJGGGHGJGGGGGGGGG",
"GGGGGGGGGGGGGGGGGGGGGGGGGGGGGGGGGGGGGGGGGGGGGGGGGGGGGGGGGJaXooooooooooooooo%ruuuurrxJJGGGGGGGGGGGGGG",
"GGGGGGGGGGGGGGGGGGGGGGGGGGGGGGGGGGGGGGGGGGGGGGGGGGGGGGGGHGaXooooooooooooooo-urruuurxJGGGGGGGGGGGGGGG",
"GGGGGGGGGGGGGGGGGGGGGGGGGGGGGGGGGGGGGGGGGGGGGGGGGGGGGGHHHJaXooooooooooooooo-uurrrrrcJGGGGGGGGGGGGGGG",
"GGGGGGGGGGGGGGGGGGGGGGGGGGGGGGGGGGGGGGGGGGGGGGGGGGGGHHHHHJaXooooooooooooooo-rurruurxJGGGGGGGGGGGGGGG",
"GGGGGGGGGGGGGGGGGGGGGGGGGGGGGGGGGGGGGGGGGGGGGGGGGGGGGGGGGHaOoooooXXXXoXXXXX-uuyruurxHGGGGGGGGGGGGGGG",
"GGGGGGGGGGGGGGGGGGGGGGGGGGGGGGGGGGGGGGGGGGGGGGGGGGGGGGGGHHaO@@@@$O@$$$*$$$#;peughiuxJGGGGGGGGGGGGGGG",
"GGGGGGGGGGGGGGGGGGGGGGGGGGGGGGGGGGGGGGGGGGGGGGGGGGGGGGGGHHvwwwwweeeMSCACZZZAAGGASSSGGGGGGGGGGGGGGGGG",
"GGGGGGGGGGGGGGGGGGGGGGGGGGGGGGGGGGGGGGGGGGGGGGGGGGGGGGGGHHvrttttuuuCGGGGHHHHGGGGGGGGGGGGGGGGGGGGGGGG",
"GGGGGGGGGGGGGGGGGGGGGGGGGGGGGGGGGGGGGGGGGGGGGGGGGGGGGGGGJJMrtriruuuCHGGGHGGGGGGGGGGGGGGGGGGGGGGGGGGG",
"GGGGGGGGGGGGGGGGGGGGGGGGGGGGGGGGGGGGGGGGGGGGGGGGGGGGGGGGHJvrrtruruuCHGGGGGGGGGGGGGGGGGGGGGGGGGGGGGGG",
"GGGGGGGGGGGGGGGGGGGGGGGGGGGGGGGGGGGGGGGGGGGGGGGGGGGGGGGGHJvruruururCHGGGGGGGGGGGGGGGGGGGGGGGGGGGGGGG",
"GGGGGGGGGGGGGGGGGGGGGGGGGGGGGGGGGGGGGGGGGGGGGGGGGGGGGGGGHJMruuururuCHGGGGGGGGGGGGGGGGGGGGGGGGGGGGGGG",
"GGGGGGGGGGGGGGGGGGGGGGGGGGGGGGGGGGGGGGGGGGGGGGGGGGGGGGGGHHvttrtrrruCJJGGGGGGGGGGGGGGGGGGGGGGGGGGGGGG",
"GGGGGGGGGGGGGGGGGGGGGGGGGGGGGGGGGGGGGGGGGGGGGGGGGGGGGGGGHHvwrrrrrrrCHHGGGGGGGGGGGGGGGGGGGGGGGGGGGGGG",
"GGGGGGGGGGGGGGGGGGGGGGGGGGGGGGGGGGGGGGGGGGGGGGGGGGGGGGGGHHVxxxxxcxxCHGGGGGGGGGGGGGGGGGGGGGGGGGGGGGGG",
"GGGGGGGGGGGGGGGGGGGGGGGGGGGGGGGGGGGGGGGGGGGGGGGGGGGGGGGGHHHHJJJJHHJGHGGGGGGGGGGGGGGGGGGGGGGGGGGGGGGG",
"GGGGGGGGGGGGGGGGGGGGGGGGGGGGGGGGGGGGGGGGGGGGGGGGGGGGGGGGGGGGJHHHGGGGGGGGGGGGGGGGGGGGGGGGGGGGGGGGGGGG",
"GGGGGGGGGGGGGGGGGGGGGGGGGGGGGGGGGGGGGGGGGGGGGGGGGGGGGGGGGGGGJHHHGGGGGGGGGGGGGGGGGGGGGGGGGGGGGGGGGGGG",
"GGGGGGGGGGGGGGGGGGGGGGGGGGGGGGGGGGGGGGGGGGGGGGGGGGGGGGGGGGGGGGHHGGGGGGGGGGGGGGGGGGGGGGGGGGGGGGGGGGGG",
"GGGGGGGGGGGGGGGGGGGGGGGGGGGGGGGGGGGGGGGGGGGGGGGGGGGGGGGGGGGGGGGHGGGGGGGGGGGGGGGGGGGGGGGGGGGGGGGGGGGG",
"GGGGGGGGGGGGGGGGGGGGGGGGGGGGGGGGGGGGGGGGGGGGGGGGGGGGGGGGGGGGGGGGGGGGGGGGGGGGGGGGGGGGGGGGGGGGGGGGGGGG",
"GGGGGGGGGGGGGGGGGGGGGGGGGGGGGGGGGGGGGGGGGGGGGGGGGGGGGGGGGGGGGGGGGGGGGGGGGGGGGGGGGGGGGGGGGGGGGGGGGGGG",
"GGGGHHGGGGGHSGGGGGGGGGGGGGGGGGGGGGHHGGGGGGGGGGGHGHGGGGGGGGGGGGGGGGGGGGGGGGGGGGGGGGGGGGGGGGGGGGGGGGGG",
"GGGGHGS,>>>>>>:6gggggghhCGGGGGGHN>>,>>;>>9ggggghggSGGGGGGGGGGGGGGGGGGGGGGGGGGGGGGGGGGGGGGGGGGGGGGGGG",
"GGGGGHC$XXXXXXX;eerrrrrrCHGGGGGJloXXXXXX 3urrrrrrgSHGGGGGGGGGGGGGGGGGGGGGGGGGGGGGGGGGGGGGGGGGGGGGGGG",
"GGGGGGA$XOXoXXX;rruuuuruVHGGGGHJnOooXoooX3uuruurriSGGGGGGGGGGGGGGGGGGGGGGGGGGGGGGGGGGGGGGGGGGGGGGGGG",
"GGGGHHA*XOooXXX:uurruuruVGGGGGGJlOOXoXooX3uuuuuuruSGGGGGGGGGGGGGGGGGGGGGGGGGGGGGGGGGGGGGGGGGGGGGGGGG",
"GGGGHHA*XooXXXX:uuuuruuuVHGGGGHJnOXOXOooX3uuurrurgSGGGGGGGGGGGGGGGGGGGGGGGGGGGGGGGGGGGGGGGGGGGGGGGGG",
"GGGGGGA*XoooooX,irruurrtVHGGGGGHnOOoooooo4irirrrrgAGGGGGGGGGGGGGGGGGGGGGGGGGGGGGGGGGGGGGGGGGGGGGGGGG",
"GGGGGGA*XoooXXX,iuurriruCJHHGGHHlOooooooX4irrrrrruSGGGGGGGGGGGGGGGGGGGGGGGGGGGGGGGGGGGGGGGGGGGGGGGGG",
"GGGGHHA$XXXXXXX,iuuuiuruCHHGHHHHnOXoXoXoX3irrrrruuSGGGGGGGGGGGGGGGGGGGGGGGGGGHHHHHHHGGGGGGGGGGGGGGGG",
"GGGGHHA2<<<<<<>288888888klnlllznd-------%0jhhhhhjjSGGGGGGGGGGGGGGGGGGGGGGGGGVVCCVCVAHGGGGGGGGGGGGGGG",
"GGGGGGGGGGGGGGHdoooooooooooooooo-rruurrrrvJJGGGGGGGGGGGGGGGGGGGGGGGGGGGGGGGVruuururkHHGGGGGGGGGGGGGG",
"GGGGGGGGGGGGGGHsXooooooooooooooo-rrruuuirMJJGGGGGGGGGGGGGGGGGGGGGGGGGGGGGGGCuururutcHGGGGGGGGGGGGGGG",
"GGGGGGGGGGGGGGGsXooooooooooooooo-rrururrrMJGGGGGGGGGGGGGGGGGGGGGGGGGGGGGGGGVrruurtrkHGGGGGGGGGGGGGGG",
"GGGGGGGGGGGGGGHsXooooooooooooooo-ruururrrvJGGGGGGGGGGGGGGGGGGGGGGGGGGGGGGGGCuuurittxHGGGGGGGGGGGGGGG",
"HDHHHHHHHDHSHJJdXooooooooooooooo&tttrturrMJHGGGGDHDHHHHHHHDHHHHHGGGGGGGGGGHVurrrrirxHHGGGGGGGGGGGGGG",
"HHHDDHDHHHHHHJJdXooooooooooooooo%rrtrttrrMHHGGGGHHHHHDHHDHHHHDHDGGGGGGGGGHJVuriitrrxHGGGGGGGGGGGGGGG",
"HDHHHHDHHHHHHHHd ooooooooooooooX%tttrtrirMJHGGGGHHHHDHHDHHHHHDHHGGGGGGGGGGJCuurrrrrxHHGGGGGGGGGGGGGG",
"HHHDHHHHHDHHHHHa XX  XoXX XXX X %tttrrrrrvHHGGGGDHDHHHHHDHDHHHHHGGGGGGGGGGJCrrrrrrrxHGGGGGGGGGGGGGGG",
"HHHHHHHHHHHHHDHVdddddddddfdadddddmmmmmmvvSHGGGGGHDHHDHHDHHDHHDHDGGGGGGGGGGGSvMMMMMMCHGGGGGGGGGGGGGGG",
"HDDHDHHDHDDHHHHHJJHHJGHHKJJHJJJJHHHHHHHHHHGGGGGGHHHHHHHHHHHHHHHHGGGGGGGGGGGGHHJJJJHHGGGGGGGGGGGGGGGG",
"HHHHHHHHHHHHDHDHGHHHJHHHJJHHHGJJHHHHHHHHHGGGGGGGHHDHDHHDHDDHDHDHGGGGGGGGGGGGGGGGJHHGGGGGGGGGGGGGGGGG",
"HHDHDHHDHDHHHHHHJHHHJJHHHHSHHHJJHDHHHHHDGGGGGGGGHDHHHHHHHHHHHHHHGGGGGGGGGGGGGGGGJJHGGGGGGGGGGGGGGGGG",
"DHHHHHHHHDHHDHHHHHHHHDHDHHHHHHHDHHHHHHHHHDHDHHHHHDDHHDHHHDHDHHHHGGGGGGGGGGGGGGGGGGGGGGGGGGGGGGGGGGGG",
"HHDHHDHDHHHHHHDHHHDHHHHHHHHSDHHHDHDHHDHHHHHHHHDHHHHHHHDHHHHHHHDHGGGGGGGGGGGGGGGGGGGGGGGGGGGGGGGGGGGG",
"DHHHHHHHHDDHDHHHDHDHHHHHHHSHDHHHHHHHHHHDHHHHDHHDHHHHHHHHDHDHDHHHGGGGGGGGGGGGGGGGGGGGGGGGGGGGGGGGGGGG",
"HHDHDHDHHHHHHHDHHHHHHDHDHHHHHHHDHDHDHDHHHDHDHHHHDHHDHDHHHHHHHHDHGGGGGGGGGGGGGGGGGGGGGGGGGGGGGGGGGGGG",
"HHDHHHDHHHHHHHHHDHHDHHDHDHHDHDHHHDHHHDHHHHHHHHHHHHHHHHHDHHHHHHHHGGGGGGGGGGGGGGGGGGGGGGGGGGGGGGGGGGGG",
"DHHHHHHHDHDHDHDHHHHHHHHHHHHHHHDHHHHHHHHDHDDHDHHDHHDHDHHHDHDHDHDHGGGGGGGGGGGGGGGGGGGGGGGGGGGGGGGGGGGG",
"HHDHHDHDHHHHHHDHDHHDHDHHHHHHHHHHHDDHHHHHHHHHHHHHDHHDDHHHHHHHHHDHGGGGGGGGGGGGGGGGGGGGGGGGGGGGGGGGGGGG",
"DHHHHHHHHDHDHHHHHHHHHHDHHDHDHDHHHHHHHDHDHHDHDHHDHHHHHHHDHDHDHHHHGGGGGGGGGGGGGGGGGGGGGGGGGGGGGGGGGGGG",
"HHDHDHHDHHHHHHHHHHDHHDHDHDHHDHHHHDHHDHHHHHHHDHHDHHDHDHDHHHHHHHHHGGGGGGGGGGGGGGGGGGGGGGGGGGGGGGGGGGGG",
"HHHHHHHHHHDHDHHDHDHHHHHHHHHHHHHDHHDHHHHDDHHDHHHHHHHHHHHHHDDHDHHDGGGGGGGGGGGGGGGGGGGGGGGGGGGGGGGGGGGG",
"HDDHDHHDDHDHHHHHHHHHHHHHHHDHHHHDHHHHHHHDHDHHDHHDHDDHHHHHHHHHHHHHGGGGGGGGGGGGGGGGGGGGGGGGGGGGGGGGGGGG",
"HHHHHHHHHHHHDHHDHHDHHDHDHDHHDHHHHDHHDHHHHHHHHHHHHHHHDHDHHHDHHDHDGGGGGGGGGGGGGGGGGGGGGGGGGGGGGGGGGGGG"
};
