/* XPM */
static char *base[] = {
/* columns rows colors chars-per-pixel */
"90 90 104 2 ",
"   c #FDDD85",
".  c #FFD78C",
"X  c #FDDC8B",
"o  c #F6DC95",
"O  c #F9DC94",
"+  c #F7DC9B",
"@  c #F9DC9C",
"#  c #FCE084",
"$  c #FDE58A",
"%  c #FEEF8F",
"&  c #FDF18E",
"*  c #F9E491",
"=  c #FEEE92",
"-  c #F7E49D",
";  c #F9E39C",
":  c #FBEE9C",
">  c #FCF092",
",  c #F9F09D",
"<  c #EEDFAA",
"1  c #F4DCA3",
"2  c #F2DCAB",
"3  c #F3DFB4",
"4  c #F5E4A7",
"5  c #F7EFA3",
"6  c #FAEEA4",
"7  c #F7E1AF",
"8  c #F6EEAD",
"9  c #F9EEAB",
"0  c #F7F0A6",
"q  c #FAF1A5",
"w  c #F6F0AD",
"e  c #ECE1BC",
"r  c #F3E1B4",
"t  c #F5EDB4",
"y  c #F9EDB2",
"u  c #F3E3BB",
"i  c #F5EDBB",
"p  c #F8EDB9",
"a  c #F6F0BD",
"s  c #FAF3BF",
"d  c #CFCFCF",
"f  c #D0CFCE",
"g  c #CFD0CF",
"h  c #D0D0CF",
"j  c #CFCFD0",
"k  c #D0CFD0",
"l  c #CFD0D0",
"z  c #D2D2D2",
"x  c #D9D9D7",
"c  c #DDDDDD",
"v  c #E9DFCB",
"b  c #E3DED6",
"n  c #E1DEDB",
"m  c #DEE0DF",
"M  c #EDE5CE",
"N  c #F3E5C3",
"B  c #F4ECC4",
"V  c #F8EFC5",
"C  c #F0E6C8",
"Z  c #F2EBCD",
"A  c #F8EBCA",
"S  c #F7F1C3",
"D  c #FAF4C3",
"F  c #FBF6C8",
"G  c #FBF9CF",
"H  c #E7E5D4",
"J  c #ECE4D2",
"K  c #EDEAD4",
"L  c #E5E4DE",
"P  c #EAE5DB",
"I  c #EDEBDB",
"U  c #F4EDD5",
"Y  c #F8EDD4",
"T  c #F4EDDB",
"R  c #F4F1D6",
"E  c #FBF2D2",
"W  c #FDF8D0",
"Q  c #F4F1DA",
"!  c #F8F5DB",
"~  c #FDFCDA",
"^  c #DFDFE0",
"/  c #E1DFE1",
"(  c #DFE0E0",
")  c #E4E4E4",
"_  c #E8E7E6",
"`  c #E7E8E6",
"'  c #ECEBE5",
"]  c #E6E6E9",
"[  c #E9E7E8",
"{  c #E7E8E9",
"}  c #EDEDED",
"|  c #F1EDE3",
" . c #F0EDEB",
".. c #EDF0EC",
"X. c #FFFFE6",
"o. c #F3F2ED",
"O. c #FFFFEB",
"+. c #EDEDF0",
"@. c #F0EDF0",
"#. c #EFF0F1",
"$. c #F4F4F3",
"%. c #FEFFF3",
"&. c #F7F7F8",
"*. c #FEFEFD",
/* pixels */
"d d j d g d d _ } } } } +.} } ..} } } @.} } } } ] ] } ] _ ` m d d d d d d z } } +.} } } } } } } ..} } } } z d d d d l d d d j g f l d c } } +.} } } }  .} } } }  .} ] d d d d d d d ",
"d d j l f d d ] } } } } } } } } } } } } } } } ` _ } ` ] ] } ) d d d d d d x } }  .+.} } } } } } } } +.} } z d d d f f j d h j j d d d c } } } } } } +.+.} } } } o.} ] d g d d d d d ",
"j f h j d f f ] } } } }  .} } } } } } } } } } ] } } } ` ` ` c d d d d k h z } } } } } } } +...+.} } +.} } z d d d d d d d d d d l l f c } } } } } } } } } } } } +...} d h g d d d d ",
"g j f g d g h ` } } } } +.} } } } +.+.} } ..} } _ _ _ } ] } m d d d d d z x +.+.} } } } } } } } ..} } } } x d d k d f l d j f d j k f c +.} } } } } } ..} } } } } } ] d d f d f d d ",
"d h d l d f f ] } } +. .+.} } } } } } } } } } } _ [ ` _ } } ( d d d z f d z } } } } } } } } } } } } } } } x d d f d d d h d d d j g d c o.} } } +.} } } } } } } } } ] d d d d d d d ",
"d h g j g f f ` } } } } } } } } } } }  .} } } [ { { ] _ _ [ c d j d d g d x } } } } } } } } } } } } } } } z d d g d d d z d d d d l d c +.} } } } } } } } } } } } } ` d d d f d d d ",
"j d d j j l d ] ..+.} } } } } } } } } } } } } } } { } } { ] c d d d j d d x } } } } } } } } +.+.} } } } } z d d d d d d d j d d d d j n } } } } } } } } +.} } } } } ` g d l l d d d ",
"k g d j d h j ] } } } } } #.} } } } } } } } } } } } } } } } [ / c c c ^ c ) } } o.} } @.@...} } }  .} } } ] ] ` ` ] ] ] x d d g g j j m } +.+.}  .} } } ] ] ] ` ] _ ] ] ] ` _ ] ] } ",
"d j d d d h d ] } } } } } } } ..} } } +.} } } } } } } } } } ] ) ] ) ) ) ) ) } } } } } } } } } } } } } } } } } } } } } ..x d j d j d d ^ } } } } } } } } ) ( ) ) ` ) ) } } } } } .. .",
"d d d l d d d ` o.} } } } } } } }  .} } } } } } +.} } } } } [ ) ` ) ) ) ) ` } } } } } } } } } +. .} } } } +.} } } } } +.c d d d d d d c } } } } } } } ] ) ) ) ) ) ) ` } } } } } } } ",
"d d d d d f d ] } } } } +.} } } } } } } } } } } } } } } } } } ) ) ) ) ) ) ] }  . .} } } } } } } +.} } } } } } +.} } }  .x d d d d d j c +.} } } } } } } ) ) ) ) ) ) ) } } } } } } } ",
"d d d d g h d ] } } } +.} } } } } } } } } } } +.} } } } } } { ) ) ) ) ) ] ] } } +.} } } } +. ...+.} } } } } } } } } } } x d d d d j d c } } } } } } } ] ) ) ) ) ) ) ] } } } } } } +.",
"z d d d d d d ] } } } } } }  .+.} } } } } } } } } } } } } } } ) / ) ) ) ) ] } } +.} } } } } } } } } } } ..} } } } } } } x d j d d d d c +.} } } } } } } ) ) ) ) L ) ] } } } } } } +.",
"d d d d d d j ] } +.} } } } } } } } } } } } } } } } +.} } } [ ) L ) ) ) ) ` } } } } } } +.} } } } } } +.} } } +.} } } } x d d d d d d x } } } } } } } ] ) ) ) / / ) ] } } } } } } } ",
"m ) c ) ) c ) }  .#.} } } } } } ] ] ` ] ] ] } } }  .} } } } } } ] ` } _ ] ` } } } } } } +...} }  .} } } } } } } } } } +.) ( c ^ L ) m ` ..+.+.} } } }  .&.$.&.&.$.$.$.} } } } } } } ",
"} } } } } } } +...} } } } } } ] L ` ` ) ) ) } #.} } } } } } } +.} } } } } } } } } } } } } ..} } } } +.} } } o.+.} } } } } } } } ....} } } +.} } } } } &.*.*.*.*.*.*.&.@. .} } } } } ",
"} } } } } } } +.} } } } +.} } } ) ) ) ) ) ) ] } } +.} } } } } ..} +.} }  .} } } +.} } } } } } } } } +.} } } ..} } } } ..} } +.}  .} } } } } } +.} } ' &.*.*.*.*.*.*.*.+.} } } ..} } ",
"} } } } } } } } } } } } } } } ] ) ) ) ) ) ) ] } } } } } } } } } } } } } ..+.} } } } } } } } +.+...} } } } } } } +.+...} } } } +.} } } } ..}  .} } ..} $.*.*.*.*.*.*.&.} } } } } } } ",
"} } } } +.} } } } } } } } } } _ ) ) ) ^ ) ) ` } } ..} +.} } } } } } ..} } +.} } } } }  .} } } } } } } +.} } } } } } } } } } @. .+.} } } } } } } } } { $.*.*.*.*.*.*.&.} } } } } +.} ",
"} } } } }  .} } } } } } } } } [ ) ) L ) ) ) } } } @.} } } } } } } } +.} } } } } }  .+.+.} } #.}  .} } } +.}  .} } } } } } +. .} } +.+.} } } } } } } ..$.*.*.*.*.*.*.*.} } } } } } } ",
"} } +.} } } } } } } } } } } } ` ) ) ) ) ) ) ] } } o.+.} } } } } } } } } } +.} } } } } } } } } } } } } } } ..} } } } } } }  .} } | +.} ..}  . .| ..| | o.*.*.*.*.*.*.%.+.+.} } } } } ",
"} } } } } } } } [ _ } _ ` } ` ] ] ] ] } ) ] ` } } } } } ....@.}  .} } +.} +.} } } } #.} } } } ..+.} } } } } } } +.} } } } [ } } } _ I J C u i N C i N S G G W W G G ! } } } } } } } ",
"} +...} } } } ] ) ) ) ) ) ) ) ] } } +.}  .}  .} } } } } } } } } } } } } } } } } } } } } } +.} #.} } } } } } ..} } } } } ] ] ) ) ) ) P 3 1 O X O X O X * > : = > > , 8 I } } } ..} +.",
" .} } } } } +.] ) ) ) ) ) ) ) } } } } } } } } } } } ..+.} } } } } ..} } } } } +.} } } } } } } } } } } } } } +.} +.} +.} ] ] ) ] ) L J 3 @ X       X X # & = > & & > w Q } ..} } } } ",
"} } } } } } } ` ` ) ) ) ) ) ) ] } } } } } ..} } } } } } } } } +.} +.} } } } ..} } } } } } } } } } } } } } +.} +.} } } +.} ) ) ) L L M r + X       X   $ & & = & & = t T } ..} } } } ",
"} } } +.} } } ] ) ) L ) ) ) / } } } } } } } } } } } } } } } } } } } }  .} } +.+.} } } } } } } } } } } } } } } } } } } +.] L ) ] ` ` M e + X           $ & & & & = = y T } } } } } } ",
"} +.} } } } } ] ) ) ) ) ) ) ) ` } } } } } } } } } +.} } } } } } } } } } } }  .} } } }  ...} +.}  .+.} +.} } }  .} }  .} ] ) ) ] ] L J u + X           $ & & & % = = t | } } } } } } ",
"} } } } } } } ] ) / ) ) ) ) ) } } } } } } } } } } ..} } } } } } } } +.} } } } } +.} } } } } } } +.} } } } } } } ..+.} } [ ) ) ) ] _ P 3 + X     X     $ & & > = = = 8 T ..} } +.} } ",
" .+.} } } } } ] ) ) ) ) ) ) ] } } } +.}  .} } } +...} } } } } } +.} } } } } } +...+.+.} } } } } } } } } } } } } } } } } ] ] ) ] ] ` J e 1 O O o O O O ; , : : : 5 5 i R } } } } } } ",
"` ] ) ) ) ` ) c c c c c c ^ c ` }  .+.}  .} ..} } } } } } } #.$.$.$.$.$.$.$.} } } +.+.} } } } } } } }  .} } +.} } } } } } ] ] ] _ ` J M N u 2 3 3 r r r i y i i i B Z J L ) ] ] ) ] ",
"d d d d d d d d d d d d d d d ( @.+.} } } } } } } } } } } } $.*.*.*.*.*.*.*.} } } } +.} } } } } } } } +.+.} } } } } } } } +.} +.} } [ | T T Y Y Y Y Y Y Y U R Z R R P g j j d d d d ",
"d d d d d d d d d d d d d d d ) o.} } } } } } } ....} } } } o.*.*.*.*.*.*.&.} } }  .} } +. .} } } } } }  .} } } } } } } } } } } } }  . . . . . . . . . .} o.' | ' ' ` d j j j d k d ",
"j g g d z j d d d d d j d d d ) } } } } } } +.} +. .@. .} ..$.*.*.*.*.*.*.&.} } } } } } } } } } ..} } } } } } } } +.+.+.+.} } } } } [  . . .+.} } ' } +.+.+.+.} } } ` d d g g g j d ",
"d k d d d j d d g g j d d l j ) } } } } +.+.} } } @. . .}  .o.*.*.*.*.*.*.*.+.} ' } } } } } } } +.} } } } } +.} } #. .+.+.} } } } } } ..} +.+.......} } +.+.+.} } } L d d d g d d d ",
"d g d d d j d d d d d d d d f ) } } } } +.+.} } }  .@.@.} } $.*.*.*.*.*.*.&.+.} } } } } ..} } } } } } } } } +.} } } } } } } } } } } } } } } { ....' ' } } +.{ } } } ` d j j d d d d ",
"j k d d d d d j l f d d d g f )  .} } +.+.+.' ' T | | | | | $.%.%.%.%.%.%.%.#.+.} } } } } } } } } } } ..+.}  .} } }  .} } } } } } } } } } } ......' } } } #.+.} } } L d j j j d d d ",
"z z z z z z x j h d d d f j d / } } } +.} ` T Z A A A A A A E ~ ~ ~ ~ ~ ~ ! ..+.} } } } } ..} } } } +.+.} } +.} } } } } } } } } +.+.+.+.+.....} ..} } } { } { } ..} ` z z l z z z x ",
"} } } } } } } z d l d d d d d c } ) ) ) ` J e < 1 1 1 1 < 1 4 8 9 9 9 w 9 i L { } [ ] ] } } } } } } } } } } } } } } } } }  .} } +.+.+.+.} } } } } } +.} ] ] ) { ) ( { } +.} } #.} } ",
"} } } } } } } z d l f d d d d ^ ] ] ) ) ) M r + X X X O X # * : = = , , , t I ' [ [ _ ] ] } } } } } } } } } } } } } +.} } +.+.}  .+.@.} } } } } +.+.+.{ ( ] ) ) ` ) ) ..} { } } } @.",
"} } } } } } } x d d d j f d d ^ ] / ) ) ) H r o X X X       $ = = % & & > 0 K ` _ _ _ ] } } } } } } } } } } }  .} } +.+.} } } } } } } } } } } } } } } } ] ) ( ] ( ) ` ..} } } } } } ",
"} } +.} } } } x j d d f d j d x ) / ) ] ) J 3 @ X . .     X $ = % % = = = 8 K ` ` _ ` ` ] } } } } } } } } } } } } } } } } } } } } } } } } } } } } } } { L L m ) ) ] ) } } @.} } } } ",
"} } } } } } } x d d d j d d j c ) ) ) ) ) H 3 @ X X X       $ > & & % = = 8 H ` ` } } _ } } } }  .} } } ....} } } } } } } } } } } } } } } ..} } } } ..` ) ) ) ) ) { ] } } } } } } } ",
"} }  .} } } } z d d j j j d k c ) ) ) ) ) J e + X X         $ > & & % & = 8 K ] ` ] ] } [ } } } } } @.} +.} } } } }  .} } } } } ..} } } } ..} } +.} } } L L ) ) ) ] ] { +.+.} } } } ",
"} } } +.} } } x f j k j j j d c ] ] ] ^ P v 3 1 O       #   $ > = & & & = 8 I } _ ] ] ] } } } } } } } } +.} } } } +.+.} } } } } } } } } } } } } } } } ` ) ) ) ) ) ) ] } } } } } } } ",
"} } } } } } } x z z z k k k h n ) ) ] ) L J 3 3 1 - @ + + o - 5 9 6 q q 0 t I [ ` ` } [ ` } } } } } } } } } } } } } } } } } ..} } } } ..+.} } } } } } } ] ] ) L ) ) ] } } } } } } } ",
"} } +.} } } } } [ } } }  .} ' } } } +.} } } ' T T U U U R K U R U U R I K ' +.} [ } } } } } } } } +.} ..} } } } } } } } } } } } +.} } } } } } } } } } } } } } } } } } } } } } } } +.",
"} } } } } } } } } } } }  .} }  .} } } } } [ } } } } } ' } } } } } } } } #.+.#.+. .} } } } } } } } } }  .@.} } } +.+.} } } } } } +.} } } } } } } } } } } } } } } } } } } } } } } } } ",
"} } } } } } } }  .} } } } } } +.} } } } } }  . . .} } } o.} } } } ..} } ..+.+.+. . .} } } } } } } } +.+.} } ..} } } } } } }  .} }  .} ..} } } } } } } } o.@.} } } } } } } } } } } } ",
"} } } } }  .+.} } } } } } +.+.+.+.} } ' ..} }  . .} } } } +.} } } o...' } +.+.} +. .} } } } } } } ..} } } } ..} +.} +.} } } } } } } } } } } } } } +.} } } } } } } }  .} } } } } } } ",
"} +.} } } } +.} } +.} } } } +.@.} } ..} } } } } +.+.+.+.} +.+.} } ..' } } } } +.+.' ....} } } } } } +.} } } } } +.} } } } } } } } } } } } } } } } } } }  .} } #.} } +.} +.+.} } } } ",
"} } +.} }  .} } } } } } } } } } } } } } } } } } } } +.+.+.} } } } } } } +.} ....+...} } } } +.} } } } }  .+.} } } } +.} } +.} } } } } } } } } +.} } } } } } } } } } } } } ..} } } +.",
"} } } } } } } } } } } } } } } } } } } } } } } } } } +.} } } } +.} } } } +.} { } } } ..} } } +.} +.} } } } } } }  .} } ..}  .} } } } } } } } ..} } } } } } } } } } +.} } } +. ...} } ",
"} } +.+.} } +.+.} } } } } } ....} } } +.+.+.+.} +.+.} } } ..+.+.} } } } } } } } +.} } } } } } } } } } } +.} } } } } } } } ` ) ) ) ] ] ] } } } [ } } } } } } } } } } } } +...+.} } } ",
"} } } } } } } } } } } } } } } } } } } } } +.+.} +.} } } ..} } +.} } } +.} ..} } +.+.} } } } } ..} } } } +.} } }  .} } } ] ) ) ) / ) ) ] [ } } _ { } [ } } } } } } ..} } }  .} } } } ",
"} } } } } } } } } } } } +.} } } } } ....} } } } { } } ' ' } ' } } } } } } } } +.+.+.} } } } } } } } } } } } } } } } } } ] ( ) ) ) L ) ` [ } [ } } ] ] } } } } } } +.@.} } } } } } } ",
"} } } } } } } } } } } } } } } ..} } } { } } } } } } } } ' }  .} +.} } } } } } } +.+.} } } ..} } }  .} } +.} } } } } } } ` ) ) ) ) ) ) ] } ] [ } } } _ } } } } } } } } } } } } } } } ",
"} } } } } } } } } +.} } } } } } +.+.} } } } } } } } @.+.} } } } +.} } } } } ..} } } } } } } } +.} } } } } } } } } } } } ] ) ) ) ) ) ) ] } _ ] } _ } } } } } } } } } } +.} } ..} } +.",
"} #.} } } +.} +...} } } } } } +.} } } } } } } } } +.+.+.} } } } } } } } +.} ..} } } o.} } } } } } } } } } } +.} } } } } ] L L ) ) ` ) ) [ [ } @.} _ _ } } } } } } } } +...} } } } +.",
"} } } } } +.} +.$.} } } @...#.+.} } } } } +.+.} }  .} +.} } { +.} +.} } } } } } } +.' } } } } } } } } } } } } } } @.+.} ] L ) ) ` ) ) ` | | I | | ' T [ | ' | ' | | | #.} ' ..} } } ",
"} } } } } } } ] c c c c c c c ] ] ] ` ] ] } } } } } } } } } } +.}  .} } } } } } } } } } } } } } } } } } } } ] ] ` ` } ] ] ] } ` ' ` ` U N 3 3 r 3 3 r t y p a t a i Z | } } } } } } ",
"} } } } } } } c k d k k d j d c ) ) ) ) ) ) } } } } } } } +.} +.} } } } } } } } #.} } } } } } } } } } } } ) ) ) ) ) ) / ` } } } } ' U u 1 o X   X . X $ = > = > > > y | } } } } } ..",
"} } } } } } } z j j z k z l d m ) ) ) ( ) ) ] } } } } } +.+.{ { } } } } } } } } } } } } } } } } } } } } } ) ) ) ) ) L ) } }  .} +. .T u o             $ % & % = > & w | +.} } +.} } ",
"} } } } } } } x z j h z z l g m ) ) ^ ] ) ) [ } } +.} @.+.+.+.+.} } } } ' } } +.+.} } } } } } } }  .} } } ) / ) ) ) ) ) } }  .+.+. .T u o X           $ % % = = > > w | @.} } } +.} ",
"} +.+. .} } } x j z z h j g g m ) ] ] ] ] ) [ } +.+.+.+.+.+.} } } [ { } ' } } } ..} } } } } } } } } } } } ) ) ) ) ) ] ) [ +.} +.}  .T u o             $ > & & > > > w | #.} } }  .} ",
"} } } } ....+.x j j z j z j j ^ ) ) ) ^ ) ) ] } } } +.+.} } } } } +.} } } `  .} } +.+.} } } } } } } } ..} ] ] ` ) L ) ) [ } } } +.} Q u O X   X       $ % = & = = & w I } } } } } } ",
"} +.} }  .} } x z j j z z j j / ) L ) ) ) L _ } ' ' ..} ` | | } } } +.} ' } } } } } +.} +.} } } } +.} ..} ] ) ) ) ) L ) ] } } } } } Q u + X X X X X X $ % = = = & > w | +.+.} } } } ",
"} } ..} } } } z j j d d j l h b J J M J J M K R K R I Q Q U T ' +.} } } } } }  .} } +.} } } ..} } } } @.} _ ) ) ] ) ) ] } } } } } ..T N 2 @ @ + @ @ + ; 6 6 6 6 , , i ' } } } +.} } ",
"} } } } } } +.) ^ ( ^ ) c c b M e u 3 3 e 3 t a a S i a i i Z ` { { ] { ` ' } ..{ } +.} } } o.} } } }  .} ` ] ] { ` ] { } } } } ..} ' I N u u u u u u V F F F F F F ! I } } } } } } ",
"} +.} +.+.} } } +.@.#.} @. .T u 1 + o o + o - q 6 5 5 5 9 9 C L ) ) ( ] L ` } } } } } } } } +.} } } }  .} } } } +.} } } +.} }  .{ } } } | Q U U T T Y ! O.X.O.O.O.O.O.} } }  .} } } ",
"} } } } } } } +.}  . .} @. .Y 7 o X X   X X $ = = = > % > , i P ) ) ) ) ` ] ' } ..} } } } } } } } } } } } } } } } } ..} +.} }  .} } } } } o.' ' '  . .o.*.*.*.*.*.*.*.+.}  .} } } } ",
"} } } } } } } } } } } } }  .T 3 o       X   $ = = % & & % > t L ) ( ) ) ) ` } } } } } } } } } } } } } } } } } } } } +.+.} @.} } } } } } +.+.....} } } $.*.*.*.*.*.*.*.} } } } +.+.} ",
"}  .} } } } } } } } } } }  .Y r o X     X X $ > = % & & % % 8 L ) ) ) ) ) ) } } } } } } } +.} } } +.} } } } } } } } +.+.+. . .} ' ' } #.+.+.} } ` } } &.*.*.*.*.*.*.&.} }  . .+.} } ",
"} }  .} ..} } } } } ..} } | Y r O X     X X $ > % % % & > > t L L L ) L ) ] } } +.+.+.} } } } } } } } } } } } } } } } } }  .} } ..} } } } +.} } } } } &.*.*.*.*.*.*.&.} } } } } } } ",
"} } } } +.} } } } } } } }  .T u 1 O O O O O - , : = : : : 6 u L ` L L ) ] ] } } } } } +.}  .} } } ..} +.} } } } } } o.} }  .} } } } } } +.+.} } } } } $.*.*.*.*.*.*.*.} } } } } } } ",
"} } } } @.} } } } } } } } } | C u r 7 7 r r a s a s a D a S M b c c c c ^ ( } } } { ) { } } } } +.@.} } } } } #.} } } } $.$.$.$.$.$.$...} [ } ] } [ }  .&.&.$.&.&.&.&. .} } +.} } } ",
"+.+.} } } } } } +.+.+. .} } @.| T U T Y T T | X.X.X.X.O.O.O.` f g g g j j z ) L ) ) ) ) ) } } } } } }  .} } } } +.} } } &.*.*.*.*.*.*.$./ ) ) ) ] ) ) ) ] ) ) ) ) ` _ } } } } } } } ",
"} } } } } } } } } } } } } } } +.} | | |  .' o.%.%.%.*.*.%.*.} d d j l d d z ) ) ` L m ) ) } } } } }  .+.} ..} } } } } } &.*.*.*.*.*.*.$.) ) ) ) ) ) ) / ) ) ( ) ) ) ] } } +.} } } } ",
"} } } } } } } +.} } } } } } } } } }  .} } ..&.*.*.*.*.*.*.*.} d g d d g j z L ) ) ) ) ) ) } } } } } } } } } } } } } } } &.*.*.*.*.*.*.#.) ) ) ) ) ) ) ) ) ) ) ) ) ) ` } } } } } } } ",
"} +.} } } } } +.} }  .} } } } } }  .} } } ' &.*.*.*.*.*.*.*.} d g g f f d z ) ( ( ] ) ) )  .} +.} } } } } +.} } } } } } &.*.*.*.*.*.*.$.( ) ) ) ) ) ) ) ) L ) ) ) ) ) } +.} } } } } ",
"} } } } } } } ..} } } } } } ..} } } +.} } } $.*.*.*.*.*.*.*.] d g g f f f z ) ) ] ] ) ] ] } } } } } } } } +.} } } } } } *.*.*.*.*.*.*.$.) ) ) ) ) ) ) ) ) ) ) ( ) ) ] } } } } } } } ",
"} } +.} } } } } } } } } } } } } } +.+.} } } $.*.*.*.*.*.*.*.} d j l j j j z ) ) ) ) ) ) ) } } } } } } } } } } } } } } } &.*.*.*.*.*.*...) ) m ) ) ) ) ) ) ) ) ) ) ) ) } } } } } } } ",
"} } } } } } } } } } } } } } } } ] +.+.+.+.} &.*.*.*.*.*.*.*.` d j j j j d x ) ) ) ) ] ) ) } } } } } } } } } } } } } } } *.*.*.*.*.*.*.$.) ) ) ) ) ) ) ) ) ) ) ] ) ) ) } } } } } } o.",
"} ] _ _ ` ` ] ] ` ` ] ] ] ` ) } ..} +.+.} } $.*.*.*.&.%.&.*.} d j j j d d z ` ` ] ) ) ) [ } } } } +.} } } ` ] ] _ [ ] ] $.$.&.$.&.&.$.} ) ) ] ] ) ) ) ] ` ) { ] ] _ ) ] ] ] ] ] ] ] ",
"d d d k z f l d h f d d d d j ) } } } } } } +.+.} } [ } } } c d k j j j d z ` } } } } } } } } } } } } } } x d d j j j d j j g d d d d c } } } $.} } } } } }  .} }  .] f h j h z z h ",
"d g h l z d j z z l k d d d d ) +.......' ..+.} } ' } } } } ) j j j l l l z } } } } } } +.} } } } } } } } z d d z d d j d d d d d d d c } } } } } } } } +.} } } } } ] k z h z j z l ",
"d d d j d d d d d j f d d d d ) +.} } } } } +.} } } } } +.#./ j g d l j l x ..#.+.} } } } } } } } } } } } z d j d d d j d d d d d d j c @.} ..+.} } } } } } } } } } ] f g h l d j h ",
"d d d j d d d f l g d l d d d ) } } } } } } } } } } } } } +.) j d d j j j z #.} +.+.} } } } } } } } } } } l d g j l d d f z g d g k d ^ } } } } } } } } } } } } } } ` j k l z d d z ",
"d d d k j g j d g j f d d d d ) ..} } } } } } } } } } } } } ^ d d d l j j x } } } } } } } } } } } } } } } x f d d f d d d g f f j k d c } } } } } } } } } } } } } } } d z j d z l j ",
"h j g f k d d d d d d d d d d ) } } } } } } } } } ..} } } ..) d l l d j d x } } } } } } } } } } } } +.} } z l l d d d j f j g d d g d c } } } } } } } } } } } } } } ] z j z z g d l ",
"d d d d d l j d z f d l j d d ] } } } } } } } } } } } } } } / d g g d f d z } } #.+.} } } } } +.}  . .} } z l f j d d d l j l f d d j c } } } } } } } } } } } } } } ] f z k j k d z "
};
