/* XPM */
static char *_2a578b7b83b4318c74dfeeb3e2196fe4A7CiqeS2BNonaaV[] = {
/* columns rows colors chars-per-pixel */
"64 64 253 2 ",
"   c #721831",
".  c #532734",
"X  c #7A233C",
"o  c #6A2C3C",
"O  c #511222",
"+  c #7A2C41",
"@  c #693D47",
"#  c #7A3749",
"$  c #7E3F50",
"%  c #6E424C",
"&  c #75424E",
"*  c #794855",
"=  c #6A5359",
"-  c #7A535C",
";  c #664E52",
":  c #795C63",
">  c #786868",
",  c #7B7575",
"<  c #696768",
"1  c #635C59",
"2  c #901D3E",
"3  c #98294A",
"4  c #85364C",
"5  c #93304C",
"6  c #8B3C53",
"7  c #843F52",
"8  c #993955",
"9  c #822542",
"0  c #A53C5C",
"q  c #A93759",
"w  c #B5375D",
"e  c #AA2B51",
"r  c #B73C61",
"t  c #C63C67",
"y  c #D93E6F",
"u  c #C2335E",
"i  c #894859",
"p  c #9B435C",
"a  c #94465B",
"s  c #82535D",
"d  c #A6415E",
"f  c #8D4D61",
"g  c #9B4D63",
"h  c #954961",
"j  c #845C65",
"k  c #895865",
"l  c #935465",
"z  c #945C6B",
"x  c #9A5568",
"c  c #9D5D70",
"v  c #A44361",
"b  c #AB4463",
"n  c #A34C65",
"m  c #AA4966",
"M  c #A84E6A",
"N  c #B24465",
"B  c #B44B6B",
"V  c #BC4A6C",
"C  c #B84467",
"Z  c #A5526B",
"A  c #A7546D",
"S  c #B6516D",
"D  c #A85C73",
"F  c #B95774",
"G  c #BE4C71",
"H  c #84656B",
"J  c #89626B",
"K  c #85696E",
"L  c #93626E",
"P  c #8C6C74",
"I  c #856A72",
"U  c #936A74",
"Y  c #9B6C79",
"T  c #996775",
"R  c #897679",
"E  c #9A737C",
"W  c #93767D",
"Q  c #86736F",
"!  c #A46D7C",
"~  c #A76478",
"^  c #B8637C",
"/  c #A2737E",
"(  c #C7466C",
")  c #C44D72",
"_  c #CB4D75",
"`  c #D74A76",
"'  c #CB5C7C",
"]  c #C65677",
"[  c #D4537B",
"{  c #DC547D",
"}  c #D3587B",
"|  c #E54A7C",
" . c #E4547F",
".. c #F14A7E",
"X. c #C4627F",
"o. c #628172",
"O. c #977C82",
"+. c #8F7E84",
"@. c #B96982",
"#. c #A97986",
"$. c #B67889",
"%. c #DC5D84",
"&. c #D85B85",
"*. c #C75F80",
"=. c #E45482",
"-. c #E35A84",
";. c #EC5C8B",
":. c #E95987",
">. c #F4558A",
",. c #FD548C",
"<. c #F35D8E",
"1. c #FC598D",
"2. c #F45386",
"3. c #F65E91",
"4. c #FE5D93",
"5. c #FF5B97",
"6. c #F3538A",
"7. c #C76986",
"8. c #D76689",
"9. c #D77996",
"0. c #CB758E",
"q. c #E4638B",
"w. c #EB628D",
"e. c #E4678D",
"r. c #F2618F",
"t. c #EE6492",
"y. c #ED6B94",
"u. c #E86C96",
"i. c #F36593",
"p. c #FC6394",
"a. c #F36A95",
"s. c #FA6997",
"d. c #FF649A",
"f. c #F46D9A",
"g. c #FD6B9C",
"h. c #F46699",
"j. c #E47396",
"k. c #EA7B9D",
"l. c #EA7599",
"z. c #F4739C",
"x. c #FD729E",
"c. c #F1799F",
"v. c #FF64A1",
"b. c #FF6CA1",
"n. c #FE74A3",
"m. c #F57AA2",
"M. c #FD7AA5",
"N. c #FE7DA9",
"B. c #F975A5",
"V. c #EB7DA0",
"C. c #8D8785",
"Z. c #988488",
"A. c #999290",
"S. c #A7858D",
"D. c #A78B92",
"F. c #B88A96",
"G. c #A99599",
"H. c #B9949D",
"J. c #BD818D",
"K. c #B49DA3",
"L. c #AF98A0",
"P. c #A9A8A6",
"I. c #B5A6A8",
"U. c #BAB6B5",
"Y. c #B8B5B0",
"T. c #A1A09C",
"R. c #C78597",
"E. c #DA859D",
"W. c #C5939E",
"Q. c #E2839B",
"!. c #DD89A4",
"~. c #D798A9",
"^. c #CB9DAA",
"/. c #EC83A3",
"(. c #EA8AA7",
"). c #F283A4",
"_. c #FE83AC",
"`. c #F48BAC",
"'. c #FB8AAD",
"]. c #F882A6",
"[. c #E995AC",
"{. c #F291AD",
"}. c #FF85B2",
"|. c #FE8BB3",
" X c #FF8DB8",
".X c #FD93B5",
"XX c #FF94BA",
"oX c #FF9BBC",
"OX c #F499B6",
"+X c #EB9AB1",
"@X c #C4ACB2",
"#X c #C8B8BA",
"$X c #D3ACB5",
"%X c #E8A6B8",
"&X c #F5A5BB",
"*X c #C7C2BE",
"=X c #FF9FC1",
"-X c #D1BEC4",
";X c #FEA5C4",
":X c #FFA9C4",
">X c #FDA9C9",
",X c #FCB1C5",
"<X c #FFB4CB",
"1X c #F9BACB",
"2X c #FFB4D5",
"3X c #FFBDD3",
"4X c #FFBDDB",
"5X c #EBB6C5",
"6X c #BAD0C4",
"7X c #C9C6C5",
"8X c #D6C7CB",
"9X c #D9D9D7",
"0X c #DACFD3",
"qX c #E8CDD4",
"wX c #FEC3D4",
"eX c #FFC4DB",
"rX c #FCC8D9",
"tX c #E8D9DC",
"yX c #EECCD3",
"uX c #FFC8E0",
"iX c #E7DEE1",
"pX c #FFD9E8",
"aX c #DEE8E4",
"sX c #DBFAEC",
"dX c #D8FEF1",
"fX c #E4E4E3",
"gX c #E4EAE6",
"hX c #ECE6E9",
"jX c #ECECEC",
"kX c #E8E8E7",
"lX c #F2EDEE",
"zX c #FCEAEE",
"xX c #F7E5EB",
"cX c #ECF1EE",
"vX c #E6F4ED",
"bX c #F4F1EE",
"nX c #F3EFF0",
"mX c #FCEEF2",
"MX c #FFEAF8",
"NX c #EEF3F1",
"BX c #ECFBF4",
"VX c #EAFEF9",
"CX c #F5F5F5",
"ZX c #FAF4F5",
"AX c #F4F9F6",
"SX c #FAF9F6",
"DX c #FCF6F9",
"FX c #F5FDFA",
"GX c #FFFEFF",
"HX c #FDFEFE",
"JX c #FCFCFC",
"KX c #F7F5F8",
"LX c #E0E3DF",
/* pixels */
"CXCXCXKXCXCXCXCXjXCXKXFXZXlXZXZXCXCXCXKXCXKXCXCXCXCXCXCXCXAXKXAXSXGXSXZXlXCXKXCXSXSXCXNXFXAXcXBXSXfXJXhXNXGXaXJXKXCXCXSXCXCXCXAX",
"CXCXKXAXCXCXSXCXSXCXnXCXCXKXJXJXCXSXCXAXKXAXKXAXSXCXAXCXCXCXCXKXCXnXCXJXSXCXCXGXnXkXSXHXbXjXSXHXjXGXlXlXKXJXjXNXCXCXKXAXCXCXCXKX",
"CXCXCXSXCXSXAXCXJXSXJXFXCXAXCXjXCXCXSXCXCXSXCXCXCXCXKXCXCXCXKXCXZXCXCXCXJXJXAXjXFXJXCXnXHXzX0X0XGXNXjXCXJXfXSXCXKXCXCXKXCXAXKXAX",
"CXCXCXCXCXCXKXCXjXNXCXKXCXNXNXAXCXCXCXCXCXKXCXCXCXCXSXKXSXCXCXAXJXKXCXCXFXNXAXNXBXcXKX0XD.P P - P.GXGXNXvXJXfXGXAXCXCXCXCXKXCXKX",
"AXKXKXCXCXCXCXCXJXJXKXKXAXCXSXGXKXCXKXCXCXKXCXCXCXAXCXCXCXCXCXCXZXNXCXFXBXkXNXJXJXnX@XY L T #.$XD.G.MXDXCXkXGXnXCXCXKXCXCXSXKXCX",
"AXKXAXCXCXSXCXSXCXNXjXnXCXKXCXlXAXCXAXKXCXAXCXCXCXKXCXSXKXAXCXCXnXFXCXNXFXGXDXiX#XI * Z @./.;XwX2XD O.DXDXNXSXNXCXCXSXCXCXCXCXCX",
"KXKXSXCXCXCXAXKXNXGXJXJXmXlXmXDXCXCXCXCXCXSXKXSXCXCXCXCXCXKXCXSXKXGXCXkXKXDX-X#.6 Z *.M.}.n.y.N. X=X@.P ZXGXjXCXKXAXAXCXAXCXSXCX",
"CXCXCXCXCXCXKXCXNXJXjXU., = R L.CXCXSXCXCXCXCXKXCXSXCXCXKXAXCXKXJXjXAXGXnXK.: = ] e.g.4.,.5.p.<.6.M.=XY D.JXNXFXCXCXCXKXKXCXCXCX",
"jXJXJXzXSXcXSXbXFX7X#.$.OX0.a z K @XKXJXvXFXJXzXGXGXfXGXJXKXKXcXDXMXAXkXP g N  .x.s.a.p.4.4.g.e.d.=.N.oXl $XSXBXSXCXJXjXGXCXnXCX",
"GXhXJXSXLXHXSXSX%X~ W.pX3X&X&X8.c * P 8XGXkXKXSXfXjXGXjXCXfXGXGXiXJX7XR j p y.s.p.p.i.a.i.a.i.i.5.d.p.M.OXc tXbXAXcXSXNXJXCXKXZX",
"JXlXSXCXAXcXHX#Xw e.(.&XwX&Xy.x.8.S g Y G.JXkXBXGXjXJXGXLXCXGXfXHXP.R % 0./.i.p.<.p.p.c.XX`.a.4.d.4.<.w.:XR.S.HXAXjXAXCXCXlXJXKX",
"KXJXSXcXSXcXtXK 2.N.XX.X).y.<.p.s.g.&.g #.Z.NXFXjXGXkXFXFXSXlXJXY.> k &X;Xm.p.,.s.p.p.'.uX3Xm.4.f.y.g.z.;XpX: *XGXCXCXSXCXCXGXCX",
"ZXCXJXKXjXSXS.^ ].m.XX}.;.<.n.>.5.4.s.j.Z Y +.fXZXCXAXNXJXjXHX7XQ s F .X_.;.x.g.s.p.<.'.eX<Xc.4.t.v.t.w.;X4X~.W CXGXCXKXCXCXSXCX",
"ZXCXCXFXCX8XR.:X!..XB.3.d.d.3.g.;.b.g.t.`.D Y > xXDXFXBXNXHXxXK ! p [ ( z.z.{ i.r.p.<.z.`./.y.p.5.d.1.h.}.`.<Xx 9XGXjXCXCXCXSXNX",
"CXGXjXNXJXU &X=XXX_.f.p.4.d.b.g.c.f.;.p.N.XXD c , mXKXgXSXHXZ.S.6 ' { a.`.7.7.d :.r.p.p.p.i.i.f.v.g.M.|.9.Q.@.4 I.GXnXCXKXFXCXNX",
"ZXSXFXcXhXU (.f.}.b.h.h.f.g.g.g.(.>X_.=.d._.8.8 : +.GXNXSXtXU ; d _ :.e.Z ~.J.f ;.w.s.p.4.5.g.j.m.j.@.~ ! #.#.L C.SXCXKXFXCXCXFX",
"DXMXbXFX@X[ ,.d.XX9.!./.i.4.n.f.3XyX#.d t ] z.2.i @ A.bXbXY.i ^ 9.]  .d / %X/ y.h.4.1.d.g.i.x.x.@.$.D.C.R U J i k mXmXSXSXmXCXVX",
"NXJXlXAXD.b z.*.B.=XeX2X].;.g._..XeX$.d } N ) x.} V 9 Q SXQ j 5X<X( C e {  .1.p.p.`.OXu.,.d.8.U A.I f b ( ( w 3 K.SXvXAXSXSXJXCX",
"dXAXCXJX= @.@.U #.$.,X2Xn.1.g.%.y.'.).w.t N ' e  .{ d + / - j 1Xk.%.6 ( ` z.1.e.9.eXrX&X8.0 T R x Z ] ` C d S.6XSXBXvXAXgXZXGXfX",
"BXBXbXGXj ~ x T +.+.O.@.f.d.<.g.e.w.2.p.s.( N A 3 S J.a   # o / n 5 a } e.) q n @.:XeX#.I D.x d b d 8 8 4 s P.vXSXSXBXBXcXKXGXAX",
"lXGXjXZXyX@ *.) A z D.G.J M a.p.s.g.p. .%.8.{ (  .5 d S d d 0.i G.& N ' q `  . .i.).$.$.^ p q 8 w r S F ] w e 3 H.zXZXLXGXGX9XGX",
"zXSXcXZXDXU B | ` _ g z S.#.x M 2.s.s.&XrXE._ p...].} e  .u F ,XJ E q 6 g e.# N S T W & 9 5 4 ; C V ) _ } q.-.8.4 R.ZXSXSXJXNXFX",
"mXAXAXZXDXtXf ` &.&.&._ 0 h Y S.x V ).wXyX1X].-. .S D 8 } Q.S X.,Xl f i i o U j j % & z a i z J z s * i p m n a @ k ZXGXkXKXGXvX",
"cXFXVXxXJXJXO.m 7.&.` [ &.F p a o.T m ~ ~.^ 9 l s ; 1 & 9 e } S N F % 9 ( w ( ~ } 8.1X3Xj.} ` ( $./ W U J - K R % S.CXcXSXJXhXJX",
"FXFXNXGXKXJXnXR _ ..%.F _  .`  .e 5 * > : - z ~ _ } _  .u } d X.V 6 # N ( N p F ' [.&XrX{.( &.m.[.<X>Xk.8.k.8.8.] / GXZXJXhXBXAX",
"gXGXgXCXKXlXJXhX# C _ F  .` d a L J k a v *.%XxX,X8.8.N 9 E.Q.5 :.p $ a /.k.j.( 2 d &XE.j. .1.>.q.M.'.f.m. XXX>X(.G.VXcXJXKXFXCX",
"AXNXNXGXnXlXJXiX< T l * g n P R C.J Z } g.|.OXW.c 8 N   o 5X,X( 2.M O 4 d 8.y.p. .8 d F ] ` | g.,.,.p.i.N. XXX2X&XA.BXaXDXJXFXCX",
"FXCXFXGXNXJXJXY.; ~ W , W L T D w } z.y.t q v A S ) C q x 0.{.u 3 o . # d 3 _ r.s.{ 2 d X.} w.p.d.1.;.u.M.}.`.oXQ.Z.AXBXmXKXcXZX",
"fXGXAXjXKXJXCXhXm  .).W.R.' -...g.d.d.;.[ &.&.&. .8.D &X[.5 ).p / Z.; D w d 5 N ].'.X.X F ] f.;.4.a.(.{.'. X|.OX} #.JXDXMXJXNXFX",
"SXCXCXCXSXnXCXGX~ ` |.&XoX].].x.i.<.4.d.3.p.d.1.a.B 1XwX+Xm O s SXcX*XX ) e d 6 W.1X&X6 4 7.f.d.:.).wXwX.X}._..X` R.ZXKXDXJXBXAX",
"GXkXCXGXAXNXKXCX*Xd s.q.w.).<XwX`.u.4.5.d.d.d.5.u ).(.1X+X4 & Q 8XSX9Xk d X.d F - ~.3X7.X !.;X_.1.].3X3X_.x.g.c.( ^.CXNXZXKXFXCX",
"jXGXKXjXSXJXjXGX0Xd p.r.x..X1X3XXXf.h.g.f.u.;.=.r.p.x. .d n D i ^.SX9XW p X.2  .^ N z.j.6 $ 1X5X4.w.[.OXz.p.p.f.d $XVXFXJXCXJXZX",
"CXAXKXAXCXKXAXCXFX+.0.XXz.`.;X;X5.5.v.b.t.h.v.5.g.;.f.h P G h.- Z.SXLX> h  .q.q { e ] h.&.# D '.t.t.t.y.w.g.4.1.: DXmXCXNXNXGXjX",
"CXKXCXCXAXCXCXKXxXqXO.eX_.XX|.{.m.t.3.5.5.3.h.t.5.n.+ G.: :.,.l W SX9XQ g  .s.}  .) V h.B.A 6 F 3.g.1.d.p.<.g.t L.DXCXKXAXNXKXCX",
"KXSXCXCXKXKXCXCXDXJXS.9.N.g.|.`.`.u.;.v.v.h.f.B.5.6 D.z G v.1.m K SX7X: d { a.y.p.j.] ;.v.8.4 i g.1.d.,.4.a.`.6 iXDXnXFXCXCXCXZX",
"CXCXCXCXSXCXCXCXGXNX9Xh 3.1.XX+X}.B.`._.B.g.v.5.C Z.+.w d.d.e.b Q SXU.* d j.).l.p.B.q.<.5.s.A j r n.p.<.|.XX# ^.DXnXCXKXCXKXZXDX",
"CXKXAXCXAXCXCXKXlXNXFXL.m d.}.`. X X X`.B.b.i.` P O.f `.b.:.9.h Y SXT.& 7.,XwX.X,.3.n.p.4.5.&.l i g *.S 9.f = HXGXjXCXCXCXSXKXZX",
"CXCXCXCXKXCXCXCXxXJXVXP.@ G b.n.c.m.}.N.g.d.8.g P r 2XyX[.n.) T S.bXC.i 0.wXrX.X5.2.p.w.s.3.h.M Z.o k Y : = iXSXCXNXGXCXCXAXDXlX",
"CXAXCXSXKXFXCXCXDXjXU.H f q [ h.u./.=X|.e.] D j i N.4XqX>Xn.5 D.H.gX, 0 ] (.+Xs.b.5.i.Q.{.n.3.%.z $.= K.I.CXCXlXCXSXGXCXSXAXJXNX",
"CXKXCXCXCXCXCXCXVX0X~ q B.%.3 *.s.oXeX5X@.6 i K B.:.!.;Xn.y Y R #XaX> N ( ' y.1.8.x.x.,XwXoX1.b.n ~ Y +.GXGXfXJXCXSXKXjXGXjXFXCX",
"SXCXCXCXCXGXCXCXSXR Q ^ r.d.;.p 4 A x % @ i ' x.u.v.1.3.t.M J.U vX8XP a )  .g.d.4.<.(.3XwX.Xh.4.8.A $.Y > iXFXvXCXKXNXAXcXCXKXjX",
"SXSXSXKXjXjXCXSX@XY Z w.d.4.n.t.] V 0 N 8.c.x.p.t.1.v.6.u.x P G.AX*Xk p } -.p.d.f.w.y.N.'.x.t.a.5.3.+ #.L.= -XMXGXGXCXKXKXNXGXGX",
"KXKXCXGXAXkXGXCXC.! _ p.4.1.d.d.p.z..X&X].p.p.p.5.b.3.b.d F.< vXHX7Xk p ' { d.5.a.t.<.1.4.3.w.y.v.5.N.5 D ^.J O.#XlXDXJXJXjXjXCX",
"CXFXjXGXGXKXJX7XC.U `.a.<.b.h.n.4.c.1XpX&Xf.p.p.;.;.i.C x O.P.JXHX8XJ a V [ s.d.p.d.p.p.3.p.p.4.3.&.q.|.[.z +.G.= 7XDXZXAXKXKXnX",
"CXGXjXCXAXCXCXP.H U rXoXs.v.;.q.5.e.~.3X&Xx.p.s./.k.9.a #.O.mXlXHX7X: x 9.q.<.d.1.p.d.p.p.p.p.4.5.n.V.<XwX%X#.# Z.iXJXlXCXCXGXJX",
"CXGXKXCXjXCXJX7Xl L W.7.&.6.b.v.h.B.N.N.d.2.3.z.<XwXx J.I 0XJXKXGX-X- $.1X].;.d.a.i.<.4.1.<.i.z.1.b.%.'.uX4XD g xXJXDXAXCXcXCXnX",
"jXSXFXCXCXJXJXCXzXqXH.#.~ @.) t.h.h.,.,.5.d.d.z.3X[.k O.P.cXKXMXGX0X> / 3X.X-.g.a.w.y._._.z.a.x.x.n.n.a.8.Z O.JXZXnXkXAXJXCXSXKX",
"JXCXCXCXKXSXNXKXdXFXJXGXFXKXf m.f.n.v.t.u.f.;.d.%XA #.I JXFXvXDXCXlXP * ~.k.%.d.4.i.(.3XwX.Xg.d.p.{ m h S.7XJXNXCXJXNXFXNXCXGXnX",
"KXCXCXFXCXCXSXCXSXlXJXNXNXJX-Xj m.g.B.y.d.v.5.a.M ~ R U.JXjXKXKXFXJXW ! 5 ' -.d.0.h.M.eXwX/.8.A I K.8XJXGXFXFXNXCXCXCXCXKXCXCXCX",
"CXCXCXCXKXAXCXCXZXJXjXFXKXmXMXI.X.f.>.x.u.| d.s.p $.Z.GXNXKXKXDXNXJXK.k Z ' =.d.3.,.n.0.#.z S.hXDXMXGXjXkXSXjXGXCXCXAXKXSXCXAXCX",
"KXCXCXKXCXKXCXCXGXiXGXFXjXGXZXDX/ N p.s.j.].-. .l P 8XJXJXhXJXKXjXGX-XI c b :.>.d.1.C Y 7XGXCXBXmXJXjXJXGXjXJXjXKXKXCXCXCXCXKXCX",
"AXKXCXCXKXAXCXCXZXCXAXJXNXjXGXKXAX~ ( &X{.z.n.( J O.FXNXNXDXKXnXAXCXDXR Y 5 %.3.>.f.x ZXJXGXCXSXnXjXCXCXKXJXZXZXCXCXCXKXCXSXCXCX",
"CXCXSXCXCXCXSXCXCXKXCXAXAXcXFXjXFXhX! ! eX2X;.b H U.HXgXAXGXDXKXHXtXJX*X: ~ q f.g.7.U JXAXjXmXzXGXCXGXCXnXJXCXJXSXCXCXAXCXCXKXSX",
"SXKXCXCXKXCXCXCXJXjXGXjXNXGXjXAXsXJXSXG.z 9.' h > hXAXcXGXhXJXCXCXSXcXGX+.T h S v.m $XmXlXBXJXSXaXJXjXGXGXhXGXNXCXKXCXCXKXAXCXCX",
"CXCXCXCXAXSXCXCXCXJXkXZXJXnXGXnXVXmXhXJXkXH.! . D.GXLXGXhXDXCXFXSXSXJXcXlXH #.$ g.a tXKXGXvXvXkXJXCXGXlXjXGXjXJXCXCXCXCXCXKXCXCX",
"CXCXAXKXKXCXCXCXCXCXJXKXDXDXkXKXFXMXMXVXdXVXxXyXtXzXHXjXJXDXCXFXSXkXHXnXJXqXP O.3 O.VXCXzXcXJXmXNXKXnXDXJXCXJXBXCXCXSXKXCXAXCXCX",
"CXKXCXKXCXCXCXCXCXCXCXSXCXCXCXSXAXKXKXCXCXCXCXCXCXSXCXKXSXCXCXCXGXAXAXCXCXGX7X< < 9XJXnXSXKXjXGXKXAXKXAXCXCXCXKXCXSXCXCXSXCXCXCX",
"CXAXKXAXCXSXCXKXCXCXKXCXCXCXCXCXCXCXAXKXCXSXCXSXCXCXCXAXCXCXCXSXNXcXGXJXjXZXJXiX0XGXJXvXCXKXjXKXCXKXCXCXCXSXCXAXCXCXCXKXCXCXCXSX",
"CXSXCXCXCXCXKXAXCXCXCXCXCXKXCXCXCXCXCXCXCXKXAXCXCXCXKXKXCXCXCXCXFXjXSXGXnXCXJXGXGXGXCXNXJXJXNXCXKXAXCXCXCXCXCXKXCXAXKXAXCXKXCXCX",
"CXCXCXCXCXSXCXKXCXKXKXAXAXKXAXCXCXCXSXCXCXCXKXCXAXKXAXCXCXCXKXCXGXjXNXJXSXCXCXfXnXjXNXSXSXFXKXCXCXCXCXCXSXCXKXAXCXCXCXKXKXAXCXCX",
"CXAXCXKXCXCXCXAXCXSXCXKXKXCXSXCXCXCXCXCXCXCXCXKXCXSXCXCXCXCXAXAXCXnXCXCXCXCXKXFXCXnXSXKXjXAXGXSXCXSXKXCXSXCXCXCXCXSXKXAXAXCXKXSX",
"CXKXSXCXSXCXCXCXCXCXCXAXCXCXCXCXKXAXSXCXCXSXCXAXCXKXCXCXCXCXKXKXjXCXCXAXCXCXFXSXFXCXJXCXCXJXSXcXCXCXSXCXCXCXCXCXCXKXCXCXKXCXCXCX",
"KXAXCXCXCXCXCXKXCXCXCXCXSXKXCXKXKXKXCXCXCXCXCXKXSXCXCXAXCXCXKXCXKXDXCXKXGXKXNXjXCXCXAXKXSXJXCXkXAXCXCXCXCXCXCXCXCXCXCXCXSXCXCXAX",
"CXCXCXCXCXCXSXCXAXKXCXCXCXCXCXAXAXCXCXCXCXSXCXCXCXCXCXKXSXCXCXCXZXKXnXCXCXNXNXJXCXKXCXCXCXnXnXGXKXCXCXCXCXCXSXKXCXAXCXCXCXKXCXCX"
};
