/* XPM */
static char *door[] = {
/* columns rows colors chars-per-pixel */
"100 100 92 1 ",
"  c #1E1E1F",
". c #252525",
"X c #282727",
"o c #282827",
"O c #2B2B2B",
"+ c #30302F",
"@ c #353534",
"# c #383737",
"$ c #393937",
"% c #3A3939",
"& c #403F3E",
"* c #474645",
"= c #484746",
"- c #494847",
"; c #4E4D4A",
": c #504F4C",
"> c #53524F",
", c #565553",
"< c #585754",
"1 c #595855",
"2 c #5C5B58",
"3 c #615E5A",
"4 c #6C645A",
"5 c #656464",
"6 c #696865",
"7 c #6B6A6A",
"8 c #73726F",
"9 c #777572",
"0 c #797775",
"q c #7B7976",
"w c #7D7B78",
"e c #876A31",
"r c #937F58",
"t c #8A7862",
"y c #807D7A",
"u c #A78134",
"i c #A88136",
"p c #CA9937",
"a c #CB9A3A",
"s c #D09D3B",
"d c #B19154",
"f c #958463",
"g c #8D857B",
"h c #978A7B",
"j c #9D907F",
"k c #B89D6A",
"l c #CFA148",
"z c #D0A34A",
"x c #D7AF61",
"c c #D9B165",
"v c #DFBD7C",
"b c #E1BF7E",
"n c #E4C17E",
"m c #868481",
"M c #8A8A8A",
"N c #9D9688",
"B c #949494",
"V c #989691",
"C c #A09282",
"Z c #A2A09B",
"A c #ABABAB",
"S c #B4B4B4",
"D c #B9B6B1",
"F c #C4A887",
"G c #CDAF8C",
"H c #CEB08C",
"J c #D2B38E",
"K c #C2B49A",
"L c #C6BCAA",
"P c #E3C58D",
"I c #E8CA90",
"U c #C6C3BD",
"Y c #E9D4AB",
"T c #EDDBBA",
"R c #F0DDBC",
"E c #C2C2C2",
"W c #CCC9C2",
"Q c #CFCFCF",
"! c #D8D5CE",
"~ c #D2D2D2",
"^ c #DBD8D1",
"/ c #F1E4CD",
"( c #E7E3DC",
") c #E8E4DD",
"_ c #F4E7D0",
"` c #F5E9D3",
"' c #F4EBDA",
"] c #EBE7E0",
"[ c #EDE9E2",
"{ c #F6F2EB",
"} c #F9F5ED",
"| c #FEFAF2",
/* pixels */
"QQQQQQQQQQQQQQQQQQQQQQQQQQQQQQQ~Ao.......o....o.................. M~~QQQQQQQQQQQQQQQQQQQQQQQQQQQQQQQ",
"QQQQQQQQQQQQQQQQQQQQQQQQQQQQQQQ~Ao...................o............M~QQQQQQQQQQQQQQQQQQQQQQQQQQQQQQQQ",
"QQQQQQQQQQQQQQQQQQQQQQQQQQQQQQQ~Ao.........................oo.... M~QQQQQQQQQQQQQQQQQQQQQQQQQQQQQQQQ",
"QQQQQQQQQQQQQQQQQQQQQQQQQQQQQQQ~Ao..o...........................o.M~QQQQQQQQQQQQQQQQQQQQQQQQQQQQQQQQ",
"QQQQQQQQQQQQQQQQQQQQQQQQQQQQQQQ~Ao............o.................. M~QQQQQQQQQQQQQQQQQQQQQQQQQQQQQQQQ",
"QQQQQQQQQQQQQQQQQQQQQQQQQQQQQQQ~Ao.......o.......o................M~QQQQQQQQQQQQQQQQQQQQQQQQQQQQQQQQ",
"QQQQQQQQQQQQQQQQQQQQQQQQQ~~~~~~~Ao........................o...... B~~~Q~~~~QQQQQQQQQQQQQQQQQQQQQQQQQ",
"QQQQQQQQQQQQQQQQQQQQQQQQSAAAAAAABo..o...............o............ 9AAAAAAAAQQQQQQQQQQQQQQQQQQQQQQQQQ",
"QQQQQQQQQQQQQQQQQQQQQQQQ:.oooooo..................................oooooooo@EQQQQQQQQQQQQQQQQQQQQQQQQ",
"QQQQQQQQQQQQQQQQQQQQQQQQ:................o................................@E~QQQQQQQQQQQQQQQQQQQQQQQ",
"QQQQQQQQQQQQQQQQQQQQQQQQ; ............o.......................o...........+EQQQQQQQQQQQQQQQQQQQQQQQQ",
"QQQQQQQQQQQQQQQQQQQQQQQQ;...............................o.................@EQQQQQQQQQQQQQQQQQQQQQQQQ",
"QQQQQQQQQQQQQQQQQQQQQQQQ: ................................................+EQQQQQQQQQQQQQQQQQQQQQQQQ",
"QQQQQQQQQQQQQQQQQQQQQQQQ:...............o.................................@EQQQQQQQQQQQQQQQQQQQQQQQQ",
"QQQQQQQQQQQQQQQQQQQQQQQQ;................o...o............................@E~QQQQ~QQQQQQQQQQQQQQQQQQ",
"QQQQQQQQQQQQQQQQ~~~~~~~~;........  . .     .   ...........................@E^~~~~~~~QQQQQQQQQQQQQQQQ",
"QQQQQQQQQQQQQQQ~B7777777#.......*VZZZZZZZZZZZZZZZB+......+<<<<<<<1%.......O57777777B~QQQQQQQQQQQQQQQ",
"QQQQQQQQQQQQQQ~~5 .   . ....... ,||||||||||||||||[@......%qwwwwwqy-..........      7~QQQQQQQQQQQQQQQ",
"QQQQQQQ~QQQQQQQ~7 ..............>{}}|}}}}}}}}}}}{]@......#0qqqw0qy=............... 7~QQQQQQQQQQQQQQQ",
"QQQQQQQQQQQQQQQ~7 ............. >{}}}}}}}}}}}}}}}]#......@0qqqqqqq=................7~QQQQQQQQQQQQQQQ",
"QQQQQQQQQQQQQQ~~7...............>{}}}}}}}}}}}}}}}]#......#0qqqqqqq- .............. 7~~QQQQQQQQQQQQQQ",
"QQQQQQQQQQQQQQQ~7 ............. :{}}}}}}}}}}}}}}{(@......#qqqqqqqq-................7~QQQQQQQQQQQQQQQ",
"QQQQQQQQQQQQQQ~~7 ..............>{}}}}}}}}}}}}}}}]+......@0qqqqqqy*............X.. 7~~QQQQQQQQQQQQQQ",
"QQQQQQQQQQ~QQQ~~7 ....o........ >{}}}}}}}}}}}}}}}]@......#0qqqqqqq=............... 7~QQQ~QQQQQQQQQQQ",
"QQQQQQQQDEEEEEEE7 o.....@######@3{}}}}}}}[)((((()!%oOOOOo%0qqqqqqq;XO+OOOOO........5EEEEEEEEQQQQQQQQ",
"QQQQQQ~A%@@@@@+@o......oS[(())((]}}}}}}}|m@###@@#%89989999qqqqqqqq988889997O.....o.O@@@+@@+@AQQQQQQQ",
"QQQQQQ~A................U|}}}}}}}}}}}}}}|q ......o8000qq0qqqqqqqqqqqqqqq0q8O................AQQQQQQQ",
"QQQQQQ~A.......o.......oU|}}}}}}}}}}}}}}|q ......O9qqqqqqqqqqqqqqqqqqqqqqq9+...............XA~QQQQQQ",
"QQQQQQ~A.........o......U}{}}}}}}}}{}}}}|q.......O9qqqqqqqqqqqq0qqqqqqqqqq9O..o............XA~QQQQQQ",
"QQQQQQ~Ao..............oU|}}}}}}}}}}}}}}|w .X....O9qqqqqqqqqqqqqqq0qqqqqqq8O..............XXA~QQQQQQ",
"QQQQQQ~Ao...........o...U|}}}}}}}}}}}}}}|q ......O8q0qqqqqqqqqqqqqqqqqqqqq8O...............oA~QQQQQQ",
"QQQQQQ~Ao..............oU|}}}}}}}}}}}}}}|q ......o9qqqqqqqqqqqqqqqqqqqqqqq9O...............oA~QQQQQQ",
"QQQQQQ~Ao.......        U|}}}}}}}||||||||w .. .. o8qqqqqqqqqwqwqqqqqqyqqqq9O.........X.....oA~QQQQQQ",
"QQQQQQ~Ao.......1wwwwwww^}}}}}}}^AZZZZZZZ7*-=---=;9qqqqqq966666666666666665O....X..........oA~QQQQQQ",
"QQQQQQ~Ao...o.. Z|||||||}}}}}}}|Q.  . .  <yqwwqwwwqqqqqqq8;;:;;>:::::::;::-X...............XA~QQQQQQ",
"QQQQQQ~Ao...... A|}}}}}}}}}}}}}}W........<yqqqqqqqqqqqqqq8;>>;>;:::::::::::X...............oAQQQQQQQ",
"QQQQQQ~Ao.......V||}}}}}}}}}}}}|Wo.......<qqqqqqqqqqqqqqq8>;;:::::::::::::-X...X...........oA~QQQQQQ",
"QQQQQQ~Ao...... Z|}}}}}}}}}}}}}|Wo.......<qqqqqqqqqqqqqqq8;>>;;::::::::::::X.........X.....oA~QQQQQQ",
"QQQQQQ~Ao.......Z|}}}}}}}}}}}}}}Wo...... <qqqqqqqqqqqqqqq8;;;;>;::::::::::-X......X........XA~QQQQQQ",
"QQQQQQ~Ao...... Z|}}}}}}}}}}}}}|Wo.......<yqqqqqqqqqqqqqq8>;>>;>:::::::::::X...............XA~QQQQQQ",
"QQQQQQ~Ao...... Z|}}}}}}}}}}}}}}Wo.......<yqqqqqqqqqqqqqq8>;::::::::::::::-O...............XA~QQQQQQ",
"QQQQQQ~Ao...... Z|}}}}}}{{}}}}}|Wo...X...<qqqqqqqq9qqqqqq8:::::::::::::::::X..X.X.X........XA~QQQQQQ",
"QQQQQQ~Ao.......Z|}}}}}}'`````)`Uo.......<yqqqqqq94,1111,,;:::::::-*-------*******-$.......XAQQQQQQQ",
"QQQQQQ~Ao...... Z|}}}}}}`//////_Lo.......<qq0qqqq9>:;;:;;;:::::::>-********::::::::&........A~QQQQQQ",
"QQQQQQ~Ao.......Z|}}}}}}_//////_L....... <yqqqqqq9>>::::::::::::::-********::::::::&.......XA!QQQQQQ",
"QQQQQQQAo...... Z|}}}}}}_//////_L........<wqqqqqq9>;:::::::::::::::********::::::::&.......XAQQQQQQQ",
"QQQQQQ~Ao...... Z|}}}}}}__/////_LX....X..<wqqqqqq9>>::::::::::::::-********::::::::&.....X.XA~QQQQQQ",
"QQQQQQ~Ao.......Z|}}}}}}`//////_LX.......>wqqqqqqq>;::::::::::::::-********::::::::&.......XA~QQQQQQ",
"QQQQQQQA....... Z|}}}}}}`//////_Lo.......<qqqqqqq9>;::::::::::::::;********:::::::>%.X.....XA~QQQQQQ",
"QQQQQQ~Ao.....o Z|}{{}{{__/////_Lo...... <yqqqqqq9>>::::::;;:::;::*********:::::::>&.......XA~QQQQQQ",
"QQQQQQ~Ao.....o N`_____////////_Lo.X.....<yqqqqqq9>::::::;-==*--*******************%.......XAQQQQQQQ",
"QQQQQQ~Ao.....o N_/////////////_Lo.......<qqqqqqqq>::::::;-************************#........A~QQQQQQ",
"QQQQQQ~Ao...... N`/////////////_LX...... <qqqqqqq9>::::::;*************************%.......oA~QQQQQQ",
"QQQQQQ~Ao....oo N`/////////////_LX.......<yqqqqqq9>::::::;=************************%.......oA~QQQQQQ",
"QQQQQQ~Ao...... N`/////////////_Lo.......<qqqqqqq8>::::::;*************************%.......oA~QQQQQQ",
"QQQQQQ~Ao.......N`/////////////_Lo.......<yqqqqqqq>::::::;*************************%.......oA~QQQQQQ",
"QQQQQQ~Ao...... N`_////////////_LX.......<yqqqqqq9:::::::;*************************%.......XA~QQQQQQ",
"QQQQQQ~Ao.......C`__///////////_LX...... ,q0000qq9>::::::;*************************%.......XA~QQQQQQ",
"QQQQQQ~Ao...... N'/////////////_LX.......4CjjCjjjh,::::::;-********;*;*;;*;********%.......XA~QQQQQQ",
"QQQQQQ~Ao.....o C`/////////////_LX.....X.tJJHHHHJF1::::::;********;::::::::********%.X.....XA~QQQQQQ",
"QQQQQQ~Ao....o. C'_////////////_Lo.......tJHHHHHHC3>:::::;*****=**;::::::::********#.......XA~QQQQQQ",
"QQQQQQ~Ao.....o C`/////////////_Lo...... tJHHHHHHv,::::::;=*******-::::::::********%.......XA~QQQQQQ",
"QQQQQQ~Ao...... C'/////////////_LX.....X tJHHHHHJC1::::::;********;::::::::********%.......XA~QQQQQQ",
"QQQQQQ~Ao.......C`/////////////_LX.......tJHHHHJJv,::::::;********;::::::::********#.......XA~QQQQQQ",
"QQQQQQ~Ao.......B`//////////////LX.......tJHHHHHHZ,::::::;********;;:::::::********$.......XA~QQQQQQ",
"QQQQQQ~Ao...... N`//////////////LX...X.. tJHHHHHGv<::::::;********;::::::::********$.......XA~QQQQQQ",
"QQQQQQ~Ao...... N_/////////////_LX.......tJHGGHHGF2:::::::********;::::::::*******-$.......XA~QQQQQQ",
"QQQQQQ~Ao.......fIPPPPPPT//////_LX.......2hgggggyt,::::::;********;;:::::::*******-$.......XA~QQQQQQ",
"QQQQQQ~Ao...... fnvvvvvvT//////_LX.......,w0q0q0q9>::::::;********;::::::::*******-$.......XA~QQQQQQ",
"QQQQQQQAo.......rnvvvvvvT//////_LX.......,wqqqqqyq>::::::;********-::::::::*******-$........A~QQQQQQ",
"QQQQQQ~Ao...... rnvvvvvvT//////_LX...... <wqqqqqq8>::::::;********;;:::::::*******-$.......XA~QQQQQQ",
"QQQQQQ~Ao.......rnvvvvvvT//////_LX.X...X.,wqqqqqy9>:::::::********;::::::::********$........A~QQQQQQ",
"QQQQQQQA....... rnvvvvvbT//////_LX..X... 1wqqqqqq9>:::::::********;:::::::;********%.......XA~QQQQQQ",
"QQQQQQ~Ao.......rPvvvvvvT_/////_LX.......1wqqqqqq8>:::::::********;::::::::********$.......XA~QQQQQQ",
"QQQQQQ~Ao.......rnvvvvvvT//__//_LX.......1wqqqqqy9>::::::;*********::::::::*******=%....X..XA~QQQQQQ",
"QQQQQQ~Ao...... rnvvvvvvYTTTTTTRKX...... 1qqqqqqqq>::::::;********;::::::::*******-%.......XA~QQQQQQ",
"QQQQQQ~Ao.......rnvvvvvvvvvvvvvnk........,w0qqqqq8>::::::;********;;:::::::*******=%.......XA~QQQQQQ",
"QQQQQQ~Ao.....o rnvvvvvvvvvvvvvbkX.......1wwqqqqy9>:::::::********;::::::::********%.......XA~QQQQQQ",
"QQQQQQ~Ao.......rnvvvvvvvvvvvvvnkX.......1w0qq0qq9>::::::;********;::::::::*******=%.......XA~QQQQQQ",
"QQQQQQ~Ao.....o rnvvvvvvvvvvvvvbkXo....o 1wqqqqqq8>::::::;********;;:::::::********%........A~QQQQQQ",
"QQQQQQ~Ao...... rnvvvvvvvvvvvvvnkX.......,wqqqqqw9>::::::;********;::::::::********%.......XA~QQQQQQ",
"QQQQQQ~Ao.......rnvvvvvvvvvvvvvnkX.......,wqqqqqw9>::::::;********-::::::::********%.......XA~QQQQQQ",
"QQQQQQ~Ao....o. rnvvvvvvvvbvbvvnkX....X..1wqqqqqq9>::::::;********;::::::::*******=%.......XA~QQQQQQ",
"QQQQQQQAo.......rnvvvvvvcxxxxxxxdX.......,wqqqqqw9>::::::;=*******;::::::::********%.......XA~QQQQQQ",
"QQQQQQ~Ao...... rnvvvvvvlpaaapaauX...... 1wqqqqq09>::::::;********;::::::::********%.......XA~QQQQQQ",
"QQQQQQ~Ao.......rnvvvvvvlaaaaaaauX.......1wqqqqqw9>:::::>;********-::::::::********%.......XA~QQQQQQ",
"QQQQQQ~Ao.......rnvvvvvvlaaaaaaauX..X... 1wqqqqqw9>::::::;********;::::::::********%.......XAQQQQQQQ",
"QQQQQQ~Ao...... rnvvvvvvlaaaaaaauX.......1wqqqqqq9>::::::;********;::::::::*******=%.......XA~QQQQQQ",
"QQQQQQ~AX.......fnvvvvvvlaaaaaaauX.......,wqqqqqq9>::::::;=*******->:::::::********#.......XAQQQQQQQ",
"QQQQQQ~AX...... fnvvvvvvlaaaaaaauX.....X.,wqqqqqw9>::::::;=*******;::::::::********%.......XA~QQQQQQ",
"QQQQQQ~AX.......rnvvvvvvlaaaaaaaiX...... 1wqqqqqq9>::::::;********-::::::::********%.......XA~QQQQQQ",
"QQQQQQ~AX...... rvvvvvnJlaaaaaasi........,wqqqqqq9>::::::;********;::::::::********#......XXA~QQQQQQ",
"QQQQQQ~AX...X X eszzllllaaaaaaaaio.......,wwqqqqw9>::::::;********;::::::::********%.......XA~QQQQQQ",
"QQQQQQQAX...XXX.eppsaaaaaaaaaaaai........,wwqqqqq0>:::::>;********-::::::::********%.......XA~QQQQQQ",
"QQQQQQ~AX...X . esspaaaaaaaaaaasi........<w9qqqqq9>::::::;********:::::::::-*******%..X....XA~QQQQQQ",
"QQQQQQ~AXX..XX..esspaaaaaaaaaaaauo.......,wwqqqqw9>::::::;********-::::::::********%.......XA~QQQQQQ",
"QQQQQQ~Ao.....o.esaaaaaaaaaaaaaaioXX.... 1wqqqqqq9,::::::;********;::::::::*******-%.X.....XA~QQQQQQ",
"QQQQQQ~Ao...... esaaaaaaaaaaaaaaioX .....1wqqqqqw9>;:::::;=*******-::::::::********%.......XA~QQQQQQ",
"QQQQQQ~A........esaaaaaaaaaaaaaauXXX..X. <wqqqqqq9>::::::;********:::::::::********%.......XA~QQQQQQ",
"QQQQQQ~Ao.......esadaaaaaaaaaaaaiXX ....X<wqqqqqq9>::::::;*****=**-::::::::********%.......XA~QQQQQQ"
};
