/* XPM */
static char *door[] = {
/* columns rows colors chars-per-pixel */
"64 64 184 2 ",
"   c #160000",
".  c #1B0000",
"X  c #1B090B",
"o  c #230406",
"O  c #3F080B",
"+  c #3F0406",
"@  c #351215",
"#  c #361719",
"$  c #4F0003",
"%  c #41070A",
"&  c #450406",
"*  c #550204",
"=  c #5C0204",
"-  c #440E11",
";  c #491012",
":  c #660104",
">  c #6B0204",
",  c #6A0509",
"<  c #64080B",
"1  c #6A090B",
"2  c #620608",
"3  c #740305",
"4  c #7A0306",
"5  c #730509",
"6  c #7B0608",
"7  c #760A0C",
"8  c #671F04",
"9  c #671D0A",
"0  c #7B0F10",
"q  c #6F1011",
"w  c #601D1F",
"e  c #711013",
"r  c #7F1215",
"t  c #771518",
"y  c #7E1619",
"u  c #6F2804",
"i  c #632405",
"p  c #7E2C14",
"a  c #641C20",
"s  c #344416",
"d  c #5C4F17",
"f  c #66590D",
"g  c #656C1A",
"h  c #4E4F20",
"j  c #696023",
"k  c #7C7D32",
"l  c #850305",
"z  c #8C0203",
"x  c #840609",
"c  c #8A0609",
"v  c #86080A",
"b  c #880B0E",
"n  c #920102",
"m  c #9D0102",
"M  c #950608",
"N  c #990608",
"B  c #940B0C",
"V  c #990A0B",
"C  c #870F11",
"Z  c #890F11",
"A  c #9A0E10",
"S  c #831315",
"D  c #891315",
"F  c #841618",
"G  c #8B1619",
"H  c #861A1C",
"J  c #8A1A1C",
"K  c #9E1213",
"L  c #961719",
"P  c #951B1D",
"I  c #9A1C1D",
"U  c #A20203",
"Y  c #AC0203",
"T  c #A10A0C",
"R  c #AD0F07",
"E  c #B30305",
"W  c #BC0102",
"Q  c #B3070A",
"!  c #B20C0D",
"~  c #BA0B09",
"^  c #A40E10",
"/  c #A90F11",
"(  c #B10F10",
")  c #A51717",
"_  c #A81314",
"`  c #A51718",
"'  c #A61B1C",
"]  c #B21112",
"[  c #B8171A",
"{  c #B31819",
"}  c #86220E",
"|  c #8B1D20",
" . c #861E21",
".. c #951E21",
"X. c #9C1E20",
"o. c #BC1F20",
"O. c #832023",
"+. c #892326",
"@. c #8A2629",
"#. c #8A2A2D",
"$. c #842629",
"%. c #952224",
"&. c #962728",
"*. c #A62324",
"=. c #A72728",
"-. c #A82728",
";. c #A72928",
":. c #A92929",
">. c #B92021",
",. c #B42A2B",
"<. c #B12E30",
"1. c #AA3131",
"2. c #B63031",
"3. c #BB3334",
"4. c #C30102",
"5. c #CC0101",
"6. c #C70708",
"7. c #C30A0D",
"8. c #D40102",
"9. c #DB0102",
"0. c #D30B0C",
"q. c #DB080A",
"w. c #D41719",
"e. c #D41D1E",
"r. c #D41214",
"t. c #E40001",
"y. c #ED0101",
"u. c #EF0A0C",
"i. c #F20101",
"p. c #FE0101",
"a. c #FF0807",
"s. c #FE0708",
"d. c #F40A0B",
"f. c #FE0A0B",
"g. c #F30709",
"h. c #FF0F10",
"j. c #F31315",
"k. c #FD1314",
"l. c #FF1718",
"z. c #F31C1D",
"x. c #FF1C1D",
"c. c #D42729",
"v. c #D42B2C",
"b. c #D42223",
"n. c #D43335",
"m. c #D43B3C",
"M. c #FF2324",
"N. c #F22A2B",
"B. c #FD2B2C",
"V. c #F22424",
"C. c #F22F30",
"Z. c #F23435",
"A. c #FF3334",
"S. c #F33B3C",
"D. c #FF383A",
"F. c #D53E40",
"G. c #D44042",
"H. c #D44E4E",
"J. c #D74F50",
"K. c #F74142",
"L. c #FF4445",
"P. c #FF4C4D",
"I. c #FF4F50",
"U. c #F45354",
"Y. c #FF5454",
"T. c #F65E5E",
"R. c #FF5B5C",
"E. c #F36163",
"W. c #FF6162",
"Q. c #FD696B",
"!. c #A6A410",
"~. c #A8B714",
"^. c #CCC30C",
"/. c #8C898A",
"(. c #918B8D",
"). c #979193",
"_. c #9A9294",
"`. c #9D9899",
"'. c #AAB7B9",
"]. c #ACB9BB",
"[. c #B4B4B5",
"{. c #B2BABC",
"}. c #E9E9EA",
"|. c #FFFEFF",
/* pixels */
"|.|.|.|.|.|.|.|.|.|.|.|.|.|.|.|.|.|.|.|.|.|.|.|.|.|.|.|.|.|.|.|.|.|.|.|.|.|.|.|.|.|.|.|.|.|.|.|.|.|.|.|.|.|.|.|.|.|.|.|.|.|.|.|.",
"|.|.|.|.|.|.|.|.|.|.|.|.|.|.|.|.|.|.|.|.|.|.|.|.|.|.|.|.|.|.|.|.|.|.|.|.|.|.|.|.|.|.|.|.|.|.|.|.|.|.|.|.|.|.|.|.|.|.|.|.|.|.|.|.",
"|.|.|.|.|.|.|.|.|.|.|.|.|.|.|.|.|.|.|.|.|.|.|.|.|.|.|.|.|.|.|.|.|.|.|.|.|.|.|.|.|.|.|.|.|.|.|.|.|.|.|.|.|.|.|.|.|.|.|.|.|.|.|.|.",
"|.|.|.|.|.|.|.|.|.|.|.|.|.|.|.|.|.|.|.|.|.|.|.|.|.|.|.|.|.|.|.|.|.|.|.|.|.|.|.|.|.|.|.|.|.|.|.|.|.|.|.|.|.|.|.|.|.|.|.|.|.|.|.|.",
"|.|.|.|.|.|.|.|.|.|.|.|.|.|.|.|.|.|.|.|.|.|.|.|.|.|.|.|.|.|.|.|.|.|.|.|.|.|.|.|.|.|.|.|.|.|.|.|.|.|.|.|.|.|.|.|.|.|.|.|.|.|.|.|.",
"|.|.|.|.|.|.|.|.|.|.|.|.|.|.|.}.[.{.].].].].{.{.'.'.].].].].].].].].].].'.'.'.'.].].].{.].].{.[.}.|.|.|.|.|.|.|.|.|.|.|.|.|.|.|.",
"|.|.|.|.|.|.|.|.|.|.|.|.|.|.|.(.  K ( ! ! { ] ( Y ! ! ! ! ! ! ( ! ! ( ! ! ! Q ! ! ! ! ] ] ] )   /.|.|.|.|.|.|.|.|.|.|.|.|.|.|.|.",
"|.|.|.|.|.|.|.|.|.|.|.|.|.|.|._./ < G D F J F F F F F H H J H H H J H H H F F F S D D b v c , l /.|.|.|.|.|.|.|.|.|.|.|.|.|.|.|.",
"|.|.|.|.|.|.|.|.|.|.|.|.|.|.|.).E $.Q.E.E.T.W.R.Y.Y.I.P.L.K.S.S.Z.C.N.B.M.x.x.l.h.f.d.g.y.p.v m /.|.|.|.|.|.|.|.|.|.|.|.|.|.|.|.",
"|.|.|.|.|.|.|.|.|.|.|.|.|.|.|.).E @.W.l.f.d.8.4.5.5.5.4.8.y.p.p.p.p.y.5.5.5.5.5.5.9.p.p.p.p.v n /.|.|.|.|.|.|.|.|.|.|.|.|.|.|.|.",
"|.|.|.|.|.|.|.|.|.|.|.|.|.|.|.).E @.W.i.p.z @ P F J H %.@ : p.p.p.s.% w ..H H  .O.X E p.p.p.c n /.|.|.|.|.|.|.|.|.|.|.|.|.|.|.|.",
"|.|.|.|.|.|.|.|.|.|.|.|.|.|.|.).E #.R.s.p.B J *.3.,.o.^ 4 = p.p.h.y.t L :.2.,.{ V = U p.p.p.x m (.|.|.|.|.|.|.|.|.|.|.|.|.|.|.|.",
"|.|.|.|.|.|.|.|.|.|.|.|.|.|.|.(.E @.R.i.p.V L H.A.l.f.5.l > p.h.s.i.S =.U.M.k.p.E > m a.p.p.x m /.|.|.|.|.|.|.|.|.|.|.|.|.|.|.|.",
"|.|.|.|.|.|.|.|.|.|.|.|.|.|.|.(.E @.R.p.p.B P G.p.i.p.5.l , f.p.p.y.r ;.Z.i.p.p.Y > U p.p.p.x m /.|.|.|.|.|.|.|.|.|.|.|.|.|.|.|.",
"|.|.|.|.|.|.|.|.|.|.|.|.|.|.|.).E #.R.i.p.A P G.f.p.p.4.c q p.p.p.y.S =.Z.p.p.p.Y > m p.p.p.6 n /.|.|.|.|.|.|.|.|.|.|.|.|.|.|.|.",
"|.|.|.|.|.|.|.|.|.|.|.|.|.|.|.).E #.Y.p.p.V P m.p.p.p.W l > p.p.p.i.r =.N.p.p.p.U > m a.p.p.6 m /.|.|.|.|.|.|.|.|.|.|.|.|.|.|.|.",
"|.|.|.|.|.|.|.|.|.|.|.|.|.|.|.).E @.Y.i.p.V P n.p.p.p.W x : p.p.p.y.r ;.N.p.p.p.U > m p.p.p.6 n /.|.|.|.|.|.|.|.|.|.|.|.|.|.|.|.",
"|.|.|.|.|.|.|.|.|.|.|.|.|.|.|.).E #.Y.p.p.V P n.p.p.p.E c : p.p.p.y.r ;.V.p.p.p.N 3 N p.p.p.4 m /.|.}.|.|.|.|.|.|.|.|.|.|.|.|.|.",
"|.|.|.|.|.|.|.|.|.|.|.|.|.|.|.(.E #.I.i.p.V ..v.p.p.p.E l : p.p.p.i.r *.z.p.p.i.V 5 m p.p.p.6 m /.|.|.|.|.|.|.|.|.|.|.|.|.|.|.|.",
"|.|.|.|.|.|.|.|.|.|.|.|.|.|.|./.E #.P.p.p.B ..c.p.p.p.Y l > p.p.p.y.r *.z.p.p.g.A > m p.p.p.5 m /.|.|.|.|.|.|.|.|.|.|.|.|.|.|.|.",
"|.|.|.|.|.|.|.|.|.|.|.|.|.|.|.).E #.P.i.p.V ..b.p.p.p.U l : p.p.p.i.r =.j.p.f.u.n > m p.p.i.5 m /.|.}.|.|.|.|.|.|.|.|.|.|.|.|.|.",
"|.|.|.|.|.|.|.|.|.|.|.|.|.|.|.).E #.L.p.p.A &.e.p.p.p.m l , p.p.p.i.r *.j.a.a.y.n 3 U p.p.p.5 m /.|.|.|.|.|.|.|.|.|.|.|.|.|.|.|.",
"|.|.|.|.|.|.|.|.|.|.|.|.|.|.|.).E #.L.i.p.K &.w.p.p.p.m z , p.p.p.i.r ' j.a.p.t.z > N p.p.i.5 m /.|.|.|.|.|.|.|.|.|.|.|.|.|.|.|.",
"|.|.|.|.|.|.|.|.|.|.|.|.|.|.|.).E #.L.p.f.A P r.p.p.p.m z : p.p.p.y.y ' d.p.p.t.z 5 U p.p.p., m /.|.|.|.|.|.|.|.|.|.|.|.|.|.|.|.",
"|.|.|.|.|.|.|.|.|.|.|.|.|.|.|.).E #.L.i.a.V ..0.p.p.p.n z : p.p.p.i.F ' g.p.p.9.z > N p.p.i.5 m /.|.|.|.|.|.|.|.|.|.|.|.|.|.|.|.",
"|.|.|.|.|.|.|.|.|.|.|.|.|.|.|.(.E #.L.p.p.V P 0.p.p.p.n z : p.p.p.y.F ' y.p.p.9.z 3 U p.p.i., m /.|.|.|.|.|.|.|.|.|.|.|.|.|.|.|.",
"|.|.|.|.|.|.|.|.|.|.|.|.|.|.|.).E #.D.i.p.V P 9.p.p.i.n c : p.p.p.y.y _ p.p.p.8.n > U p.p.i., m /.|.|.|.|.|.|.|.|.|.|.|.|.|.|.|.",
"|.|.|.|.|.|.|.|.|.|.|.|.|.|.|.).E #.D.p.p.V I Y W m n 4 n > p.p.p.i.H V E Y n l x 3 m p.p.y., U /.|.|.|.|.|.|.|.|.|.|.|.|.|.|.|.",
"|.|.|.|.|.|.|.|.|.|.|.|.|.|.|.).E #.A.i.p.v ; z c c z n & * p.p.p.p.- 1 z l z n x o m p.p.y.q m /.|.|.|.|.|.|.|.|.|.|.|.|.|.|.|.",
"|.|.|.|.|.|.|.|.|.|.|.|.|.|.|.).E #.A.p.p.W $ > : : : : * B s.p.p.p.4 * > > : : : : 8.R } 7.5 m /.|.|.|.|.|.|.|.|.|.|.|.|.|.|.|.",
"|.|.|.|.|.|.|.|.|.|.|.|.|.|.|.).E #.A.i.p.p.p.p.p.p.p.p.s.h.p.p.p.p.p.p.p.p.p.p.i.~ B h ~.9 3 m /.|.|.|.|.|.|.|.|.|.|.|.|.|.|.|.",
"|.|.|.|.|.|.|.|.|.|.|.|.|.|.|.(.Y #.B.p.p.p.p.p.p.p.p.s.s.p.p.p.p.p.p.p.p.p.p.p.W s g d f u : m /.|.|.|.|.|.|.|.|.|.|.|.|.|.|.|.",
"|.|.|.|.|.|.|.|.|.|.|.|.|.|.|.).E #.B.p.p.p.p.p.p.p.f.f.p.p.p.p.p.p.p.p.p.p.p.p.p.t.U j ^.i , U /.|.|.|.|.|.|.|.|.|.|.|.|.|.|.|.",
"|.|.|.|.|.|.|.|.|.|.|.|.|.|.|.).E #.M.p.p.i.6.4.4.4.7.4.5.y.p.p.p.p.t.4.4.4.4.4.4.y.8.k !.i > m /.|.|.|.|.|.|.|.|.|.|.|.|.|.|.|.",
"|.|.|.|.|.|.|.|.|.|.|.|.|.|.|.).Y #.M.i.p.z # P J J J %.@ : p.p.p.p.% a P G | ..O.X Y p f l 5 m /.|.|.|.|.|.|.|.|.|.|.|.|.|.|.|.",
"|.|.|.|.|.|.|.|.|.|.|.|.|.|.|.).E #.M.p.p.B J *.n.2.[ T 4 : p.p.p.i.y L <.3.,.[ N 2 m p.t.9.> m /.|.|.|.|.|.|.|.|.|.|.|.|.|.|.|.",
"|.|.|.|.|.|.|.|.|.|.|.|.|.|.|.).E #.x.i.p.A I J.C.k.a.8.l > p.p.p.y.S -.U.M.h.p.Q > m p.p.8., m /.|.|.|.|.|.|.|.|.|.|.|.|.|.|.|.",
"|.|.|.|.|.|.|.|.|.|.|.|.|.|.|.(.E #.x.p.p.V P G.p.i.p.4.l : p.p.p.i.0 =.Z.p.p.p.Y > m a.p.8., m /.|.}.|.|.|.|.|.|.|.|.|.|.|.|.|.",
"|.|.|.|.|.|.|.|.|.|.|.|.|.|.|.).E @.x.p.p.V P G.f.p.p.4.l > p.p.p.i.r -.S.p.p.p.Y > U p.p.8., m /.|.|.|.|.|.|.|.|.|.|.|.|.|.|.|.",
"|.|.|.|.|.|.|.|.|.|.|.|.|.|.|.).E +.l.i.p.B P m.p.p.p.4.l > p.p.p.i.r 1.Z.p.p.p.U > m p.p.8., m /.|.|.|.|.|.|.|.|.|.|.|.|.|.|.|.",
"|.|.|.|.|.|.|.|.|.|.|.|.|.|.|.).Q +.x.s.p.V P n.p.p.p.W x , p.p.p.y. .:.N.i.p.p.m > U p.p.8., m /.|.|.|.|.|.|.|.|.|.|.|.|.|.|.|.",
"|.|.|.|.|.|.|.|.|.|.|.|.|.|.|.).E @.x.i.p.B ..n.p.p.p.E l : p.p.p.i.F =.V.p.p.p.m > N p.p.5., m /.|.|.|.|.|.|.|.|.|.|.|.|.|.|.|.",
"|.|.|.|.|.|.|.|.|.|.|.|.|.|.|.(.! @.k.p.p.V ..v.p.p.p.Y l : p.p.p.y.r =.z.p.p.p.m , U p.p.5., U /.|.|.|.|.|.|.|.|.|.|.|.|.|.|.|.",
"|.|.|.|.|.|.|.|.|.|.|.|.|.|.|.).! | h.p.p.V ..c.p.p.p.Y l > p.p.p.y.r =.z.p.p.i.n , U p.p.4., m /.|.|.|.|.|.|.|.|.|.|.|.|.|.|.|.",
"|.|.|.|.|.|.|.|.|.|.|.|.|.|.|._.Q | f.p.p.V %.b.p.p.p.U l : p.p.p.i.r *.j.p.p.i.n 3 m p.p.6.1 m /.|.|.|.|.|.|.|.|.|.|.|.|.|.|.|.",
"|.|.|.|.|.|.|.|.|.|.|.|.|.|.|.).Q | f.i.p.V ..e.p.p.p.U l , p.p.p.i.F *.j.p.p.y.n > U p.f.7.> m /.|.|.|.|.|.|.|.|.|.|.|.|.|.|.|.",
"|.|.|.|.|.|.|.|.|.|.|.|.|.|.|.).Q J f.p.p.V ..w.p.p.p.m z > p.p.p.y.S ' d.p.p.t.z > U a.f.W , m /.|.}.|.|.|.|.|.|.|.|.|.|.|.|.|.",
"|.|.|.|.|.|.|.|.|.|.|.|.|.|.|.).Q J f.p.p.V ..r.p.p.p.N c : p.p.p.i.y ' u.p.p.t.z 5 V a.p.4., m /.|.|.|.|.|.|.|.|.|.|.|.|.|.|.|.",
"|.|.|.|.|.|.|.|.|.|.|.|.|.|.|.).Q G s.p.p.B ..0.p.p.f.B z > p.p.p.y.F ' g.p.p.9.z 0 ^ p.p.W > m /.|.|.|.|.|.|.|.|.|.|.|.|.|.|.|.",
"|.|.|.|.|.|.|.|.|.|.|.|.|.|.|.).Q G s.p.p.V I 0.p.f.s.z l > p.p.p.i.y ) i.p.p.9.l 3 m p.p.W , m /.|.|.|.|.|.|.|.|.|.|.|.|.|.|.|.",
"|.|.|.|.|.|.|.|.|.|.|.|.|.|.|.).Q C s.p.p.V I q.f.p.y.z z : p.p.p.i.y _ i.p.p.5.z 3 m p.p.W , m /.|.|.|.|.|.|.|.|.|.|.|.|.|.|.|.",
"|.|.|.|.|.|.|.|.|.|.|.|.|.|.|.).( C p.i.p.V X./ E n n 3 z > p.p.p.y.H A E Y n l l 3 m p.p.E > m /.|.|.|.|.|.|.|.|.|.|.|.|.|.|.|.",
"|.|.|.|.|.|.|.|.|.|.|.|.|.|.|.(.~ Z p.p.p.x - l c l l n & * p.p.p.p.- , l l z z l o U p.p.E > m /.|.|.|.|.|.|.|.|.|.|.|.|.|.|.|.",
"|.|.|.|.|.|.|.|.|.|.|.|.|.|.|.(.( v p.p.p.4.* > > : : > * n p.p.p.p.4 = > > > > : = 5.p.p.E , m /.|.|.|.|.|.|.|.|.|.|.|.|.|.|.|.",
"|.|.|.|.|.|.|.|.|.|.|.|.|.|.|.).! v p.p.p.p.p.p.p.p.p.p.p.p.p.p.p.p.p.p.p.p.p.p.p.p.p.i.y.E , m /.|.|.|.|.|.|.|.|.|.|.|.|.|.|.|.",
"|.|.|.|.|.|.|.|.|.|.|.|.|.|.|.).! x p.y.y.y.y.y.t.9.9.8.8.5.6.4.4.W ~ E Y Y Y U U m m m n m , U /.|.}.|.|.|.|.|.|.|.|.|.|.|.|.|.",
"|.|.|.|.|.|.|.|.|.|.|.|.|.|.|.)./ 2 c l l x 4 4 4 4 4 4 4 3 3 3 3 7 0 5 3 3 4 4 4 3 4 4 4 4 , > /.|.|.|.|.|.|.|.|.|.|.|.|.|.|.|.",
"|.|.|.|.|.|.|.|.|.|.|.|.|.|.|.(.  3 n l z l z z z n l z z z z l n n z n n n z z z l z n z n n . /.|.|.|.|.|.|.|.|.|.|.|.|.|.|.|.",
"|.|.|.|.|.|.|.|.|.|.|.|.|.|.|.}.[.{.'.'.'.'.'.'.'.'.'.'.'.'.'.'.{.'.'.'.'.'.'.'.'.'.'.'.'.'.'.[.}.|.|.|.|.|.|.|.|.|.|.|.|.|.|.|.",
"|.|.|.|.|.|.|.|.|.|.|.|.|.|.|.|.|.|.|.|.|.|.|.|.|.|.|.|.|.|.|.|.|.|.|.|.|.|.|.|.|.|.|.|.|.|.|.|.|.|.|.|.|.|.|.|.|.|.|.|.|.|.|.|.",
"|.|.|.|.|.|.|.|.|.|.|.|.|.|.|.|.|.|.|.}.|.|.|.|.|.|.|.|.|.|.|.|.|.|.|.|.|.|.|.|.|.|.|.|.|.|.|.|.|.|.|.|.|.|.|.|.|.|.|.|.|.|.|.|.",
"|.|.|.|.|.|.|.|.|.|.|.|.|.|.|.|.|.|.|.|.|.|.|.|.|.|.|.|.|.|.|.|.|.|.|.|.|.|.|.|.|.|.|.|.|.|.|.|.|.|.|.|.|.|.|.|.|.|.|.|.|.|.|.|.",
"|.|.|.|.|.|.|.|.|.|.|.|.|.|.|.|.|.|.|.|.|.|.|.|.|.|.|.|.|.|.|.|.|.|.|.|.|.|.|.|.|.|.|.|.|.|.|.|.|.|.|.|.|.|.|.|.|.|.|.|.|.|.|.|.",
"|.|.|.|.|.|.|.|.|.|.|.|.|.|.|.|.|.|.|.|.|.|.|.|.|.|.|.|.|.|.|.|.|.|.|.|.|.|.|.|.|.|.|.|.|.|.|.|.|.|.|.|.|.|.|.|.|.|.|.|.|.|.|.|."
};
