/* XPM */
static char *flower[] = {
/* columns rows colors chars-per-pixel */
"64 64 173 2 ",
"   c #AA170A",
".  c #AB1B0E",
"X  c #AF1712",
"o  c #AC1E11",
"O  c #B51D11",
"+  c #AD2215",
"@  c #AF2519",
"#  c #AE2B1E",
"$  c #B1271D",
"%  c #BB251D",
"&  c #B12B1F",
"*  c #AF1721",
"=  c #AF2C20",
"-  c #BA2722",
";  c #B22D22",
":  c #BC2D22",
">  c #B22120",
",  c #B33024",
"<  c #B43529",
"1  c #B6382D",
"2  c #BD3025",
"3  c #B73B30",
"4  c #B83D32",
"5  c #C91E15",
"6  c #E21E1C",
"7  c #D8251E",
"8  c #E3231C",
"9  c #C32524",
"0  c #C32E24",
"q  c #CC2E26",
"w  c #CF2728",
"e  c #CE2627",
"r  c #D12D26",
"t  c #D32B29",
"y  c #C13125",
"u  c #C33C22",
"i  c #CC3924",
"p  c #C93426",
"a  c #D33C26",
"s  c #D4322A",
"d  c #DC3129",
"f  c #DE382A",
"g  c #D33227",
"h  c #E32323",
"j  c #E42B24",
"k  c #E2252D",
"l  c #E42B2C",
"z  c #E82C2D",
"x  c #E5332C",
"c  c #E9332D",
"v  c #E73B2C",
"b  c #E83D2C",
"n  c #E42B30",
"m  c #E63630",
"M  c #EA3630",
"N  c #E63C36",
"B  c #EA3A34",
"V  c #E63F39",
"C  c #BD461F",
"Z  c #B84035",
"A  c #BB453B",
"S  c #BC493E",
"D  c #CE6B1F",
"F  c #C24B20",
"G  c #D54426",
"H  c #D34E24",
"J  c #D85025",
"K  c #DF453E",
"L  c #E9442B",
"P  c #E14B29",
"I  c #EA4B2B",
"U  c #E6442B",
"Y  c #EB532B",
"T  c #EC5B2A",
"R  c #E9443F",
"E  c #CD6520",
"W  c #D36C21",
"Q  c #DD7C21",
"!  c #E26226",
"~  c #EE6529",
"^  c #EF6B28",
"/  c #E66B26",
"(  c #F16629",
")  c #ED7427",
"_  c #EF7028",
"`  c #EB7D25",
"'  c #F17627",
"]  c #F27C27",
"[  c #F07428",
"{  c #F27A28",
"}  c #BD4E43",
"|  c #BF5249",
" . c #CB4F47",
".. c #C1564C",
"X. c #C35C52",
"o. c #DA5E57",
"O. c #E74842",
"+. c #E84D48",
"@. c #E95651",
"#. c #E95F5A",
"$. c #C8645B",
"%. c #E7625D",
"&. c #C76860",
"*. c #CA6E66",
"=. c #CA7169",
"-. c #CE7A73",
";. c #DC7F79",
":. c #ED6761",
">. c #ED6B67",
",. c #ED716D",
"<. c #EE7872",
"1. c #E28D21",
"2. c #F38227",
"3. c #F48B26",
"4. c #EB9A22",
"5. c #F79625",
"6. c #F79A25",
"7. c #F89F24",
"8. c #F9A424",
"9. c #FAAB24",
"0. c #F6A024",
"q. c #FCB423",
"w. c #FDBE22",
"e. c #FEC222",
"r. c #FFCB21",
"t. c #FFD421",
"y. c #FFDC20",
"u. c #CF817A",
"i. c #D1827A",
"p. c #EF817D",
"a. c #D48A84",
"s. c #DE8C84",
"d. c #D89690",
"f. c #D69A94",
"g. c #DA9B95",
"h. c #DB9E99",
"j. c #EF8683",
"k. c #EF8A86",
"l. c #F08E89",
"z. c #F0908C",
"x. c #F19693",
"c. c #F19895",
"v. c #DCA19B",
"b. c #DEA5A0",
"n. c #DFA8A3",
"m. c #E1AEA9",
"M. c #F3AAA7",
"N. c #F4AAA8",
"B. c #E2B1AD",
"V. c #E3B7B2",
"C. c #E6BAB6",
"Z. c #E7BDB9",
"A. c #F5B7B5",
"S. c #F8B6B4",
"D. c #E8C0BC",
"F. c #F7C0BE",
"G. c #EAC6C3",
"H. c #EBC9C6",
"J. c #ECCCC9",
"K. c #F8C7C6",
"L. c #F8CCCB",
"P. c #EDD1CF",
"I. c #EFD4D1",
"U. c #F0D6D4",
"Y. c #F9D1D0",
"T. c #F0D8D5",
"R. c #F3DEDC",
"E. c #F5E5E3",
"W. c #F7EAE8",
"Q. c #F9EDEC",
"!. c #FDF0EF",
"~. c #FCF4F4",
"^. c #FFFFFF",
/* pixels */
"^.^.^.^.^.^.^.^.^.^.^.^.^.^.^.^.^.^.^.^.^.^.^.^.^.^.^.^.^.^.^.^.^.^.^.^.^.^.^.^.^.^.^.^.^.^.^.^.^.^.^.^.^.^.^.^.^.^.^.^.^.^.^.^.",
"^.^.^.^.^.^.^.^.^.^.^.^.^.^.^.^.^.^.^.^.^.^.^.^.^.^.^.^.^.^.^.^.^.^.^.^.^.^.^.^.^.^.^.^.^.^.^.^.^.^.^.^.^.^.^.^.^.^.^.^.^.^.^.^.",
"^.^.^.^.^.^.^.^.^.^.^.^.^.^.^.^.^.^.^.^.^.^.^.^.^.^.^.^.^.^.^.^.^.^.^.^.^.^.^.^.^.^.^.^.^.^.^.^.^.^.^.^.^.^.^.^.^.^.^.^.^.^.^.^.",
"^.^.^.^.^.^.^.^.^.^.^.^.^.^.^.^.^.^.^.^.^.^.^.^.^.^.^.^.^.^.^.^.^.^.^.^.^.^.^.^.^.^.^.^.^.^.^.^.^.^.^.^.^.^.^.^.^.^.^.^.^.^.^.^.",
"^.^.^.^.^.^.^.^.^.^.^.^.^.^.^.^.^.^.^.^.^.^.^.^.^.^.^.^.^.^.^.^.^.^.^.^.^.^.^.^.^.^.^.^.^.^.^.^.^.^.^.^.^.^.^.^.^.^.^.^.^.^.^.^.",
"^.^.^.^.^.^.^.^.^.^.^.^.^.^.^.^.^.^.^.^.^.^.^.^.^.^.^.^.^.^.^.^.^.^.^.^.^.^.^.^.^.^.^.^.^.^.^.^.^.^.^.^.^.^.^.^.^.^.^.^.^.^.^.^.",
"^.^.^.^.^.^.^.^.^.^.^.^.^.^.^.^.^.^.^.^.^.^.^.^.^.^.^.^.^.Q.G.B.m.G.Q.^.^.^.^.^.^.^.^.^.^.^.^.^.^.^.^.^.^.^.^.^.^.^.^.^.^.^.^.^.",
"^.^.^.^.^.^.^.^.^.^.^.^.^.^.^.^.^.^.^.^.^.^.^.^.^.^.^.I.*.< + o o + < *.I.^.^.^.^.^.^.^.^.^.^.^.^.^.^.^.^.^.^.^.^.^.^.^.^.^.^.^.",
"^.^.^.^.^.^.^.^.^.^.^.^.^.^.^.^.^.^.^.^.^.^.^.^.^.^.d.@ . & ; ; ; ; # . @ d.^.^.^.^.^.^.^.^.^.^.^.^.^.^.^.^.^.^.^.^.^.^.^.^.^.^.",
"^.^.^.^.^.^.^.^.^.^.^.^.^.^.^.^.^.^.^.^.^.^.^.^.^.i.  ; , & & & & & ; ; ;   i.^.^.^.^.^.^.^.^.^.^.^.^.^.^.^.^.^.^.^.^.^.^.^.^.^.",
"^.^.^.^.^.^.^.^.^.^.^.^.^.^.^.^.^.^.^.^.^.^.^.^.b.. ; & # # # # & & & & & , . b.^.^.^.^.^.^.^.^.^.^.^.^.^.^.^.^.^.^.^.^.^.^.^.^.",
"^.^.^.^.^.^.^.^.^.^.^.^.^.^.^.^.^.^.^.^.^.^.^.W.< @ ; : q 0 0 : & # & & & & $ < W.^.^.^.^.^.^.^.^.^.^.^.^.^.^.^.^.^.^.^.^.^.^.^.",
"^.^.^.^.^.^.^.^.^.^.^.^.^.^.^.^.^.^.^.^.^.^.^.f.O s x x c c x x d q & & & & ; . f.^.^.^.^.^.^.^.^.^.^.^.^.^.^.^.^.^.^.^.^.^.^.^.",
"^.^.^.^.^.^.^.^.^.^.^.^.^.^.^.^.^.^.^.^.^.^.^.o.j x x x x x l x x x d ; # & ; + X.^.^.^.^.^.^.^.^.^.^.^.^.^.^.^.^.^.^.^.^.^.^.^.",
"^.^.^.^.^.^.^.^.^.^.^.^.^.^.^.^.^.^.^.^.^.^.~.R l x x x x x x x x x c x : # ; @ 3 ~.^.^.^.^.^.^.^.^.^.^.^.^.^.^.^.^.^.^.^.^.^.^.",
"^.^.^.^.^.^.^.^.^.^.^.^.^.^.^.^.^.^.^.^.^.^.Q.m x x x x x x x x x x x c d & & $ < W.^.^.^.^.^.^.^.^.^.^.^.^.^.^.^.^.^.^.^.^.^.^.",
"^.^.^.^.^.^.^.^.^.^.^.^.^.^.^.^.^.^.^.^.^.^.Q.V x x x x x x k l k l x x c q = @ 1 !.^.^.^.^.^.^.^.^.^.^.^.^.^.^.^.^.^.^.^.^.^.^.",
"^.^.^.^.^.^.^.^.^.^.^.^.^.^.^.^.^.^.^.^.^.^.^.+.j x x x l v ^ 3.3.^ v k x d = @ A ~.^.^.^.^.^.^.^.^.^.^.^.^.^.^.^.^.^.^.^.^.^.^.",
"^.^.^.^.^.^.^.^.^.^.^.^.^.^.^.^.^.~.^.^.^.^.^.:.h x x l T w.r.r.r.r.w.T l x : + $.^.^.^.^.^.^.^.^.^.^.^.^.^.^.^.^.^.^.^.^.^.^.^.",
"^.^.^.^.^.^.^.^.^.^.^.^.^.^.^.^.^.^.^.^.~.^.^.z.8 m l Y e.r.w.w.w.w.r.e.Y l 2 . a.^.^.~.^.^.^.^.^.^.^.^.^.^.^.^.^.^.^.^.^.^.^.^.",
"^.^.^.^.^.^.^.^.^.^.^.~.C.i.$.%.,.c.Y.^.^.^.^.A.h x x 8.e.w.e.e.e.e.w.r.8.n y o Z.^.^.^.^.Y.x.,.#.$.u.Z.~.^.^.^.^.^.^.^.^.^.^.^.",
"^.^.^.^.^.^.^.^.^.^.m.A o . 7 j h 8 j @.N.~.^.Q.N l I w.e.e.e.q.q.e.w.e.e.I - < Q.^.~.M.@.j 8 h h 7 . o A B.^.^.^.^.^.^.^.^.^.^.",
"^.^.^.^.^.^.^.^.^.-.. @ ; s c x x m x j 8 O.N.^.<.6 T e.e.e.e.9.9.e.w.e.e.T X =.^.M.O.8 j m x x x c s , @ . -.^.^.^.^.^.^.^.^.^.",
"^.^.^.^.^.^.^.^.-.  ; ; : c x x x x x x m j 8 :.z.h Y e.e.w.r.7.6.r.w.e.e.J + s.%.8 x x x x x x x x c : # ,   -.^.^.^.^.^.^.^.^.",
"^.^.^.^.^.^.^.B.. ; ; # g c x x x x x x l l n h l x b w.e.w.r.3.3.r.w.e.w.a ; l h l k l x x x x x x c r # & ; . B.^.^.^.^.^.^.^.",
"^.^.^.^.^.^.~.A @ ; & & l c x x x x x l I ^ _ Y x l l 7.r.w.r.2.2.r.w.r.7.- 9 c T _ ^ I l x x x x x x x ; & & $ A ^.^.^.^.^.^.^.",
"^.^.^.^.^.^.Z.+ ; & & : x x x x x l U 6.e.r.r.e.9.[ l ) r.w.r.[ [ r.w.r.) $ _ 9.e.r.r.e.6.b l x x l x x : & & ; o Z.^.^.^.^.^.^.",
"^.^.^.^.^.^.a.o ; & # 0 x x x x l v q.r.e.w.e.w.e.t.[ b e.e.r.^ ^ r.w.e.i W t.e.w.w.e.w.r.q.b x x x x x 0 # ; ; . a.^.^.^.^.^.^.",
"^.^.^.^.^.^.*.o ; ; # : c x x x l 3.r.w.e.e.e.r.w.e.w.b 3.r.e.~ ~ r.r.3.2 e.e.e.e.r.e.w.w.r.3.l x x x c : # ; ; o =.^.~.^.^.^.^.",
"^.^.^.^.^.^.&.o ; & # : x x x x v q.e.w.w.9.6.9.e.r.t.0.I e.r.Y Y e.e.G 4.t.r.e.9.6.9.w.e.e.q.v x x x x : # & ; + $.^.^.^.^.^.^.",
"^.^.^.^.^.^.=.o ; # & & d c x l I e.w.e.e.e.9.2.^ ] 8.r.5.[ T v v T [ 4.t.8.] ^ 2.9.e.e.w.e.e.I l x x d & & ; ; . -.^.^.^.^.^.^.",
"^.^.^.^.^.^.h.. ; ; ; # q c x l L e.e.e.w.e.e.r.9.[ L I ] I x L L c I ] I L ) 9.r.e.e.w.e.e.e.L l x c q # & # ; . v.^.^.^.^.^.^.",
"^.^.^.^.^.^.R.& & & & & & x x x x 9.e.e.e.e.e.w.e.r.w.{ b v L b b b v v [ q.r.e.w.e.e.e.e.e.9.l x x x & & & ; & & R.^.^.^.^.^.^.",
"^.^.^.^.^.^.^.*.o , & & # 0 c x l ^ r.e.w.e.w.e.e.w.w.r.9.b v b b b v q.y.r.w.e.e.w.w.w.e.r.^ l x c 0 # & & ; o =.^.^.^.^.^.^.^.",
"^.^.^.^.^.^.^.E.< @ ; ; & # 0 c x l 2.r.e.e.e.e.e.e.e.r.r.T v b L b Y ^ ' 8.r.r.e.e.e.e.r.3.l x c 0 # & & ; @ < E.^.^.^.^.^.^.^.",
"^.^.^.^.^.^.^.^.G.& + , ; & # : d x z ( 8.w.w.e.w.w.8.` ! U c L v x 8.q._ v I 5.w.w.w.9.( z x d : # ; ; ; + & G.^.^.^.^.^.^.^.^.",
"^.^.^.^.^.^.^.^.^.J.A . + & ; ; ; : 0 w q a G a p 0 y W / v ^ 9.8.b ~ r.r.q.T k U P a t w p 2 , ; ; & + . A J.^.^.^.^.^.^.^.^.^.",
"^.^.^.^.^.^.^.^.^.^.~.h.} & + . o = # # # > = C E 1.w.q.b 5.3.q.t.8.x 5.r.e.r.3.l l e = #   . . . + & } h.~.^.^.^.^.^.^.^.^.^.^.",
"^.^.^.^.^.^.^.^.^.^.^.^.^.R.Z.V.v.4 & # - f 7.r.r.r.w.L 5.r.! q.w.r.5.L e.e.w.r.6.x c j i.V.h.v.m.D.R.^.^.^.^.^.^.^.^.^.^.^.^.^.",
"^.^.^.^.^.^.^.^.^.^.^.^.^.^.^.E.X.$ & y l 5.r.w.e.e.^ 6.r.w.H q.e.w.r.[ [ r.w.w.r.5.l x B S.^.^.^.^.^.^.^.^.^.^.^.^.^.^.^.^.^.^.",
"^.^.^.^.^.^.^.^.^.^.^.^.~.^.D.& o & 0 l Y e.e.w.e.3.9.r.w.e.u 8.r.w.e.r.[ 8.r.w.w.r.T l x 8 j.^.^.~.^.^.^.^.^.^.^.^.^.^.^.^.^.^.",
"^.^.^.^.^.^.^.^.^.^.^.^.^.P.& $ , & d k _ r.e.e.9.9.e.e.e.e.u ` r.e.w.e.w.2.w.e.w.r.3.l x x 8 p.^.^.^.^.^.^.^.^.^.^.^.^.^.^.^.^.",
"^.^.^.^.^.^.^.^.^.^.^.^.^.} + ; # 0 x l [ r.w.e.w.e.w.e.w.r.F J r.w.e.w.e.q.9.e.e.e.7.l x x x 8 x.^.^.^.^.^.^.^.^.^.^.^.^.^.^.^.",
"^.^.^.^.^.^.^.^.^.^.^.^.b.. ; & # g c l ~ r.w.e.e.e.e.e.e.r.D - q.e.e.e.e.e.w.e.w.r.5.l x x x x j K.^.^.^.^.^.^.^.^.^.^.^.^.^.^.",
"^.^.^.^.^.^.^.^.^.^.^.^.X.+ ; & & d c l b w.e.w.e.e.w.e.w.r.Q X [ r.w.e.e.w.e.e.w.r.[ k x x x x 8 #.^.^.^.^.^.^.^.^.^.^.^.^.^.^.",
"^.^.^.^.^.^.^.^.^.^.^.W.< & & & & d x x l ~ r.e.w.w.w.w.r.9.f # g 9.r.w.w.e.w.w.r.q.v x x x x x c q P.^.^.^.^.^.^.^.^.^.^.^.^.^.",
"^.^.^.^.^.^.^.^.^.^.^.T.$ & & & & d x x x l ^ w.r.r.r.r.6.B l $ - I q.r.e.e.e.t.q.I l x x x x x m O g.^.^.^.^.^.^.^.^.^.^.^.^.^.",
"^.^.^.^.^.^.^.^.^.^.^.P.# & # & # g x x x x k v ^ ] ) Y l x B  .# t v ] 9.q.9.2.U l x x x x x c s . u.^.^.^.^.^.^.^.^.^.^.^.^.^.",
"^.^.^.^.^.^.^.^.^.^.^.R.; & & & # 0 c x x x x x k l l l x j ,.J.+ , x l l v x l l x x x x x c d ; o -.^.~.^.^.^.^.^.^.^.^.^.^.^.",
"^.^.^.^.^.^.^.^.^.^.^.^.A @ ; & & & d c x x x x x x x x x j L.^.S + : x x l x x x x x x x c d ; ; o a.^.^.^.^.^.^.^.^.^.^.^.^.^.",
"^.^.^.^.^.^.^.^.^.^.^.^.i.. ; ; ; # 0 c x x x x x x x x 8 p.^.^.h.. , & d x c x c x c c x q & & ; o n.^.^.^.^.^.^.^.^.^.^.^.^.^.",
"^.^.^.^.^.^.^.^.^.^.^.^.R.; & & & & # q c x l x x x x j R Q.^.^.Q.3 $ # & : q d d d r 0 & # & & & , E.^.^.^.^.^.^.^.^.^.^.^.^.^.",
"^.^.^.^.^.^.^.^.^.^.^.^.^.g.  , & & & # q c x x x m x j L.^.^.^.^.g.. , & # # & & # # # & & & , . -.^.^.^.^.^.^.^.^.^.^.^.^.^.^.",
"^.^.^.^.^.^.^.^.^.^.^.^.^.^.u.  & ; ; & # 0 d c B j h A.^.^.^.^.^.^...o , & ; & & & & & & & ; @ 1 W.^.^.^.^.^.^.^.^.^.^.^.^.^.^.",
"^.^.^.^.^.^.^.^.^.^.^.^.^.^.^.g.& . @ & & & # % 5 K K.^.^.^.^.^.^.^.E.Z . , ; ; & & & & & , + & J.^.^.^.^.^.^.^.^.^.^.^.^.^.^.^.",
"^.^.^.^.^.^.^.^.^.^.^.^.^.^.^.^.R.i.Z & + $ ; } g.~.^.^.^.^.^.^.^.^.^.E.X.. + & ; ; ; ; @ . A P.^.^.^.^.^.^.^.^.^.^.^.^.^.^.^.^.",
"^.^.^.^.^.^.^.^.^.^.^.^.^.^.^.^.^.^.~.R.H.J.E.^.^.^.^.^.^.^.^.^.^.^.^.^.^.n.| & o o o $ A f.~.^.^.^.^.^.^.^.^.^.^.^.^.^.^.^.^.^.",
"^.^.^.^.^.^.^.^.^.^.^.^.^.^.^.^.^.^.^.^.^.^.^.^.^.^.^.^.^.^.^.^.^.^.^.^.^.^.^.R.Z.n.V.U.^.^.~.^.^.^.^.^.^.^.^.^.^.^.^.^.^.^.^.^.",
"^.^.^.^.^.^.^.^.^.^.^.^.^.^.^.^.^.^.^.^.^.^.^.^.^.^.^.^.^.^.^.^.^.^.^.^.^.^.^.^.^.^.^.^.^.^.^.^.^.^.^.^.^.^.^.^.^.^.^.^.^.^.^.^.",
"^.^.^.^.^.^.^.^.^.^.^.^.^.^.^.^.^.^.^.^.^.^.^.^.^.^.^.^.^.^.^.^.^.^.^.^.^.^.^.^.^.^.^.^.^.^.^.^.^.^.^.^.^.^.^.^.^.^.^.^.^.^.^.^.",
"^.^.^.^.^.^.^.^.^.^.^.^.^.^.^.^.^.^.^.^.^.^.^.^.^.^.^.^.^.^.^.^.^.^.^.^.^.^.^.^.^.^.^.^.^.^.^.^.^.^.^.^.^.^.^.^.^.^.^.^.^.^.^.^.",
"^.^.^.^.^.^.^.^.^.^.^.^.^.^.^.^.^.^.^.^.^.^.^.^.^.^.^.^.^.^.^.^.^.^.^.^.^.^.^.^.^.^.^.^.^.^.^.^.^.^.^.^.^.^.^.^.^.^.^.^.^.^.^.^.",
"^.^.^.^.^.^.^.^.^.^.^.^.^.^.^.^.^.^.^.^.^.^.^.^.^.^.^.^.^.^.^.^.^.^.^.^.^.^.^.^.^.^.^.^.^.^.^.^.^.^.^.^.^.^.^.^.^.^.^.^.^.^.^.^.",
"^.^.^.^.^.^.^.^.^.^.^.^.^.^.^.^.^.^.^.^.^.^.^.^.^.^.^.^.^.^.^.^.^.^.^.^.^.^.^.^.^.^.^.^.^.^.^.^.^.^.^.^.^.^.^.^.^.^.^.^.^.^.^.^."
};
