/* XPM */
static char *tree[] = {
/* columns rows colors chars-per-pixel */
"60 64 174 2 ",
"   c #6E3C0C",
".  c #723E0E",
"X  c #70370E",
"o  c #7F301A",
"O  c #39650E",
"+  c #326A0E",
"@  c #3D6910",
"#  c #367B15",
"$  c #3A7616",
"%  c #545918",
"&  c #65410B",
"*  c #6B430E",
"=  c #72400E",
"-  c #764111",
";  c #7B4B16",
":  c #7C4916",
">  c #605A12",
",  c #725217",
"<  c #48661A",
"1  c #457418",
"2  c #4E6921",
"3  c #507C24",
"4  c #596C28",
"5  c #636E2E",
"6  c #726C20",
"7  c #717F27",
"8  c #766338",
"9  c #81301C",
"0  c #92072F",
"q  c #8C1129",
"w  c #950332",
"e  c #990436",
"r  c #9D0438",
"t  c #9A1F32",
"y  c #A2043C",
"u  c #A5183B",
"i  c #804A17",
"p  c #844D1A",
"a  c #83521C",
"s  c #8A521E",
"d  c #8E5521",
"f  c #915723",
"g  c #935925",
"h  c #9A5E2A",
"j  c #975C28",
"k  c #9D612C",
"l  c #A1642F",
"z  c #A46631",
"x  c #AA6B36",
"c  c #AF6F3A",
"v  c #A76833",
"b  c #B2723D",
"n  c #A60540",
"m  c #AA0543",
"M  c #AF0748",
"N  c #AA0944",
"B  c #B3044A",
"V  c #B2094B",
"C  c #BA064F",
"Z  c #BD0251",
"A  c #B90E51",
"S  c #BB1054",
"D  c #C30256",
"F  c #C70259",
"G  c #C8045A",
"H  c #CA095E",
"J  c #C2165A",
"K  c #C5185D",
"L  c #CD0E60",
"P  c #CE1163",
"I  c #CA1D62",
"U  c #CF1B6A",
"Y  c #D11565",
"T  c #D31867",
"R  c #D41C6A",
"E  c #CD2065",
"W  c #D4246B",
"Q  c #D9246E",
"!  c #D02367",
"~  c #DA2770",
"^  c #DD2C73",
"/  c #DF3176",
"(  c #D73078",
")  c #DB397D",
"_  c #DC3179",
"`  c #E03277",
"'  c #E23478",
"]  c #E5397B",
"[  c #EA3D7C",
"{  c #9C5A4F",
"}  c #AE4B4F",
"|  c #B8545F",
" . c #B65A5E",
".. c #B77642",
"X. c #B87743",
"o. c #BB7945",
"O. c #BE7C48",
"+. c #C27F4B",
"@. c #CA516D",
"#. c #D74F71",
"$. c #EE427F",
"%. c #F0437F",
"&. c #3A8418",
"*. c #3E8C1B",
"=. c #398217",
"-. c #3E931C",
";. c #418E1D",
":. c #41931E",
">. c #41991F",
",. c #468F21",
"<. c #439620",
"1. c #469D22",
"2. c #489F23",
"3. c #46A223",
"4. c #48A024",
"5. c #C4814D",
"6. c #C98551",
"7. c #CE8955",
"8. c #DB3D81",
"9. c #DF498A",
"0. c #F14680",
"q. c #F64B83",
"w. c #E8548D",
"e. c #F75187",
"r. c #F7558A",
"t. c #F75A8D",
"y. c #F85C8E",
"u. c #EF5994",
"i. c #E65E98",
"p. c #F05B95",
"a. c #F85F90",
"s. c #E94B8B",
"d. c #EA649B",
"f. c #F86393",
"g. c #F96997",
"h. c #F2649A",
"j. c #F36B9E",
"k. c #F96B98",
"l. c #FA729D",
"z. c #EA6CA2",
"x. c #F56FA0",
"c. c #EE76A8",
"v. c #F673A2",
"b. c #FA76A0",
"n. c #F778A5",
"m. c #F97BA5",
"M. c #F97FA9",
"N. c #FB81A7",
"B. c #FA83AB",
"V. c #FC8DAF",
"C. c #FA87B0",
"Z. c #FC8DB1",
"A. c #F58CB8",
"S. c #F284B2",
"D. c #FC93B4",
"F. c #FD98B7",
"G. c #FC95BB",
"H. c #FD9BBB",
"J. c #F690BB",
"K. c #FDA1BE",
"L. c #FD9DC3",
"P. c #FEA4C4",
"I. c #FEABC6",
"U. c #FEA5C9",
"Y. c #FFAACC",
"T. c #FFB4CD",
"R. c #FFAFD1",
"E. c #FFB3D3",
"W. c #FFB9D2",
"Q. c #FFBBDA",
"!. c #FFC1DE",
"~. c #FFC6E3",
"^. c #FFC8E4",
"/. c None",
/* pixels */
"/./././././././././././././././././././././././././././././././././././././././././././././././././././././././././././.",
"/./././././././././././././././././././././././././././././././././././././././././././././././././././././././././././.",
"/./././././././././././././././././././././././././././././././././././.V./././././././././././././././././././././././.",
"/././././././././././././././././././././././././././././././.V.V.V.V.D.D.Z./.V.V.V.D.V././././././././././././././././.",
"/./././././././././././././././././././././././.q.q.q.q.M.V.D.D.D.D.V.H.I.F.V.F.K.F.D.V.D./././././././././././././././.",
"/./././././././././././././././././././././.q.q.q.q.q.e.l.V.K.T.T.T.I.K.H.D.V.F.T.K.V.V.D.D.F.V.D./././././././././././.",
"/././././././././././././././././././././././.q.q.q.q.q.e.k.V.I.T.T.T.T.K.V.V.V.D.K.D.V.V.V.V.V.V./././././././././././.",
"/././././././././././././././././././.' 0.q.q.q.q.q.q.q.q.q.g.V.D.H.F.V.V.H.P.I.K.V.K.F.V.V.V.V.V.V././././././././././.",
"/./././././././././././././././././.' ` ] %.q.q.q.q.q.q.q.q.k.N.N.N.V.D.K.!.!.!.K.F.W.K.V.V.V.V.V.V.V./././././././././.",
"/././././././././././././././././././.` ` ` ] [ %.q.q.q.q.q.q.e.r.g.N.K.!.!.K.K.F.K.W.!.F.V.V.V.D.V.V.V.V./././././././.",
"/././././././././././././././././.` ` ' ` ` ` ] %.q.q.q.q.q.q.%.f.V.V.K.K.K.K.V.V.T.W.W.K.V.V.V.V.V.V.V.V./././././././.",
"/././././././././././././././.` ` ` ` ` ` ` ` 0.q.q.q.q.q.q.q.q.l.V.V.V.V.V.V.l.N.K.W.W.K.V.V.V.V.V.V.V.D./././././././.",
"/./././././././././././././.Q ^ ` ` ` ` ` ` ` ] %.%.%.%.q.q.q.q.e.l.V.V.V.N.k.t.N.V.I.T.F.N.V.V.B.m.N.V.N.y.q./././././.",
"/./././././././././././././.G H Y Y Y R ` ` ` ` ' ' ] %.e.f.k.l.y.e.t.g.y.e.%.r.N.V.D.F.N.N.V.F.V.l.r.r.r.q.q.q././././.",
"/././././././././././././././.F F F Y ^ ` ` ` ` ' ] q.r.m.V.V.V.f.e.%.%.a.l.l.%.%.V.V.K.N.%.V.F.V.N.r.%.q.q.q.e././././.",
"/././././././././././././././././.F Q ` Q Q ` ' ' %.q.f.V.B.b.t.%.%.r.l.V.V.V.e.%.N.k.%.%.%.%.K.D.V.a.q.q.q.q./././././.",
"/./././././././././././././././.F F H L F P _ ` ] q.q.e.t.r.e.q.q.q.l.V.V.Z.b.e.%.%.%.%.%.y.%.k.m.l.e.%.g.%.%.%././././.",
"/././././././././././././././.8.( H P 9.U L ^ ` ` ] [ %.%.%.%.%.q.g.V.V.V.V.f.q.%.N.f.%.%.%.%.%.q.q.%.e.%.%.%.%././././.",
"/./././././././././././././.U L.U.c.S.U.z.F G R ~ ^ ` _ ` ` ` ] q.b.V.V.D.b.f.r.k.F.k.%.%.y.%.y.e.%.e.%.%.%.%.%././././.",
"/././././././././././././.A.z.L.Q.E.E.R.L.z.8.d.i.W R _ ^ ^ ` %.q.k.V.V.M.t.7.%.k.V.N.%.%.%.%.%.%.e.%.e.f.%.%.a././././.",
"/././././././././././.U.R.!.!.!.~.~.~.Q.R.Y.U.R.Y.c.H P L ~ ' 0.q.e.y.a.N.%.%.%.N.V.%.%.%.%.r.t.e.%.%.%.y.%.%.%.k./././.",
"/././././././././.J.R.U.R.Q.~.^.~.~.~.~.Q.E.Y.Y.Y.S.H D G Q ' $.q.q.%.q.%.%.%.%.l.N.g.%.r.%.%.%.%.r.%.t.%.%.%.a.%./././.",
"/./././././././.M.M.L.Y.Y.Q.^.^.~.^.~.~.^.Q.U.Y.Y.L.8.F F R ' ' [ $.%.q.%.%.%.%.%.N.%.%.%.e.%.e.%.%.t.%.y.%.a.%.%./././.",
"/./././././././.M.M.C.U.Y.Q.~.!.~.^.!.E.Q.R.Y.Y.Y.Y.J.R G L / ' ` ] %.q.%.k.%.%.%.%.%.%.e.%.r.%.r.%.%.%.%.%.%.%.f./././.",
"/././././././.N.M.B.L.Y.Y.R.R.R.Q.~.Q.U.U.R.U.U.R.Y.U.A.c.( Y R ^ ' %.q.q.$.%.q.q.q.q.e.e.%.%.%.q.q.$.%.q.q.q.q././././.",
"/./././././.M.M.M.C.U.Y.Y.Y.Q.R.R.R.R.R.U.R.R.U.U.Y.U.R.G.j.H G Q ` ' ] ' [ q.q.q.q.q.%.e.%.%.%.q.%.[ ] %.q.q.q././././.",
"/./././././.M.M.M.M.Z.G.L.R.^.Q.U.R.Q.U.U.U.U.U.R.U.L.L.C.d.H F Q ' ` ` / $.q.q.q.q.%.$.%.e.%.[ %.%.' ` ] $.%.%.%./././.",
"/./././././.M.M.M.A.L.C.C.E.^.Q.U.R.Q.Y.R.U.U.U.U.U.L.M.N.w.H F Y ` ` ` ` $.q.q.q.%.$.` %.%.] ' ' ] ` ` / / ' ` $./././.",
"/./././././.M.M.D.U.Y.C.C.U.E.U.U.Y.R.U.U.R.L.L.R.U.L.M.M.M.) D H ` ` ` ` ' $.%.%.$.` ` ` ` ` ` ` ` ` ` ` ` ` ` $./././.",
"/./././././.M.M.L.R.L.M.M.C.C.M.L.Y.U.L.D.L.A.C.L.U.A.M.M.M.u.L H ~ ` ` ` ` ` ' ` ` ` ` ` ` ` ` ` ` ` ` ` ` ` ` / /././.",
"/././././.v.x.v.G.L.Z.M.M.M.M.M.G.U.L.C.M.M.M.M.M.B.M.M.M.M.n.T F H Y Q ` ` ` ` ` ` ` ` ` ` ` ` ` ` ` ` ' ` / ' /./././.",
"/././././.p.p.p.x.M.M.M.M.M.M.M.M.B.B.M.M.M.M.M.M.M.M.M.M.B.h.L F F G ~ ` ` ` ` ` ` ` ` ` ` ` ` ` / / ' ) / ' /././././.",
"/./././././.u.u.h.M.M.N.v.n.M.M.B.C.M.M.M.M.M.M.M.M.M.M.M.B.w.G F F G ~ ' ' Q Q ` ` ` ^ R ` ' ' ` ~ L R / / / ' /./././.",
"/././././././.p.v.B.M.v.h.n.M.M.J.L.M.M.M.M.M.M.M.M.M.M.M.v.h.^ F F F Y ^ ~ H P / ' ` Y G Y Q R T G G G H P H /././././.",
"/././././././.u.h.j.h.p.p.v.M.n.G.U.C.M.M.M.M.M.M.M.M.M.v.u.p.8.F F F G H H F F L R Y G F F F F F F F G D D D /././././.",
"/././././././.u.u.u.u.u.u.h.h.x.G.U.B.B.v.M.M.M.M.M.M.B.v.p.p._ F F F F F F F F F F F F G F F G D y m m N y /./././././.",
"/./././././././././.p.u.u.u.u.v.B.C.M.M.x.x.M.M.h.x.M.v.j.u.s.P F D D F F F F F F Z m B Z D F F Z e e N V V /./././././.",
"/./././././././././.u.u.u.u.u.v.M.M.M.M.x.u.h.h.u.u.p.p.u.] L F F u t D F F F F G B w w e e y y y N J E ! I /./././././.",
"/./././././././././.p.u.u.u.p.h.M.N.M.M.h.u.u.u.u.u.p.u.p./.F F C 9 . t D F F F Z r w r n y e y V I Q W W ! A /././././.",
"/././././././././././.u.p./.u.u.h.x.x.p.u.u.u.u.u.u.u.u.u./././.o p f . /.D C B r w w m V V V V V J W W W W S V /./././.",
"/./././././././././././././.u.u.u.u.u.u.u.u.u.u.u.u.u.u.p./././.= j l i /./.e w w w w n V V V V V K ! W W W J /././././.",
"/././././././././././././././.u.u.u.u.u.u.u././.p.p.@.} /./././.: k k s /./.w w w w w r N n V V V V S E W K V /././././.",
"/././././././././././././././././.p.u.u.p././././././.s p /./.. g v f p /./.w w w w w w w e M V V V V S K A /./././././.",
"/./././././././././././././././././././././././././././.v v j f x x s i /././.q w w w w w w y V V y y N M N /./././././.",
"/./././.q./././././././././././././././././././././././././.+.b b b s : /././.X 0 w w w w w w e e w w w e e /./././././.",
"/./.q.q././././././././././.Y./././././././././././././././.k c X.b g : /./.  /./.w w w w w w w w w /./././././././././.",
"/./././././././././././././.Y././././././././././././././././.+.5.X.l j p = /././././././././.w w /././././././././././.",
"/././././././././././././././././././././././././././././././.+.5.o.l v f /././././././././././././././././././././././.",
"/./././././././././././././././././././././.q.e./././././././.+.5...l x s /./././././././.Y././././././././.q.q././././.",
"/./././././././././././././././././././././.q././././././././.7.O.c z x s /./././././././.Y./././././././././.q././././.",
"/./././././././././././././././././././././././././././././.b 7.o.c z x s /././././././././././././././././././././././.",
"/./././././././././././././././././././././././././././././...+.o.c z x d   /./././././././././././././././././././././.",
"/./././././././././././././././././././././././././././././...+.X.b z x f . /./././././././././././././././././././././.",
"/./././././././././././././././././././././././././././././.+.+.X.b k v f . /./././././././././././././././././././././.",
"/./././././././././././././././././././././././.1././.>.1.,.+.+.b x g h v - > 1.3./././././././././././././././././././.",
"/././././././././././././././././././././././.4.1.:.3 5 1 6 v v v g s h h = & 1 # 1 ;.1././././././././././././././././.",
"/././././././././././././././././././././././.<.=.8 #.| < , a a a ; ; ; * & & % { | 2 &.2./././././././././././././././.",
"/././././././././././././././././././././././.<.# 4 8 < + + @ @ O O O O O @ + 8  .8 $ $ 1./././././././././././././././.",
"/././././././././././././././././././././././.1.-.-.-.*.;.;.<.<.*.=.# &.*.;.-.,.<.>.<.1././././././././././././././././.",
"/././././././././././././././././././././././././.3.2.2.2.1.2.4.3.1.<.3.3.3.3./././././././././././././././././././././.",
"/./././././././././././././././././././././././././././././././././././././././././././././././././././././././././././.",
"/././././././././././././././././././././././././././././././././././.V V /././././././././././././././././././././././.",
"/./././././././././././././././././././././././././././././././././././././././././././././././././././././././././././.",
"/./././././././././././././././././././././././././././././././././././././././././././././././././././././././././././."
};
