/* XPM */
static char *_dacfb89be3f4c94a44a168598ea26cahJIgKGcGQ68kW5yJ[] = {
/* columns rows colors chars-per-pixel */
"64 64 256 2 ",
"   c #030303",
".  c #0B0102",
"X  c #00030C",
"o  c #050A07",
"O  c #180303",
"+  c #181906",
"@  c #010B14",
"#  c #000C1B",
"$  c #090D18",
"%  c #01141B",
"&  c #051819",
"*  c #181D19",
"=  c #2A110A",
"-  c #13221D",
";  c #011322",
":  c #021C23",
">  c #021C2C",
",  c #0A1D2A",
"<  c #061E31",
"1  c #1C1A27",
"2  c #00232B",
"3  c #07242A",
"4  c #17272B",
"5  c #012433",
"6  c #092937",
"7  c #182A34",
"8  c #083539",
"9  c #173A38",
"0  c #14362B",
"q  c #232D35",
"w  c #26343A",
"e  c #383B2F",
"r  c #252A0C",
"t  c #523D16",
"y  c #44393E",
"u  c #6F3221",
"i  c #6B1015",
"p  c #364339",
"a  c #13463D",
"s  c #5D5C2E",
"d  c #063744",
"f  c #163745",
"g  c #143F52",
"h  c #213747",
"j  c #08414B",
"k  c #1A474A",
"l  c #094855",
"z  c #14505A",
"x  c #274549",
"c  c #2A4957",
"v  c #295453",
"b  c #385152",
"n  c #1F5B63",
"m  c #2B5B67",
"M  c #316E75",
"N  c #515653",
"B  c #675751",
"V  c #5E615A",
"C  c #776C58",
"Z  c #515A66",
"A  c #58747A",
"S  c #506B6F",
"D  c #747A76",
"F  c #6B6E6F",
"G  c #B33530",
"H  c #932729",
"J  c #D8363A",
"K  c #D03031",
"L  c #F4322C",
"P  c #F52F33",
"I  c #F73638",
"U  c #E92F31",
"Y  c #D5201A",
"T  c #904935",
"R  c #A24422",
"E  c #B1633D",
"W  c #FD403E",
"Q  c #E23740",
"!  c #CD3A44",
"~  c #B35050",
"^  c #8A6D58",
"/  c #866B77",
"(  c #977E68",
")  c #AF736E",
"_  c #A56452",
"`  c #CA4846",
"'  c #D7484B",
"]  c #C55857",
"[  c #D45457",
"{  c #F95052",
"}  c #C56465",
"|  c #D8706D",
" . c #E76F6E",
".. c #D06553",
"X. c #6D897D",
"o. c #A7A01F",
"O. c #D8A111",
"+. c #EBB50F",
"@. c #D9A333",
"#. c #D9A824",
"$. c #ECB52D",
"%. c #DF970C",
"&. c #DCCA09",
"*. c #FAC50B",
"=. c #EACC15",
"-. c #F7CA16",
";. c #FEDB18",
":. c #F1D408",
">. c #FEEA09",
",. c #FDF502",
"<. c #FDFA05",
"1. c #FDFB0B",
"2. c #FAF709",
"3. c #FEEC13",
"4. c #FBE619",
"5. c #FEF412",
"6. c #FFF41C",
"7. c #FDF816",
"8. c #E9E512",
"9. c #F1CF30",
"0. c #F9E927",
"q. c #FFF627",
"w. c #FCF839",
"e. c #F7EC34",
"r. c #A28050",
"t. c #88816A",
"y. c #A7A24C",
"u. c #DAAC49",
"i. c #DDB249",
"p. c #DBBB5E",
"a. c #EBB44E",
"s. c #CE9072",
"d. c #E79977",
"f. c #F18D6F",
"g. c #D3A17E",
"h. c #EAB375",
"j. c #FFCC5A",
"k. c #E7D252",
"l. c #FDF747",
"z. c #FDFF5B",
"x. c #FBF655",
"c. c #EEEA4C",
"v. c #DEC17B",
"b. c #FFC569",
"n. c #F2D06F",
"m. c #FDFB68",
"M. c #FFFD76",
"N. c #F8ED72",
"B. c #3A7F84",
"V. c #6F7C84",
"C. c #477B86",
"Z. c #8F7E86",
"A. c #CC7A80",
"S. c #578686",
"D. c #698589",
"F. c #759192",
"G. c #76A7A7",
"H. c #869692",
"J. c #9BA3A8",
"K. c #95B7B8",
"L. c #8EADB0",
"P. c #ADBAB9",
"I. c #B6B9B8",
"U. c #ADACAE",
"Y. c #98A099",
"T. c #D4978F",
"R. c #CD8E8F",
"E. c #FB8788",
"W. c #F09B8B",
"Q. c #D8A890",
"!. c #E7A589",
"~. c #F8A786",
"^. c #F8BA97",
"/. c #F6AD90",
"(. c #FF9BA2",
"). c #D4B3AF",
"_. c #FFA9A7",
"`. c #FFB5B3",
"'. c #E8B0AB",
"]. c #DA98A4",
"[. c #AEC1BC",
"{. c #FFC897",
"}. c #E9CC8B",
"|. c #FDF58B",
" X c #FAF695",
".X c #F5EA90",
"XX c #D0CBB7",
"oX c #FDCAA6",
"OX c #FBD9A0",
"+X c #FBC9B5",
"@X c #E9D6B8",
"#X c #F9D6B6",
"$X c #E6C6AE",
"%X c #FFE6A8",
"&X c #FCF9A6",
"*X c #FDE8B9",
"=X c #FBF9B9",
"-X c #ECE3B8",
";X c #B7BEC4",
":X c #CEBEC1",
">X c #F1BDC1",
",X c #96C2C6",
"<X c #B6C8C8",
"1X c #BAD4D9",
"2X c #A9C9C9",
"3X c #BFDDE5",
"4X c #BFECEF",
"5X c #C1CFCE",
"6X c #CFD5C7",
"7X c #C3D9D8",
"8X c #D6D5D3",
"9X c #FDC6C4",
"0X c #E8D7C5",
"qX c #F6DCC3",
"wX c #EFD9D7",
"eX c #D0E3D6",
"rX c #EAE5C9",
"tX c #FFEBC5",
"yX c #FDE5CD",
"uX c #F6E8C9",
"iX c #FFFFC3",
"pX c #FFFDCC",
"aX c #F9F9C8",
"sX c #FBE9D6",
"dX c #FFFDDC",
"fX c #FBF5D7",
"gX c #CDDCE5",
"hX c #D8E8E8",
"jX c #DAF8F6",
"kX c #CEEDEF",
"lX c #E3E5E9",
"zX c #FEE9E7",
"xX c #E7F5EA",
"cX c #FFFDE4",
"vX c #FFF5EA",
"bX c #FFFDEB",
"nX c #FAF4E6",
"mX c #E9ECF1",
"MX c #FFECF3",
"NX c #E3FBFD",
"BX c #ECFEFE",
"VX c #E8F4F5",
"CX c #F4FDF5",
"ZX c #FDFDF5",
"AX c #FDF6FB",
"SX c #F5FEFD",
"DX c #F9FFFF",
"FX c #FBFFFF",
"GX c #F9FEFE",
"HX c #FFFDFF",
"JX c #FEFEFE",
"KX c white",
"LX c #FEFFFF",
"PX c #FDFEFD",
"IX c #FEFEFE",
"UX c #F7F5F6",
/* pixels */
"KXKXKXKXKXKXKXKXKXKXKXKXKXKXKXKXGXGXGXPXAXKXKXKXPXPXKXGXGXGXKXKXSXBXjXjXBXBXSXKXPXPXAXKXGXGXPXPXKXKXKXKXPXPXKXKXPXPXPXPXPXPXPXPX",
"KXKXKXKXPXPXKXKXKXKXKXPXKXKXKXKXGXKXPXKXKXGXGXCXPXPXPXPXKXGXGXPXGX2XD.D.K.jXSXGXAXPXPXGXGXGXPXPXKXKXKXKXPXPXKXKXPXPXPXPXPXPXPXPX",
"KXGXKXKXPXPXPXPXPXPXPXPXPXPXPXPXPXZXGXCXSXSXSXSXKXAXZXPXZXZXZXPXJ.7 , 3 k S.VXSXAXPXKXGXGXGXKXPXPXPXPXPXPXPXPXPXPXPXPXPXPXPXPXPX",
"PXKXKXKXPXPXPXPXPXPXPXPXPXPXPXPXPXZXZXSXjXK.K.1XBXPXPXPXPXZXZXnXq ; , ; 2 9 F.GXPXPXKXKXGXKXKXPXPXKXPXKXPXPXPXPXPXPXPXPXPXPXPXPX",
"PXPXPXPXPXPXPXPXPXPXPXPXPXPXPXPXPXZXSXgXm 9 8 v K.SXGXKXGXZXPX<X# > < 6 > ; 9 7XBXSXSXKXPXPXPXAXPXPXPXPXPXPXPXPXPXPXPXPXPXPXPXPX",
"PXPXPXPXPXPXPXPXPXPXPXPXPXPXPXPXZXGXSXZ : : : 2 h 7XGXGXKXUXKXJ.# < d > < > % D.SXSXSXGXPXPXAXZXPXPXPXPXPXPXPXPXPXPXPXPXPXPXPXPX",
"PXPXPXPXPXPXPXPXPXPXPXPXPXPXPXPXKXKXP.& 2 2 2 : # D.GXGXKXAXKXJ.# d d d 5 < # b SXSXSXSXPXAXPXPXPXPXPXPXPXPXPXPXPXPXPXPXPXPXPXPX",
"PXPXPXPXPXPXPXPXPXPXPXPXPXPXPXPXUXGXD.o 2 2 > > : h BXPXUXGXGX;X# f l l d d , 4 lXGXGXSXKXKXZXPXPXPXPXPXPXPXPXPXPXPXPXPXPXPXPXPX",
"PXPXPXPXPXPXPXPXPXPXPXPXPXPXPXPXPXKXN ; 5 < > > : 3 hXGXSXGXKXGX1 d g l l l 6 4 lXAXPXAXPXGXPXZXPXPXPXPXPXPXPXPXPXPXPXPXPXPXPXPX",
"PXPXPXPXPXPXPXPXPXPXPXPXPXPXKXKXGXGXZ ; f d d d 5 3 hXSXhXP.I.5XS ; j l z d 3 q mXPXKXAXPXPXGXPXPXPXPXPXPXPXPXPXPXPXPXPXPXPXPXPX",
"PXPXPXPXPXPXPXPXPXPXPXPXPXKXKXKXGXGXZ < g z l g 6 h 7XF.9 X.xX[.S 8 2 d d f # V.GXGXGXPXPXPXPXPXPXPXPXPXPXPXPXPXPXPXPXPXPXPXPXPX",
"PXPXPXPXPXPXPXPXPXPXPXPXPXKXKXKXAXPXH.; l l z g 5 7 J.xXH.rXZXxX[.v k % # # N BXGXCXCXGXPXPXZXGXPXPXPXPXPXPXPXPXPXPXPXPXPXPXPXPX",
"PXPXPXPXPXPXPXPXPXPXPXPXPXKXKXKXZXZX8XX 6 9 d 9 & p ZXnXfXrXrXfXxXX.a M H.P.GXKXGXSXZXGXKXKXKXGXPXPXPXPXPXPXPXPXPXPXPXPXPXPXPXPX",
"PXPXPXPXPXPXPXPXPXPXPXPXPXKXKXPXZXZXKXF X , > + . Y.nXuXfXuXXXrXcXeX0 v gXGXAXPXGXZXGXPXZXKXKXKXPXPXPXPXPXPXPXPXPXPXPXPXPXPXPXPX",
"PXPXPXPXPXPXPXPXPXPXPXPXPXKXKXPXZXGXGXGXF # X h + 6XfX@X$XuXsX@XfXnXb 3 A BXGXPXPXZXPXZXPXPXPXGXPXPXPXPXPXPXPXPXPXPXPXPXPXPXPXPX",
"PXPXPXPXPXPXPXPXPXPXPXPXKXKXKXPXGXSXGXGXPXlXUXU.+ rXuXfX#XyXcXrXyXvXV & x kXGXKXZXZXPXPXPXPXAXKXPXPXPXPXPXPXPXPXPXPXPXPXPXPXPXKX",
"PXPXPXPXPXPXPXPXPXPXPXPXPXPXPXKXKXGXGXGXAXPXGXF + uX-XcXsXyXsX0XyXfXC & 9 K.KXAXZXZXPXPXPXPXKXPXPXKXKXPXPXPXPXPXPXPXPXPXPXPXPXPX",
"PXPXPXPXPXPXPXPXPXPXPXPXPXPXPXPXPXGXPXPXKXPXGXV + uXuX#X^ yXC t.sXsXB o & F.KXAXPXPXPXPXPXKXKXPXPXPXKXPXPXPXPXPXPXPXPXPXPXPXPXPX",
"PXPXPXPXPXPXPXPXPXPXPXPXPXPXPXPXPXPXAXPXGXGXGXN O $XqXqX= XXC t.tXuX^ X.N X.PXAXKXKXKXKXPXKXPXPXKXKXKXPXPXPXPXPXPXPXPXPXPXPXPXPX",
"PXPXPXPXPXPXPXPXPXPXPXPXPXPXPXAXAXPXPXPXAXGXZXB . ).@XqXU.XXXXrXuX#XsXnXsXXXPXKXKXGXKXKXGXKXPXZXKXKXKXPXPXPXPXPXPXPXPXPXPXPXPXPX",
"PXPXPXPXPXPXPXAXPXPXPXPXPXPXPXPXGXSXGXPXPXPXPXF . C @XuXD S P.H.fXyX!.s.+XfXPXPXPXZXPXZXPXPXZXPXKXKXKXPXPXPXPXPXPXPXPXPXPXPXPXPX",
"PXPXPXPXPXPXPXKXPXPXPXPXPXPXPXPXSXGXPXPXAXAXMXY.s $X*X@XO * 7 * rX*Xd.s.^.qXvXKXPXZXPXZXPXKXKXKXKXKXKXPXPXPXPXPXPXPXPXPXPXPXPXKX",
"PXPXPXPXPXPXPXPXPXPXPXPXPXPXPXPXCXGXZXPXAXPXPXsXsXyXOX#Xt O O ( uXoX^.{.#XqXPXGXKXKXKXPXGXGXKXPXKXKXKXPXPXPXPXPXPXPXPXPXPXPXPXKX",
"PXPXPXPXPXPXPXPXPXPXPXPXPXPXPXPXPXZXPXPXKXKXvXvX^.E !.#X!.s.g.OXoX^.h.*X'.0XPXGXKXKXKXKXKXKXKXPXKXKXKXPXPXPXPXPXPXPXPXPXPXPXPXKX",
"PXPXPXPXPXPXPXPXPXPXPXPXPXPXPXPXPXZXZXKXGXGXPXvX!.d.d.^.{.{.{.^./.E ^.oXQ.ZXPXPXKXGXZXPXAXAXKXGXKXKXPXPXPXPXPXPXPXPXPXPXPXPXPXPX",
"PXPXPXPXPXPXPXPXPXPXPXPXPXPXPXPXPXPXPXKXGXGXGXZX+X!.oXd.d.~.h.f.R R ^.s.zXGXKXAXKXKXPXZXPXPXKXKXKXKXPXPXPXPXPXPXPXPXPXPXPXPXPXPX",
"PXPXPXPXPXPXPXPXPXPXPXPXPXPXPXPXPXPXPXKXPXGXGXPXcX'.!./.| R ` K ..!.Q.sXZXPXKXGXGXZXUXGXGXSXKXAXKXKXPXPXPXPXPXPXPXPXPXPXPXPXPXPX",
"PXPXPXPXPXPXPXPXPXPXPXPXPXPXPXPXPXPXKXKXPXPXPXKXZXvX+Xg./.|  .f._.) B I.7XjXkXNXjXBXSXSXSXGXPXPXPXKXPXPXPXPXPXPXPXPXPXPXPXPXPXKX",
"PXPXPXPXPXPXPXPXPXPXPXPXPXPXPXPXAXPXKXPXPXPXPXPXPXZXzXbX( _ d./.T.O # f z n M M B.B.,XBXSXKXPXAXPXKXKXPXPXPXPXPXPXPXPXPXPXPXPXPX",
"PXPXPXPXPXPXPXPXPXPXPXPXPXPXPXPXPXPXKXKXKXAXKXKXPXPXGXXX. O u B O   f C.m 6 : 5 l M n 1XGXUXPXPXPXKXPXPXPXPXPXPXPXPXPXPXPXPXPXKX",
"PXPXPXPXPXPXPXPXAXPXPXPXPXPXPXPXPXKXGXCXPXGXGXGXPXUXhX7   . . . o $ h c S c F.2XC.m f U.SXCXPXPXKXKXKXPXPXPXPXPXPXPXPXPXPXPXPXKX",
"PXPXPXPXPXPXPXPXKXPXPXPXPXPXPXPXAXKXZXZXZXZXSXSXGXBXD.6 X X X X . * N / / / :XKXBXA X hXCXCXGXPXKXKXKXPXPXPXPXPXPXPXPXPXPXPXPXKX",
"PXPXPXPXPXPXPXPXPXPXPXPXPXPXPXPXPXPXGXCXZXPXGXSXNXD.x 6 X F w   = T ] ] | } ) zXKX[.F GXCXKXAXKXKXKXKXPXPXPXPXPXPXPXPXPXPXPXPXPX",
"PXPXPXPXPXPXPXPXPXPXPXPXPXPXPXPXPXPXPXKXGXKXAXSXF.g 5 @ V.VXV.O u ]  .E.' E.`.'.PX5XNXBXPXKXPXPXPXKXKXPXPXPXPXPXPXPXPXPXPXPXPXKX",
"PXKXKXKXPXKXKXKXPXKXPXPXPXPXPXPXPXKXKXKXZXPXZXI.5 d ; A 1X7XSXwXA.~ W.zXA.A.sX].AXgXVXGXPXPXPXGXPXPXPXPXPXKXKXKXPXPXPXPXPXPXPXKX",
"KXKXKXKXKXKXKXKXKXKXPXPXPXPXPXKXGXGXKXAXZXZXPXD # 6 c ,XkXBXxXPXzX) R.zX(.| zXR.AXmXhXCXAXKXKXGXKXPXPXPXKXKXKXKXPXPXPXPXPXPXPXPX",
"KXKXKXKXKXKXKXKXKXKXKXKXKXKXPXKXGXGXPXAXPXZXPXJ.X , k S.jXxXVXZXAXR.) vX`.] `.| MXhXhXBXSXGXSXGXGXPXPXPXKXKXKXKXPXPXPXPXPXPXPXPX",
"KXKXKXKXKXKXKXKXKXKXKXKXKXKXPXPXKXPXPXPXPXPXGXmX1 X 6 v jXGXlXCXAX>X~ 9X(.! ' } vXeX5XSXGXSXSXCXKXPXPXPXKXKXKXKXPXPXPXPXPXPXPXPX",
"KXKXKXKXKXKXKXKXKXKXKXKXPXPXPXPXAXAXPXGXSXGXUXPXJ.X X x GXSXmXZXPX9X~ { { { Q [ zX2XhXSXKXKXKXKXPXPXPXPXPXKXKXKXPXPXPXPXPXPXPXPX",
"KXKXKXKXKXKXKXKXKXKXKXPXPXPXPXPXAXPXAXGXSXCXKXAXGXF o D.VXVXmXPXZX+XJ I I { I [ 8XG.<XGXAXPXPXKXPXPXPXPXPXKXKXKXKXPXPXPXPXPXPXPX",
"KXKXKXKXKXKXKXKXKXKXKXKXKXPXPXAXPXPXZXPXPXPXPXPXKXgXA G.1XBXGXPXAX].J I I L P ` I.S.7XGXKXPXKXSXPXPXPXKXKXKXKXKXKXPXPXPXPXPXPXPX",
"KXKXKXKXKXKXKXKXKXKXKXKXKXPXPXPXPXPXPXPXPXPXPXPXKXSX4XG.3XNXGXPXMXA.K P L L P ' Z.L.BXAXKXGXUXGXPXPXPXKXKXKXKXKXKXPXPXPXPXPXPXPX",
"KXKXKXKXKXKXKXKXKXKXKXKXKXPXPXPXPXPXPXPXGXKXPXPXSXSXBX,X,X4X4XlXMX} U I Y Y P ! ).VXKXPXPXCXGXGXPXPXPXKXKXKXKXKXKXPXPXPXPXPXPXPX",
"KXKXKXKXKXKXKXKXKXKXKXKXKXPXPXPXPXKXPXZXPXKXGXGXGXSXSX1XS.G.L.7X>X~ Q I Y K Q | MXKXMXZXGXCXGXKXPXPXPXKXKXKXKXKXKXPXPXPXPXPXPXPX",
"KXKXKXKXKXKXKXKXKXKXKXKXKXPXPXKXGXGXPXZXZXKXGXGXPXKXSXjXG.G.2X6X~ K Q Q U ! } 9XAXGXPXKXGXPXPXAXPXKXPXKXKXKXKXKXPXPXPXPXPXPXPXPX",
"KXKXKXKXKXKXKXKXKXKXKXKXKXPXPXGXKXKXPXZXKXKXKXGXPXGXGXSXjXL.A B T G ! ! H i 9XZXPXGXSXPXPXUXPXPXAXKXPXKXKXKXKXKXPXPXPXPXPXPXPXPX",
"KXKXKXKXKXKXKXKXKXKXKXKXKXPXKXGXKXGXGXPXPXPXPXKXGXCXAXAXgXS   O _ R.].= O y AXPXPXSXGXGXPXKXUXKXPXPXPXKXKXKXKXKXPXPXPXPXPXPXPXPX",
"KXKXKXKXKXKXKXKXKXKXKXKXKXPXKXKXKXGXKXKXAXAXPXKXCXCXwX).lXq X . ).MX).@ 1 H.PXvXvXbXZXCXZXZXKXGXPXPXPXKXKXKXKXKXPXPXPXPXPXPXPXPX",
"KXKXKXKXKXKXKXKXKXKXKXPXPXPXPXKXZXGXPXKXPXPXSXGXZX6XXXZX[.o k N vXfXp & p [.pXaXaXaXfXbXZXPXZXZXPXPXPXPXPXKXKXKXKXPXPXPXPXPXPXPX",
"KXKXKXKXKXKXKXKXKXKXKXPXPXPXPXKXPXPXPXAXAXGXCXSXeX-XpX=Xr - 0 Y.tXr.o o s  X.X.X X&X=XaXfXbXZXZXPXPXPXPXPXKXKXKXKXPXPXPXPXPXPXPX",
"KXKXKXKXKXKXKXKXKXKXKXPXPXPXPXPXKXPXAXPXKXGXZXsXrXiX|.y.o r t v.b.@.o.o.x.c.x.M. X X X X X=XcXKXPXPXPXPXPXKXKXKXKXPXPXPXPXPXPXPX",
"KXKXKXKXKXKXKXKXKXKXKXPXPXPXPXPXAXPXPXPXKXZXbX-X&XN.9.x.y.y.p.@.%.+.e.q.8.7.l.z.m.M.M.m.m.|.dXPXPXPXPXPXPXKXKXKXKXPXPXPXPXPXPXPX",
"KXKXKXKXKXKXKXKXKXKXKXPXPXPXPXPXKXKXPXAXGXbXaX.Xc.0.;.&.x.x.9.O.+.+.+.&.1.7.7.w.x.x.l.l.l.N.dXKXPXPXPXPXPXKXKXKXPXPXPXPXPXPXPXPX",
"KXKXKXKXKXKXKXKXKXKXKXPXPXPXPXPXGXKXPXPXbXpX.Xk.0.6.q.8.&.=.=.*.*.0.>.>.2.<.7.7.q.q.q.q.e.N.dXKXPXPXPXPXPXKXKXKXPXPXPXPXPXPXPXPX",
"KXKXKXKXKXKXKXKXKXKXKXPXPXPXPXPXGXSXGXbXdX Xe.0.w.w.x.x.c.w.0.4.+.;.3.2.,.<.2.2.2.1.<.6.9. XcXGXPXPXPXPXPXKXKXKXPXPXPXPXPXPXPXPX",
"KXKXKXKXKXKXKXKXKXKXPXPXPXPXPXPXSXGXZXbXaXk.0.q.l.z.m.m.z.w.4.3.+.-.3.>.<.<.2.2.<.<.>.0.k.=XcXSXGXPXPXPXPXKXKXKXPXPXPXPXPXPXPXPX",
"KXKXKXKXKXKXKXKXKXKXKXPXPXPXPXPXKXKXGXcX.X9.q.7.w.z.m.m.z.z.q.0.%.%.-.>.>.>.>.3.>.6.-.$..XdXZXPXKXPXPXPXPXKXKXKXKXPXPXPXPXPXPXPX",
"KXKXKXKXKXKXKXKXKXKXKXPXPXPXPXPXKXKXGXcXn.9.6.5.q.w.w.l.l.e.w.0.j.$.O.+.=.=.-.9.9.#.$..XpXbXZXKXPXPXPXPXPXKXKXKXKXPXPXPXPXPXPXPX",
"KXKXKXKXKXKXKXKXKXKXKXPXPXPXPXPXPXMXKXdXa.-.7.2.1.1.7.5.7.2.2.0. XpXOXh.u.i.a.i.p.}.tXcXZXAXPXGXPXPXPXPXPXPXKXKXKXPXPXPXPXPXPXPX",
"KXKXKXKXKXKXKXKXKXKXKXPXPXPXPXPXPXKXGXdXb.$.6.,.<.<.,.,.<.>.6.9.*XbXvXvXfX%X*X*XdXfXZXPXAXPXKXPXPXPXPXPXPXKXKXKXKXPXPXPXPXPXPXPX",
"KXKXKXKXKXKXKXKXKXKXPXPXPXPXPXPXKXKXKXvXOX@.-.4.5.2.,.,.5.4.9.k.dXKXPXvXbXcXbXcXbXZXPXPXKXZXUXPXPXPXPXPXPXKXKXKXPXPXPXPXPXPXPXPX",
"KXKXKXKXKXKXKXKXKXKXKXPXPXPXPXPXGXGXKXZXfXh.@.+.;.>.4.>.;.9.@.%XbXAXPXPXZXZXCXZXCXKXPXAXGXPXKXPXPXPXPXPXPXKXKXKXPXPXPXPXPXPXPXPX",
"KXKXKXKXKXKXKXKXKXKXPXPXPXPXPXPXZXGXKXAXZXdX}.u.$.$.+.9.#.i.OXcXGXSXPXAXPXKXPXPXKXKXPXPXZXPXGXKXPXPXPXPXPXKXKXKXPXPXPXPXPXPXPXPX",
"KXKXKXKXKXKXKXKXKXKXPXPXPXPXPXPXGXCXKXPXPXZXfX%Xh.$.$.$.b..XdXPXGXKXPXPXPXGXZXZXKXKXZXZXZXKXKXAXPXPXPXPXPXKXKXKXPXPXPXPXPXPXPXPX"
};
